<svg width="983" height="715" viewBox="0 0 983 715" fill="none" xmlns="http://www.w3.org/2000/svg">
<mask id="mask0_1359_9383" style="mask-type:alpha" maskUnits="userSpaceOnUse" x="75" y="90" width="817" height="535">
<path d="M81.24 176L91.8 176L91.8 154.88C91.8 144.32 86.16 144.32 86.16 134C86.16 123.44 91.8 123.44 91.8 113.12L91.8 92L81.24 92L81.24 113.12C81.24 123.44 75.6 123.44 75.6 134C75.6 144.32 81.24 144.32 81.24 154.88L81.24 176ZM124.744 102.44L145.864 102.44L145.864 92L114.184 92L114.184 99.56L114.184 113.12C114.184 123.44 108.544 123.44 108.544 134C108.544 144.32 114.184 144.32 114.184 154.88L114.184 166.16L114.184 176L124.744 176L124.744 154.88C124.744 144.32 119.104 144.32 119.104 134C119.104 128.72 120.544 126.08 121.984 123.44L132.424 123.44C133.864 120.8 135.184 118.28 135.184 113.12L135.184 112.88L124.744 112.88L124.744 102.44ZM230.425 92L219.865 92L219.865 107.6C219.865 110.6 217.465 112.88 214.585 112.88C211.705 112.88 209.305 110.6 209.305 107.6L209.305 92L198.745 92L198.745 107.6C198.745 116.48 201.625 119.6 207.025 122.6C205.465 125.48 203.665 128.12 203.665 134C203.665 144.32 209.305 144.32 209.305 154.88L209.305 176L219.865 176L219.865 154.88C219.865 144.32 214.225 144.32 214.225 134C214.225 128.12 215.905 125.48 217.585 122.6C222.625 121.16 227.785 117.56 229.465 113.12C230.065 111.44 230.425 109.52 230.425 107.6L230.425 92ZM274.099 92C272.419 91.4 270.619 91.04 268.819 91.04C266.899 91.04 265.219 91.4 263.539 92C257.299 94.16 252.979 100.04 252.979 106.88L252.979 108.08C252.979 108.56 252.979 110.12 252.979 110.84L252.979 113.12C252.979 123.44 247.219 123.44 247.219 134C247.219 144.32 252.979 144.32 252.979 154.88L252.979 161C252.979 167.96 257.299 173.84 263.539 176C265.219 176.6 266.899 176.84 268.819 176.84C270.619 176.84 272.419 176.6 274.099 176C280.219 173.84 284.659 167.96 284.659 161L284.659 154.88C284.659 144.32 279.019 144.32 279.019 134C279.019 123.44 284.659 123.44 284.659 113.12L284.659 110.84C284.659 110.24 284.659 108.92 284.659 108.44L284.659 106.88C284.659 100.04 280.219 94.16 274.099 92ZM274.099 108.44C274.099 108.92 274.099 110.24 274.099 110.84L274.099 113.12C274.099 123.44 268.459 123.44 268.459 134C268.459 144.32 274.099 144.32 274.099 154.88L274.099 161C274.099 164 271.699 166.28 268.819 166.28C265.819 166.28 263.539 164 263.539 161L263.539 154.88C263.539 144.32 257.779 144.32 257.779 134C257.779 123.44 263.539 123.44 263.539 113.12L263.539 110.84C263.539 110.24 263.539 108.92 263.539 108.44L263.539 106.88C263.539 104 265.819 101.6 268.819 101.6C271.699 101.6 274.099 104 274.099 106.88L274.099 108.44ZM338.811 92L328.251 92L328.251 113.12C328.251 123.44 322.611 123.44 322.611 134C322.611 144.44 328.251 144.44 328.251 154.88L328.251 161.12C328.251 164 325.971 166.4 322.971 166.4C320.091 166.4 317.691 164 317.691 161.12L317.691 154.88C317.691 144.44 312.051 144.44 312.051 134C312.051 123.44 317.691 123.44 317.691 113.12L317.691 92L307.131 92L307.131 113.12C307.131 123.44 301.491 123.44 301.491 134C301.491 144.44 307.131 144.44 307.131 154.88L307.131 161.12C307.131 167.96 311.571 173.84 317.691 176C319.371 176.6 321.171 176.96 322.971 176.96C324.891 176.96 326.571 176.6 328.251 176C334.491 173.84 338.811 167.96 338.811 161.12L338.811 154.88C338.811 144.44 333.171 144.44 333.171 134C333.171 123.44 338.811 123.44 338.811 113.12L338.811 92ZM426.612 92L416.052 92L416.052 113.12C416.052 123.56 410.412 123.56 410.412 134C410.412 143.72 415.212 144.44 415.932 152.72C415.932 152.6 415.812 152.36 415.692 152.24C415.452 151.76 415.212 151.4 414.972 150.92L414.012 149.6C413.772 149.12 413.412 148.64 413.052 148.16C412.572 147.8 412.212 147.32 411.852 146.96C411.372 146.48 411.012 146.12 410.532 145.76C410.172 145.4 409.692 145.16 409.332 144.92L407.172 143.48C405.972 142.76 405.132 142.28 405.132 142.28L405.492 144.44C405.612 145.04 405.732 145.88 405.852 146.6L405.852 147.8C405.972 148.28 405.972 148.64 405.972 149C405.972 149.48 405.852 149.84 405.852 150.2C405.852 150.56 405.732 150.92 405.732 151.28C405.612 151.64 405.492 151.88 405.492 152.24C405.372 152.36 405.372 152.36 405.372 152.48C404.532 144.44 399.852 143.6 399.852 134C399.852 123.56 405.492 123.56 405.492 113.12L405.492 92L394.932 92L394.932 113.12C394.932 123.56 389.292 123.56 389.292 134C389.292 144.56 394.932 144.56 394.932 154.88C394.932 155.72 394.932 156.56 394.932 157.52L394.932 168.32L394.932 176L405.252 176L410.772 164.96L416.412 176L426.612 176L426.612 169.76C426.612 169.76 426.612 165.32 426.612 156.2L426.612 154.88C426.612 144.56 420.972 144.56 420.972 134C420.972 123.56 426.612 123.56 426.612 113.12L426.612 92ZM480.887 106.88C480.887 100.04 476.447 94.16 470.327 92C468.647 91.4 466.847 91.04 464.927 91.04C463.127 91.04 461.327 91.4 459.647 92C453.527 94.16 449.087 100.04 449.087 106.88L449.087 113C449.087 123.32 443.447 123.32 443.447 133.88C443.447 144.32 449.087 144.32 449.087 154.88L449.087 172.28L449.087 176L459.647 176L459.647 155L470.327 155L470.327 176L480.887 176L480.887 154.88C480.887 144.32 475.127 144.32 475.127 133.88C475.127 123.32 480.887 123.32 480.887 113L480.887 106.88ZM470.327 113C470.327 123.32 464.567 123.32 464.567 133.88C464.567 139.28 466.127 141.8 467.567 144.56L457.007 144.56C455.567 141.8 454.007 139.28 454.007 133.88C454.007 123.32 459.647 123.32 459.647 113L459.647 107.72C459.647 104.84 462.047 102.44 464.927 102.44C467.927 102.44 470.327 104.84 470.327 107.72L470.327 113ZM535.039 92L524.479 92L524.479 113.12L513.919 92L503.359 92L503.359 113.12C503.359 123.44 497.719 123.44 497.719 134C497.719 144.32 503.359 144.32 503.359 154.88L503.359 176L513.919 176L513.919 154.88C513.919 144.32 508.159 144.32 508.159 134C508.159 124.28 513.079 123.56 513.799 115.28C517.159 122.48 512.239 125.48 518.839 136.28C519.679 144.44 524.479 145.16 524.479 154.88L524.479 176L535.039 176L535.039 154.88C535.039 144.32 529.279 144.32 529.279 134C529.279 123.44 535.039 123.44 535.039 113.12L535.039 92ZM584.753 102.56L584.753 92L553.073 92L553.073 102.56L563.633 102.56L563.633 113.12C563.633 123.44 557.993 123.44 557.993 134C557.993 144.32 563.633 144.32 563.633 154.88L563.633 176L574.193 176L574.193 154.88C574.193 144.32 568.553 144.32 568.553 134C568.553 123.44 574.193 123.44 574.193 113.12L574.193 102.56L584.753 102.56ZM668.688 102.56L668.688 92L637.008 92L637.008 102.56L647.568 102.56L647.568 113.12C647.568 123.44 641.928 123.44 641.928 134C641.928 144.32 647.568 144.32 647.568 154.88L647.568 176L658.128 176L658.128 154.88C658.128 144.32 652.488 144.32 652.488 134C652.488 123.44 658.128 123.44 658.128 113.12L658.128 102.56L668.688 102.56ZM712.975 92C711.295 91.4 709.495 91.04 707.695 91.04C705.775 91.04 704.095 91.4 702.415 92C696.175 94.16 691.855 100.04 691.855 106.88L691.855 108.08C691.855 108.56 691.855 110.12 691.855 110.84L691.855 113.12C691.855 123.44 686.095 123.44 686.095 134C686.095 144.32 691.855 144.32 691.855 154.88L691.855 161C691.855 167.96 696.175 173.84 702.415 176C704.095 176.6 705.775 176.84 707.695 176.84C709.495 176.84 711.295 176.6 712.975 176C719.095 173.84 723.535 167.96 723.535 161L723.535 154.88C723.535 144.32 717.895 144.32 717.895 134C717.895 123.44 723.535 123.44 723.535 113.12L723.535 110.84C723.535 110.24 723.535 108.92 723.535 108.44L723.535 106.88C723.535 100.04 719.095 94.16 712.975 92ZM712.975 108.44C712.975 108.92 712.975 110.24 712.975 110.84L712.975 113.12C712.975 123.44 707.335 123.44 707.335 134C707.335 144.32 712.975 144.32 712.975 154.88L712.975 161C712.975 164 710.575 166.28 707.695 166.28C704.695 166.28 702.415 164 702.415 161L702.415 154.88C702.415 144.32 696.655 144.32 696.655 134C696.655 123.44 702.415 123.44 702.415 113.12L702.415 110.84C702.415 110.24 702.415 108.92 702.415 108.44L702.415 106.88C702.415 104 704.695 101.6 707.695 101.6C710.575 101.6 712.975 104 712.975 106.88L712.975 108.44ZM800.774 111.92L811.334 111.92L811.334 106.88C811.334 99.92 807.014 94.04 800.774 91.88C799.214 91.28 797.414 90.92 795.494 90.92C793.694 90.92 791.894 91.28 790.214 91.88C784.094 94.04 779.654 99.92 779.654 106.88L779.654 113.84C779.654 124.16 774.014 124.16 774.014 134.72C774.014 145.16 779.654 145.16 779.654 155.6L779.654 158.84L779.654 160.88C779.654 167.84 784.094 173.72 790.214 175.88C791.894 176.48 793.694 176.84 795.494 176.84C797.414 176.84 799.214 176.48 800.774 175.88C807.014 173.72 811.334 167.84 811.334 160.88L811.334 156.68L811.334 155.6C811.334 145.16 805.694 145.16 805.694 134.72C805.694 128.84 807.494 126.32 809.054 123.32L794.894 123.32C793.454 126.08 791.774 128.6 791.654 133.88L795.134 133.88L795.134 134.72C795.134 145.16 800.774 145.16 800.774 155.6L800.774 160.88C800.774 163.88 798.494 166.16 795.494 166.16C792.614 166.16 790.214 163.88 790.214 160.88L790.214 155.6C790.214 145.16 784.574 145.16 784.574 134.72C784.574 124.16 790.214 124.16 790.214 113.84L790.214 106.88C790.214 103.88 792.614 101.6 795.494 101.6C798.494 101.6 800.774 103.88 800.774 106.88L800.774 111.92ZM855.049 92C853.369 91.4 851.569 91.04 849.769 91.04C847.849 91.04 846.169 91.4 844.489 92C838.249 94.16 833.929 100.04 833.929 106.88L833.929 108.08C833.929 108.56 833.929 110.12 833.929 110.84L833.929 113.12C833.929 123.44 828.169 123.44 828.169 134C828.169 144.32 833.929 144.32 833.929 154.88L833.929 161C833.929 167.96 838.249 173.84 844.489 176C846.169 176.6 847.849 176.84 849.769 176.84C851.569 176.84 853.369 176.6 855.049 176C861.169 173.84 865.609 167.96 865.609 161L865.609 154.88C865.609 144.32 859.969 144.32 859.969 134C859.969 123.44 865.609 123.44 865.609 113.12L865.609 110.84C865.609 110.24 865.609 108.92 865.609 108.44L865.609 106.88C865.609 100.04 861.169 94.16 855.049 92ZM855.049 108.44C855.049 108.92 855.049 110.24 855.049 110.84L855.049 113.12C855.049 123.44 849.409 123.44 849.409 134C849.409 144.32 855.049 144.32 855.049 154.88L855.049 161C855.049 164 852.649 166.28 849.769 166.28C846.769 166.28 844.489 164 844.489 161L844.489 154.88C844.489 144.32 838.729 144.32 838.729 134C838.729 123.44 844.489 123.44 844.489 113.12L844.489 110.84C844.489 110.24 844.489 108.92 844.489 108.44L844.489 106.88C844.489 104 846.769 101.6 849.769 101.6C852.649 101.6 855.049 104 855.049 106.88L855.049 108.44ZM91.8 246.44L112.92 246.44L112.92 236L81.24 236L81.24 243.56L81.24 257.12C81.24 267.44 75.6 267.44 75.6 278C75.6 288.32 81.24 288.32 81.24 298.88L81.24 310.16L81.24 320L91.8 320L91.8 298.88C91.8 288.32 86.16 288.32 86.16 278C86.16 272.72 87.6 270.08 89.04 267.44L99.48 267.44C100.92 264.8 102.24 262.28 102.24 257.12L102.24 256.88L91.8 256.88L91.8 246.44ZM167.195 250.88C167.195 244.04 162.755 238.16 156.635 236C154.955 235.4 153.155 235.04 151.235 235.04C149.435 235.04 147.635 235.4 145.955 236C139.835 238.16 135.395 244.04 135.395 250.88L135.395 257C135.395 267.32 129.755 267.32 129.755 277.88C129.755 288.32 135.395 288.32 135.395 298.88L135.395 316.28L135.395 320L145.955 320L145.955 299L156.635 299L156.635 320L167.195 320L167.195 298.88C167.195 288.32 161.435 288.32 161.435 277.88C161.435 267.32 167.195 267.32 167.195 257L167.195 250.88ZM156.635 257C156.635 267.32 150.875 267.32 150.875 277.88C150.875 283.28 152.435 285.8 153.875 288.56L143.315 288.56C141.875 285.8 140.315 283.28 140.315 277.88C140.315 267.32 145.955 267.32 145.955 257L145.955 251.72C145.955 248.84 148.355 246.44 151.235 246.44C154.235 246.44 156.635 248.84 156.635 251.72L156.635 257ZM207.187 256.28L217.747 256.28L217.747 250.88C217.747 249.08 217.387 247.28 216.787 245.6C214.627 239.48 208.867 235.16 202.027 235.04L201.907 235.04C199.987 235.04 198.187 235.4 196.627 236C190.507 238.16 186.067 244.04 186.067 250.88L186.067 257.24C186.067 260 185.587 262.04 184.987 263.72C184.267 265.52 183.907 267.2 184.147 269C184.507 270.44 185.107 272.48 189.427 278C195.307 285.8 205.867 290.84 206.707 294.2C206.947 295.4 207.187 297.08 207.187 298.88L207.187 305C207.187 308 204.787 310.28 201.907 310.28C198.907 310.28 196.627 308 196.627 305L196.627 299.96L186.067 299.96L186.067 305C186.067 311.96 190.387 317.84 196.627 320C198.187 320.6 199.987 320.84 201.907 320.84L202.027 320.84C208.867 320.84 214.627 316.4 216.787 310.28C217.387 308.72 217.747 306.92 217.747 305L217.747 301.04L217.747 298.88C217.747 292.4 215.587 289.04 212.107 286.28C199.627 276.68 198.307 273.56 196.147 269.84C194.107 266.36 195.547 264.44 196.147 261.68C196.387 260.36 196.627 258.92 196.627 257.12L196.627 257L196.627 250.88C196.627 248 198.907 245.6 201.907 245.6C204.787 245.6 207.187 248 207.187 250.88L207.187 256.28ZM267.428 246.56L267.428 236L235.748 236L235.748 246.56L246.308 246.56L246.308 257.12C246.308 267.44 240.668 267.44 240.668 278C240.668 288.32 246.308 288.32 246.308 298.88L246.308 320L256.868 320L256.868 298.88C256.868 288.32 251.228 288.32 251.228 278C251.228 267.44 256.868 267.44 256.868 257.12L256.868 246.56L267.428 246.56ZM301.876 308.96L291.316 308.96L291.316 320C291.316 322.88 289.036 325.28 285.436 325.28L285.436 336.44C287.836 336.44 289.636 335.84 291.316 335.24C297.796 332.96 301.876 327.08 301.876 320L301.876 308.96ZM380.882 255.92L391.442 255.92L391.442 250.88C391.442 243.92 387.122 238.04 380.882 235.88C379.322 235.28 377.522 234.92 375.602 234.92C373.802 234.92 372.002 235.28 370.322 235.88C364.202 238.04 359.762 243.92 359.762 250.88L359.762 257.84C359.762 268.16 354.122 268.16 354.122 278.72C354.122 289.16 359.762 289.16 359.762 299.6L359.762 302.84L359.762 304.88C359.762 311.84 364.202 317.72 370.322 319.88C372.002 320.48 373.802 320.84 375.602 320.84C377.522 320.84 379.322 320.48 380.882 319.88C387.122 317.72 391.442 311.84 391.442 304.88L391.442 300.68L391.442 299.6C391.442 289.16 385.802 289.16 385.802 278.72C385.802 272.84 387.602 270.32 389.162 267.32L375.002 267.32C373.562 270.08 371.882 272.6 371.762 277.88L375.242 277.88L375.242 278.72C375.242 289.16 380.882 289.16 380.882 299.6L380.882 304.88C380.882 307.88 378.602 310.16 375.602 310.16C372.722 310.16 370.322 307.88 370.322 304.88L370.322 299.6C370.322 289.16 364.682 289.16 364.682 278.72C364.682 268.16 370.322 268.16 370.322 257.84L370.322 250.88C370.322 247.88 372.722 245.6 375.602 245.6C378.602 245.6 380.882 247.88 380.882 250.88L380.882 255.92ZM435.157 236C433.477 235.4 431.677 235.04 429.877 235.04C427.957 235.04 426.277 235.4 424.597 236C418.357 238.16 414.037 244.04 414.037 250.88L414.037 252.08C414.037 252.56 414.037 254.12 414.037 254.84L414.037 257.12C414.037 267.44 408.277 267.44 408.277 278C408.277 288.32 414.037 288.32 414.037 298.88L414.037 305C414.037 311.96 418.357 317.84 424.597 320C426.277 320.6 427.957 320.84 429.877 320.84C431.677 320.84 433.477 320.6 435.157 320C441.277 317.84 445.717 311.96 445.717 305L445.717 298.88C445.717 288.32 440.077 288.32 440.077 278C440.077 267.44 445.717 267.44 445.717 257.12L445.717 254.84C445.717 254.24 445.717 252.92 445.717 252.44L445.717 250.88C445.717 244.04 441.277 238.16 435.157 236ZM435.157 252.44C435.157 252.92 435.157 254.24 435.157 254.84L435.157 257.12C435.157 267.44 429.517 267.44 429.517 278C429.517 288.32 435.157 288.32 435.157 298.88L435.157 305C435.157 308 432.757 310.28 429.877 310.28C426.877 310.28 424.597 308 424.597 305L424.597 298.88C424.597 288.32 418.837 288.32 418.837 278C418.837 267.44 424.597 267.44 424.597 257.12L424.597 254.84C424.597 254.24 424.597 252.92 424.597 252.44L424.597 250.88C424.597 248 426.877 245.6 429.877 245.6C432.757 245.6 435.157 248 435.157 250.88L435.157 252.44ZM533.635 250.88C533.635 244.04 529.195 238.16 523.075 236C521.395 235.4 519.595 235.04 517.675 235.04C515.875 235.04 514.075 235.4 512.395 236C506.275 238.16 501.835 244.04 501.835 250.88L501.835 257C501.835 267.32 496.195 267.32 496.195 277.88C496.195 288.32 501.835 288.32 501.835 298.88L501.835 316.28L501.835 320L512.395 320L512.395 299L523.075 299L523.075 320L533.635 320L533.635 298.88C533.635 288.32 527.875 288.32 527.875 277.88C527.875 267.32 533.635 267.32 533.635 257L533.635 250.88ZM523.075 257C523.075 267.32 517.315 267.32 517.315 277.88C517.315 283.28 518.875 285.8 520.315 288.56L509.755 288.56C508.315 285.8 506.755 283.28 506.755 277.88C506.755 267.32 512.395 267.32 512.395 257L512.395 251.72C512.395 248.84 514.795 246.44 517.675 246.44C520.675 246.44 523.075 248.84 523.075 251.72L523.075 257ZM587.787 309.44L566.667 309.44L566.667 298.88C566.667 288.32 561.027 288.32 561.027 278C561.027 267.44 566.667 267.44 566.667 257.12L566.667 236L556.107 236L556.107 257.12C556.107 267.44 550.467 267.44 550.467 278C550.467 288.32 556.107 288.32 556.107 298.88L556.107 320L587.787 320L587.787 309.44ZM631.502 236C629.822 235.4 628.022 235.04 626.222 235.04C624.302 235.04 622.622 235.4 620.942 236C614.702 238.16 610.382 244.04 610.382 250.88L610.382 252.08C610.382 252.56 610.382 254.12 610.382 254.84L610.382 257.12C610.382 267.44 604.622 267.44 604.622 278C604.622 288.32 610.382 288.32 610.382 298.88L610.382 305C610.382 311.96 614.702 317.84 620.942 320C622.622 320.6 624.302 320.84 626.222 320.84C628.022 320.84 629.822 320.6 631.502 320C637.622 317.84 642.062 311.96 642.062 305L642.062 298.88C642.062 288.32 636.422 288.32 636.422 278C636.422 267.44 642.062 267.44 642.062 257.12L642.062 254.84C642.062 254.24 642.062 252.92 642.062 252.44L642.062 250.88C642.062 244.04 637.622 238.16 631.502 236ZM631.502 252.44C631.502 252.92 631.502 254.24 631.502 254.84L631.502 257.12C631.502 267.44 625.862 267.44 625.862 278C625.862 288.32 631.502 288.32 631.502 298.88L631.502 305C631.502 308 629.102 310.28 626.222 310.28C623.222 310.28 620.942 308 620.942 305L620.942 298.88C620.942 288.32 615.182 288.32 615.182 278C615.182 267.44 620.942 267.44 620.942 257.12L620.942 254.84C620.942 254.24 620.942 252.92 620.942 252.44L620.942 250.88C620.942 248 623.222 245.6 626.222 245.6C629.102 245.6 631.502 248 631.502 250.88L631.502 252.44ZM696.214 236L685.654 236L685.654 257.12L675.094 236L664.534 236L664.534 257.12C664.534 267.44 658.894 267.44 658.894 278C658.894 288.32 664.534 288.32 664.534 298.88L664.534 320L675.094 320L675.094 298.88C675.094 288.32 669.334 288.32 669.334 278C669.334 268.28 674.254 267.56 674.974 259.28C678.334 266.48 673.414 269.48 680.014 280.28C680.854 288.44 685.654 289.16 685.654 298.88L685.654 320L696.214 320L696.214 298.88C696.214 288.32 690.454 288.32 690.454 278C690.454 267.44 696.214 267.44 696.214 257.12L696.214 236ZM729.248 246.56L750.368 246.56L750.368 236L718.688 236L718.688 243.68L718.688 257.12C718.688 267.44 713.048 267.44 713.048 278C713.048 288.32 718.688 288.32 718.688 298.88L718.688 310.16L718.688 320L750.368 320L750.368 309.44L729.248 309.44L729.248 298.88C729.248 288.32 723.608 288.32 723.608 278C723.608 272.72 724.928 270.08 726.368 267.44L736.928 267.44C738.248 264.92 739.688 262.28 739.688 257.12L739.688 257L729.248 257L729.248 246.56ZM783.163 309.44L772.603 309.44L772.603 320L783.163 320L783.163 309.44ZM81.24 464L91.8 464L91.8 442.88C91.8 432.32 86.16 432.32 86.16 422C86.16 411.44 91.8 411.44 91.8 401.12L91.8 380L81.24 380L81.24 401.12C81.24 411.44 75.6 411.44 75.6 422C75.6 432.32 81.24 432.32 81.24 442.88L81.24 464ZM124.744 390.44L145.864 390.44L145.864 380L114.184 380L114.184 387.56L114.184 401.12C114.184 411.44 108.544 411.44 108.544 422C108.544 432.32 114.184 432.32 114.184 442.88L114.184 454.16L114.184 464L124.744 464L124.744 442.88C124.744 432.32 119.104 432.32 119.104 422C119.104 416.72 120.544 414.08 121.984 411.44L132.424 411.44C133.864 408.8 135.184 406.28 135.184 401.12L135.184 400.88L124.744 400.88L124.744 390.44ZM230.425 380L219.865 380L219.865 395.6C219.865 398.6 217.465 400.88 214.585 400.88C211.705 400.88 209.305 398.6 209.305 395.6L209.305 380L198.745 380L198.745 395.6C198.745 404.48 201.625 407.6 207.025 410.6C205.465 413.48 203.665 416.12 203.665 422C203.665 432.32 209.305 432.32 209.305 442.88L209.305 464L219.865 464L219.865 442.88C219.865 432.32 214.225 432.32 214.225 422C214.225 416.12 215.905 413.48 217.585 410.6C222.625 409.16 227.785 405.56 229.465 401.12C230.065 399.44 230.425 397.52 230.425 395.6L230.425 380ZM274.099 380C272.419 379.4 270.619 379.04 268.819 379.04C266.899 379.04 265.219 379.4 263.539 380C257.299 382.16 252.979 388.04 252.979 394.88L252.979 396.08C252.979 396.56 252.979 398.12 252.979 398.84L252.979 401.12C252.979 411.44 247.219 411.44 247.219 422C247.219 432.32 252.979 432.32 252.979 442.88L252.979 449C252.979 455.96 257.299 461.84 263.539 464C265.219 464.6 266.899 464.84 268.819 464.84C270.619 464.84 272.419 464.6 274.099 464C280.219 461.84 284.659 455.96 284.659 449L284.659 442.88C284.659 432.32 279.019 432.32 279.019 422C279.019 411.44 284.659 411.44 284.659 401.12L284.659 398.84C284.659 398.24 284.659 396.92 284.659 396.44L284.659 394.88C284.659 388.04 280.219 382.16 274.099 380ZM274.099 396.44C274.099 396.92 274.099 398.24 274.099 398.84L274.099 401.12C274.099 411.44 268.459 411.44 268.459 422C268.459 432.32 274.099 432.32 274.099 442.88L274.099 449C274.099 452 271.699 454.28 268.819 454.28C265.819 454.28 263.539 452 263.539 449L263.539 442.88C263.539 432.32 257.779 432.32 257.779 422C257.779 411.44 263.539 411.44 263.539 401.12L263.539 398.84C263.539 398.24 263.539 396.92 263.539 396.44L263.539 394.88C263.539 392 265.819 389.6 268.819 389.6C271.699 389.6 274.099 392 274.099 394.88L274.099 396.44ZM338.811 380L328.251 380L328.251 401.12C328.251 411.44 322.611 411.44 322.611 422C322.611 432.44 328.251 432.44 328.251 442.88L328.251 449.12C328.251 452 325.971 454.4 322.971 454.4C320.091 454.4 317.691 452 317.691 449.12L317.691 442.88C317.691 432.44 312.051 432.44 312.051 422C312.051 411.44 317.691 411.44 317.691 401.12L317.691 380L307.131 380L307.131 401.12C307.131 411.44 301.491 411.44 301.491 422C301.491 432.44 307.131 432.44 307.131 442.88L307.131 449.12C307.131 455.96 311.571 461.84 317.691 464C319.371 464.6 321.171 464.96 322.971 464.96C324.891 464.96 326.571 464.6 328.251 464C334.491 461.84 338.811 455.96 338.811 449.12L338.811 442.88C338.811 432.44 333.171 432.44 333.171 422C333.171 411.44 338.811 411.44 338.811 401.12L338.811 380ZM426.612 380L416.052 380L416.052 401.12C416.052 411.56 410.412 411.56 410.412 422C410.412 431.72 415.212 432.44 415.932 440.72C415.932 440.6 415.812 440.36 415.692 440.24C415.452 439.76 415.212 439.4 414.972 438.92L414.012 437.6C413.772 437.12 413.412 436.64 413.052 436.16C412.572 435.8 412.212 435.32 411.852 434.96C411.372 434.48 411.012 434.12 410.532 433.76C410.172 433.4 409.692 433.16 409.332 432.92L407.172 431.48C405.972 430.76 405.132 430.28 405.132 430.28L405.492 432.44C405.612 433.04 405.732 433.88 405.852 434.6L405.852 435.8C405.972 436.28 405.972 436.64 405.972 437C405.972 437.48 405.852 437.84 405.852 438.2C405.852 438.56 405.732 438.92 405.732 439.28C405.612 439.64 405.492 439.88 405.492 440.24C405.372 440.36 405.372 440.36 405.372 440.48C404.532 432.44 399.852 431.6 399.852 422C399.852 411.56 405.492 411.56 405.492 401.12L405.492 380L394.932 380L394.932 401.12C394.932 411.56 389.292 411.56 389.292 422C389.292 432.56 394.932 432.56 394.932 442.88C394.932 443.72 394.932 444.56 394.932 445.52L394.932 456.32L394.932 464L405.252 464L410.772 452.96L416.412 464L426.612 464L426.612 457.76C426.612 457.76 426.612 453.32 426.612 444.2L426.612 442.88C426.612 432.56 420.972 432.56 420.972 422C420.972 411.56 426.612 411.56 426.612 401.12L426.612 380ZM480.887 394.88C480.887 388.04 476.447 382.16 470.327 380C468.647 379.4 466.847 379.04 464.927 379.04C463.127 379.04 461.327 379.4 459.647 380C453.527 382.16 449.087 388.04 449.087 394.88L449.087 401C449.087 411.32 443.447 411.32 443.447 421.88C443.447 432.32 449.087 432.32 449.087 442.88L449.087 460.28L449.087 464L459.647 464L459.647 443L470.327 443L470.327 464L480.887 464L480.887 442.88C480.887 432.32 475.127 432.32 475.127 421.88C475.127 411.32 480.887 411.32 480.887 401L480.887 394.88ZM470.327 401C470.327 411.32 464.567 411.32 464.567 421.88C464.567 427.28 466.127 429.8 467.567 432.56L457.007 432.56C455.567 429.8 454.007 427.28 454.007 421.88C454.007 411.32 459.647 411.32 459.647 401L459.647 395.72C459.647 392.84 462.047 390.44 464.927 390.44C467.927 390.44 470.327 392.84 470.327 395.72L470.327 401ZM535.039 380L524.479 380L524.479 401.12L513.919 380L503.359 380L503.359 401.12C503.359 411.44 497.719 411.44 497.719 422C497.719 432.32 503.359 432.32 503.359 442.88L503.359 464L513.919 464L513.919 442.88C513.919 432.32 508.159 432.32 508.159 422C508.159 412.28 513.079 411.56 513.799 403.28C517.159 410.48 512.239 413.48 518.839 424.28C519.679 432.44 524.479 433.16 524.479 442.88L524.479 464L535.039 464L535.039 442.88C535.039 432.32 529.279 432.32 529.279 422C529.279 411.44 535.039 411.44 535.039 401.12L535.039 380ZM584.753 390.56L584.753 380L553.073 380L553.073 390.56L563.633 390.56L563.633 401.12C563.633 411.44 557.993 411.44 557.993 422C557.993 432.32 563.633 432.32 563.633 442.88L563.633 464L574.193 464L574.193 442.88C574.193 432.32 568.553 432.32 568.553 422C568.553 411.44 574.193 411.44 574.193 401.12L574.193 390.56L584.753 390.56ZM668.688 390.56L668.688 380L637.008 380L637.008 390.56L647.568 390.56L647.568 401.12C647.568 411.44 641.928 411.44 641.928 422C641.928 432.32 647.568 432.32 647.568 442.88L647.568 464L658.128 464L658.128 442.88C658.128 432.32 652.488 432.32 652.488 422C652.488 411.44 658.128 411.44 658.128 401.12L658.128 390.56L668.688 390.56ZM712.975 380C711.295 379.4 709.495 379.04 707.695 379.04C705.775 379.04 704.095 379.4 702.415 380C696.175 382.16 691.855 388.04 691.855 394.88L691.855 396.08C691.855 396.56 691.855 398.12 691.855 398.84L691.855 401.12C691.855 411.44 686.095 411.44 686.095 422C686.095 432.32 691.855 432.32 691.855 442.88L691.855 449C691.855 455.96 696.175 461.84 702.415 464C704.095 464.6 705.775 464.84 707.695 464.84C709.495 464.84 711.295 464.6 712.975 464C719.095 461.84 723.535 455.96 723.535 449L723.535 442.88C723.535 432.32 717.895 432.32 717.895 422C717.895 411.44 723.535 411.44 723.535 401.12L723.535 398.84C723.535 398.24 723.535 396.92 723.535 396.44L723.535 394.88C723.535 388.04 719.095 382.16 712.975 380ZM712.975 396.44C712.975 396.92 712.975 398.24 712.975 398.84L712.975 401.12C712.975 411.44 707.335 411.44 707.335 422C707.335 432.32 712.975 432.32 712.975 442.88L712.975 449C712.975 452 710.575 454.28 707.695 454.28C704.695 454.28 702.415 452 702.415 449L702.415 442.88C702.415 432.32 696.655 432.32 696.655 422C696.655 411.44 702.415 411.44 702.415 401.12L702.415 398.84C702.415 398.24 702.415 396.92 702.415 396.44L702.415 394.88C702.415 392 704.695 389.6 707.695 389.6C710.575 389.6 712.975 392 712.975 394.88L712.975 396.44ZM800.774 399.92L811.334 399.92L811.334 394.88C811.334 387.92 807.014 382.04 800.774 379.88C799.214 379.28 797.414 378.92 795.494 378.92C793.694 378.92 791.894 379.28 790.214 379.88C784.094 382.04 779.654 387.92 779.654 394.88L779.654 401.84C779.654 412.16 774.014 412.16 774.014 422.72C774.014 433.16 779.654 433.16 779.654 443.6L779.654 446.84L779.654 448.88C779.654 455.84 784.094 461.72 790.214 463.88C791.894 464.48 793.694 464.84 795.494 464.84C797.414 464.84 799.214 464.48 800.774 463.88C807.014 461.72 811.334 455.84 811.334 448.88L811.334 444.68L811.334 443.6C811.334 433.16 805.694 433.16 805.694 422.72C805.694 416.84 807.494 414.32 809.054 411.32L794.894 411.32C793.454 414.08 791.774 416.6 791.654 421.88L795.134 421.88L795.134 422.72C795.134 433.16 800.774 433.16 800.774 443.6L800.774 448.88C800.774 451.88 798.494 454.16 795.494 454.16C792.614 454.16 790.214 451.88 790.214 448.88L790.214 443.6C790.214 433.16 784.574 433.16 784.574 422.72C784.574 412.16 790.214 412.16 790.214 401.84L790.214 394.88C790.214 391.88 792.614 389.6 795.494 389.6C798.494 389.6 800.774 391.88 800.774 394.88L800.774 399.92ZM855.049 380C853.369 379.4 851.569 379.04 849.769 379.04C847.849 379.04 846.169 379.4 844.489 380C838.249 382.16 833.929 388.04 833.929 394.88L833.929 396.08C833.929 396.56 833.929 398.12 833.929 398.84L833.929 401.12C833.929 411.44 828.169 411.44 828.169 422C828.169 432.32 833.929 432.32 833.929 442.88L833.929 449C833.929 455.96 838.249 461.84 844.489 464C846.169 464.6 847.849 464.84 849.769 464.84C851.569 464.84 853.369 464.6 855.049 464C861.169 461.84 865.609 455.96 865.609 449L865.609 442.88C865.609 432.32 859.969 432.32 859.969 422C859.969 411.44 865.609 411.44 865.609 401.12L865.609 398.84C865.609 398.24 865.609 396.92 865.609 396.44L865.609 394.88C865.609 388.04 861.169 382.16 855.049 380ZM855.049 396.44C855.049 396.92 855.049 398.24 855.049 398.84L855.049 401.12C855.049 411.44 849.409 411.44 849.409 422C849.409 432.32 855.049 432.32 855.049 442.88L855.049 449C855.049 452 852.649 454.28 849.769 454.28C846.769 454.28 844.489 452 844.489 449L844.489 442.88C844.489 432.32 838.729 432.32 838.729 422C838.729 411.44 844.489 411.44 844.489 401.12L844.489 398.84C844.489 398.24 844.489 396.92 844.489 396.44L844.489 394.88C844.489 392 846.769 389.6 849.769 389.6C852.649 389.6 855.049 392 855.049 394.88L855.049 396.44ZM91.8 534.44L112.92 534.44L112.92 524L81.24 524L81.24 531.56L81.24 545.12C81.24 555.44 75.6 555.44 75.6 566C75.6 576.32 81.24 576.32 81.24 586.88L81.24 598.16L81.24 608L91.8 608L91.8 586.88C91.8 576.32 86.16 576.32 86.16 566C86.16 560.72 87.6 558.08 89.04 555.44L99.48 555.44C100.92 552.8 102.24 550.28 102.24 545.12L102.24 544.88L91.8 544.88L91.8 534.44ZM167.195 538.88C167.195 532.04 162.755 526.16 156.635 524C154.955 523.4 153.155 523.04 151.235 523.04C149.435 523.04 147.635 523.4 145.955 524C139.835 526.16 135.395 532.04 135.395 538.88L135.395 545C135.395 555.32 129.755 555.32 129.755 565.88C129.755 576.32 135.395 576.32 135.395 586.88L135.395 604.28L135.395 608L145.955 608L145.955 587L156.635 587L156.635 608L167.195 608L167.195 586.88C167.195 576.32 161.435 576.32 161.435 565.88C161.435 555.32 167.195 555.32 167.195 545L167.195 538.88ZM156.635 545C156.635 555.32 150.875 555.32 150.875 565.88C150.875 571.28 152.435 573.8 153.875 576.56L143.315 576.56C141.875 573.8 140.315 571.28 140.315 565.88C140.315 555.32 145.955 555.32 145.955 545L145.955 539.72C145.955 536.84 148.355 534.44 151.235 534.44C154.235 534.44 156.635 536.84 156.635 539.72L156.635 545ZM210.907 524.96C209.227 524.36 207.427 524 205.627 524L189.667 524L189.667 545.12C189.667 555.44 184.027 555.44 184.027 566C184.027 576.32 189.667 576.32 189.667 586.88L189.667 608L200.227 608L200.227 597.2C200.227 595.28 200.227 593.48 200.227 591.8L200.227 586.88C200.227 576.32 194.587 576.32 194.587 566C194.587 560.72 196.027 558.08 197.347 555.44L201.667 555.44C206.107 555.44 207.067 557 206.227 559.28C205.627 560.96 205.147 563.12 205.147 566C205.147 576.32 210.787 576.32 210.787 586.88L210.787 589.64L210.787 608L221.347 608L221.347 589.64L221.347 586.88C221.347 576.32 215.707 576.32 215.707 566C215.707 563.96 215.947 562.28 216.307 560.84C217.147 556.88 218.947 553.16 216.667 550.16C218.707 548.6 221.347 545.12 221.347 540.44C221.347 540.2 221.347 539.84 221.347 539.6L221.347 539.24C221.107 532.52 216.787 527 210.907 524.96ZM200.347 544.88L200.347 534.56L205.627 534.56C208.387 534.56 210.547 536.6 210.787 539.36C210.787 539.48 210.907 539.48 210.907 539.6L210.907 539.72C210.907 539.84 210.787 539.96 210.787 540.08C210.547 542.84 208.387 544.88 205.627 544.88L200.347 544.88ZM255.221 596.96L244.661 596.96L244.661 608C244.661 610.88 242.381 613.28 238.781 613.28L238.781 624.44C241.181 624.44 242.981 623.84 244.661 623.24C251.141 620.96 255.221 615.08 255.221 608L255.221 596.96ZM334.227 543.92L344.787 543.92L344.787 538.88C344.787 531.92 340.467 526.04 334.227 523.88C332.667 523.28 330.867 522.92 328.947 522.92C327.147 522.92 325.347 523.28 323.667 523.88C317.547 526.04 313.107 531.92 313.107 538.88L313.107 545.84C313.107 556.16 307.467 556.16 307.467 566.72C307.467 577.16 313.107 577.16 313.107 587.6L313.107 590.84L313.107 592.88C313.107 599.84 317.547 605.72 323.667 607.88C325.347 608.48 327.147 608.84 328.947 608.84C330.867 608.84 332.667 608.48 334.227 607.88C340.467 605.72 344.787 599.84 344.787 592.88L344.787 588.68L344.787 587.6C344.787 577.16 339.147 577.16 339.147 566.72C339.147 560.84 340.947 558.32 342.507 555.32L328.347 555.32C326.907 558.08 325.227 560.6 325.107 565.88L328.587 565.88L328.587 566.72C328.587 577.16 334.227 577.16 334.227 587.6L334.227 592.88C334.227 595.88 331.947 598.16 328.947 598.16C326.067 598.16 323.667 595.88 323.667 592.88L323.667 587.6C323.667 577.16 318.027 577.16 318.027 566.72C318.027 556.16 323.667 556.16 323.667 545.84L323.667 538.88C323.667 535.88 326.067 533.6 328.947 533.6C331.947 533.6 334.227 535.88 334.227 538.88L334.227 543.92ZM388.502 524C386.822 523.4 385.022 523.04 383.222 523.04C381.302 523.04 379.622 523.4 377.942 524C371.702 526.16 367.382 532.04 367.382 538.88L367.382 540.08C367.382 540.56 367.382 542.12 367.382 542.84L367.382 545.12C367.382 555.44 361.622 555.44 361.622 566C361.622 576.32 367.382 576.32 367.382 586.88L367.382 593C367.382 599.96 371.702 605.84 377.942 608C379.622 608.6 381.302 608.84 383.222 608.84C385.022 608.84 386.822 608.6 388.502 608C394.622 605.84 399.062 599.96 399.062 593L399.062 586.88C399.062 576.32 393.422 576.32 393.422 566C393.422 555.44 399.062 555.44 399.062 545.12L399.062 542.84C399.062 542.24 399.062 540.92 399.062 540.44L399.062 538.88C399.062 532.04 394.622 526.16 388.502 524ZM388.502 540.44C388.502 540.92 388.502 542.24 388.502 542.84L388.502 545.12C388.502 555.44 382.862 555.44 382.862 566C382.862 576.32 388.502 576.32 388.502 586.88L388.502 593C388.502 596 386.102 598.28 383.222 598.28C380.222 598.28 377.942 596 377.942 593L377.942 586.88C377.942 576.32 372.182 576.32 372.182 566C372.182 555.44 377.942 555.44 377.942 545.12L377.942 542.84C377.942 542.24 377.942 540.92 377.942 540.44L377.942 538.88C377.942 536 380.222 533.6 383.222 533.6C386.102 533.6 388.502 536 388.502 538.88L388.502 540.44ZM482.421 534.56L482.421 524L450.741 524L450.741 534.56L461.301 534.56L461.301 545.12C461.301 555.44 455.661 555.44 455.661 566C455.661 576.32 461.301 576.32 461.301 586.88L461.301 608L471.861 608L471.861 586.88C471.861 576.32 466.221 576.32 466.221 566C466.221 555.44 471.861 555.44 471.861 545.12L471.861 534.56L482.421 534.56ZM526.708 524C525.028 523.4 523.228 523.04 521.428 523.04C519.508 523.04 517.828 523.4 516.148 524C509.908 526.16 505.588 532.04 505.588 538.88L505.588 540.08C505.588 540.56 505.588 542.12 505.588 542.84L505.588 545.12C505.588 555.44 499.828 555.44 499.828 566C499.828 576.32 505.588 576.32 505.588 586.88L505.588 593C505.588 599.96 509.908 605.84 516.148 608C517.828 608.6 519.508 608.84 521.428 608.84C523.228 608.84 525.028 608.6 526.708 608C532.828 605.84 537.268 599.96 537.268 593L537.268 586.88C537.268 576.32 531.628 576.32 531.628 566C531.628 555.44 537.268 555.44 537.268 545.12L537.268 542.84C537.268 542.24 537.268 540.92 537.268 540.44L537.268 538.88C537.268 532.04 532.828 526.16 526.708 524ZM526.708 540.44C526.708 540.92 526.708 542.24 526.708 542.84L526.708 545.12C526.708 555.44 521.068 555.44 521.068 566C521.068 576.32 526.708 576.32 526.708 586.88L526.708 593C526.708 596 524.308 598.28 521.428 598.28C518.428 598.28 516.148 596 516.148 593L516.148 586.88C516.148 576.32 510.388 576.32 510.388 566C510.388 555.44 516.148 555.44 516.148 545.12L516.148 542.84C516.148 542.24 516.148 540.92 516.148 540.44L516.148 538.88C516.148 536 518.428 533.6 521.428 533.6C524.308 533.6 526.708 536 526.708 538.88L526.708 540.44ZM580.86 543.92L591.42 543.92L591.42 538.88C591.42 531.92 587.1 526.04 580.86 523.88C579.3 523.28 577.5 522.92 575.58 522.92C573.78 522.92 571.98 523.28 570.3 523.88C564.18 526.04 559.74 531.92 559.74 538.88L559.74 545.84C559.74 556.16 554.1 556.16 554.1 566.72C554.1 577.16 559.74 577.16 559.74 587.6L559.74 590.84L559.74 592.88C559.74 599.84 564.18 605.72 570.3 607.88C571.98 608.48 573.78 608.84 575.58 608.84C577.5 608.84 579.3 608.48 580.86 607.88C587.1 605.72 591.42 599.84 591.42 592.88L591.42 588.68L591.42 587.6C591.42 577.16 585.78 577.16 585.78 566.72C585.78 560.84 587.58 558.32 589.14 555.32L574.98 555.32C573.54 558.08 571.86 560.6 571.74 565.88L575.22 565.88L575.22 566.72C575.22 577.16 580.86 577.16 580.86 587.6L580.86 592.88C580.86 595.88 578.58 598.16 575.58 598.16C572.7 598.16 570.3 595.88 570.3 592.88L570.3 587.6C570.3 577.16 564.66 577.16 564.66 566.72C564.66 556.16 570.3 556.16 570.3 545.84L570.3 538.88C570.3 535.88 572.7 533.6 575.58 533.6C578.58 533.6 580.86 535.88 580.86 538.88L580.86 543.92ZM624.455 534.56L645.575 534.56L645.575 524L613.895 524L613.895 531.68L613.895 545.12C613.895 555.44 608.255 555.44 608.255 566C608.255 576.32 613.895 576.32 613.895 586.88L613.895 598.16L613.895 608L645.575 608L645.575 597.44L624.455 597.44L624.455 586.88C624.455 576.32 618.815 576.32 618.815 566C618.815 560.72 620.135 558.08 621.575 555.44L632.135 555.44C633.455 552.92 634.895 550.28 634.895 545.12L634.895 545L624.455 545L624.455 534.56ZM695.289 534.56L695.289 524L663.609 524L663.609 534.56L674.169 534.56L674.169 545.12C674.169 555.44 668.529 555.44 668.529 566C668.529 576.32 674.169 576.32 674.169 586.88L674.169 608L684.729 608L684.729 586.88C684.729 576.32 679.089 576.32 679.089 566C679.089 555.44 684.729 555.44 684.729 545.12L684.729 534.56L695.289 534.56ZM750.017 524L739.457 524L739.457 545L728.897 545L728.897 524L718.337 524L718.337 545.12C718.337 555.44 712.697 555.44 712.697 566C712.697 576.32 718.337 576.32 718.337 586.88L718.337 608L728.897 608L728.897 586.88C728.897 576.32 723.257 576.32 723.257 566C723.257 560.72 724.697 558.08 726.137 555.44L736.697 555.44C735.257 558.08 733.817 560.72 733.817 566C733.817 576.32 739.457 576.32 739.457 586.88L739.457 608L750.017 608L750.017 586.88C750.017 576.32 744.377 576.32 744.377 566C744.377 555.44 750.017 555.44 750.017 545.12L750.017 524ZM783.052 534.56L804.172 534.56L804.172 524L772.492 524L772.492 531.68L772.492 545.12C772.492 555.44 766.852 555.44 766.852 566C766.852 576.32 772.492 576.32 772.492 586.88L772.492 598.16L772.492 608L804.172 608L804.172 597.44L783.052 597.44L783.052 586.88C783.052 576.32 777.412 576.32 777.412 566C777.412 560.72 778.732 558.08 780.172 555.44L790.732 555.44C792.052 552.92 793.492 550.28 793.492 545.12L793.492 545L783.052 545L783.052 534.56ZM847.886 524.96C846.206 524.36 844.406 524 842.606 524L826.646 524L826.646 545.12C826.646 555.44 821.006 555.44 821.006 566C821.006 576.32 826.646 576.32 826.646 586.88L826.646 608L837.206 608L837.206 597.2C837.206 595.28 837.206 593.48 837.206 591.8L837.206 586.88C837.206 576.32 831.566 576.32 831.566 566C831.566 560.72 833.006 558.08 834.326 555.44L838.646 555.44C843.086 555.44 844.046 557 843.206 559.28C842.606 560.96 842.126 563.12 842.126 566C842.126 576.32 847.766 576.32 847.766 586.88L847.766 589.64L847.766 608L858.326 608L858.326 589.64L858.326 586.88C858.326 576.32 852.686 576.32 852.686 566C852.686 563.96 852.926 562.28 853.286 560.84C854.126 556.88 855.926 553.16 853.646 550.16C855.686 548.6 858.326 545.12 858.326 540.44C858.326 540.2 858.326 539.84 858.326 539.6L858.326 539.24C858.086 532.52 853.766 527 847.886 524.96ZM837.326 544.88L837.326 534.56L842.606 534.56C845.366 534.56 847.526 536.6 847.766 539.36C847.766 539.48 847.886 539.48 847.886 539.6L847.886 539.72C847.886 539.84 847.766 539.96 847.766 540.08C847.526 542.84 845.366 544.88 842.606 544.88L837.326 544.88ZM891.121 597.44L880.561 597.44L880.561 608L891.121 608L891.121 597.44Z" fill="#E34E4E"/>
</mask>
<g mask="url(#mask0_1359_9383)">
<path d="M11.6846 -382.22H919.122V715.404H11.6846V-382.22Z" fill="#E34E4E"/>
<path d="M867.951 -54.2976C867.951 91.9537 749.391 210.514 603.139 210.514C456.888 210.514 338.328 91.9537 338.328 -54.2976C338.328 -200.549 456.888 -319.109 603.139 -319.109C749.391 -319.109 867.951 -200.549 867.951 -54.2976Z" fill="#EF495F"/>
<path d="M351.121 -127.217H653.884V33.9728H351.121V-127.217Z" fill="#E34E4E"/>
<path d="M640.238 -232.971H779.253V281.301H640.238V-232.971Z" fill="#FFA229"/>
<path d="M881.596 384.923C881.596 510.92 779.455 613.061 653.458 613.061C527.46 613.061 425.319 510.92 425.319 384.923C425.319 258.925 527.46 156.784 653.458 156.784C779.455 156.784 881.596 258.925 881.596 384.923Z" fill="#2BDFAD"/>
<path d="M480.755 408.802C480.755 511.72 397.323 595.151 294.406 595.151C191.488 595.151 108.057 511.72 108.057 408.802C108.057 305.885 191.488 222.454 294.406 222.454C397.323 222.454 480.755 305.885 480.755 408.802Z" fill="#BC86FE"/>
<path d="M425.319 -80.3096C425.319 -2.12055 361.934 61.2642 283.745 61.2642C205.556 61.2642 142.171 -2.12055 142.171 -80.3096C142.171 -158.499 205.556 -221.884 283.745 -221.884C361.934 -221.884 425.319 -158.499 425.319 -80.3096Z" fill="#2BDFAD"/>
<path d="M359.649 300.063H620.623V569.566H359.649V300.063Z" fill="#EF495F"/>
<path d="M245.367 36.5314H435.553V384.496H245.367V36.5314Z" fill="#E34E4E"/>
<path d="M62.8556 16.0629H344.298V84.2913H62.8556V16.0629Z" fill="#E34E4E"/>
<path d="M62.8556 100.496H344.298V312.856H62.8556V100.496Z" fill="#EF495F"/>
<path d="M560.07 36.5315C560.07 114.721 496.685 178.105 418.496 178.105C340.307 178.105 276.922 114.721 276.922 36.5315C276.922 -41.6576 340.307 -105.042 418.496 -105.042C496.685 -105.042 560.07 -41.6576 560.07 36.5315Z" fill="#FFA229"/>
<path d="M461.992 -20.6097H795.458V143.138H461.992V-20.6097Z" fill="#BC86FE"/>
<path d="M461.992 -169.859H795.458V-77.7511H461.992V-169.859Z" fill="#BC86FE"/>
<path d="M139.613 520.953H473.079V613.061H139.613V520.953Z" fill="#E34E4E"/>
<path d="M593.331 154.225H686.293V249.745H593.331V154.225Z" fill="#2BDFAD"/>
<path d="M177.138 317.121H270.1V412.64H177.138V317.121Z" fill="#2BDFAD"/>
<path d="M218.075 358.91H461.992V457.842H218.075V358.91Z" fill="#FFA229"/>
<path d="M461.565 -20.6097L605.961 229.49H317.17L461.565 -20.6097Z" fill="#2BDFAD"/>
<path d="M325.109 364.881L398.599 492.169H251.619L325.109 364.881Z" fill="#E34E4E"/>
<path d="M418.496 221.601C418.496 262.58 385.276 295.799 344.298 295.799C303.319 295.799 270.099 262.58 270.099 221.601C270.099 180.622 303.319 147.403 344.298 147.403C385.276 147.403 418.496 180.622 418.496 221.601Z" fill="#EF495F"/>
<path d="M363.06 -244.058H531.926V-127.217H363.06V-244.058Z" fill="#E34E4E"/>
<path d="M520.839 259.553C520.839 299.354 488.574 331.619 448.773 331.619C408.972 331.619 376.706 299.354 376.706 259.553C376.706 219.752 408.972 187.487 448.773 187.487C488.574 187.487 520.839 219.752 520.839 259.553Z" fill="#BC86FE"/>
<path d="M270.099 106.039C270.099 145.84 237.834 178.105 198.033 178.105C158.232 178.105 125.967 145.84 125.967 106.039C125.967 66.2381 158.232 33.973 198.033 33.973C237.834 33.973 270.099 66.2381 270.099 106.039Z" fill="#BC86FE"/>
<path d="M514.016 249.745H672.647V413.493H514.016V249.745Z" fill="#FFA229"/>
<path d="M676.058 281.301L800.881 497.499H551.236L676.058 281.301Z" fill="#BC86FE"/>
</g>
</svg>
