<svg width="1512" height="769" viewBox="0 0 1512 769" fill="none" xmlns="http://www.w3.org/2000/svg">
<path d="M538.719 236.687L327.52 358.623C296.584 300.819 316.927 228.484 374.119 195.464C431.312 162.444 504.127 180.994 538.719 236.687Z" fill="#ffb14b" stroke="#ffb14b" stroke-width="8" stroke-linecap="square"/>
<path d="M171.719 127.687L-39.4802 249.623C-70.4158 191.819 -50.0733 119.484 7.1192 86.4641C64.3117 53.444 137.127 71.9944 171.719 127.687Z" fill="#ffb14b" stroke="#ffb14b" stroke-width="8" stroke-linecap="square"/>
<path d="M480.719 593.687L269.52 715.623C238.584 657.819 258.927 585.484 316.119 552.464C373.312 519.444 446.127 537.994 480.719 593.687Z" fill="#ffb14b" stroke="#ffb14b" stroke-width="8" stroke-linecap="square"/>
<path d="M206.719 531.687L-4.48018 653.623C-35.4158 595.819 -15.0733 523.484 42.1192 490.464C99.3117 457.444 172.127 475.994 206.719 531.687Z" fill="#ffb14b" stroke="#ffb14b" stroke-width="8" stroke-linecap="square"/>
<path d="M1073.72 265.687L862.52 387.623C831.584 329.819 851.927 257.484 909.119 224.464C966.312 191.444 1039.13 209.994 1073.72 265.687Z" fill="#ffb14b" stroke="#ffb14b" stroke-width="8" stroke-linecap="square"/>
<path d="M1097.72 1.68726L886.52 123.623C855.584 65.8192 875.927 -6.51577 933.119 -39.5359C990.312 -72.556 1063.13 -54.0056 1097.72 1.68726Z" fill="#ffb14b" stroke="#ffb14b" stroke-width="8" stroke-linecap="square"/>
<path d="M1608.72 311.687L1397.52 433.623C1366.58 375.819 1386.93 303.484 1444.12 270.464C1501.31 237.444 1574.13 255.994 1608.72 311.687Z" fill="#ffb14b" stroke="#ffb14b" stroke-width="8" stroke-linecap="square"/>
<path d="M985.719 624.687L774.52 746.623C743.584 688.819 763.927 616.484 821.119 583.464C878.312 550.444 951.127 568.994 985.719 624.687Z" fill="#ffb14b" stroke="#ffb14b" stroke-width="8" stroke-linecap="square"/>
<path d="M518.649 374.599L520.649 378.063L524.113 376.063L586.858 339.837L590.322 337.837L588.322 334.373C577.214 315.133 552.612 308.541 533.373 319.649C514.133 330.757 507.541 355.359 518.649 374.599Z" fill="#ffb14b" stroke="#ffb14b" stroke-width="8" stroke-linecap="square"/>
<path d="M540.649 506.599L542.649 510.063L546.113 508.063L608.858 471.837L612.322 469.837L610.322 466.373C599.214 447.133 574.612 440.541 555.373 451.649C536.133 462.757 529.541 487.359 540.649 506.599Z" fill="#ffb14b" stroke="#ffb14b" stroke-width="8" stroke-linecap="square"/>
<path d="M907.649 470.599L909.649 474.063L913.113 472.063L975.858 435.837L979.322 433.837L977.322 430.373C966.214 411.133 941.612 404.541 922.373 415.649C903.133 426.757 896.541 451.359 907.649 470.599Z" fill="#ffb14b" stroke="#ffb14b" stroke-width="8" stroke-linecap="square"/>
<path d="M1229.65 660.599L1231.65 664.063L1235.11 662.063L1297.86 625.837L1301.32 623.837L1299.32 620.373C1288.21 601.133 1263.61 594.541 1244.37 605.649C1225.13 616.757 1218.54 641.359 1229.65 660.599Z" fill="#ffb14b" stroke="#ffb14b" stroke-width="8" stroke-linecap="square"/>
<path d="M171.036 275.828C172.14 277.741 174.587 278.396 176.5 277.292L282.155 216.292C284.068 215.187 284.724 212.741 283.619 210.828C265.67 179.739 225.917 169.087 194.828 187.036C163.739 204.985 153.087 244.739 171.036 275.828Z" stroke="#ffb14b" stroke-width="8" stroke-linecap="square" stroke-linejoin="round"/>
<path d="M583.036 208.828C584.14 210.741 586.587 211.396 588.5 210.292L694.155 149.292C696.068 148.187 696.724 145.741 695.619 143.828C677.67 112.739 637.917 102.087 606.828 120.036C575.739 137.985 565.087 177.739 583.036 208.828Z" stroke="#ffb14b" stroke-width="8" stroke-linecap="square" stroke-linejoin="round"/>
<path d="M685.036 407.828C686.14 409.741 688.587 410.396 690.5 409.292L796.155 348.292C798.068 347.187 798.724 344.741 797.619 342.828C779.67 311.739 739.917 301.087 708.828 319.036C677.739 336.985 667.087 376.739 685.036 407.828Z" stroke="#ffb14b" stroke-width="8" stroke-linecap="square" stroke-linejoin="round"/>
<path d="M1027.06 136.241C1028.17 138.154 1030.61 138.81 1032.53 137.705L1366.9 -55.3473C1368.82 -56.4519 1369.47 -58.8982 1368.37 -60.8114C1313.95 -155.06 1193.44 -187.352 1099.19 -132.938C1004.94 -78.5231 972.648 41.9924 1027.06 136.241Z" stroke="#ffb14b" stroke-width="8" stroke-linecap="square" stroke-linejoin="round"/>
<path d="M378.062 291.241C379.167 293.154 381.613 293.81 383.526 292.705L717.903 99.6527C719.816 98.5481 720.472 96.1018 719.367 94.1886C664.953 -0.0601864 544.437 -32.3522 450.188 22.0623C355.94 76.4769 323.648 196.992 378.062 291.241Z" stroke="#ffb14b" stroke-width="8" stroke-linecap="square" stroke-linejoin="round"/>
<path d="M-91.9378 670.241C-90.8332 672.154 -88.3869 672.81 -86.4737 671.705L247.903 478.653C249.816 477.548 250.472 475.102 249.367 473.189C194.953 378.94 74.4372 346.648 -19.8116 401.062C-114.06 455.477 -146.352 575.992 -91.9378 670.241Z" stroke="#ffb14b" stroke-width="8" stroke-linecap="square" stroke-linejoin="round"/>
<path d="M929.062 802.241C930.167 804.154 932.613 804.81 934.526 803.705L1268.9 610.653C1270.82 609.548 1271.47 607.102 1270.37 605.189C1215.95 510.94 1095.44 478.648 1001.19 533.062C906.94 587.477 874.648 707.992 929.062 802.241Z" stroke="#ffb14b" stroke-width="8" stroke-linecap="square" stroke-linejoin="round"/>
<path d="M471.42 660.868C472.524 662.782 474.971 663.437 476.884 662.332L563.085 612.565C564.998 611.46 565.653 609.014 564.549 607.1C549.701 581.384 516.817 572.572 491.1 587.42C465.383 602.268 456.572 635.152 471.42 660.868Z" stroke="#ffb14b" stroke-width="8" stroke-linecap="square" stroke-linejoin="round"/>
<path d="M333.917 606.56L335.917 610.024L342.845 606.024L340.845 602.56L333.917 606.56ZM552.155 480.56C553.26 482.473 555.706 483.128 557.619 482.024C559.532 480.919 560.188 478.473 559.083 476.56L552.155 480.56ZM340.845 602.56C307.156 544.208 327.148 469.594 385.5 435.905L381.5 428.976C319.322 464.875 298.018 544.382 333.917 606.56L340.845 602.56ZM385.5 435.905C443.852 402.215 518.466 422.208 552.155 480.56L559.083 476.56C523.185 414.382 443.678 393.078 381.5 428.976L385.5 435.905Z" fill="#ffb14b"/>
<path d="M1283.54 672.119L1285.54 675.583L1292.46 671.583L1290.46 668.119L1283.54 672.119ZM1501.77 546.119C1502.88 548.032 1505.33 548.688 1507.24 547.583C1509.15 546.479 1509.81 544.032 1508.7 542.119L1501.77 546.119ZM1290.46 668.119C1256.77 609.768 1276.77 535.153 1335.12 501.464L1331.12 494.536C1268.94 530.434 1247.64 609.941 1283.54 672.119L1290.46 668.119ZM1335.12 501.464C1393.47 467.775 1468.08 487.768 1501.77 546.119L1508.7 542.119C1472.8 479.941 1393.3 458.637 1331.12 494.536L1335.12 501.464Z" fill="#ffb14b"/>
<path d="M730.237 378.754L732.237 382.218L739.165 378.218L737.165 374.754L730.237 378.754ZM898.941 281.352C900.046 283.265 902.492 283.921 904.405 282.816C906.318 281.712 906.974 279.265 905.869 277.352L898.941 281.352ZM737.165 374.754C711.373 330.08 726.679 272.957 771.352 247.165L767.352 240.236C718.853 268.238 702.235 330.254 730.237 378.754L737.165 374.754ZM771.352 247.165C816.026 221.373 873.149 236.679 898.941 281.352L905.869 277.352C877.868 228.852 815.852 212.235 767.352 240.236L771.352 247.165Z" fill="#ffb14b"/>
<path d="M576.237 660.754L578.237 664.218L585.165 660.218L583.165 656.754L576.237 660.754ZM744.941 563.352C746.046 565.265 748.492 565.921 750.405 564.816C752.318 563.712 752.974 561.265 751.869 559.352L744.941 563.352ZM583.165 656.754C557.373 612.08 572.679 554.957 617.352 529.165L613.352 522.236C564.853 550.238 548.235 612.254 576.237 660.754L583.165 656.754ZM617.352 529.165C662.026 503.373 719.149 518.679 744.941 563.352L751.869 559.352C723.868 510.852 661.852 494.235 613.352 522.236L617.352 529.165Z" fill="#ffb14b"/>
<path d="M674.237 46.7536L676.237 50.2177L683.165 46.2177L681.165 42.7536L674.237 46.7536ZM842.941 -50.648C844.046 -48.7348 846.492 -48.0793 848.405 -49.1839C850.318 -50.2884 850.974 -52.7348 849.869 -54.648L842.941 -50.648ZM681.165 42.7536C655.373 -1.91967 670.679 -59.0432 715.352 -84.8353L711.352 -91.7635C662.853 -63.7623 646.235 -1.74602 674.237 46.7536L681.165 42.7536ZM715.352 -84.8353C760.026 -110.627 817.149 -95.3213 842.941 -50.648L849.869 -54.648C821.868 -103.148 759.852 -119.765 711.352 -91.7635L715.352 -84.8353Z" fill="#ffb14b"/>
<path d="M829.237 624.754L831.237 628.218L838.165 624.218L836.165 620.754L829.237 624.754ZM997.941 527.352C999.046 529.265 1001.49 529.921 1003.41 528.816C1005.32 527.712 1005.97 525.265 1004.87 523.352L997.941 527.352ZM836.165 620.754C810.373 576.08 825.679 518.957 870.352 493.165L866.352 486.236C817.853 514.238 801.235 576.254 829.237 624.754L836.165 620.754ZM870.352 493.165C915.026 467.373 972.149 482.679 997.941 527.352L1004.87 523.352C976.868 474.852 914.852 458.235 866.352 486.236L870.352 493.165Z" fill="#ffb14b"/>
<path d="M1154.24 296.754L1156.24 300.218L1163.16 296.218L1161.16 292.754L1154.24 296.754ZM1322.94 199.352C1324.05 201.265 1326.49 201.921 1328.41 200.816C1330.32 199.712 1330.97 197.265 1329.87 195.352L1322.94 199.352ZM1161.16 292.754C1135.37 248.08 1150.68 190.957 1195.35 165.165L1191.35 158.236C1142.85 186.238 1126.24 248.254 1154.24 296.754L1161.16 292.754ZM1195.35 165.165C1240.03 139.373 1297.15 154.679 1322.94 199.352L1329.87 195.352C1301.87 146.852 1239.85 130.235 1191.35 158.236L1195.35 165.165Z" fill="#ffb14b"/>
<path d="M243.237 81.7536L245.237 85.2177L252.165 81.2177L250.165 77.7536L243.237 81.7536ZM411.941 -15.648C413.046 -13.7348 415.492 -13.0793 417.405 -14.1839C419.318 -15.2884 419.974 -17.7348 418.869 -19.648L411.941 -15.648ZM250.165 77.7536C224.373 33.0803 239.679 -24.0432 284.352 -49.8353L280.352 -56.7635C231.853 -28.7623 215.235 33.254 243.237 81.7536L250.165 77.7536ZM284.352 -49.8353C329.026 -75.6275 386.149 -60.3213 411.941 -15.648L418.869 -19.648C390.868 -68.1476 328.852 -84.7648 280.352 -56.7635L284.352 -49.8353Z" fill="#ffb14b"/>
<path d="M1484.24 672.754L1486.24 676.218L1493.16 672.218L1491.16 668.754L1484.24 672.754ZM1652.94 575.352C1654.05 577.265 1656.49 577.921 1658.41 576.816C1660.32 575.712 1660.97 573.265 1659.87 571.352L1652.94 575.352ZM1491.16 668.754C1465.37 624.08 1480.68 566.957 1525.35 541.165L1521.35 534.236C1472.85 562.238 1456.24 624.254 1484.24 672.754L1491.16 668.754ZM1525.35 541.165C1570.03 515.373 1627.15 530.679 1652.94 575.352L1659.87 571.352C1631.87 522.852 1569.85 506.235 1521.35 534.236L1525.35 541.165Z" fill="#ffb14b"/>
<path d="M1448.24 289.754L1450.24 293.218L1457.16 289.218L1455.16 285.754L1448.24 289.754ZM1616.94 192.352C1618.05 194.265 1620.49 194.921 1622.41 193.816C1624.32 192.712 1624.97 190.265 1623.87 188.352L1616.94 192.352ZM1455.16 285.754C1429.37 241.08 1444.68 183.957 1489.35 158.165L1485.35 151.236C1436.85 179.238 1420.24 241.254 1448.24 289.754L1455.16 285.754ZM1489.35 158.165C1534.03 132.373 1591.15 147.679 1616.94 192.352L1623.87 188.352C1595.87 139.852 1533.85 123.235 1485.35 151.236L1489.35 158.165Z" fill="#ffb14b"/>
</svg>
