<svg width="24" height="24" viewBox="0 0 24 24" fill="none" xmlns="http://www.w3.org/2000/svg">
<path fill-rule="evenodd" clip-rule="evenodd" d="M13.0112 4H11.0112V5H13.0112V9.98957H14.0008V10.9896H15.0008V9.98957H14.0112V5H13.0112V4ZM10.0112 4.99896L10.0008 9.98853L11.0008 9.99061L11.0112 5.00104L10.0112 4.99896ZM9.0008 10.9896H10.0008V9.98957H9.0008V10.9896ZM17.0138 11L15.0034 10.9896L14.9982 11.9896L17.0086 12L17.0138 11ZM9.0008 11H7.01122V12H5.01122V13H7.01122V12H9.0008V11ZM19.0112 12H17.0112V13H19.0112V13.9896H20.0008L13.0112 14.0008V17H14.0112V18H15.0112V19H9.01122V18H10.0112V17H9.01122V18H8.01122V20H16.0112V18H15.0112V17H14.0112V14.9992L20.0016 14.9896L20.0008 13.9896V12.9896H19.0112V12ZM4.0008 12.9896V13.9896L4 14.9896L10.0091 14.9992L10.0008 16.9979L11.0008 17.0021L11.0133 14.0008L4.0008 13.9896H5.0008V12.9896H4.0008Z" fill="currentColor"/>
</svg>
