<svg width="24" height="24" viewBox="0 0 24 24" fill="none" xmlns="http://www.w3.org/2000/svg">
<path d="M14 17V16H13V17H14Z" fill="currentColor"/>
<path d="M15 18V17H14V18H15Z" fill="currentColor"/>
<path d="M10 17V16H11V17H10Z" fill="currentColor"/>
<path d="M9 18V17H10V18H9Z" fill="currentColor"/>
<path d="M9 19V18H7L7 19H9Z" fill="currentColor"/>
<path d="M6 18H7L7 14H6L6 18Z" fill="currentColor"/>
<path d="M7 14H8V12H7L7 14Z" fill="currentColor"/>
<path d="M8 12H9V10H8V12Z" fill="currentColor"/>
<path d="M9 10H10V8H9V10Z" fill="currentColor"/>
<path d="M10 8H11V6L10 6V8Z" fill="currentColor"/>
<path d="M13 6V5L11 5V6L13 6Z" fill="currentColor"/>
<path d="M13 8H14V6L13 6V8Z" fill="currentColor"/>
<path d="M14 10H15V8H14V10Z" fill="currentColor"/>
<path d="M15 12H16V10H15V12Z" fill="currentColor"/>
<path d="M16 14H17V12H16V14Z" fill="currentColor"/>
<path d="M17 18H18V14H17V18Z" fill="currentColor"/>
<path d="M15 18V19H17V18H15Z" fill="currentColor"/>
<path d="M13 16V15H11V16H13Z" fill="currentColor"/>
</svg>
