<svg width="24" height="24" viewBox="0 0 24 24" fill="none" xmlns="http://www.w3.org/2000/svg">
<path d="M9.33325 10.3334H10.3333V11.3334H9.33325V10.3334Z" fill="currentColor"/>
<path d="M9.33325 12.3334H10.3333V13.3334H9.33325V12.3334Z" fill="currentColor"/>
<path d="M10.3333 9.33337H11.3333V10.3334H10.3333V9.33337Z" fill="currentColor"/>
<path d="M10.3333 13.3334H11.3333V14.3334H10.3333V13.3334Z" fill="currentColor"/>
<path d="M13.3333 10.3334H14.3333V11.3334H13.3333V10.3334Z" fill="currentColor"/>
<path d="M13.3333 12.3334H14.3333V13.3334H13.3333V12.3334Z" fill="currentColor"/>
<path d="M14.3333 9.33337H15.3333V10.3334H14.3333V9.33337Z" fill="currentColor"/>
<path d="M14.3333 13.3334H15.3333V14.3334H14.3333V13.3334Z" fill="currentColor"/>
<path d="M8.33325 11.3334H9.33325V12.3334H8.33325V11.3334Z" fill="currentColor"/>
<path d="M12.3333 11.3334H13.3333V12.3334H12.3333V11.3334Z" fill="currentColor"/>
<path d="M17.3333 17.3334H18.3333V6.33337H17.3333V17.3334Z" fill="currentColor"/>
<path d="M6.33325 5.33337V6.33337L17.3333 6.33337V5.33337H6.33325Z" fill="currentColor"/>
<path d="M6.33325 6.33337L5.33325 6.33337V17.3334H6.33325V6.33337Z" fill="currentColor"/>
<path d="M6.33325 17.3334V18.3334H17.3333V17.3334H6.33325Z" fill="currentColor"/>
</svg>
