<svg width="24" height="24" viewBox="0 0 24 24" fill="none" xmlns="http://www.w3.org/2000/svg">
<path fill-rule="evenodd" clip-rule="evenodd" d="M11 17.0005V18.0005H12V17.0005H14V16.0005H12V15.0005H14V14.0005H15V12.0005H14V11.0005H11V14.0005H10V15.0005H11V16.0005H10V17.0005H11ZM14 12.0005H12V14.0005H14V12.0005Z" fill="currentColor"/>
<path fill-rule="evenodd" clip-rule="evenodd" d="M9 4.00049V5.00049H8V7.00049H9V8.00049H10V9.00049H9V10.0005H8V11.0005H7V12.0005H6V17.0005H7V18.0005H8V19.0005H9V20.0005H16V19.0005H17V18.0005H18V17.0005H19V12.0005H18V11.0005H17V10.0005H16V9.00049H15V8.00049H16V7.00049H17V5.00049H16V4.00049H9ZM16 5.00049V7.00049H15V8.00049H10V7.00049H9V5.00049H11V6.00049H12V5.00049H13V6.00049H14V5.00049H16ZM15 9.00049V10.0005H16V11.0005H17V12.0005H18V17.0005H17V18.0005H16V19.0005H9V18.0005H8V17.0005H7V12.0005H8V11.0005H9V10.0005H10V9.00049H15Z" fill="currentColor"/>
</svg>
