<svg width="24" height="24" viewBox="0 0 24 24" fill="none" xmlns="http://www.w3.org/2000/svg">
<path d="M15 6.66663H16V7.66663H15V6.66663Z" fill="currentColor"/>
<path d="M9 6.66663H8V7.66663H9V6.66663Z" fill="currentColor"/>
<path d="M10 18.6666V19.6666H14V18.6666H10Z" fill="currentColor"/>
<path d="M17 17.6666V16.6666H7V17.6666H9V18.6666H10V17.6666H14V18.6666H15V17.6666H17Z" fill="currentColor"/>
<path d="M6 16.6666H7V14.6666H6L6 16.6666Z" fill="currentColor"/>
<path d="M17 16.6666H18V14.6666H17V16.6666Z" fill="currentColor"/>
<path d="M16 14.6666H17V7.66663H16V14.6666Z" fill="currentColor"/>
<path d="M7 14.6666H8V7.66663H7V14.6666Z" fill="currentColor"/>
<path d="M15 6.66663V5.66663L13 5.66663V4.66663H11V5.66663L9 5.66663V6.66663H15Z" fill="currentColor"/>
</svg>
