<svg width="24" height="24" viewBox="0 0 24 24" fill="none" xmlns="http://www.w3.org/2000/svg">
<path d="M14 15.0005V12.0005H15V15.0005H14Z" fill="currentColor"/>
<path d="M14 11.0005V12.0005H11V15.0005H14V16.0005H12V17.0005H11V16.0005H9V15.0005H10V9.00049H9V8.00049H12V7.00049H13V8.00049H14V9.00049H11V11.0005H14Z" fill="currentColor"/>
<path d="M14 11.0005V9.00049H15V11.0005H14Z" fill="currentColor"/>
<path fill-rule="evenodd" clip-rule="evenodd" d="M9 4.00049V5.00049H7V6.00049H6L5.99998 7.00049H4.99998L5 9.00049H4V15.0005H5V17.0005H6V18.0005H7V19.0005H9V20.0005H15V19.0005H17V18.0005H18V17.0005H19V15.0005H20V9.00049H19V7.00049H18V6.00049H17V5.00049H15V4.00049H9ZM15 5.00049L15 6.00049H17V7.00049H18V9.00049H19V15.0005H18V17.0005H17V18.0005H15L15 19.0005H9V18.0005H7V17.0005H6V15.0005H5V9.00049H6L5.99998 7.00049H7V6.00049H9V5.00049H15Z" fill="currentColor"/>
</svg>
