<svg width="24" height="24" viewBox="0 0 24 24" fill="none" xmlns="http://www.w3.org/2000/svg">
<path d="M8.66675 4.66663V5.66663H10.6667V6.66663H11.6667V5.66663H12.6667V6.66663H13.6667V5.66663H15.6667V4.66663H8.66675Z" fill="currentColor"/>
<path d="M7.66675 5.66663H6.66675V6.66663H8.66675V5.66663H7.66675Z" fill="currentColor"/>
<path d="M5.66675 8.66663H6.66675V6.66663H5.66675L5.66675 7.66663V8.66663Z" fill="currentColor"/>
<path d="M8.66675 15.6666H9.66675V12.6666H14.6667V15.6666H15.6667V12.6666H18.6667V15.6666H19.6667V8.66663H18.6667V11.6666H15.6667V8.66663H14.6667V11.6666H9.66675V8.66663H8.66675V11.6666H5.66675V8.66663H4.66675V15.6666H5.66675L5.66675 12.6666H8.66675V15.6666Z" fill="currentColor"/>
<path d="M9.66675 8.66663H10.6667V6.66663H9.66675V8.66663Z" fill="currentColor"/>
<path d="M13.6667 8.66663H14.6667V6.66663H13.6667V8.66663Z" fill="currentColor"/>
<path d="M17.6667 6.66663V5.66663H15.6667V6.66663H17.6667Z" fill="currentColor"/>
<path d="M17.6667 8.66663H18.6667V6.66663H17.6667V8.66663Z" fill="currentColor"/>
<path d="M18.6667 15.6666H17.6667V17.6666H18.6667V15.6666Z" fill="currentColor"/>
<path d="M17.6667 18.6666V17.6666H15.6667V18.6666H17.6667Z" fill="currentColor"/>
<path d="M14.6667 15.6666H13.6667V17.6666H14.6667V15.6666Z" fill="currentColor"/>
<path d="M8.66675 18.6666V19.6666H15.6667V18.6666H13.6667V17.6666H12.6667V18.6666H11.6667V17.6666H10.6667V18.6666H8.66675Z" fill="currentColor"/>
<path d="M10.6667 15.6666H9.66675V17.6666H10.6667V15.6666Z" fill="currentColor"/>
<path d="M6.66675 17.6666V18.6666H8.66675V17.6666H6.66675Z" fill="currentColor"/>
<path d="M6.66675 15.6666H5.66675V17.6666H6.66675V15.6666Z" fill="currentColor"/>
</svg>
