<svg width="24" height="24" viewBox="0 0 24 24" fill="none" xmlns="http://www.w3.org/2000/svg">
<path d="M9 12.0005V13.0005H10V12.0005H9Z" fill="currentColor"/>
<path d="M13.0002 12.0005L13 13.0005L14.0002 13.0005L14 12.0005H13.0002Z" fill="currentColor"/>
<path fill-rule="evenodd" clip-rule="evenodd" d="M17.0002 10.0005L17 5.00049L15.0002 5.00052V6.00052H14.0002V7.00052L9 7.00052V6.00052H8V5.00052L6.00027 5.00049L6 10.0005L5 10.0005L5.00027 14.0006L6.00027 14.0005V15.0005H7.00027V16.0005H8V17.0005H10.0003V18.0005L13.0002 18.0005V17.0005H15.0002L15 16.0005L16.0002 16.0005L16 15.0005H17V14.0006L18.0002 14.0005V10.0005H17.0002ZM17.0002 10.0005L17 14.0006L16.0002 14.0005L16 15.0005H15.0002L15 16.0005H13.0002V17.0005H12.0002V15.0005L12.5002 15.0005V14.0005H10.5002V15.0005L11 15.0005V17.0005H10.0003V16.0005H8V15.0005H7.00027V14.0005L6.00027 14.0005L6 10.0005L7 10.0005L7.00016 7.00052H8V8.00052H9V9.00052H10V8.00052H11V9.00052H12.0002V8.00052H13.0002V9.00052L14 9.00052L14.0002 8.00052H15.0002V7.00052L16.0002 7.00052V10.0005H17.0002Z" fill="currentColor"/>
</svg>
