<svg width="24" height="24" viewBox="0 0 24 24" fill="none" xmlns="http://www.w3.org/2000/svg">
<path d="M10 4.00049H14V5.00049H10V4.00049Z" fill="currentColor"/>
<path d="M9 6.00049V5.00049H10V6.00049H9Z" fill="currentColor"/>
<path d="M9 6.00049V18.0005H8V6.00049H9Z" fill="currentColor"/>
<path d="M15 6.00049H14V5.00049H15V6.00049Z" fill="currentColor"/>
<path d="M15 18.0005V6.00049H16V18.0005H15Z" fill="currentColor"/>
<path d="M14 19.0005V18.0005H15V19.0005H14Z" fill="currentColor"/>
<path d="M11 19.0005H14V20.0005H11V19.0005Z" fill="currentColor"/>
<path d="M11 8.00049V19.0005H10V8.00049H11Z" fill="currentColor"/>
<path d="M13 8.00049H11V7.00049H13V8.00049Z" fill="currentColor"/>
<path d="M13 8.00049H14V17.0005H13V8.00049Z" fill="currentColor"/>
</svg>
