<svg width="24" height="24" viewBox="0 0 24 24" fill="none" xmlns="http://www.w3.org/2000/svg">
<path d="M6 16.3334H5V15.3334H6V16.3334Z" fill="currentColor"/>
<path d="M18 16.3334H19V15.3334H18V16.3334Z" fill="currentColor"/>
<path d="M10 11.3334H11V12.3334H10V11.3334Z" fill="currentColor"/>
<path d="M10 10.3334H9V11.3334L10 11.3334V10.3334Z" fill="currentColor"/>
<path d="M6 10.3334L5 10.3334V11.3334H6V10.3334Z" fill="currentColor"/>
<path d="M16 11.3334H17V12.3334H16V11.3334Z" fill="currentColor"/>
<path d="M16 8.33337L15 8.33337V7.33337H16V8.33337Z" fill="currentColor"/>
<path d="M16 10.3334L17 10.3334V8.33337L16 8.33337V10.3334Z" fill="currentColor"/>
<path d="M15 7.33337V6.33337L10 6.33337V7.33337H15Z" fill="currentColor"/>
<path d="M10 7.33337H9V9.33337L10 9.33337V7.33337Z" fill="currentColor"/>
<path d="M6 9.33337V10.3334L9 10.3334V9.33337L6 9.33337Z" fill="currentColor"/>
<path d="M4 15.3334H5V11.3334H4V15.3334Z" fill="currentColor"/>
<path d="M6 16.3334V17.3334H18V16.3334H6Z" fill="currentColor"/>
<path d="M19 15.3334H20V11.3334L19 11.3334V15.3334Z" fill="currentColor"/>
<path d="M19 11.3334V10.3334H17V11.3334L19 11.3334Z" fill="currentColor"/>
</svg>
