<svg width="24" height="24" viewBox="0 0 24 24" fill="none" xmlns="http://www.w3.org/2000/svg">
<path d="M9 18V19H15V18H9Z" fill="currentColor"/>
<path d="M7 17V18H9V17H7Z" fill="currentColor"/>
<path d="M7 15H6V17H7V15Z" fill="currentColor"/>
<path d="M5 15H6V9H5V15Z" fill="currentColor"/>
<path d="M6 9H7V7H6L6 9Z" fill="currentColor"/>
<path d="M7 6V7H9V6H7Z" fill="currentColor"/>
<path d="M9 5V6H15V5H9Z" fill="currentColor"/>
<path d="M17 7V6H15V7H17Z" fill="currentColor"/>
<path d="M17 9H18V7H17V9Z" fill="currentColor"/>
<path d="M18 15H19V9H18V15Z" fill="currentColor"/>
<path d="M18 15H17V17H18V15Z" fill="currentColor"/>
<path d="M17 18V17H15V18H17Z" fill="currentColor"/>
<path fill-rule="evenodd" clip-rule="evenodd" d="M11 15H10V9H14V13H11V15ZM11 10H13V12H11V10Z" fill="currentColor"/>
</svg>
