<svg width="24" height="24" viewBox="0 0 24 24" fill="none" xmlns="http://www.w3.org/2000/svg">
<path d="M18 7V6L17 6V7L18 7Z" fill="currentColor"/>
<path d="M7 7V6L6 6L6 7L7 7Z" fill="currentColor"/>
<path d="M8 8V7L7 7V8H8Z" fill="currentColor"/>
<path d="M9 9V8H8V9H9Z" fill="currentColor"/>
<path d="M10 10V9H9V10H10Z" fill="currentColor"/>
<path d="M11 9V8H10L10 9H11Z" fill="currentColor"/>
<path d="M17 8V7L16 7V8H17Z" fill="currentColor"/>
<path d="M16 9V8H15V9H16Z" fill="currentColor"/>
<path d="M15 10V9H14V10H15Z" fill="currentColor"/>
<path d="M14 9V8H13V9H14Z" fill="currentColor"/>
<path d="M5 17H6L6 7L5 7L5 17Z" fill="currentColor"/>
<path d="M6 17V18H18V17H6Z" fill="currentColor"/>
<path d="M18 17H19V7H18V17Z" fill="currentColor"/>
<path d="M11 7V8H13V7L11 7Z" fill="currentColor"/>
</svg>
