<svg width="24" height="24" viewBox="0 0 24 24" fill="none" xmlns="http://www.w3.org/2000/svg">
<path d="M19 11.3334H18V10.3334H19V11.3334Z" fill="currentColor"/>
<path d="M16 13.3334H15V12.3334H16V13.3334Z" fill="currentColor"/>
<path d="M15 14.3334H14V13.3334H15V14.3334Z" fill="currentColor"/>
<path d="M15 16.3334H14V15.3334H15V16.3334Z" fill="currentColor"/>
<path d="M16 17.3334H15V16.3334H16V17.3334Z" fill="currentColor"/>
<path d="M17 18.3334H16V17.3334H17V18.3334Z" fill="currentColor"/>
<path d="M8 18.3334H7V17.3334H8V18.3334Z" fill="currentColor"/>
<path d="M9 17.3334H8V16.3334H9V17.3334Z" fill="currentColor"/>
<path d="M10 16.3334H9V15.3334H10V16.3334Z" fill="currentColor"/>
<path d="M10 14.3334H9V13.3334H10V14.3334Z" fill="currentColor"/>
<path d="M9 13.3334H8V12.3334H9V13.3334Z" fill="currentColor"/>
<path d="M6 11.3334H5V10.3334H6V11.3334Z" fill="currentColor"/>
<path d="M10 15.3334H11V14.3334H10V15.3334Z" fill="currentColor"/>
<path d="M13 15.3334H14V14.3334H13V15.3334Z" fill="currentColor"/>
<path d="M8 4.33337V5.33337H16V4.33337H8Z" fill="currentColor"/>
<path d="M5 5.33337V6.33337H8V5.33337H5Z" fill="currentColor"/>
<path d="M6 7.33337H7V9.33337H6V7.33337Z" fill="currentColor"/>
<path d="M5 6.33337H4V10.3334H5V6.33337Z" fill="currentColor"/>
<path d="M18 9.33337H17V7.33337H18V9.33337Z" fill="currentColor"/>
<path d="M16 5.33337V6.33337H19V5.33337H16Z" fill="currentColor"/>
<path d="M20 6.33337H19V10.3334H20V6.33337Z" fill="currentColor"/>
<path d="M18 12.3334V11.3334H16V12.3334H18Z" fill="currentColor"/>
<path d="M8 12.3334V11.3334H6V12.3334H8Z" fill="currentColor"/>
<path d="M16 19.3334V18.3334H8V19.3334H16Z" fill="currentColor"/>
</svg>
