<svg width="24" height="24" viewBox="0 0 24 24" fill="none" xmlns="http://www.w3.org/2000/svg">
<path d="M14.6667 9.66663H13.6667V10.6666H14.6667V9.66663Z" fill="currentColor"/>
<path d="M14.6667 13.6666H13.6667V14.6666H14.6667V13.6666Z" fill="currentColor"/>
<path d="M13.6667 10.6666H12.6667V11.6666H13.6667V10.6666Z" fill="currentColor"/>
<path d="M13.6667 12.6666H12.6667V13.6666H13.6667V12.6666Z" fill="currentColor"/>
<path d="M10.6667 9.66663H9.66675V10.6666H10.6667V9.66663Z" fill="currentColor"/>
<path d="M10.6667 13.6666H9.66675V14.6666H10.6667V13.6666Z" fill="currentColor"/>
<path d="M9.66675 8.66663H8.66675V9.66663H9.66675V8.66663Z" fill="currentColor"/>
<path d="M15.6667 8.66663H14.6667V9.66663H15.6667V8.66663Z" fill="currentColor"/>
<path d="M11.6667 12.6666H10.6667V13.6666H11.6667V12.6666Z" fill="currentColor"/>
<path d="M11.6667 10.6666H10.6667V11.6666H11.6667V10.6666Z" fill="currentColor"/>
<path d="M12.6667 11.6666H11.6667V12.6666H12.6667V11.6666Z" fill="currentColor"/>
<path d="M9.66675 14.6666H8.66675V15.6666H9.66675V14.6666Z" fill="currentColor"/>
<path d="M15.6667 14.6666H14.6667V15.6666H15.6667V14.6666Z" fill="currentColor"/>
<path d="M17.6667 6.66663V5.66663H6.66675V6.66663L17.6667 6.66663Z" fill="currentColor"/>
<path d="M5.66675 17.6666H6.66675V6.66663H5.66675V17.6666Z" fill="currentColor"/>
<path d="M17.6667 18.6666V17.6666H6.66675V18.6666H17.6667Z" fill="currentColor"/>
<path d="M18.6667 6.66663L17.6667 6.66663V17.6666H18.6667V6.66663Z" fill="currentColor"/>
</svg>
