<svg width="24" height="24" viewBox="0 0 24 24" fill="none" xmlns="http://www.w3.org/2000/svg">
<path d="M15 4.00049V5.00049H9V4.00049H15Z" fill="currentColor"/>
<path d="M7 6.00049V5.00049H9V6.00049H7Z" fill="currentColor"/>
<path d="M6 7.00049V6.00049H7V7.00049H6Z" fill="currentColor"/>
<path d="M5 9.00049V7.00049H6V9.00049H5Z" fill="currentColor"/>
<path d="M5 15.0005H4V9.00049H5V15.0005Z" fill="currentColor"/>
<path d="M6 17.0005H5V15.0005H6V17.0005Z" fill="currentColor"/>
<path d="M7 18.0005H6V17.0005H7V18.0005Z" fill="currentColor"/>
<path d="M9 19.0005H7V18.0005H9V19.0005Z" fill="currentColor"/>
<path d="M15 19.0005V20.0005H9V19.0005H15Z" fill="currentColor"/>
<path d="M17 18.0005V19.0005H15V18.0005H17Z" fill="currentColor"/>
<path d="M18 17.0005V18.0005H17V17.0005H18Z" fill="currentColor"/>
<path d="M19 15.0005V17.0005H18V15.0005H19Z" fill="currentColor"/>
<path d="M19 9.00049H20V15.0005H19V9.00049Z" fill="currentColor"/>
<path d="M18 7.00049H19V9.00049H18V7.00049Z" fill="currentColor"/>
<path d="M17 6.00049H18V7.00049H17V6.00049Z" fill="currentColor"/>
<path d="M17 6.00049V5.00049H15V6.00049H17Z" fill="currentColor"/>
<path d="M9 15.0005H10V16.0005H11V17.0005H12V16.0005H14V15.0005H15V13.0005H14V12.0005H12V11.0005H10V9.00049H14V10.0005H15V9.00049H14V8.00049H13V7.00049H12V8.00049H10V9.00049H9V11.0005H10V12.0005H12V13.0005H14V15.0005H10V14.0005H9V15.0005Z" fill="currentColor"/>
</svg>
