<svg width="24" height="24" viewBox="0 0 24 24" fill="none" xmlns="http://www.w3.org/2000/svg">
<path d="M13.9997 5V6.00005H17.9995V7.0001H16.9999V8.00015H15.9998V9.00021H14.9997V10.0003H13.9997V11.0003H8.99982V12H11.9996V13H10.9999V14.0001H9.99987V15.0001H8.99982V16.0002H5V17.0002H6.99972V17.9999H5.99967V19H5V20H8.99982V19H6.99972V17.9999H7.99977V17.0002H8.99982V16.0002H13.9997V15.0001H10.9999V14.0001H12L11.9996 13H12.9996V12H13.9997V11.0003H19.9996V10.0003H15.9998V9.00021H16.9999V8.00015H17.9995V7.0001H18.9996V6.00005H19.9996V5H13.9997Z" fill="currentColor"/>
</svg>
