<svg width="24" height="24" viewBox="0 0 24 24" fill="none" xmlns="http://www.w3.org/2000/svg">
<path d="M14 5H13V6H14V5Z" fill="currentColor"/>
<path d="M10 6H9V7H10V6Z" fill="currentColor"/>
<path d="M11 5H10V6H11V5Z" fill="currentColor"/>
<path d="M15 6H14V7H15V6Z" fill="currentColor"/>
<path d="M13 19H14V17H13V19Z" fill="currentColor"/>
<path d="M11 17H10V19H11V17Z" fill="currentColor"/>
<path d="M11 16V17H13V16H11Z" fill="currentColor"/>
<path d="M11 19V20H13V19H11Z" fill="currentColor"/>
<path d="M11 14V15H13V14H11Z" fill="currentColor"/>
<path d="M11 12H10V14H11V12Z" fill="currentColor"/>
<path d="M10 10H9V12H10V10Z" fill="currentColor"/>
<path d="M8 10H9V7H8V10Z" fill="currentColor"/>
<path d="M11 4V5H13V4H11Z" fill="currentColor"/>
<path d="M15 10H16V7H15V10Z" fill="currentColor"/>
<path d="M15 10H14V12H15V10Z" fill="currentColor"/>
<path d="M13 14H14V12H13V14Z" fill="currentColor"/>
</svg>
