<svg width="24" height="24" viewBox="0 0 24 24" fill="none" xmlns="http://www.w3.org/2000/svg">
<path d="M15 8H14H13V9V10V11H14H15V10H14V9H15V8Z" fill="currentColor"/>
<path d="M16 13V12V11H15V12V13H16Z" fill="currentColor"/>
<path d="M14 18V17V16V15V14H15V13H14H13V14V15V16V17V18H14Z" fill="currentColor"/>
<path d="M10 13H9V14H10V15V16V17V18H11V17V16V15V14V13H10Z" fill="currentColor"/>
<path d="M9 11H8V12V13H9V12V11Z" fill="currentColor"/>
<path d="M11 11V10V9V8V7V6H10V7V8V9V10H9V11H10H11Z" fill="currentColor"/>
<path d="M12 5H11V6H12H13H14H15V5H14H13H12Z" fill="currentColor"/>
<path d="M16 6H15V7V8H16V7V6Z" fill="currentColor"/>
<path d="M12 18H11V19H12H13V18H12Z" fill="currentColor"/>
</svg>
