<svg width="24" height="24" viewBox="0 0 24 24" fill="none" xmlns="http://www.w3.org/2000/svg">
<path d="M8.66675 6H7.66675V9H8.66675V6Z" fill="currentColor"/>
<path d="M8.66675 5V6H11.6667H12.6667H15.6667V5H8.66675Z" fill="currentColor"/>
<path d="M12.6667 6H11.6667V9H12.6667V6Z" fill="currentColor"/>
<path d="M16.6667 6H15.6667V9H16.6667V6Z" fill="currentColor"/>
<path d="M16.6667 10H15.6667V13H16.6667V10Z" fill="currentColor"/>
<path d="M11.6667 13H12.6667V10H11.6667V13Z" fill="currentColor"/>
<path d="M8.66675 9V10H11.6667V9H8.66675Z" fill="currentColor"/>
<path d="M15.6667 10V9H12.6667V10H15.6667Z" fill="currentColor"/>
<path d="M13.6667 13H12.6667V14H13.6667H14.6667H15.6667V13H14.6667H13.6667Z" fill="currentColor"/>
<path d="M8.66675 13V14H11.6667V13H8.66675Z" fill="currentColor"/>
<path d="M8.66675 10H7.66675V13H8.66675V10Z" fill="currentColor"/>
<path d="M8.66675 14H7.66675V18H8.66675V14Z" fill="currentColor"/>
<path d="M12.6667 14H11.6667V17H12.6667V14Z" fill="currentColor"/>
<path d="M11.6667 17H10.6667V18H11.6667V17Z" fill="currentColor"/>
<path d="M9.66675 18H8.66675V19H9.66675H10.6667V18H9.66675Z" fill="currentColor"/>
</svg>
