<svg width="24" height="24" viewBox="0 0 24 24" fill="none" xmlns="http://www.w3.org/2000/svg">
<path fill-rule="evenodd" clip-rule="evenodd" d="M6 5V20H7V5H6ZM7.0022 7.00644H16.0027V6.00644H7.0022V7.00644ZM15.9993 7.00644V8.00644H14.9993V9.00644H13.9993V10.0064H13.0017V11.0064H14.0017V10.0064H14.9993L14.9993 9.00644H15.9993V8.00644H16.9993V7.00644H15.9993ZM14.0017 11.0064V12.0064H15.0017L15.0017 13.0064H16.0017L15.9993 14.0052L16.9993 14.0077L17.0017 13.0077L16.0017 13.0052L16.0017 13.006V12.0064H15.0017V11.0064H14.0017ZM7.0022 15.0064H16.0027V14.0064H7.0022V15.0064Z" fill="currentColor"/>
</svg>
