<svg width="24" height="24" viewBox="0 0 24 24" fill="none" xmlns="http://www.w3.org/2000/svg">
<path d="M14.6667 10.3334H13.6667V11.3334H14.6667V10.3334Z" fill="currentColor"/>
<path d="M14.6667 12.3334H13.6667V13.3334H14.6667V12.3334Z" fill="currentColor"/>
<path d="M13.6667 9.33337H12.6667V10.3334H13.6667V9.33337Z" fill="currentColor"/>
<path d="M13.6667 13.3334H12.6667V14.3334H13.6667V13.3334Z" fill="currentColor"/>
<path d="M10.6667 10.3334H9.66675V11.3334H10.6667V10.3334Z" fill="currentColor"/>
<path d="M10.6667 12.3334H9.66675V13.3334H10.6667V12.3334Z" fill="currentColor"/>
<path d="M9.66675 9.33337H8.66675V10.3334H9.66675V9.33337Z" fill="currentColor"/>
<path d="M9.66675 13.3334H8.66675V14.3334H9.66675V13.3334Z" fill="currentColor"/>
<path d="M15.6667 11.3334H14.6667V12.3334H15.6667V11.3334Z" fill="currentColor"/>
<path d="M11.6667 11.3334H10.6667V12.3334H11.6667V11.3334Z" fill="currentColor"/>
<path d="M6.66675 17.3334H5.66675V6.33337H6.66675V17.3334Z" fill="currentColor"/>
<path d="M17.6667 5.33337V6.33337L6.66675 6.33337V5.33337H17.6667Z" fill="currentColor"/>
<path d="M17.6667 6.33337L18.6667 6.33337V17.3334H17.6667V6.33337Z" fill="currentColor"/>
<path d="M17.6667 17.3334V18.3334H6.66675V17.3334H17.6667Z" fill="currentColor"/>
</svg>
