<svg width="24" height="24" viewBox="0 0 24 24" fill="none" xmlns="http://www.w3.org/2000/svg">
<path d="M7 15H8V16H7V15Z" fill="currentColor"/>
<path d="M8 16H9V17H8V16Z" fill="currentColor"/>
<path d="M9 17H10V18H9V17Z" fill="currentColor"/>
<path d="M10 18H11V19H10V18Z" fill="currentColor"/>
<path d="M13 18H14V19H13V18Z" fill="currentColor"/>
<path d="M14 17H15V18H14V17Z" fill="currentColor"/>
<path d="M15 16H16V17H15V16Z" fill="currentColor"/>
<path d="M16 15H17V16H16V15Z" fill="currentColor"/>
<path d="M11 10H10V9L11 9V10Z" fill="currentColor"/>
<path d="M14 10H13V9H14V10Z" fill="currentColor"/>
<path d="M14 13H13V12H14V13Z" fill="currentColor"/>
<path d="M11 13H10V12H11V13Z" fill="currentColor"/>
<path d="M10 10H9V12H10V10Z" fill="currentColor"/>
<path d="M13 9V8L11 8V9H13Z" fill="currentColor"/>
<path d="M14 12H15V10H14V12Z" fill="currentColor"/>
<path d="M11 13V14H13V13H11Z" fill="currentColor"/>
<path d="M5 13H6V8H5V13Z" fill="currentColor"/>
<path d="M7 13H6V15H7V13Z" fill="currentColor"/>
<path d="M7 6H6V8H7V6Z" fill="currentColor"/>
<path d="M15 5V4H9V5H15Z" fill="currentColor"/>
<path d="M9 6V5H7V6H9Z" fill="currentColor"/>
<path d="M17 6V5H15V6H17Z" fill="currentColor"/>
<path d="M18 6H17V8H18V6Z" fill="currentColor"/>
<path d="M18 13H19V8H18V13Z" fill="currentColor"/>
<path d="M17 15H18V13H17V15Z" fill="currentColor"/>
<path d="M13 20V19H11V20H13Z" fill="currentColor"/>
</svg>
