<svg width="24" height="24" viewBox="0 0 24 24" fill="none" xmlns="http://www.w3.org/2000/svg">
<path d="M17.6667 14.3334H18.6667V12.3334H20.6667V11.3334H18.6667V9.33337H17.6667V11.3334H14.6667V12.3334H17.6667V14.3334Z" fill="currentColor"/>
<path d="M17.6667 7.33337H16.6667V9.33337H17.6667V7.33337Z" fill="currentColor"/>
<path d="M16.6667 7.33337V6.33337H14.6667V7.33337H16.6667Z" fill="currentColor"/>
<path d="M11.6667 9.33337H12.6667V6.33337H14.6667V5.33337H12.6667V3.33337H11.6667V5.33337H9.66675V6.33337H11.6667V9.33337Z" fill="currentColor"/>
<path d="M7.66675 6.33337V7.33337H9.66675V6.33337H7.66675Z" fill="currentColor"/>
<path d="M7.66675 7.33337H6.66675V9.33337H7.66675V7.33337Z" fill="currentColor"/>
<path d="M9.66675 12.3334V11.3334H6.66675V9.33337H5.66675V11.3334H3.66675V12.3334H5.66675V14.3334H6.66675V12.3334H9.66675Z" fill="currentColor"/>
<path d="M7.66675 16.3334V17.3334H9.66675V16.3334H7.66675Z" fill="currentColor"/>
<path d="M6.66675 16.3334H7.66675V14.3334H6.66675V16.3334Z" fill="currentColor"/>
<path d="M9.66675 17.3334V18.3334H11.6667V20.3334H12.6667V18.3334H14.6667V17.3334H12.6667V14.3334H11.6667V17.3334H9.66675Z" fill="currentColor"/>
<path d="M16.6667 17.3334V16.3334H14.6667V17.3334H16.6667Z" fill="currentColor"/>
<path d="M16.6667 16.3334H17.6667V14.3334H16.6667V16.3334Z" fill="currentColor"/>
</svg>
