<svg width="24" height="24" viewBox="0 0 24 24" fill="none" xmlns="http://www.w3.org/2000/svg">
<path d="M17 7.33337H18V8.33337H17V7.33337Z" fill="currentColor"/>
<path d="M16 6.33337H17V7.33337H16V6.33337Z" fill="currentColor"/>
<path d="M15 5.33337H16V6.33337H15V5.33337Z" fill="currentColor"/>
<path d="M8 5.33337H9V6.33337H8V5.33337Z" fill="currentColor"/>
<path d="M7 6.33337H8V7.33337H7V6.33337Z" fill="currentColor"/>
<path d="M6 7.33337H7V8.33337H6V7.33337Z" fill="currentColor"/>
<path d="M6 18.3334H7V14.3334H6V8.33337H5V14.3334V15.3334H6V18.3334Z" fill="currentColor"/>
<path d="M10 14.3334V13.3334H7V14.3334H10Z" fill="currentColor"/>
<path d="M10 18.3334H11V14.3334H10V18.3334Z" fill="currentColor"/>
<path d="M10 19.3334V18.3334H7V19.3334H10Z" fill="currentColor"/>
<path d="M13 18.3334H14V14.3334H13V18.3334Z" fill="currentColor"/>
<path d="M14 13.3334V14.3334H17V13.3334H14Z" fill="currentColor"/>
<path d="M14 18.3334V19.3334H17V18.3334H14Z" fill="currentColor"/>
<path d="M15 5.33337V4.33337H9V5.33337H15Z" fill="currentColor"/>
<path d="M17 18.3334H18V15.3334H19V8.33337H18V14.3334H17V18.3334Z" fill="currentColor"/>
</svg>
