<svg width="24" height="24" viewBox="0 0 24 24" fill="none" xmlns="http://www.w3.org/2000/svg">
<path d="M7 9H8V10H7V9Z" fill="currentColor"/>
<path d="M8 8H9V9H8V8Z" fill="currentColor"/>
<path d="M5 11H6V12H5V11Z" fill="currentColor"/>
<path d="M18 11H19V12H18V11Z" fill="currentColor"/>
<path d="M17 10H18V11H17V10Z" fill="currentColor"/>
<path d="M16 9H17V10H16V9Z" fill="currentColor"/>
<path d="M15 8H16V9H15V8Z" fill="currentColor"/>
<path d="M14 7H15V8H14V7Z" fill="currentColor"/>
<path d="M13 6H14V7H13V6Z" fill="currentColor"/>
<path d="M10 6H11V7H10V6Z" fill="currentColor"/>
<path d="M9 7H10V8H9V7Z" fill="currentColor"/>
<path d="M6 10H7V11H6V10Z" fill="currentColor"/>
<path d="M7 12H6V18H7V12Z" fill="currentColor"/>
<path d="M7 18V19H10V18H7Z" fill="currentColor"/>
<path d="M10 18H11V15H10V18Z" fill="currentColor"/>
<path d="M11 14V15H13V14H11Z" fill="currentColor"/>
<path d="M14 15H13V18H14V15Z" fill="currentColor"/>
<path d="M14 18V19H17V18H14Z" fill="currentColor"/>
<path d="M17 18H18V12H17V18Z" fill="currentColor"/>
<path d="M13 5H11V6H13V5Z" fill="currentColor"/>
</svg>
