<svg width="24" height="24" viewBox="0 0 24 24" fill="none" xmlns="http://www.w3.org/2000/svg">
<path d="M16 8H17V9H16V8Z" fill="currentColor"/>
<path d="M15 9H16V10H15V9Z" fill="currentColor"/>
<path d="M14 10H15V11H14V10Z" fill="currentColor"/>
<path d="M7 8H8V9H7V8Z" fill="currentColor"/>
<path d="M8 9H9V10H8V9Z" fill="currentColor"/>
<path d="M9 10H10V11H9V10Z" fill="currentColor"/>
<path d="M14 13H15V14H14V13Z" fill="currentColor"/>
<path d="M15 14H16V15H15V14Z" fill="currentColor"/>
<path d="M16 15H17V16H16V15Z" fill="currentColor"/>
<path d="M9 13H10V14H9V13Z" fill="currentColor"/>
<path d="M8 14H9V15H8V14Z" fill="currentColor"/>
<path d="M7 15H8V16H7V15Z" fill="currentColor"/>
<path d="M18 16H17V18H18V16Z" fill="currentColor"/>
<path d="M17 19V18H7V19H17Z" fill="currentColor"/>
<path d="M7 16H6V18H7V16Z" fill="currentColor"/>
<path d="M11 11H10V13H11V11Z" fill="currentColor"/>
<path d="M14 11H13V13H14V11Z" fill="currentColor"/>
<path d="M17 8H18V6H17V8Z" fill="currentColor"/>
<path d="M7 5V6H17V5H7Z" fill="currentColor"/>
<path d="M6 8H7V6H6V8Z" fill="currentColor"/>
</svg>
