<svg width="24" height="24" viewBox="0 0 24 24" fill="none" xmlns="http://www.w3.org/2000/svg">
<path d="M12.6667 11.6666H13.6667V12.6666H12.6667V11.6666Z" fill="currentColor"/>
<path d="M11.6667 15.6666H12.6667V16.6666H11.6667V15.6666Z" fill="currentColor"/>
<path d="M11.6667 14.6666H12.6667V12.6666H11.6667V14.6666Z" fill="currentColor"/>
<path d="M14.6667 8.66663H13.6667V11.6666H14.6667V8.66663Z" fill="currentColor"/>
<path d="M10.6667 7.66663V8.66663H13.6667V7.66663H10.6667Z" fill="currentColor"/>
<path d="M10.6667 8.66663H9.66675V10.6666H10.6667V8.66663Z" fill="currentColor"/>
<path d="M6.66675 5.66663V6.66663L17.6667 6.66663V5.66663H6.66675Z" fill="currentColor"/>
<path d="M6.66675 6.66663L5.66675 6.66663V17.6666H6.66675V6.66663Z" fill="currentColor"/>
<path d="M6.66675 17.6666V18.6666H17.6667V17.6666H6.66675Z" fill="currentColor"/>
<path d="M17.6667 17.6666H18.6667V6.66663H17.6667V17.6666Z" fill="currentColor"/>
</svg>
