<svg width="24" height="24" viewBox="0 0 24 24" fill="none" xmlns="http://www.w3.org/2000/svg">
<path d="M6 6H7V7H6V6Z" fill="currentColor"/>
<path d="M6 18L6 17H7V18H6Z" fill="currentColor"/>
<path d="M17 6H18V7H17V6Z" fill="currentColor"/>
<path d="M14 14H13V13H14V14Z" fill="currentColor"/>
<path d="M10 13H11V14H10V13Z" fill="currentColor"/>
<path d="M14 11H13V10L14 10V11Z" fill="currentColor"/>
<path d="M16 9H15V8L16 8V9Z" fill="currentColor"/>
<path d="M11 11H10V10L11 10V11Z" fill="currentColor"/>
<path d="M17 17H18V18H17V17Z" fill="currentColor"/>
<path d="M7 18V19H17V18H7Z" fill="currentColor"/>
<path d="M11 14V15H13V14H11Z" fill="currentColor"/>
<path d="M13 10V9L11 9V10L13 10Z" fill="currentColor"/>
<path d="M10 11H9V13H10V11Z" fill="currentColor"/>
<path d="M14 13H15V11H14V13Z" fill="currentColor"/>
<path d="M18 17H19V7H18V17Z" fill="currentColor"/>
<path d="M7 5V6H17V5H7Z" fill="currentColor"/>
<path d="M5 17H6L6 7H5L5 17Z" fill="currentColor"/>
</svg>
