<svg width="24" height="24" viewBox="0 0 24 24" fill="none" xmlns="http://www.w3.org/2000/svg">
<path d="M6 6H7V7H6V6Z" fill="currentColor"/>
<path d="M18 6H17V7H18V6Z" fill="currentColor"/>
<path d="M6 17H7V18H6V17Z" fill="currentColor"/>
<path d="M18 17H17V18H18V17Z" fill="currentColor"/>
<path d="M7 15H8V16H7V15Z" fill="currentColor"/>
<path d="M17 8H16V9H17V8Z" fill="currentColor"/>
<path d="M19 7H18V17H19V7Z" fill="currentColor"/>
<path d="M17 6V5H14V6H17Z" fill="currentColor"/>
<path d="M13 18H14V6H13V18Z" fill="currentColor"/>
<path d="M17 19V18H14V19H17Z" fill="currentColor"/>
<path d="M7 18V19H10V18H7Z" fill="currentColor"/>
<path d="M6 7H5V17H6V7Z" fill="currentColor"/>
<path d="M7 5V6H10V5H7Z" fill="currentColor"/>
<path d="M10 18H11V6H10V18Z" fill="currentColor"/>
</svg>
