<svg width="24" height="24" viewBox="0 0 24 24" fill="none" xmlns="http://www.w3.org/2000/svg">
<path d="M9 14H10V15H9V14Z" fill="currentColor"/>
<path d="M14 14H15V15H14V14Z" fill="currentColor"/>
<path d="M5 10H6V11H5V10Z" fill="currentColor"/>
<path d="M9 14H10V15H9V14Z" fill="currentColor"/>
<path d="M4 7H5V8H4V7Z" fill="currentColor"/>
<path d="M19 7H20V8H19V7Z" fill="currentColor"/>
<path d="M14 14H15V15H14V14Z" fill="currentColor"/>
<path d="M17 11H18V12H17V11Z" fill="currentColor"/>
<path d="M18 10H19V11H18V10Z" fill="currentColor"/>
<path d="M19 16H20V17H19V16Z" fill="currentColor"/>
<path d="M4 16H5V17H4V16Z" fill="currentColor"/>
<path d="M6 9H7V10H6V9Z" fill="currentColor"/>
<path d="M7 10H8V11H7V10Z" fill="currentColor"/>
<path d="M6 11H7V12H6V11Z" fill="currentColor"/>
<path d="M16 10H17L17 11L16 11V10Z" fill="currentColor"/>
<path d="M17 9H18L18 10L17 10L17 9Z" fill="currentColor"/>
<path d="M10 13V14H14L14 13H10Z" fill="currentColor"/>
<path d="M8 17L9 17L9 15L8 15L8 17Z" fill="currentColor"/>
<path d="M8 18V17L5 17V18L8 18Z" fill="currentColor"/>
<path d="M4 8H3V16H4V8Z" fill="currentColor"/>
<path d="M5 6V7H9V6H5Z" fill="currentColor"/>
<path d="M15 8V7H9V8H15Z" fill="currentColor"/>
<path d="M19 7V6H15V7H19Z" fill="currentColor"/>
<path d="M21 8H20V16H21V8Z" fill="currentColor"/>
<path d="M16 17L16 18L19 18V17L16 17Z" fill="currentColor"/>
<path d="M15 17H16V15L15 15L15 17Z" fill="currentColor"/>
</svg>
