<svg width="24" height="24" viewBox="0 0 24 24" fill="none" xmlns="http://www.w3.org/2000/svg">
<path d="M6 10H7V11H6V10Z" fill="currentColor"/>
<path d="M9 10H10V11H9V10Z" fill="currentColor"/>
<path d="M9 13H10V14H9V13Z" fill="currentColor"/>
<path d="M6 13H7V14H6V13Z" fill="currentColor"/>
<path d="M4 8H5V9H4V8Z" fill="currentColor"/>
<path d="M4 15H5V16H4V15Z" fill="currentColor"/>
<path d="M11 15H12V16H11V15Z" fill="currentColor"/>
<path d="M11 8H12V9H11V8Z" fill="currentColor"/>
<path d="M4 9H3V15H4V9Z" fill="currentColor"/>
<path d="M6 11H5V13H6V11Z" fill="currentColor"/>
<path d="M7 9V10H9V9H7Z" fill="currentColor"/>
<path d="M11 11H10V13H11V11Z" fill="currentColor"/>
<path d="M7 14V15H9V14H7Z" fill="currentColor"/>
<path d="M5 16V17H11V16H5Z" fill="currentColor"/>
<path d="M13 15V14H17V16H18V17H20V16H19V14H18V13H12V15H13Z" fill="currentColor"/>
<path d="M21 11H20V16H21V11Z" fill="currentColor"/>
<path d="M13 9H12V11H20V10H13V9Z" fill="currentColor"/>
<path d="M11 8V7H5V8H11Z" fill="currentColor"/>
</svg>
