<svg width="24" height="24" viewBox="0 0 24 24" fill="none" xmlns="http://www.w3.org/2000/svg">
<path d="M8 16.3334L7 16.3334V15.3334H8L8 16.3334Z" fill="currentColor"/>
<path d="M8 7.33337L7 7.33338V8.33338H8L8 7.33337Z" fill="currentColor"/>
<path d="M7 15.3334L6 15.3334V14.3334H7L7 15.3334Z" fill="currentColor"/>
<path d="M7 8.33338L6 8.33337V9.33337H7L7 8.33338Z" fill="currentColor"/>
<path d="M6 14.3334L5 14.3334V13.3334H6L6 14.3334Z" fill="currentColor"/>
<path d="M6 9.33337L5 9.33337V10.3334H6L6 9.33337Z" fill="currentColor"/>
<path d="M18 12.3334H17V13.3334H18V12.3334Z" fill="currentColor"/>
<path d="M18 12.3334H17V13.3334H18V12.3334Z" fill="currentColor"/>
<path d="M18 10.3334H17L17 11.3334L18 11.3334V10.3334Z" fill="currentColor"/>
<path d="M8 6.33337V7.33337H19V6.33337H8Z" fill="currentColor"/>
<path d="M19 16.3334L20 16.3334V7.33338L19 7.33337V16.3334Z" fill="currentColor"/>
<path d="M14 11.3334V10.3334L17 10.3334L17 9.33337H13V14.3334H17L17 13.3334H14V12.3334L17 12.3334L17 11.3334L14 11.3334Z" fill="currentColor"/>
<path d="M9 9.33337H8V14.3334H12V13.3334L9 13.3334V9.33337Z" fill="currentColor"/>
<path d="M8 16.3334V17.3334H19V16.3334H8Z" fill="currentColor"/>
<path d="M5 10.3334L4 10.3334L4 13.3334L5 13.3334V10.3334Z" fill="currentColor"/>
</svg>
