<svg width="24" height="24" viewBox="0 0 24 24" fill="none" xmlns="http://www.w3.org/2000/svg">
<path d="M17 16.3334L18 16.3334V15.3334H17L17 16.3334Z" fill="currentColor"/>
<path d="M17 7.33337L18 7.33338V8.33338H17L17 7.33337Z" fill="currentColor"/>
<path d="M18 15.3334L19 15.3334V14.3334H18L18 15.3334Z" fill="currentColor"/>
<path d="M18 8.33338L19 8.33337V9.33337H18L18 8.33338Z" fill="currentColor"/>
<path d="M5.00001 6.33337V7.33337H17V6.33337H5.00001Z" fill="currentColor"/>
<path d="M4 16.3334L5.00001 16.3334V7.33337L4 7.33338V16.3334Z" fill="currentColor"/>
<path d="M17 17.3334V16.3334H5.00001V17.3334H17Z" fill="currentColor"/>
<path d="M20 9.33337L19 9.33337V14.3334L20 14.3334V9.33337Z" fill="currentColor"/>
</svg>
