<svg width="24" height="24" viewBox="0 0 24 24" fill="none" xmlns="http://www.w3.org/2000/svg">
<path d="M17 10L16 10L16 11L17 11L17 10Z" fill="black"/>
<path d="M18 9L17 9L17 10L18 10L18 9Z" fill="black"/>
<path d="M17 14L16 14L16 13L17 13L17 14Z" fill="black"/>
<path d="M18 15L17 15L17 14L18 14L18 15Z" fill="black"/>
<path d="M19 15L18 15L18 17L19 17L19 15Z" fill="black"/>
<path d="M18 18L18 17L14 17L14 18L18 18Z" fill="black"/>
<path d="M14 17L14 16L12 16L12 17L14 17Z" fill="black"/>
<path d="M12 16L12 15L10 15L10 16L12 16Z" fill="black"/>
<path d="M10 15L10 14L8 14L8 15L10 15Z" fill="black"/>
<path d="M8 14L8 13L6 13L6 14L8 14Z" fill="black"/>
<path d="M6 11L5 11L5 13L6 13L6 11Z" fill="black"/>
<path d="M8 11L8 10L6 10L6 11L8 11Z" fill="black"/>
<path d="M10 10L10 9L8 9L8 10L10 10Z" fill="black"/>
<path d="M12 9L12 8L10 8L10 9L12 9Z" fill="black"/>
<path d="M14 8L14 7L12 7L12 8L14 8Z" fill="black"/>
<path d="M18 7L18 6L14 6L14 7L18 7Z" fill="black"/>
<path d="M18 9L19 9L19 7L18 7L18 9Z" fill="black"/>
<path d="M16 11L15 11L15 13L16 13L16 11Z" fill="black"/>
</svg>
