<svg width="24" height="24" viewBox="0 0 24 24" fill="none" xmlns="http://www.w3.org/2000/svg">
<path d="M14.3333 5.66663H13.3333V4.66663H14.3333V5.66663Z" fill="currentColor"/>
<path d="M17.3333 19.6666H16.3333V18.6666H17.3333V19.6666Z" fill="currentColor"/>
<path d="M9.33325 19.6666H8.33325V18.6666H9.33325V19.6666Z" fill="currentColor"/>
<path d="M9.33325 8.66663H8.33325V7.66663H9.33325V8.66663Z" fill="currentColor"/>
<path d="M17.3333 8.66663H16.3333V7.66663H17.3333V8.66663Z" fill="currentColor"/>
<path d="M7.33325 6.66663H6.33325V5.66663H7.33325V6.66663Z" fill="currentColor"/>
<path d="M17.3333 12.6666V11.6666V8.66663H18.3333V18.6666H17.3333V12.6666Z" fill="currentColor"/>
<path d="M7.33325 5.66663V4.66663H9.33325V5.66663H7.33325Z" fill="currentColor"/>
<path d="M15.3333 4.66663H14.3333V2.66663H15.3333V4.66663Z" fill="currentColor"/>
<path d="M8.33325 18.6666H7.33325V8.66663H8.33325V11.6666H12.3333V7.66663H9.33325V6.66663H12.3333V5.66663H13.3333V6.66663H16.3333V7.66663H13.3333V11.6666H17.3333V12.6666H8.33325V18.6666Z" fill="currentColor"/>
<path d="M5.33325 6.66663H6.33325V8.66663H5.33325V6.66663Z" fill="currentColor"/>
<path d="M16.3333 19.6666V20.6666H9.33325V19.6666H16.3333Z" fill="currentColor"/>
</svg>
