<svg width="24" height="24" viewBox="0 0 24 24" fill="none" xmlns="http://www.w3.org/2000/svg">
<path d="M6 15.3334H7V16.3334H6V15.3334Z" fill="currentColor"/>
<path d="M17 15.3334H18V16.3334H17V15.3334Z" fill="currentColor"/>
<path d="M15 10.3334H16V11.3334H15V10.3334Z" fill="currentColor"/>
<path d="M14 11.3334H15V12.3334H14V11.3334Z" fill="currentColor"/>
<path d="M16 9.33337H17V10.3334H16V9.33337Z" fill="currentColor"/>
<path d="M7 9.33337H8V10.3334H7V9.33337Z" fill="currentColor"/>
<path d="M8 10.3334H9V11.3334H8V10.3334Z" fill="currentColor"/>
<path d="M9 11.3334H10V12.3334H9V11.3334Z" fill="currentColor"/>
<path d="M18 15.3334H19V8.33337H18V7.33337H17V9.33337H18V15.3334Z" fill="currentColor"/>
<path d="M14 13.3334V12.3334H10V13.3334H14Z" fill="currentColor"/>
<path d="M6 8.33337H5V15.3334H6V9.33337H7V7.33337H6V8.33337Z" fill="currentColor"/>
<path d="M7 6.33337V7.33337H17V6.33337H7Z" fill="currentColor"/>
<path d="M7 16.3334V17.3334H17V16.3334H7Z" fill="currentColor"/>
</svg>
