<svg width="24" height="24" viewBox="0 0 24 24" fill="none" xmlns="http://www.w3.org/2000/svg">
<path fill-rule="evenodd" clip-rule="evenodd" d="M14 4.00049H11.0004V5.00049H9V6.00049H8V8.00049H7V12.0005H8V14.0005H9V18.9957H10V19.9957L15 20.0005V19.0005H16V14.0005H17V12.0005H18V8.00049H17V6.00049H16V5.00049H14V4.00049ZM14 5.00049V6.00049H16V8.00049H17V12.0005H16V14.0005H15L15.0004 15.0005L13.0007 14.9964V9.00049H14V7.99573L11 8.00049V9.00049H12V14.9964L10 15.0005V14.0005H9V12.0005H8V8.00049H9V6.00049H11.0004V5.00049H14ZM12 9.00049L13.0007 8.99762V9.00049H12ZM15 19.0005L10 18.9957V17.9957H15.0004L15 19.0005ZM10 16.9957V16.0005H15L15.0004 16.9957H10Z" fill="currentColor"/>
</svg>
