<svg width="24" height="24" viewBox="0 0 24 24" fill="none" xmlns="http://www.w3.org/2000/svg">
<path d="M6.66677 18.3334H5.66673L5.66675 17.3334H6.66673L6.66677 18.3334Z" fill="currentColor"/>
<path d="M18.6667 18.3334H17.6667V17.3334H18.6667V18.3334Z" fill="currentColor"/>
<path d="M12.6667 14.3334H11.6667V13.3334H12.6667V14.3334Z" fill="currentColor"/>
<path d="M11.6667 13.3334H10.6667V12.3334H11.6667V13.3334Z" fill="currentColor"/>
<path d="M10.6667 12.3334H9.66677V11.3334H10.6668L10.6667 12.3334Z" fill="currentColor"/>
<path d="M13.6668 13.3334H12.6667V12.3334H13.6668V13.3334Z" fill="currentColor"/>
<path d="M14.6667 12.3334H13.6668L13.6667 11.3334H14.6667V12.3334Z" fill="currentColor"/>
<path d="M4.66675 17.3334H5.66675L5.66673 8.33337H4.66675V17.3334Z" fill="currentColor"/>
<path d="M12.6667 4.33337H11.6667L11.6667 7.33337H5.66673V8.33337H11.6667L11.6667 12.3334H12.6667L12.6668 8.33337H18.6667V7.33337H12.6668L12.6667 4.33337Z" fill="currentColor"/>
<path d="M19.6668 8.33337H18.6667V17.3334H19.6667L19.6668 8.33337Z" fill="currentColor"/>
<path d="M6.66677 18.3334V19.3334H17.6668L17.6667 18.3334H6.66677Z" fill="currentColor"/>
</svg>
