<svg width="24" height="24" viewBox="0 0 24 24" fill="none" xmlns="http://www.w3.org/2000/svg">
<path d="M7.33325 18.3334H6.33325V17.3334H7.33325V18.3334Z" fill="currentColor"/>
<path d="M17.3333 18.3334H16.3333V17.3334H17.3333V18.3334Z" fill="currentColor"/>
<path d="M9.33325 6.33337H8.33325V5.33337H9.33325V6.33337Z" fill="currentColor"/>
<path d="M15.3333 6.33337H14.3333V5.33337H15.3333V6.33337Z" fill="currentColor"/>
<path d="M7.33325 12.3334H8.33325V10.3334H15.3333V12.3334H16.3333V10.3334H17.3333V9.33337H16.3333V6.33337H15.3333V9.33337H8.33325V6.33337H7.33325V9.33337H6.33325V10.3334H7.33325V12.3334Z" fill="currentColor"/>
<path d="M9.33325 4.33337V5.33337H14.3333V4.33337H9.33325Z" fill="currentColor"/>
<path d="M18.3333 10.3334H17.3333V17.3334H18.3333V10.3334Z" fill="currentColor"/>
<path d="M12.3333 16.3334V15.3334H13.3333V14.3334H12.3333V13.3334H11.3333V14.3334H10.3333V15.3334H11.3333V16.3334H12.3333Z" fill="currentColor"/>
<path d="M5.33325 17.3334H6.33325V10.3334H5.33325V17.3334Z" fill="currentColor"/>
<path d="M7.33325 18.3334V19.3334H16.3333V18.3334H7.33325Z" fill="currentColor"/>
</svg>
