<svg width="24" height="24" viewBox="0 0 24 24" fill="none" xmlns="http://www.w3.org/2000/svg">
<path d="M14.6667 9H15.6667V8H14.6667V9Z" fill="currentColor"/>
<path d="M15.6667 10H16.6667V9H15.6667V10Z" fill="currentColor"/>
<path d="M15.6667 15H16.6667V14H15.6667V15Z" fill="currentColor"/>
<path d="M14.6667 16H15.6667V15H14.6667V16Z" fill="currentColor"/>
<path d="M12.6667 11H13.6667V10H12.6667V11Z" fill="currentColor"/>
<path d="M12.6667 14H13.6667V13H12.6667V14Z" fill="currentColor"/>
<path d="M17.6667 10H16.6667V14H17.6667V10Z" fill="currentColor"/>
<path d="M14.6667 11H13.6667V13H14.6667V11Z" fill="currentColor"/>
<path d="M7.66675 17V18H9.66675V17H7.66675Z" fill="currentColor"/>
<path d="M5.66675 16V17H7.66675V16H5.66675Z" fill="currentColor"/>
<path d="M3.66675 15V16H5.66675V15H3.66675Z" fill="currentColor"/>
<path d="M3.66675 9H2.66675V15H3.66675V9Z" fill="currentColor"/>
<path d="M5.66675 9V8H3.66675V9H5.66675Z" fill="currentColor"/>
<path d="M7.66675 8V7H5.66675V8H7.66675Z" fill="currentColor"/>
<path d="M9.66675 7V6H7.66675V7H9.66675Z" fill="currentColor"/>
<path d="M9.66675 17H10.6667V7H9.66675V17Z" fill="currentColor"/>
<path d="M18.3334 8H19.3334V7H18.3334V8Z" fill="currentColor"/>
<path d="M18.3334 17H19.3334V16H18.3334V17Z" fill="currentColor"/>
<path d="M19.3334 16H20.3334V14H19.3334V16Z" fill="currentColor"/>
<path d="M21.3334 10H20.3334V14H21.3334V10Z" fill="currentColor"/>
<path d="M20.3334 8H19.3334V10H20.3334V8Z" fill="currentColor"/>
</svg>
