<svg width="24" height="24" viewBox="0 0 24 24" fill="none" xmlns="http://www.w3.org/2000/svg">
<path d="M8.00001 16.3334L7 16.3334V15.3334H8L8.00001 16.3334Z" fill="currentColor"/>
<path d="M8.00001 7.33337L7 7.33338V8.33338H8L8.00001 7.33337Z" fill="currentColor"/>
<path d="M7 15.3334L6.00001 15.3334V14.3334H7.00001L7 15.3334Z" fill="currentColor"/>
<path d="M7 8.33338L6.00001 8.33337V9.33337H7.00001L7 8.33338Z" fill="currentColor"/>
<path d="M6.00001 14.3334L5.00001 14.3334V13.3334H6.00001L6.00001 14.3334Z" fill="currentColor"/>
<path d="M6.00001 9.33337L5.00001 9.33337V10.3334H6.00001L6.00001 9.33337Z" fill="currentColor"/>
<path d="M15 14.3334H16V10.3334H18V9.33337H13V10.3334H15V14.3334Z" fill="currentColor"/>
<path d="M8.00001 9.33338H9.00001V13.3334L12 13.3334V14.3334L8.00001 14.3334V13.3334V9.33338Z" fill="currentColor"/>
<path d="M5.00001 10.3334L4 10.3334L4 13.3334L5.00001 13.3334V10.3334Z" fill="currentColor"/>
<path d="M8.00001 16.3334V17.3334H19V16.3334H8.00001Z" fill="currentColor"/>
<path d="M19 16.3334L20 16.3334V7.33338L19 7.33337V16.3334Z" fill="currentColor"/>
<path d="M8.00001 6.33337V7.33337H19V6.33337H8.00001Z" fill="currentColor"/>
</svg>
