<svg width="24" height="24" viewBox="0 0 24 24" fill="none" xmlns="http://www.w3.org/2000/svg">
<path d="M5 9H6V10H5V9Z" fill="currentColor"/>
<path d="M19 14H18V15H19V14Z" fill="currentColor"/>
<path d="M5 19H6V20H5V19Z" fill="currentColor"/>
<path d="M6 18H7V19H6V18Z" fill="currentColor"/>
<path d="M19 5H18V4H19V5Z" fill="currentColor"/>
<path d="M18 6H17V5H18V6Z" fill="currentColor"/>
<path d="M6 8H7V9H6V8Z" fill="currentColor"/>
<path d="M18 16H17V15H18V16Z" fill="currentColor"/>
<path fill-rule="evenodd" clip-rule="evenodd" d="M7 7V8H9V17H17V16H15V7H7ZM10 16V8H14V16H10Z" fill="currentColor"/>
<path d="M7 17V18H9V17H7Z" fill="currentColor"/>
<path d="M5 10H4V19H5V10Z" fill="currentColor"/>
<path d="M17 7V6H15V7H17Z" fill="currentColor"/>
<path d="M19 14H20V5H19V14Z" fill="currentColor"/>
</svg>
