<svg width="24" height="24" viewBox="0 0 24 24" fill="none" xmlns="http://www.w3.org/2000/svg">
<path d="M14.6667 6H15.6667V7H14.6667V6Z" fill="currentColor"/>
<path d="M15.6667 5H16.6667V6H15.6667V5Z" fill="currentColor"/>
<path d="M7.66675 5H8.66675V6H7.66675V5Z" fill="currentColor"/>
<path d="M8.66675 6H9.66675V7H8.66675V6Z" fill="currentColor"/>
<path d="M15.6667 5V4H8.66675V5H15.6667Z" fill="currentColor"/>
<path d="M14.6667 8V7H9.66675V8H11.6667V9H10.6667V10H13.6667V9H12.6667V8H14.6667Z" fill="currentColor"/>
<path d="M13.6667 10V11H15.6667V10H13.6667Z" fill="currentColor"/>
<path d="M15.6667 13H16.6667V11H15.6667V13Z" fill="currentColor"/>
<path d="M16.6667 16H17.6667V13H16.6667V16Z" fill="currentColor"/>
<path d="M16.6667 16H15.6667V18H16.6667V16Z" fill="currentColor"/>
<path d="M13.6667 18V19H15.6667V18H13.6667Z" fill="currentColor"/>
<path d="M10.6667 19V20H13.6667V19H10.6667Z" fill="currentColor"/>
<path d="M10.6667 19V18H8.66675V19H10.6667Z" fill="currentColor"/>
<path d="M8.66675 16H7.66675V18H8.66675V16Z" fill="currentColor"/>
<path d="M7.66675 13H6.66675V16H7.66675V13Z" fill="currentColor"/>
<path d="M7.66675 13H8.66675V11H7.66675V13Z" fill="currentColor"/>
<path d="M10.6667 11V10H8.66675V11H10.6667Z" fill="currentColor"/>
</svg>
