<svg width="24" height="24" viewBox="0 0 24 24" fill="none" xmlns="http://www.w3.org/2000/svg">
<path fill-rule="evenodd" clip-rule="evenodd" d="M6.00032 20.0005H9.00032V19.0005H10.0003V18.0005H11.0003V10.0005H13.0003V9.00049H15.0003V14.0005H13.0003V15.0005H12.0003V17.0005H13.0003V18.0005H16.0003V17.0005H17.0003V16.0005H18.0003V5.00049H17.0003V4.00049H15.0003V5.00049H13.0003V6.00049H11.0003V7.00049H9.00032V8.00049H8.00032V16.0005H6.00032V17.0005L5 17.0006L5.00032 19.0118L6.00032 19.0117V20.0005ZM6.00032 17.0005V19.0005H9.00032V18.0005H10.0003V10.0005H11.0003V9.00049H13.0003V8.00049H15.0003V9.00049H16.0003V14.0005H15.0003V15.0005H13.0003V17.0005H16.0003V16.0005H17.0003V5.00049H15.0003V6.00049H13.0003V7.00049H11.0003V8.00049H9.00032V16.0005H8.00032V17.0005H6.00032Z" fill="currentColor"/>
</svg>
