<svg width="24" height="24" viewBox="0 0 24 24" fill="none" xmlns="http://www.w3.org/2000/svg">
<path d="M10.3333 11.6666V10.6666H6.33325L6.33325 11.6666H10.3333Z" fill="currentColor"/>
<path d="M6.33325 6.66663L5.33325 6.66663L5.33325 10.6666H6.33325V6.66663Z" fill="currentColor"/>
<path d="M10.3333 6.66663V5.66663L6.33325 5.66663V6.66663L10.3333 6.66663Z" fill="currentColor"/>
<path d="M11.3333 6.66663L10.3333 6.66663V10.6666H11.3333V6.66663Z" fill="currentColor"/>
<path d="M13.3333 6.66663L12.3333 6.66663V10.6666H13.3333V6.66663Z" fill="currentColor"/>
<path d="M17.3333 6.66663V5.66663L13.3333 5.66663V6.66663L17.3333 6.66663Z" fill="currentColor"/>
<path d="M17.3333 11.6666V10.6666H13.3333V11.6666H17.3333Z" fill="currentColor"/>
<path d="M18.3333 6.66663L17.3333 6.66663V10.6666H18.3333V6.66663Z" fill="currentColor"/>
<path d="M6.33325 13.6666H5.33325L5.33325 17.6666H6.33325V13.6666Z" fill="currentColor"/>
<path d="M10.3333 13.6666V12.6666H6.33325V13.6666H10.3333Z" fill="currentColor"/>
<path d="M10.3333 18.6666V17.6666H6.33325L6.33325 18.6666H10.3333Z" fill="currentColor"/>
<path d="M11.3333 13.6666H10.3333V17.6666H11.3333V13.6666Z" fill="currentColor"/>
<path d="M13.3333 13.6666H12.3333V17.6666H13.3333V13.6666Z" fill="currentColor"/>
<path d="M17.3333 18.6666V17.6666H13.3333V18.6666H17.3333Z" fill="currentColor"/>
<path d="M18.3333 13.6666H17.3333V17.6666H18.3333V13.6666Z" fill="currentColor"/>
<path d="M17.3333 13.6666V12.6666H13.3333V13.6666H17.3333Z" fill="currentColor"/>
</svg>
