<svg width="24" height="24" viewBox="0 0 24 24" fill="none" xmlns="http://www.w3.org/2000/svg">
<path d="M13.6667 12.3334H14.6667V13.3334H13.6667V12.3334Z" fill="currentColor"/>
<path d="M9.66675 12.3334H10.6667V13.3334H9.66675V12.3334Z" fill="currentColor"/>
<path d="M13.6667 5.33337H14.6667V6.33337H13.6667V5.33337Z" fill="currentColor"/>
<path d="M9.66675 5.33337H10.6667V6.33337H9.66675V5.33337Z" fill="currentColor"/>
<path d="M13.6667 5.33337V4.33337H10.6667V5.33337H13.6667Z" fill="currentColor"/>
<path d="M8.66675 12.3334H9.66675V6.33337H8.66675V12.3334Z" fill="currentColor"/>
<path d="M14.6667 12.3334H15.6667V6.33337H14.6667V12.3334Z" fill="currentColor"/>
<path d="M13.6667 14.3334V13.3334H10.6667V14.3334H13.6667Z" fill="currentColor"/>
<path d="M6.66675 10.3334H5.66675V12.3334H6.66675V10.3334Z" fill="currentColor"/>
<path d="M7.66675 12.3334H6.66675V14.3334H7.66675V12.3334Z" fill="currentColor"/>
<path d="M9.66675 15.3334V14.3334H7.66675V15.3334H9.66675Z" fill="currentColor"/>
<path d="M9.66675 15.3334V16.3334H11.6667V19.3334H12.6667V16.3334H14.6667V15.3334H9.66675Z" fill="currentColor"/>
<path d="M16.6667 14.3334H17.6667V12.3334H16.6667V14.3334Z" fill="currentColor"/>
<path d="M14.6667 14.3334V15.3334H16.6667V14.3334H14.6667Z" fill="currentColor"/>
<path d="M17.6667 12.3334H18.6667V10.3334H17.6667V12.3334Z" fill="currentColor"/>
</svg>
