<svg width="24" height="24" viewBox="0 0 24 24" fill="none" xmlns="http://www.w3.org/2000/svg">
<path d="M13 4.00049H16V5.00049H14V6.00049H13V4.00049Z" fill="currentColor"/>
<path d="M15 9.00049H14V6.00049H15V9.00049Z" fill="currentColor"/>
<path d="M15 12.0005V9.00049H16V12.0005H15Z" fill="currentColor"/>
<path d="M14 14.0005V12.0005H15V14.0005H14Z" fill="currentColor"/>
<path d="M12 15.0005V14.0005H14V15.0005H12Z" fill="currentColor"/>
<path d="M9 15.0005H12V16.0005H9V15.0005Z" fill="currentColor"/>
<path d="M6 14.0005H9V15.0005H6V14.0005Z" fill="currentColor"/>
<path d="M5 16.0005H4V13.0005H6V14.0005H5V16.0005Z" fill="currentColor"/>
<path d="M6 17.0005H5V16.0005H6V17.0005Z" fill="currentColor"/>
<path d="M7 18.0005H6V17.0005H7V18.0005Z" fill="currentColor"/>
<path d="M9 19.0005H7V18.0005H9V19.0005Z" fill="currentColor"/>
<path d="M15 19.0005V20.0005H9V19.0005H15Z" fill="currentColor"/>
<path d="M16 18.0005V19.0005H15V18.0005H16Z" fill="currentColor"/>
<path d="M17 17.0005V18.0005H16V17.0005H17Z" fill="currentColor"/>
<path d="M18 16.0005V17.0005H17V16.0005H18Z" fill="currentColor"/>
<path d="M19 14.0005V16.0005H18V14.0005H19Z" fill="currentColor"/>
<path d="M19 9.00049H20V14.0005H19V9.00049Z" fill="currentColor"/>
<path d="M18 7.00049H19V9.00049H18V7.00049Z" fill="currentColor"/>
<path d="M17 6.00049H18V7.00049H17V6.00049Z" fill="currentColor"/>
<path d="M17 6.00049V5.00049H16V6.00049H17Z" fill="currentColor"/>
</svg>
