<svg width="24" height="24" viewBox="0 0 24 24" fill="none" xmlns="http://www.w3.org/2000/svg">
<path fill-rule="evenodd" clip-rule="evenodd" d="M21 18V6H20V5H19V6H18V7H17V8H16V9H15V10H14V11H13V10H12V9H11V8H10V7H9V8H8V9H7V10H6V11H5V12H4V13H3V18H4V19H20V18H21ZM19 11H20V18H4V17H5V16H6V15H7V14H8V15H9V16H10V15H11V14H12V13H13V12H14V11H15V12H17V11H18V12H19V11ZM19 11H18V10H17V11H15V10H16V9H17V8H18V7H19V6H20V10H19V11ZM13 12H12V13H11V14H10V15H9V14H8V13H7V14H6V15H5V16H4V13H5V12H6V11H7V10H8V9H9V8H10V9H11V10H12V11H13V12Z" fill="currentColor"/>
</svg>
