<svg width="24" height="24" viewBox="0 0 24 24" fill="none" xmlns="http://www.w3.org/2000/svg">
<path d="M6 13V14H8V13H6Z" fill="currentColor"/>
<path d="M5 18H6V14H5L5 18Z" fill="currentColor"/>
<path d="M8 18H9V14H8V18Z" fill="currentColor"/>
<path d="M6 18V19H8V18H6Z" fill="currentColor"/>
<path d="M11 18V19H13V18H11Z" fill="currentColor"/>
<path d="M10 18H11V10H10V18Z" fill="currentColor"/>
<path d="M13 18H14V10H13V18Z" fill="currentColor"/>
<path d="M11 9V10H13V9H11Z" fill="currentColor"/>
<path d="M15 18H16V6H15V18Z" fill="currentColor"/>
<path d="M16 5V6H18V5H16Z" fill="currentColor"/>
<path d="M18 18H19V6H18V18Z" fill="currentColor"/>
<path d="M16 18V19H18V18H16Z" fill="currentColor"/>
</svg>
