<svg width="24" height="24" viewBox="0 0 24 24" fill="none" xmlns="http://www.w3.org/2000/svg">
<path d="M14 12H15V13H14V12Z" fill="currentColor"/>
<path d="M15 11H16V12H15V11Z" fill="currentColor"/>
<path d="M15 6H16V7H15V6Z" fill="currentColor"/>
<path d="M14 5H15V6H14V5Z" fill="currentColor"/>
<path d="M12 11H11V12H12V11Z" fill="currentColor"/>
<path d="M12 11H11V12H12V11Z" fill="currentColor"/>
<path d="M13 10H12V11H13V10Z" fill="currentColor"/>
<path d="M14 13H13V14H14V13Z" fill="currentColor"/>
<path d="M11 8H10V9H11V8Z" fill="currentColor"/>
<path d="M9 6H8V7H9V6Z" fill="currentColor"/>
<path d="M10 5H9V6H10V5Z" fill="currentColor"/>
<path d="M16 11H17V7H16V11Z" fill="currentColor"/>
<path d="M14 5V4H10V5H14Z" fill="currentColor"/>
<path d="M8 7H7V9H8V7Z" fill="currentColor"/>
<path d="M10 10V9H8V10H10Z" fill="currentColor"/>
<path d="M11 7V8H13V7H11Z" fill="currentColor"/>
<path d="M13 10H14V8H13V10Z" fill="currentColor"/>
<path d="M10 14H11V12H10V14Z" fill="currentColor"/>
<path d="M11 14V15H13V14H11Z" fill="currentColor"/>
<path d="M11 16V17H13V16H11Z" fill="currentColor"/>
<path d="M10 19H11V17H10V19Z" fill="currentColor"/>
<path d="M13 20V19H11V20H13Z" fill="currentColor"/>
<path d="M14 17H13V19H14V17Z" fill="currentColor"/>
</svg>
