<svg width="24" height="24" viewBox="0 0 24 24" fill="none" xmlns="http://www.w3.org/2000/svg">
<path d="M16 11H17V10H16V11Z" fill="currentColor"/>
<path d="M16 14H17V13H16V14Z" fill="currentColor"/>
<path d="M13 7V6H11V7H13Z" fill="currentColor"/>
<path d="M11 8V7H9V8H11Z" fill="currentColor"/>
<path d="M9 9V8H7V9H9Z" fill="currentColor"/>
<path d="M7 9H6V15H7V9Z" fill="currentColor"/>
<path d="M7 15V16H9V15H7Z" fill="currentColor"/>
<path d="M9 16V17H11V16H9Z" fill="currentColor"/>
<path d="M11 17V18H13V17H11Z" fill="currentColor"/>
<path d="M13 17H14V7H13V17Z" fill="currentColor"/>
<path d="M18 11H17V13H18V11Z" fill="currentColor"/>
</svg>
