<svg width="24" height="24" viewBox="0 0 24 24" fill="none" xmlns="http://www.w3.org/2000/svg">
<path d="M16 16.3334L17 16.3334V15.3334H16V16.3334Z" fill="currentColor"/>
<path d="M16 7.33337L17 7.33338V8.33338H16V7.33337Z" fill="currentColor"/>
<path d="M17 15.3334L18 15.3334V14.3334H17V15.3334Z" fill="currentColor"/>
<path d="M17 8.33338L18 8.33337V9.33337H17V8.33338Z" fill="currentColor"/>
<path d="M18 14.3334L19 14.3334V13.3334H18V14.3334Z" fill="currentColor"/>
<path d="M18 9.33337L19 9.33337V10.3334H18V9.33337Z" fill="currentColor"/>
<path d="M10 13.3334L9 13.3334V14.3334H10V13.3334Z" fill="currentColor"/>
<path d="M16 12.3334H15L15 13.3334L16 13.3334V12.3334Z" fill="currentColor"/>
<path d="M16 12.3334H15L15 13.3334L16 13.3334V12.3334Z" fill="currentColor"/>
<path d="M16 10.3334H15V11.3334H16V10.3334Z" fill="currentColor"/>
<path d="M12 11.3334V10.3334L15 10.3334L15 9.33337H11V14.3334H15V13.3334H14H13L12 13.3334V12.3334L15 12.3334V11.3334H12Z" fill="currentColor"/>
<path fill-rule="evenodd" clip-rule="evenodd" d="M6 14.3334H7V12.3334H8V13.3334H9V12.3334H10V9.33337H6V14.3334ZM7 10.3334V11.3334H9V10.3334L7 10.3334Z" fill="currentColor"/>
<path d="M20 10.3334L19 10.3334V13.3334L20 13.3334V10.3334Z" fill="currentColor"/>
<path d="M16 7.33337V6.33337H5V7.33337H16Z" fill="currentColor"/>
<path d="M4 16.3334L5 16.3334V7.33337L4 7.33338V16.3334Z" fill="currentColor"/>
<path d="M16 17.3334V16.3334H5V17.3334H16Z" fill="currentColor"/>
</svg>
