<svg width="24" height="24" viewBox="0 0 24 24" fill="none" xmlns="http://www.w3.org/2000/svg">
<path d="M7 14L8 14L8 13L7 13L7 14Z" fill="black"/>
<path d="M6 15L7 15L7 14L6 14L6 15Z" fill="black"/>
<path d="M7 10L8 10L8 11L7 11L7 10Z" fill="black"/>
<path d="M6 9L7 9L7 10L6 10L6 9Z" fill="black"/>
<path d="M5 9L6 9L6 7L5 7L5 9Z" fill="black"/>
<path d="M6 6L6 7L10 7L10 6L6 6Z" fill="black"/>
<path d="M10 7L10 8L12 8L12 7L10 7Z" fill="black"/>
<path d="M12 8L12 9L14 9L14 8L12 8Z" fill="black"/>
<path d="M14 9L14 10L16 10L16 9L14 9Z" fill="black"/>
<path d="M16 10L16 11L18 11L18 10L16 10Z" fill="black"/>
<path d="M18 13L19 13L19 11L18 11L18 13Z" fill="black"/>
<path d="M16 13L16 14L18 14L18 13L16 13Z" fill="black"/>
<path d="M14 14L14 15L16 15L16 14L14 14Z" fill="black"/>
<path d="M12 15L12 16L14 16L14 15L12 15Z" fill="black"/>
<path d="M10 16L10 17L12 17L12 16L10 16Z" fill="black"/>
<path d="M6 17L6 18L10 18L10 17L6 17Z" fill="black"/>
<path d="M6 15L5 15L5 17L6 17L6 15Z" fill="black"/>
<path d="M8 13L9 13L9 11L8 11L8 13Z" fill="black"/>
</svg>
