<svg width="24" height="24" viewBox="0 0 24 24" fill="none" xmlns="http://www.w3.org/2000/svg">
<path d="M12.6667 12.3334H11.6667V11.3334H12.6667V12.3334Z" fill="currentColor"/>
<path d="M13.6667 11.3334H12.6667V10.3334H13.6667V11.3334Z" fill="currentColor"/>
<path d="M11.6667 13.3334H10.6667V12.3334H11.6667V13.3334Z" fill="currentColor"/>
<path d="M6.66675 5.33337V6.33337H17.6667V5.33337H6.66675Z" fill="currentColor"/>
<path d="M12.6667 9.33337V8.33337H15.6667V9.33337V11.3334H14.6667V9.33337H12.6667Z" fill="currentColor"/>
<path d="M8.66675 12.3334H9.66675V14.3334H11.6667V15.3334H8.66675V12.3334Z" fill="currentColor"/>
<path d="M5.66675 17.3334H6.66675V6.33337H5.66675V17.3334Z" fill="currentColor"/>
<path d="M6.66675 17.3334V18.3334H17.6667V17.3334H6.66675Z" fill="currentColor"/>
<path d="M18.6667 6.33337H17.6667V17.3334H18.6667V6.33337Z" fill="currentColor"/>
</svg>
