<svg width="24" height="24" viewBox="0 0 24 24" fill="none" xmlns="http://www.w3.org/2000/svg">
<path d="M13 6.00001L14 6.00003L14 5.00001H13V6.00001Z" fill="currentColor"/>
<path d="M11 6.00001L10 6.00003L10 5.00001H11V6.00001Z" fill="currentColor"/>
<path d="M18 11H19V10L18 10L18 11Z" fill="currentColor"/>
<path d="M6 11H5V10H6V11Z" fill="currentColor"/>
<path d="M18 14H19L19 13L18 13V14Z" fill="currentColor"/>
<path d="M6 14H5L5 13L6 13V14Z" fill="currentColor"/>
<path d="M13 19L14 19L14 18L13 18L13 19Z" fill="currentColor"/>
<path d="M11 19L10 19L10 18L11 18L11 19Z" fill="currentColor"/>
<path d="M15 10H14V14H15V10Z" fill="currentColor"/>
<path d="M14 10L14 9.00003H10L10 10H14Z" fill="currentColor"/>
<path d="M10 10H9V14H10V10Z" fill="currentColor"/>
<path d="M14 15L14 14H10L10 15H14Z" fill="currentColor"/>
<path d="M7 17L7 18H10V17L7 17Z" fill="currentColor"/>
<path d="M6 17H7V14L6 14L6 17Z" fill="currentColor"/>
<path d="M5 11L4 11V13H5L5 11Z" fill="currentColor"/>
<path d="M6 10L7 10L7 7.00003L6 7L6 10Z" fill="currentColor"/>
<path d="M10 7.00003V6.00003H7V7.00003H10Z" fill="currentColor"/>
<path d="M13 5.00001L13 4H11L11 5.00001H13Z" fill="currentColor"/>
<path d="M14 6.00003V7.00003H17V6.00003H14Z" fill="currentColor"/>
<path d="M17 10H18V7L17 7.00003L17 10Z" fill="currentColor"/>
<path d="M20 11L19 11L19 13H20V11Z" fill="currentColor"/>
<path d="M17 17H18L18 14L17 14V17Z" fill="currentColor"/>
<path d="M17 18L17 17L14 17V18H17Z" fill="currentColor"/>
<path d="M13 20V19H11V20H13Z" fill="currentColor"/>
</svg>
