<svg width="24" height="24" viewBox="0 0 24 24" fill="none" xmlns="http://www.w3.org/2000/svg">
<path d="M8.99996 4L8.99999 5H7.99999L8.00003 6H7.00003V6.99999L6 7L6 8H5V14H6L6 15H7L7.00003 17H8.00003L8 18H8.99997V20H9.99997L10 17L8.00003 17V15L7 15V14L6 14V8L7 8L7.00003 6.99999H8.00003V6L8.99999 6V5H16V6L17 6V6.99999H18L18 8L19 8V14L18 14V15L17 15V17L15 17V20H16V18H17V17H18L18 15H19L19 14H20V8H19L19 7L18 6.99999V6H17V5H16L16 4H8.99996Z" fill="currentColor"/>
<path d="M11 18H12V20H11V18Z" fill="currentColor"/>
<path d="M13 18H14V20H13V18Z" fill="currentColor"/>
<path d="M8.99997 10L9.99994 10V9H10.9999L11 13H8L7.99994 11H8.99994L8.99997 12V10Z" fill="currentColor"/>
<path d="M16 10L14.9999 10V9H13.9999L14 13H17V11H16L16 10Z" fill="currentColor"/>
<path d="M11 15H12L11.9999 14H12.9999L13 15L13.9999 15V16H11V15Z" fill="currentColor"/>
</svg>
