<svg width="24" height="24" viewBox="0 0 24 24" fill="none" xmlns="http://www.w3.org/2000/svg">
<path d="M7 6.66663H6V8.66663H4V9.66663H6V11.6666H7V6.66663Z" fill="currentColor"/>
<path d="M10 6.66663V5.66663H7V6.66663H10Z" fill="currentColor"/>
<path d="M10 11.6666H11V9.66663H20V8.66663H11V6.66663H10V11.6666Z" fill="currentColor"/>
<path d="M7 11.6666V12.6666H10V11.6666H7Z" fill="currentColor"/>
<path d="M4 14.6666V15.6666H13V17.6666H14V12.6666H13V14.6666H4Z" fill="currentColor"/>
<path d="M14 11.6666V12.6666H17V11.6666H14Z" fill="currentColor"/>
<path d="M20 15.6666V14.6666H18V12.6666H17V17.6666H18V15.6666H20Z" fill="currentColor"/>
<path d="M14 17.6666V18.6666H17V17.6666H14Z" fill="currentColor"/>
</svg>
