<svg width="24" height="24" viewBox="0 0 24 24" fill="none" xmlns="http://www.w3.org/2000/svg">
<path d="M16.6667 9H17.6667V8H16.6667V9Z" fill="currentColor"/>
<path d="M17.6667 10H18.6667V9H17.6667V10Z" fill="currentColor"/>
<path d="M17.6667 15H18.6667V14H17.6667V15Z" fill="currentColor"/>
<path d="M16.6667 16H17.6667V15H16.6667V16Z" fill="currentColor"/>
<path d="M14.6667 11H15.6667V10H14.6667V11Z" fill="currentColor"/>
<path d="M14.6667 14H15.6667V13H14.6667V14Z" fill="currentColor"/>
<path d="M19.6667 10H18.6667V14H19.6667V10Z" fill="currentColor"/>
<path d="M16.6667 11H15.6667V13H16.6667V11Z" fill="currentColor"/>
<path d="M9.66675 17V18H11.6667V17H9.66675Z" fill="currentColor"/>
<path d="M7.66675 16V17H9.66675V16H7.66675Z" fill="currentColor"/>
<path d="M5.66675 15V16H7.66675V15H5.66675Z" fill="currentColor"/>
<path d="M5.66675 9H4.66675V15H5.66675V9Z" fill="currentColor"/>
<path d="M7.66675 9V8H5.66675V9H7.66675Z" fill="currentColor"/>
<path d="M9.66675 8V7H7.66675V8H9.66675Z" fill="currentColor"/>
<path d="M11.6667 7V6H9.66675V7H11.6667Z" fill="currentColor"/>
<path d="M11.6667 17H12.6667V7H11.6667V17Z" fill="currentColor"/>
</svg>
