<svg width="24" height="24" viewBox="0 0 24 24" fill="none" xmlns="http://www.w3.org/2000/svg">
<path d="M11.3333 4H12.3333V5H11.3333V4Z" fill="currentColor"/>
<path d="M12.3333 4H11.3333V5H12.3333V4Z" fill="currentColor"/>
<path d="M4.33325 10H3.33325V11H4.33325V10Z" fill="currentColor"/>
<path d="M19.3333 10H20.3333V11H19.3333V10Z" fill="currentColor"/>
<path d="M7.33325 12H6.33325V13H7.33325V12Z" fill="currentColor"/>
<path d="M16.3333 12H17.3333V13H16.3333V12Z" fill="currentColor"/>
<path d="M10.3333 17H9.33325V18H10.3333V17Z" fill="currentColor"/>
<path d="M13.3333 17H14.3333V18H13.3333V17Z" fill="currentColor"/>
<path d="M11.3333 5H10.3333V7H11.3333V5Z" fill="currentColor"/>
<path d="M13.3333 5H12.3333V7H13.3333V5Z" fill="currentColor"/>
<path d="M14.3333 7H13.3333V9H14.3333V7Z" fill="currentColor"/>
<path d="M10.3333 7H9.33325V9H10.3333V7Z" fill="currentColor"/>
<path d="M9.33325 10V9H4.33325V10H9.33325Z" fill="currentColor"/>
<path d="M14.3333 9V10H19.3333V9H14.3333Z" fill="currentColor"/>
<path d="M17.3333 11V12H19.3333V11H17.3333Z" fill="currentColor"/>
<path d="M16.3333 13H15.3333V15H16.3333V13Z" fill="currentColor"/>
<path d="M8.33325 13H7.33325V15H8.33325V13Z" fill="currentColor"/>
<path d="M16.3333 17H17.3333V15H16.3333V17Z" fill="currentColor"/>
<path d="M17.3333 19H16.3333V20H18.3333V17H17.3333V19Z" fill="currentColor"/>
<path d="M16.3333 19V18H14.3333V19H16.3333Z" fill="currentColor"/>
<path d="M13.3333 17V16H10.3333V17H13.3333Z" fill="currentColor"/>
<path d="M7.33325 18V19H9.33325V18H7.33325Z" fill="currentColor"/>
<path d="M7.33325 19H6.33325V17H5.33325V20H7.33325V19Z" fill="currentColor"/>
<path d="M6.33325 17H7.33325V15H6.33325V17Z" fill="currentColor"/>
<path d="M6.33325 12V11H4.33325V12H6.33325Z" fill="currentColor"/>
</svg>
