<svg width="24" height="24" viewBox="0 0 24 24" fill="none" xmlns="http://www.w3.org/2000/svg">
<path d="M6 8.33337V9.33337H8V8.33337H6Z" fill="currentColor"/>
<path d="M5 17.3334H6V9.33337H5V17.3334Z" fill="currentColor"/>
<path d="M8 17.3334H9V9.33337H8V17.3334Z" fill="currentColor"/>
<path d="M10 17.3334H11V11.3334H10V17.3334Z" fill="currentColor"/>
<path d="M11 10.3334V11.3334H13V10.3334H11Z" fill="currentColor"/>
<path d="M13 17.3334H14V11.3334H13V17.3334Z" fill="currentColor"/>
<path d="M15 17.3334H16V6.33337H15V17.3334Z" fill="currentColor"/>
<path d="M16 5.33337V6.33337H18V5.33337H16Z" fill="currentColor"/>
<path d="M18 17.3334H19V6.33337H18V17.3334Z" fill="currentColor"/>
<path d="M16 17.3334V18.3334H18V17.3334H16Z" fill="currentColor"/>
<path d="M11 17.3334V18.3334H13V17.3334H11Z" fill="currentColor"/>
<path d="M6 17.3334V18.3334H8V17.3334H6Z" fill="currentColor"/>
</svg>
