<svg width="24" height="24" viewBox="0 0 24 24" fill="none" xmlns="http://www.w3.org/2000/svg">
<path d="M15 4.00049V5.00049H14V4.00049H15Z" fill="currentColor"/>
<path d="M14 5.00049V6.00049H13V5.00049H14Z" fill="currentColor"/>
<path d="M18 6.00049V7.00049H17V6.00049H18Z" fill="currentColor"/>
<path d="M17 7.00049V8.00049H16V7.00049H17Z" fill="currentColor"/>
<path d="M19 11.0005V10.0005H20V9.00049H19V10.0005H18V11.0005H19Z" fill="currentColor"/>
<path d="M7 8.00049V7.00049H8V8.00049H7Z" fill="currentColor"/>
<path d="M6 6.00049V7.00049H7V6.00049H6Z" fill="currentColor"/>
<path d="M10 6.00049V5.00049H11V6.00049H10Z" fill="currentColor"/>
<path d="M9 4.00049V5.00049H10V4.00049H9Z" fill="currentColor"/>
<path d="M17 16.0005V17.0005H16V16.0005H17Z" fill="currentColor"/>
<path d="M17 17.0005H18V18.0005H17V17.0005Z" fill="currentColor"/>
<path d="M7 16.0005V17.0005H6V18.0005H7V17.0005H8V16.0005H7Z" fill="currentColor"/>
<path d="M5 15.0005V14.0005H6V13.0005H5V14.0005H4V15.0005H5Z" fill="currentColor"/>
<path d="M19 15.0005V14.0005H20V15.0005H19Z" fill="currentColor"/>
<path d="M19 14.0005H18V13.0005H19V14.0005Z" fill="currentColor"/>
<path d="M14 18.0005V19.0005H13V18.0005H14Z" fill="currentColor"/>
<path d="M14 19.0005H15V20.0005H14V19.0005Z" fill="currentColor"/>
<path d="M10 18.0005V19.0005H9V20.0005H10V19.0005H11V18.0005H10Z" fill="currentColor"/>
<path d="M5 9.00049V10.0005H4V9.00049H5Z" fill="currentColor"/>
<path d="M6 11.0005V10.0005H5V11.0005H6Z" fill="currentColor"/>
<path d="M10 7.00049H14V8.00049H10V7.00049Z" fill="currentColor"/>
<path d="M9 9.00049V8.00049H10V9.00049H9Z" fill="currentColor"/>
<path d="M8 10.0005V9.00049H9V10.0005H8Z" fill="currentColor"/>
<path d="M8 10.0005H7V14.0005H8V15.0005H9V16.0005H10V17.0005H14V16.0005H15V15.0005H16V14.0005H17V10.0005H16V9.00049H15V8.00049H14V9.00049H15V10.0005H16V14.0005H15V15.0005H14V16.0005H10V15.0005H9V14.0005H8V10.0005Z" fill="currentColor"/>
</svg>
