<svg width="24" height="24" viewBox="0 0 24 24" fill="none" xmlns="http://www.w3.org/2000/svg">
<path d="M14 9H15V10H14V9Z" fill="currentColor"/>
<path d="M14 14H15V15H14V14Z" fill="currentColor"/>
<path d="M9 14H10V15H9V14Z" fill="currentColor"/>
<path d="M9 9H10V10H9V9Z" fill="currentColor"/>
<path d="M16 10H15V14H16V10Z" fill="currentColor"/>
<path d="M14 16V15H10V16H14Z" fill="currentColor"/>
<path d="M13 13H11V11H13V13Z" fill="currentColor"/>
<path d="M8 14H9V10H8V14Z" fill="currentColor"/>
<path d="M10 8V9H14V8H10Z" fill="currentColor"/>
<path d="M7 7H6V9H7V7Z" fill="currentColor"/>
<path d="M7 6V7H9V6H7Z" fill="currentColor"/>
<path d="M9 5V6H15V5H9Z" fill="currentColor"/>
<path d="M17 7V6H15V7H17Z" fill="currentColor"/>
<path d="M18 7H17V9H18V7Z" fill="currentColor"/>
<path d="M18 15H19V9H18V15Z" fill="currentColor"/>
<path d="M6 9H5V15H6V9Z" fill="currentColor"/>
<path d="M6 17H7V15H6V17Z" fill="currentColor"/>
<path d="M7 17V18H9V17H7Z" fill="currentColor"/>
<path d="M9 18V19H15V18H9Z" fill="currentColor"/>
<path d="M17 18V17H15V18H17Z" fill="currentColor"/>
<path d="M17 17H18V15H17V17Z" fill="currentColor"/>
</svg>
