<svg width="24" height="24" viewBox="0 0 24 24" fill="none" xmlns="http://www.w3.org/2000/svg">
<path d="M5 11.3334H6V12.3334H5V11.3334Z" fill="currentColor"/>
<path d="M14 17.3334H15V18.3334H14V17.3334Z" fill="currentColor"/>
<path d="M13 16.3334H14V17.3334H13V16.3334Z" fill="currentColor"/>
<path d="M11 12.3334H12V13.3334H11V12.3334Z" fill="currentColor"/>
<path d="M12 11.3334H13V12.3334H12V11.3334Z" fill="currentColor"/>
<path d="M13 10.3334H14V11.3334H13V10.3334Z" fill="currentColor"/>
<path d="M14 9.33337H15V10.3334H14V9.33337Z" fill="currentColor"/>
<path d="M15 8.33337H16V9.33337H15V8.33337Z" fill="currentColor"/>
<path d="M16 7.33337H17V8.33337H16V7.33337Z" fill="currentColor"/>
<path d="M6 10.3334V11.3334H8V10.3334H6Z" fill="currentColor"/>
<path d="M8 13.3334V12.3334H6V13.3334H8Z" fill="currentColor"/>
<path d="M11 16.3334H10V14.3334H11V13.3334H8V14.3334H9V18.3334H10V17.3334H11V16.3334Z" fill="currentColor"/>
<path d="M13 15.3334H12V14.3334H11V16.3334H13V15.3334Z" fill="currentColor"/>
<path d="M16 14.3334H15V17.3334H16V14.3334Z" fill="currentColor"/>
<path d="M17 11.3334H16V14.3334H17V11.3334Z" fill="currentColor"/>
<path d="M8 9.33337V10.3334H10V9.33337H8Z" fill="currentColor"/>
<path d="M10 8.33337V9.33337H12V8.33337H10Z" fill="currentColor"/>
<path d="M12 7.33337V8.33337H14V7.33337H12Z" fill="currentColor"/>
<path d="M16 7.33337V6.33337H14V7.33337H16Z" fill="currentColor"/>
<path d="M16 5.33337V6.33337H18V5.33337H16Z" fill="currentColor"/>
<path d="M19 6.33337H18V8.33337H19V6.33337Z" fill="currentColor"/>
<path d="M18 8.33337H17V11.3334H18V8.33337Z" fill="currentColor"/>
</svg>
