<svg width="24" height="24" viewBox="0 0 24 24" fill="none" xmlns="http://www.w3.org/2000/svg">
<path fill-rule="evenodd" clip-rule="evenodd" d="M3 13.0005V15.0005H4V16.0005H7V17.0005H6V18.0005H5V19.0005H6V18.0005H7V17.0005H8V16.0005H11V17.0005H12V18.0005H13V19.0005H14V18.0005H13V17.0005H12V16.0005H16V17.0005H17V18.0005H18V19.0005H19V18.0005H18V17.0005H17V16.0005H20V15.0005H21V13.0005H20V12.0005H19V10.0005H18V8.00049H17V7.00049H16V6.00049H14V5.00049H10V6.00049H8V7.00049H7V8.00049H6V10.0005H5V12.0005H4V13.0005H3ZM6 10.0005H7V8.00049H8V7.00049H10V6.00049H14V7.00049H16V8.00049H17V10.0005H18V12.0005H6V10.0005ZM4 13.0005V15.0005H20V13.0005H4Z" fill="currentColor"/>
</svg>
