<svg width="24" height="24" viewBox="0 0 24 24" fill="none" xmlns="http://www.w3.org/2000/svg">
<path fill-rule="evenodd" clip-rule="evenodd" d="M4 10.0005V12.0005H5V13.0005H12V19.0005H10V18.0005H11V17.0005H9V19.0005H10V20.0005H12V19.0005H13V13.0005H20V12.0005H21V10.0005H20V8.00049H19V7.00049H18V6.00049H16V5.00049H13V4.00049H12V5.00049H9V6.00049H7V7.00049H6V8.00049H5V10.0005H4ZM5 10.0005H6V8.00049H7V7.00049H9V6.00049H16V7.00049H18V8.00049H19V10.0005H20V12.0005H5V10.0005Z" fill="currentColor"/>
</svg>
