<svg width="24" height="24" viewBox="0 0 24 24" fill="none" xmlns="http://www.w3.org/2000/svg">
<path d="M7 8.66663H8V9.66663H7V8.66663Z" fill="currentColor"/>
<path d="M9 11.6666H10V12.6666H9V11.6666Z" fill="currentColor"/>
<path d="M16 8.66663H17V9.66663H16V8.66663Z" fill="currentColor"/>
<path d="M18 13.6666H19V14.6666H18V13.6666Z" fill="currentColor"/>
<path d="M19 14.6666H20V15.6666H19V14.6666Z" fill="currentColor"/>
<path d="M8 14.6666H9V15.6666H8V14.6666Z" fill="currentColor"/>
<path d="M7 13.6666H8V14.6666H7V13.6666Z" fill="currentColor"/>
<path d="M7 8.66663V7.66663H4V9.66663H5V8.66663H7Z" fill="currentColor"/>
<path d="M6 9.66663H5V11.6666H6V9.66663Z" fill="currentColor"/>
<path d="M9 9.66663H8V11.6666H9V9.66663Z" fill="currentColor"/>
<path d="M10 11.6666H11V8.66663H13V12.6666H15V11.6666H14V7.66663H10V11.6666Z" fill="currentColor"/>
<path d="M15 11.6666H16V9.66663H15V11.6666Z" fill="currentColor"/>
<path d="M17 7.66663V8.66663H19V9.66663H20V7.66663H17Z" fill="currentColor"/>
<path d="M19 9.66663H18V11.6666H19V9.66663Z" fill="currentColor"/>
<path d="M18 11.6666H17V13.6666H18V11.6666Z" fill="currentColor"/>
<path d="M19 16.6666V15.6666H15V16.6666H19Z" fill="currentColor"/>
<path d="M15 15.6666V14.6666H13V15.6666H15Z" fill="currentColor"/>
<path d="M9 15.6666V16.6666H13V15.6666H9Z" fill="currentColor"/>
<path d="M6 13.6666H7V11.6666H6V13.6666Z" fill="currentColor"/>
</svg>
