<svg width="24" height="24" viewBox="0 0 24 24" fill="none" xmlns="http://www.w3.org/2000/svg">
<path d="M14 8.99997H15V9.99997H14V8.99997Z" fill="currentColor"/>
<path d="M14 14L15 14L15 15L14 15L14 14Z" fill="currentColor"/>
<path d="M8.99999 14L9.99999 14L10 15L8.99999 15L8.99999 14Z" fill="currentColor"/>
<path d="M17 5.99997L18 6L18 7L17 7L17 5.99997Z" fill="currentColor"/>
<path d="M17 17L18 17L18 18H17V17Z" fill="currentColor"/>
<path d="M6 17H7L7.00001 18L6 18V17Z" fill="currentColor"/>
<path d="M6 6L7 5.99999L7 7L5.99999 7L6 6Z" fill="currentColor"/>
<path d="M9 9L10 8.99999L10 10L8.99999 10L9 9Z" fill="currentColor"/>
<path d="M12 9.99999H13V11L12 11L12 9.99999Z" fill="currentColor"/>
<path d="M8.99999 4V5H15V4H8.99999Z" fill="currentColor"/>
<path d="M7 4.99999V5.99999L8.99999 5.99997L8.99999 5L7 4.99999Z" fill="currentColor"/>
<path d="M15 5L15 5.99997H17V4.99997L15 5Z" fill="currentColor"/>
<path d="M19 7H18L18 8.99997L19 8.99997L19 7Z" fill="currentColor"/>
<path d="M5.99999 7H4.99999L5 8.99997L5.99999 8.99997L5.99999 7Z" fill="currentColor"/>
<path d="M5 8.99997H4V15H5V8.99997Z" fill="currentColor"/>
<path d="M7.99999 14H8.99999V10H7.99999V14Z" fill="currentColor"/>
<path d="M10 7.99999V8.99999L14 8.99997L14 7.99999H10Z" fill="currentColor"/>
<path d="M16 10L15 9.99997L15 14H16V10Z" fill="currentColor"/>
<path d="M11 13H12V11H11V13Z" fill="currentColor"/>
<path d="M14 16V15H10V16H14Z" fill="currentColor"/>
<path d="M19 15H20V8.99997H19V15Z" fill="currentColor"/>
<path d="M18 17H19L19 15L18 15L18 17Z" fill="currentColor"/>
<path d="M15 18L15 19L17 19L17 18L15 18Z" fill="currentColor"/>
<path d="M8.99999 19V20H15V19H8.99999Z" fill="currentColor"/>
<path d="M8.99999 19L8.99999 18H7.00001V19L8.99999 19Z" fill="currentColor"/>
<path d="M5.99999 15L5 15L4.99999 17L6 17L5.99999 15Z" fill="currentColor"/>
</svg>
