<svg width="24" height="24" viewBox="0 0 24 24" fill="none" xmlns="http://www.w3.org/2000/svg">
<path d="M18 7H19V8H18V7Z" fill="currentColor"/>
<path d="M5 16H6V17H5V16Z" fill="currentColor"/>
<path d="M5 7H6V8H5V7Z" fill="currentColor"/>
<path d="M18 16H19V17H18V16Z" fill="currentColor"/>
<path d="M12 15V14H10V10H12V9H9V15H12Z" fill="currentColor"/>
<path d="M12 10V11H14V10H12Z" fill="currentColor"/>
<path d="M15 11H14V13H15V11Z" fill="currentColor"/>
<path d="M12 13V14H14V13H12Z" fill="currentColor"/>
<path d="M6 6V7H18V6H6Z" fill="currentColor"/>
<path d="M19 16H20V8H19V16Z" fill="currentColor"/>
<path d="M4 16H5V8H4V16Z" fill="currentColor"/>
<path d="M6 17V18H18V17H6Z" fill="currentColor"/>
</svg>
