<svg width="24" height="24" viewBox="0 0 24 24" fill="none" xmlns="http://www.w3.org/2000/svg">
<path d="M8 7H7V6H8V7Z" fill="currentColor"/>
<path d="M7 8H6V7H7V8Z" fill="currentColor"/>
<path d="M8 15H7V14H8V15Z" fill="currentColor"/>
<path d="M14 7H13V6L14 6V7Z" fill="currentColor"/>
<path d="M15 8H14V7H15V8Z" fill="currentColor"/>
<path d="M16 16H15V15H16V16Z" fill="currentColor"/>
<path d="M17 17H16V16H17V17Z" fill="currentColor"/>
<path d="M18 18H17V17H18V18Z" fill="currentColor"/>
<path d="M19 19H18V18H19V19Z" fill="currentColor"/>
<path d="M7 14H6V13H7V14Z" fill="currentColor"/>
<path d="M14 13V14H13V15H15V13H14Z" fill="currentColor"/>
<path d="M16 8H15V13H16V8Z" fill="currentColor"/>
<path d="M8 5V6L13 6V5L8 5Z" fill="currentColor"/>
<path d="M5 13H6V8H5L5 13Z" fill="currentColor"/>
<path d="M8 15V16H13V15H8Z" fill="currentColor"/>
</svg>
