<svg width="1371" height="761" viewBox="0 0 1371 761" fill="none" xmlns="http://www.w3.org/2000/svg">
<rect width="1370.96" height="760.073" transform="translate(0.0361328 0.125)" fill="#EB2E46"/>
<path d="M231.661 471.083L361.928 467.521L359.252 408.148L364.01 412.898L372.041 474.646L236.122 474.943L231.661 471.083ZM280.139 346.697L356.278 344.916L353.601 282.574C356.178 283.762 358.161 287.522 359.549 293.855C361.135 300.188 362.325 307.115 363.118 314.636C364.109 322.156 364.803 329.479 365.2 336.604C365.597 343.531 365.993 348.379 366.39 351.15L280.734 350.556L280.139 346.697ZM329.51 392.414L327.726 359.462L333.971 364.806L336.648 394.492L280.437 395.977L279.842 394.196L329.51 392.414ZM237.014 396.867L259.023 373.118L234.04 341.947L254.264 313.448L232.255 278.121C237.411 277.726 242.467 277.528 247.424 277.528C252.381 277.528 257.437 277.528 262.592 277.528C277.066 277.528 291.441 277.726 305.717 278.121C319.993 278.517 334.368 278.517 348.842 278.121L350.627 339.276C337.54 339.671 324.553 340.067 311.665 340.463C298.777 340.859 285.79 341.156 272.704 341.354L273.299 356.791L321.48 355.306L322.372 388.555L274.191 390.039L274.786 402.805L352.411 403.992L354.196 461.584C333.971 462.178 313.846 462.771 293.82 463.365C273.993 463.959 253.967 464.453 233.743 464.849L255.454 433.382L237.014 396.867ZM225.117 465.146L215.303 465.74L215.898 438.428C215.898 411.513 215.005 384.894 213.221 358.572C211.635 332.052 210.346 305.334 209.354 278.418L226.01 278.121L247.424 312.855L227.199 341.057C230.967 346.598 235.031 351.942 239.393 357.087C243.756 362.233 248.018 367.379 252.182 372.524L230.174 395.977C233.148 401.914 236.122 407.851 239.096 413.789C242.07 419.726 245.143 425.564 248.316 431.304L225.117 465.146ZM232.85 313.745L229.579 310.48L226.307 313.448L229.579 317.011L232.85 313.745ZM236.122 371.634L232.85 368.368L229.579 371.337L232.85 374.899L236.122 371.634ZM235.527 431.007L232.255 427.741L228.984 430.71L232.255 434.272L235.527 431.007ZM281.032 432.788L277.76 429.522L274.488 432.491L277.76 436.053L281.032 432.788ZM324.454 428.335L321.183 425.069L317.911 428.038L321.183 431.6L324.454 428.335ZM294.118 374.602L290.846 371.337L287.575 374.306L290.846 377.868L294.118 374.602ZM281.626 307.808L278.355 304.542L275.083 307.511L278.355 311.073L281.626 307.808ZM327.726 312.558L324.454 309.292L321.183 312.261L324.454 315.823L327.726 312.558Z" fill="black"/>
<path d="M496.764 477.911L428.359 472.568L425.682 468.709C436.191 468.906 446.6 469.401 456.911 470.193C467.221 470.787 477.631 471.38 488.139 471.974L487.842 346.994L530.967 346.4L531.859 282.574L537.808 289.105L539.592 355.306L494.088 353.228L496.764 477.911ZM519.665 307.214L516.394 303.949L513.122 307.214L516.394 310.48L519.665 307.214ZM486.652 309.886C486.256 309.094 485.859 308.402 485.463 307.808C485.066 307.016 484.372 306.62 483.381 306.62L480.109 309.886L483.381 313.152C484.372 313.152 485.066 312.855 485.463 312.261C485.859 311.469 486.256 310.678 486.652 309.886ZM437.876 463.662L461.372 432.788L444.717 395.977L467.915 373.118C463.95 367.775 460.083 362.431 456.316 357.087C452.549 351.546 448.682 346.005 444.717 340.463L466.131 313.448L445.906 280.2L526.208 279.903L525.019 341.354L483.678 342.541L481.299 464.552H478.919L437.876 463.662ZM446.799 368.962L443.527 365.697L440.255 368.962L443.527 372.228L446.799 368.962ZM444.419 307.511L441.148 304.246L437.876 307.511L441.148 310.777L444.419 307.511ZM441.743 414.679L438.471 417.945L441.743 421.21L445.014 417.945L441.743 414.679ZM416.462 320.276L413.191 317.011L409.919 320.276L413.191 323.542L416.462 320.276ZM398.617 305.73L395.346 302.464L392.074 305.73L395.346 308.995L398.617 305.73ZM378.096 340.166L379.285 279.012L439.661 280.2L459.29 312.261L437.876 339.276C441.247 345.213 444.915 350.853 448.88 356.197C453.044 361.343 457.109 366.686 461.075 372.228L437.876 394.789L454.234 430.71L429.251 463.365H419.734L422.113 341.057L378.096 340.166ZM383.152 344.025L417.949 346.103V352.338L387.018 348.478L383.152 344.025Z" fill="black"/>
<path d="M729.166 289.402L741.36 308.105L731.546 477.614L669.981 472.568L664.032 468.412L722.028 468.709L729.166 289.402ZM636.968 379.352L633.993 375.79L630.424 378.759L633.399 382.321L636.968 379.352ZM716.972 465.443L655.705 463.365L658.381 402.211L609.308 400.727C608.911 410.82 608.515 420.913 608.118 431.007C607.92 441.1 607.524 451.194 606.929 461.287L564.101 459.506L587.894 428.929L572.131 392.117L595.627 369.853L573.023 336.604L594.735 309.886L575.403 276.34L614.067 277.825L611.092 351.744L660.166 353.525C660.959 341.651 661.455 329.875 661.653 318.198C662.05 306.522 662.545 294.746 663.14 282.871L724.11 285.246C723.119 315.329 721.929 345.411 720.541 375.493C719.352 405.377 718.162 435.361 716.972 465.443ZM696.153 310.777L693.179 307.214L689.61 310.183L692.584 313.745L696.153 310.777ZM686.041 393.008L682.472 395.977L685.446 399.539L689.015 396.57L686.041 393.008ZM691.692 351.447C690.899 351.447 690.205 351.843 689.61 352.634C689.015 353.228 688.52 353.822 688.123 354.416L690.8 357.978L694.071 355.009L691.692 351.447ZM686.041 430.116L682.472 433.085L685.446 436.647L689.015 433.679L686.041 430.116ZM618.528 283.762L628.64 296.824L620.61 348.478L614.661 347.291L618.528 283.762ZM574.51 365.4L571.536 361.837L567.967 364.806L570.941 368.368L574.51 365.4ZM577.485 307.214L574.808 303.652C574.015 303.652 573.321 304.048 572.726 304.839C572.131 305.433 571.635 306.027 571.239 306.62C571.635 308.6 572.627 309.787 574.213 310.183L577.485 307.214ZM572.131 414.382L569.157 410.82L565.588 413.789L568.562 417.351L572.131 414.382ZM553.097 275.45L569.157 276.043L588.192 308.699L566.183 335.416L589.084 368.665L565.291 390.93L581.054 427.148L555.476 459.209L545.661 458.615C547.644 427.939 548.933 397.461 549.528 367.181C550.321 336.703 551.51 306.126 553.097 275.45ZM611.39 466.037L613.174 404.883L621.799 406.367L620.015 474.943C617.041 474.745 612.084 474.547 605.144 474.349C598.403 474.151 591.265 473.755 583.73 473.162C576.394 472.37 569.554 471.281 563.209 469.896C557.062 468.511 553.097 466.631 551.312 464.256C561.424 464.651 571.437 464.948 581.351 465.146C591.265 465.344 601.278 465.641 611.39 466.037Z" fill="black"/>
<path d="M759.956 377.404C759.956 391.727 763.127 405.349 768.839 417.663C768.005 409.873 768.472 401.647 770.148 393.279C771.196 388.042 772.72 382.728 774.704 377.403C772.72 372.077 771.196 366.764 770.148 361.526C768.472 353.16 768.005 344.935 768.838 337.146C763.127 349.459 759.956 363.081 759.956 377.404Z" fill="black"/>
<path d="M777.226 394.599C774.301 409.208 775.412 422.805 780.623 433.979C781.623 426.99 784.62 418.889 789.171 410.207C789.679 409.239 790.207 408.261 790.755 407.275C786.131 400.78 782.193 394.118 778.971 387.413C778.284 389.826 777.702 392.223 777.226 394.599Z" fill="black"/>
<path d="M782.397 377.403C785.484 385.133 789.612 392.914 794.742 400.516C799.355 393.111 804.981 385.324 811.485 377.403C804.981 369.481 799.355 361.695 794.742 354.289C789.612 361.891 785.484 369.672 782.397 377.403Z" fill="black"/>
<path d="M799.263 406.822C803.756 399.277 809.436 391.211 816.149 382.932C822.278 390.009 829.075 397.148 836.443 404.176C843.787 411.181 851.245 417.644 858.639 423.475C849.963 429.872 841.509 435.283 833.602 439.564C827.21 435.149 820.988 430.106 815.064 424.455C809.155 418.819 803.881 412.9 799.263 406.822Z" fill="black"/>
<path d="M799.263 347.983C803.756 355.528 809.436 363.594 816.149 371.873C822.278 364.796 829.075 357.658 836.443 350.629C843.787 343.624 851.245 337.161 858.639 331.33C849.963 324.934 841.509 319.522 833.602 315.242C827.21 319.657 820.988 324.699 815.064 330.35C809.155 335.987 803.881 341.905 799.263 347.983Z" fill="black"/>
<path d="M841.511 355.578C849.129 348.31 856.847 341.665 864.451 335.738C872.055 341.665 879.772 348.31 887.391 355.578C894.99 362.826 901.94 370.168 908.141 377.403C901.94 384.637 894.99 391.979 887.391 399.228C879.772 406.495 872.055 413.14 864.451 419.067C856.847 413.14 849.129 406.495 841.511 399.228C833.912 391.979 826.962 384.637 820.761 377.403C826.962 370.168 833.912 362.826 841.511 355.578Z" fill="black"/>
<path d="M840.256 310.907C848.009 315.306 856.159 320.669 864.451 326.867C872.743 320.669 880.893 315.306 888.646 310.907C880.689 306.029 872.545 302.103 864.451 299.166C856.357 302.103 848.213 306.029 840.256 310.907Z" fill="black"/>
<path d="M870.263 331.33C878.939 324.934 887.393 319.522 895.3 315.242C901.691 319.657 907.914 324.699 913.838 330.35C919.747 335.987 925.02 341.905 929.639 347.983C925.146 355.528 919.466 363.594 912.753 371.873C906.624 364.796 899.827 357.658 892.459 350.629C885.115 343.624 877.657 337.161 870.263 331.33Z" fill="black"/>
<path d="M875.039 295.878C882.033 298.945 888.984 302.689 895.761 307.084C896.814 306.551 897.858 306.037 898.891 305.545C907.931 301.232 916.361 298.388 923.638 297.418C911.939 292.502 897.723 291.462 882.456 294.243C880.003 294.69 877.528 295.235 875.039 295.878Z" fill="black"/>
<path d="M881.118 287.406C889.807 285.823 898.351 285.372 906.447 286.14C893.598 280.757 879.393 277.768 864.451 277.768C849.509 277.768 835.304 280.757 822.455 286.14C830.552 285.372 839.095 285.823 847.783 287.406C853.281 288.408 858.859 289.865 864.451 291.762C870.043 289.865 875.621 288.408 881.118 287.406Z" fill="black"/>
<path d="M846.446 294.243C831.179 291.462 816.963 292.502 805.264 297.418C812.541 298.388 820.971 301.232 830.011 305.545C831.044 306.037 832.088 306.551 833.141 307.084C839.918 302.689 846.869 298.945 853.863 295.878C851.373 295.235 848.899 294.69 846.446 294.243Z" fill="black"/>
<path d="M809.996 325.402C815.286 320.355 820.818 315.761 826.508 311.635C817.612 307.42 809.794 304.927 803.515 304.216C797.191 303.501 793.056 304.643 790.641 306.875L790.453 307.055C788.126 309.346 786.936 313.259 787.683 319.263C788.428 325.253 791.049 332.727 795.492 341.242C799.836 335.782 804.677 330.475 809.996 325.402Z" fill="black"/>
<path d="M789.171 344.598C784.62 335.917 781.623 327.816 780.623 320.827C775.412 332 774.301 345.597 777.226 360.206C777.702 362.582 778.284 364.98 778.971 367.393C782.193 360.688 786.131 354.025 790.755 347.531C790.207 346.544 789.679 345.566 789.171 344.598Z" fill="black"/>
<path d="M968.947 377.404C968.947 363.08 965.775 349.459 960.063 337.145C960.897 344.934 960.43 353.159 958.754 361.526C957.705 366.764 956.182 372.077 954.198 377.403C956.182 382.728 957.705 388.042 958.754 393.279C960.43 401.647 960.897 409.874 960.063 417.664C965.775 405.35 968.947 391.728 968.947 377.404Z" fill="black"/>
<path d="M951.676 394.599C951.2 392.223 950.618 389.826 949.931 387.413C946.709 394.118 942.771 400.78 938.146 407.275C938.695 408.261 939.223 409.239 939.73 410.207C944.282 418.889 947.279 426.99 948.279 433.979C953.49 422.805 954.601 409.208 951.676 394.599Z" fill="black"/>
<path d="M946.505 377.403C943.418 385.133 939.29 392.914 934.159 400.516C929.547 393.111 923.921 385.324 917.417 377.403C923.921 369.481 929.547 361.695 934.159 354.289C939.29 361.891 943.418 369.672 946.505 377.403Z" fill="black"/>
<path d="M941.219 435.542C940.474 429.552 937.853 422.079 933.41 413.563C929.066 419.023 924.225 424.33 918.906 429.404C913.616 434.45 908.084 439.045 902.394 443.17C911.29 447.386 919.108 449.878 925.386 450.589C931.794 451.314 935.954 450.132 938.355 447.841C940.744 445.563 941.976 441.627 941.219 435.542Z" fill="black"/>
<path d="M913.838 424.455C907.914 430.106 901.691 435.149 895.3 439.564C887.393 435.283 878.939 429.872 870.263 423.475C877.657 417.644 885.115 411.181 892.459 404.176C899.827 397.148 906.624 390.009 912.753 382.932C919.466 391.211 925.146 399.277 929.639 406.822C925.02 412.9 919.747 418.819 913.838 424.455Z" fill="black"/>
<path d="M898.891 449.261C897.858 448.768 896.814 448.255 895.761 447.722C888.984 452.116 882.033 455.861 875.039 458.928C877.528 459.57 880.003 460.115 882.456 460.562C897.723 463.344 911.939 462.303 923.638 457.387C916.361 456.417 907.931 453.573 898.891 449.261Z" fill="black"/>
<path d="M888.646 443.898C880.689 448.777 872.545 452.702 864.451 455.64C856.357 452.702 848.213 448.777 840.256 443.898C848.009 439.499 856.159 434.136 864.451 427.938C872.743 434.136 880.893 439.499 888.646 443.898Z" fill="black"/>
<path d="M881.118 467.399C875.621 466.397 870.043 464.941 864.451 463.043C858.859 464.941 853.281 466.397 847.783 467.399C839.092 468.982 830.547 469.433 822.448 468.665C835.299 474.05 849.507 477.039 864.451 477.039C879.396 477.039 893.603 474.05 906.454 468.665C898.355 469.433 889.81 468.983 881.118 467.399Z" fill="black"/>
<path d="M846.446 460.562C831.179 463.344 816.963 462.303 805.264 457.387C812.541 456.417 820.971 453.573 830.011 449.261C831.044 448.768 832.088 448.255 833.141 447.722C839.918 452.116 846.869 455.861 853.863 458.928C851.373 459.57 848.899 460.115 846.446 460.562Z" fill="black"/>
<path d="M809.996 429.404C815.286 434.45 820.818 439.045 826.508 443.17C817.612 447.386 809.794 449.878 803.515 450.589C797.108 451.314 792.947 450.132 790.546 447.841C788.158 445.563 786.926 441.627 787.683 435.542C788.428 429.552 791.049 422.079 795.492 413.563C799.836 419.023 804.677 424.33 809.996 429.404Z" fill="black"/>
<path d="M949.931 367.393C946.709 360.688 942.771 354.025 938.146 347.531C938.695 346.544 939.223 345.567 939.73 344.598C944.282 335.917 947.279 327.816 948.279 320.827C953.49 332 954.601 345.597 951.676 360.206C951.2 362.582 950.618 364.98 949.931 367.393Z" fill="black"/>
<path d="M918.906 325.402C924.225 330.475 929.066 335.782 933.41 341.242C937.853 332.727 940.474 325.253 941.219 319.263C941.967 313.248 940.772 309.333 938.437 307.043L938.274 306.887C935.86 304.647 931.722 303.5 925.386 304.216C919.108 304.927 911.29 307.42 902.394 311.635C908.084 315.761 913.616 320.355 918.906 325.402Z" fill="black"/>
<path d="M1068.82 340.862L1149.22 336.403C1149.22 329.466 1148.13 322.628 1145.96 315.89C1143.98 308.953 1141.01 302.611 1137.06 296.864C1149.91 309.35 1156.93 324.709 1158.12 342.943L1069.12 344.43L1068.82 340.862ZM1123.11 425.589L1119.85 422.319L1116.59 425.589L1119.85 428.859L1123.11 425.589ZM1120.74 380.104L1117.48 383.374L1120.74 386.644L1124 383.374L1120.74 380.104ZM1065.56 308.458L1062.3 305.188L1059.03 308.458L1062.3 311.728L1065.56 308.458ZM1066.45 436.589L1063.19 433.319L1059.92 436.589L1063.19 439.859L1066.45 436.589ZM1075.35 378.915L1072.09 375.645L1068.82 378.915L1072.09 382.185L1075.35 378.915ZM1064.37 336.403L1064.97 348.592L1081.28 347.997C1091.17 347.997 1100.07 348.691 1107.98 350.078C1116.09 351.465 1122.92 354.141 1128.45 358.105C1134.19 361.87 1138.54 367.222 1141.51 374.158C1144.67 381.095 1146.25 390.014 1146.25 400.914C1146.25 415.779 1143.39 427.373 1137.65 435.697C1131.91 444.021 1124.4 450.165 1115.1 454.129C1106.01 458.092 1095.72 460.471 1084.25 461.264C1072.98 462.056 1061.7 462.453 1050.43 462.453C1045.68 462.453 1040.54 461.957 1035 460.966C1029.66 459.975 1024.91 458.39 1020.76 456.21L1032.03 439.264L1018.98 411.022L1086.03 404.779L1085.44 395.266C1079.7 395.464 1073.87 395.86 1067.93 396.455C1062.2 396.851 1056.36 397.049 1050.43 397.049C1045.29 397.049 1040.14 396.653 1035 395.86C1029.86 395.068 1025.01 393.482 1020.46 391.104L1034.41 375.347L1009.19 344.132L1028.77 319.457L1009.49 291.512H1009.19C1013.54 287.945 1018.39 285.17 1023.73 283.188C1029.07 281.206 1034.51 279.72 1040.04 278.729C1045.78 277.738 1051.52 277.143 1057.25 276.945C1062.99 276.747 1068.53 276.648 1073.87 276.648C1083.75 276.648 1092.85 277.441 1101.16 279.026C1109.47 280.414 1116.69 283.089 1122.82 287.053C1129.15 291.017 1134.19 296.566 1137.95 303.701C1141.7 310.836 1144.08 320.052 1145.07 331.349L1064.37 336.403ZM1154.26 403.887C1154.26 397.149 1153.67 390.608 1152.48 384.266C1151.49 377.726 1148.92 371.582 1144.77 365.834C1152.48 371.978 1157.23 379.212 1159.01 387.536C1160.79 395.86 1161.68 404.68 1161.68 413.995C1161.68 424.499 1160.3 433.418 1157.53 440.751C1154.76 447.886 1150.9 453.831 1145.96 458.588C1141.01 463.345 1135.28 467.011 1128.75 469.588C1122.22 472.164 1115.1 474.146 1107.39 475.533C1099.87 476.722 1091.96 477.416 1083.66 477.614C1075.55 477.813 1067.44 477.912 1059.33 477.912C1054.19 477.912 1049.04 477.317 1043.9 476.128C1038.76 474.741 1033.81 472.957 1029.07 470.777C1024.32 468.398 1019.87 465.624 1015.72 462.453C1011.56 459.083 1008 455.318 1005.04 451.156C1010.77 456.309 1017.79 460.372 1026.1 463.345C1034.41 466.317 1042.42 467.804 1050.13 467.804C1062.2 467.804 1074.36 467.507 1086.62 466.912C1099.08 466.119 1110.26 463.741 1120.15 459.777C1130.23 455.615 1138.44 449.273 1144.77 440.751C1151.1 432.03 1154.26 419.742 1154.26 403.887ZM989.61 412.508L1012.45 411.319L1024.62 437.778L1014.53 452.939C1010.77 451.949 1007.41 449.967 1004.44 446.994C1001.68 443.823 999.203 440.255 997.027 436.291C995.049 432.328 993.467 428.265 992.28 424.103C991.094 419.742 990.204 415.878 989.61 412.508ZM1002.66 427.967L1005.93 431.238L1009.19 427.967L1005.93 424.697L1002.66 427.967ZM1011.27 318.268C1010.87 317.475 1010.48 316.782 1010.08 316.187C1009.69 315.394 1008.99 314.998 1008 314.998L1005.04 318.268L1008 321.538C1008.99 321.538 1009.69 321.241 1010.08 320.647C1010.48 319.854 1010.87 319.061 1011.27 318.268ZM1013.34 372.672L1010.08 369.402L1006.82 372.672L1010.08 375.942L1013.34 372.672ZM1021.95 318.863L1002.07 343.538L1027.58 374.753L1015.42 388.428C1007.11 383.275 1000.19 376.239 994.654 367.321C989.116 358.402 986.347 348.988 986.347 339.078C986.347 330.754 987.929 322.728 991.094 314.998C994.258 307.269 999.005 300.629 1005.33 295.08L1021.95 318.863ZM1107.09 304.296L1103.83 301.026L1100.57 304.296L1103.83 307.566L1107.09 304.296Z" fill="black"/>
<path d="M864.992 480.858C924.663 480.858 973.035 434.735 973.035 377.84C973.035 357.986 967.145 339.444 956.94 323.715C970.905 340.655 979.234 362.019 979.234 385.238C979.234 440.265 932.45 484.873 874.739 484.873C858.821 484.873 843.735 481.48 830.232 475.41C841.14 478.942 852.832 480.858 864.992 480.858Z" fill="black"/>
</svg>
