<svg width="45" height="45" viewBox="0 0 45 45" fill="none" xmlns="http://www.w3.org/2000/svg">
<path d="M12.1638 25.1904L14.9179 26.1345L13.9737 28.8887L11.2196 27.9445L12.1638 25.1904Z" fill="#33EEAA"/>
<path d="M28.6885 30.8553L25.9343 29.9111L24.9902 32.6653L27.7443 33.6094L28.6885 30.8553Z" fill="#33EEAA"/>
<path d="M16.8845 11.4198L19.6386 12.3639L18.6945 15.1181L15.9404 14.1739L16.8845 11.4198Z" fill="#33EEAA"/>
<path d="M33.4092 17.0847L30.6551 16.1406L29.711 18.8947L32.4651 19.8388L33.4092 17.0847Z" fill="#33EEAA"/>
<path d="M18.6945 15.1181L21.4486 16.0622L20.5044 18.8163L17.7503 17.8722L18.6945 15.1181Z" fill="#33EEAA"/>
<path d="M29.711 18.8947L26.9568 17.9505L26.0127 20.7046L28.7668 21.6488L29.711 18.8947Z" fill="#33EEAA"/>
<path d="M13.1862 13.2298L15.9404 14.1739L14.9962 16.928L12.2421 15.9839L13.1862 13.2298Z" fill="#33EEAA"/>
<path d="M35.2192 20.783L32.4651 19.8388L31.5209 22.5929L34.275 23.5371L35.2192 20.783Z" fill="#33EEAA"/>
<path d="M8.38714 36.2069L7.44299 38.961L23.9677 44.6259L24.9119 41.8718L8.38714 36.2069Z" fill="#33EEAA"/>
<path d="M24.046 35.4194L24.9902 32.6653L13.9737 28.8887L13.0296 31.6428L24.046 35.4194Z" fill="#33EEAA"/>
<path d="M3.82306 31.5644L2.87891 34.3186L8.38714 36.2069L9.3313 33.4527L3.82306 31.5644Z" fill="#33EEAA"/>
<path d="M5.71136 26.0562L2.95724 25.1121L1.06894 30.6203L3.82306 31.5644L5.71136 26.0562Z" fill="#33EEAA"/>
<path d="M0.203125 24.1679L2.95724 25.1121L8.62215 8.58734L5.86804 7.64319L0.203125 24.1679Z" fill="#33EEAA"/>
<path d="M8.62215 8.58734L11.3763 9.53149L13.2646 4.02325L10.5105 3.0791L8.62215 8.58734Z" fill="#33EEAA"/>
<path d="M14.2087 1.26914L13.2646 4.02325L18.7728 5.91156L19.717 3.15744L14.2087 1.26914Z" fill="#33EEAA"/>
<path d="M20.6611 0.40332L19.717 3.15744L36.2417 8.82235L37.1858 6.06823L20.6611 0.40332Z" fill="#33EEAA"/>
<path d="M40.8058 13.4648L41.7499 10.7107L36.2417 8.82235L35.2975 11.5765L40.8058 13.4648Z" fill="#33EEAA"/>
<path d="M38.9175 18.973L41.6716 19.9172L43.5599 14.4089L40.8058 13.4648L38.9175 18.973Z" fill="#33EEAA"/>
<path d="M36.0067 36.4419L38.7608 37.386L44.4257 20.8613L41.6716 19.9172L36.0067 36.4419Z" fill="#33EEAA"/>
<path d="M36.0067 36.4419L33.2525 35.4977L31.3642 41.006L34.1184 41.9501L36.0067 36.4419Z" fill="#33EEAA"/>
<path d="M30.4201 43.7601L31.3642 41.006L25.856 39.1177L24.9119 41.8718L30.4201 43.7601Z" fill="#33EEAA"/>
</svg>
