<svg width="794" height="186" viewBox="0 0 794 186" fill="none" xmlns="http://www.w3.org/2000/svg">
<path d="M617.009 155.883C640.874 132.296 631.739 85.0241 596.605 50.2989C561.471 15.5736 513.643 6.54456 489.778 30.1319M617.009 155.883C593.144 179.471 545.316 170.442 510.183 135.716C475.049 100.991 465.914 53.7193 489.778 30.1319M617.009 155.883C628.718 144.311 609.728 106.779 574.595 72.0534C539.461 37.3282 501.487 18.5593 489.778 30.1319M617.009 155.883C605.3 167.456 567.327 148.687 532.193 113.962C497.059 79.2365 478.07 41.7046 489.778 30.1319M617.009 30.1319C640.874 53.7193 631.739 100.991 596.605 135.716C561.471 170.442 513.643 179.471 489.778 155.883M617.009 30.1319C593.144 6.54456 545.316 15.5736 510.183 50.2989C475.049 85.0241 465.914 132.296 489.778 155.883M617.009 30.1319C628.718 41.7046 609.728 79.2365 574.595 113.962C539.461 148.687 501.487 167.456 489.778 155.883M617.009 30.1319C605.3 18.5593 567.327 37.3282 532.193 72.0534C497.059 106.779 478.07 144.311 489.778 155.883M643.36 93.0086C643.36 43.8996 603.081 4.08896 553.394 4.08896C503.707 4.08896 463.428 43.8996 463.428 93.0086C463.428 142.118 503.707 181.928 553.394 181.928C603.081 181.928 643.36 142.118 643.36 93.0086Z" stroke="currentColor" stroke-width="8" stroke-miterlimit="10"/>
<path d="M0 182.243H121.02V133.769H64.8571V116.357H114.44V70.2361H64.8571V53.2939H119.14V4.82041H0V182.243Z" fill="currentColor"/>
<path d="M135.359 62.4709L170.843 60.8238V182.243H235.23V60.8238L270.713 62.4709V4.82041H135.359V62.4709Z" fill="currentColor"/>
<path d="M287.563 182.243H349.6V120.592H389.078V182.243H451.116V4.82041H389.078V64.5887H349.6V4.82041H287.563V182.243Z" fill="currentColor"/>
<path d="M649.011 168.83C668.986 178.949 694.834 185.067 717.158 185.067C755.462 185.067 794 164.124 794 121.769C794 91.6492 774.261 77.06 747.002 70.942L732.433 67.6477C727.498 66.4712 719.508 65.5299 719.508 58.9413C719.508 51.6467 727.733 49.529 733.373 49.529C747.237 49.529 759.692 55.4117 770.736 62.9415L788.125 17.527C770.736 6.93817 752.172 1.9967 731.963 1.9967C693.424 1.9967 655.121 25.5275 655.121 67.6477C655.121 95.4141 676.27 110.238 701.414 114.709L714.339 117.062C720.213 118.239 728.673 118.945 728.673 126.945C728.673 134.946 718.568 137.534 712.224 137.534C697.419 137.534 683.555 130.24 672.04 121.298L668.751 118.71L649.011 168.83Z" fill="currentColor"/>
</svg>
