<svg width="571" height="126" viewBox="0 0 571 126" fill="none" xmlns="http://www.w3.org/2000/svg">
<path d="M13.3744 117.585L91.4809 115.444L89.876 79.7577L92.7292 82.6126L97.544 119.726L16.0493 119.904L13.3744 117.585ZM42.4415 42.8229L88.0928 41.7524L86.4878 4.2823C88.0333 4.99602 89.2222 7.25611 90.0543 11.0626C91.0054 14.8691 91.7187 19.0324 92.1943 23.5526C92.7887 28.0728 93.2048 32.4741 93.4425 36.7564C93.6803 40.9197 93.9181 43.834 94.1558 45.4994L42.7981 45.1425L42.4415 42.8229ZM72.0435 70.301L70.9735 50.4954L74.7184 53.7071L76.3233 71.55L42.6198 72.4421L42.2631 71.3716L72.0435 70.301ZM16.5843 72.9774L29.7803 58.7031L14.801 39.9681L26.9271 22.8389L13.7311 1.60586C16.822 1.36796 19.8536 1.24901 22.8257 1.24901C25.7977 1.24901 28.8293 1.24901 31.9203 1.24901C40.5988 1.24901 49.2178 1.36796 57.7774 1.60586C66.3371 1.84377 74.9561 1.84377 83.6346 1.60586L84.7046 38.3622C76.8583 38.6001 69.0714 38.838 61.3439 39.0759C53.6165 39.3138 45.8296 39.4923 37.9833 39.6112L38.34 48.8895L67.2287 47.9974L67.7637 67.9814L38.8749 68.8736L39.2316 76.546L85.7745 77.2597L86.8445 111.875C74.7184 112.232 62.6517 112.589 50.6444 112.946C38.7561 113.302 26.7488 113.6 14.6227 113.838L27.6404 94.9242L16.5843 72.9774ZM9.45125 114.016L3.56651 114.373L3.92316 97.9575C3.92316 81.7799 3.38818 65.7808 2.31823 49.9601C1.36716 34.0205 0.594418 17.9618 0 1.78429L9.98622 1.60586L22.8257 22.4821L10.6995 39.4328C12.9583 42.7635 15.3954 45.9752 18.0109 49.068C20.6263 52.1607 23.1823 55.2535 25.6789 58.3463L12.4828 72.4421C14.266 76.0107 16.0493 79.5793 17.8325 83.1479C19.6158 86.7165 21.4585 90.2256 23.3606 93.6752L9.45125 114.016ZM14.0877 23.0173L12.1261 21.0546L10.1645 22.8389L12.1261 24.9801L14.0877 23.0173ZM16.0493 57.811L14.0877 55.8483L12.1261 57.6325L14.0877 59.7737L16.0493 57.811ZM15.6926 93.4968L13.7311 91.534L11.7695 93.3183L13.7311 95.4595L15.6926 93.4968ZM42.9764 94.5673L41.0148 92.6046L39.0533 94.3889L41.0148 96.5301L42.9764 94.5673ZM69.0119 91.8909L67.0504 89.9282L65.0888 91.7125L67.0504 93.8536L69.0119 91.8909ZM50.8227 59.5953L48.8612 57.6325L46.8996 59.4168L48.8612 61.558L50.8227 59.5953ZM43.3331 19.4488L41.3715 17.486L39.4099 19.2703L41.3715 21.4115L43.3331 19.4488ZM70.9735 22.3036L69.0119 20.3409L67.0504 22.1252L69.0119 24.2663L70.9735 22.3036Z" fill="black"/>
<path d="M172.326 121.689L131.312 118.477L129.707 116.157C136.007 116.276 142.249 116.574 148.431 117.049C154.613 117.406 160.854 117.763 167.155 118.12L166.977 43.0014L192.834 42.6445L193.369 4.2823L196.935 8.20773L198.005 47.9974L170.722 46.7484L172.326 121.689ZM186.058 19.0919L184.096 17.1292L182.134 19.0919L184.096 21.0546L186.058 19.0919ZM166.263 20.6978C166.026 20.222 165.788 19.8056 165.55 19.4488C165.312 18.9729 164.896 18.735 164.302 18.735L162.34 20.6978L164.302 22.6605C164.896 22.6605 165.312 22.482 165.55 22.1252C165.788 21.6494 166.026 21.1736 166.263 20.6978ZM137.018 113.124L151.106 94.5673L141.12 72.4421L155.029 58.7031C152.651 55.4914 150.333 52.2797 148.074 49.068C145.815 45.7373 143.497 42.4066 141.12 39.0759L153.959 22.8389L141.833 2.85487L189.981 2.67644L189.267 39.6112L164.48 40.3249L163.054 113.659H161.627L137.018 113.124ZM142.368 56.2051L140.406 54.2424L138.445 56.2051L140.406 58.1678L142.368 56.2051ZM140.941 19.2703L138.98 17.3076L137.018 19.2703L138.98 21.233L140.941 19.2703ZM139.336 83.6832L137.375 85.6459L139.336 87.6086L141.298 85.6459L139.336 83.6832ZM124.179 26.9428L122.217 24.9801L120.255 26.9428L122.217 28.9055L124.179 26.9428ZM113.479 18.1998L111.517 16.237L109.556 18.1998L111.517 20.1625L113.479 18.1998ZM101.175 38.8975L101.888 2.14115L138.088 2.85487L149.857 22.1252L137.018 38.3622C139.039 41.9308 141.238 45.3209 143.616 48.5327C146.113 51.6254 148.55 54.8372 150.927 58.1678L137.018 71.7284L146.826 93.3183L131.847 112.946H126.14L127.567 39.4328L101.175 38.8975ZM104.206 41.2171L125.07 42.4661V46.2131L106.524 43.8935L104.206 41.2171Z" fill="black"/>
<path d="M311.671 8.38617L318.982 19.6272L313.098 121.51L276.184 118.477L272.618 115.979L307.391 116.157L311.671 8.38617ZM256.39 62.4501L254.607 60.309L252.467 62.0933L254.25 64.2344L256.39 62.4501ZM304.36 114.195L267.625 112.946L269.23 76.1892L239.806 75.297C239.568 81.3636 239.33 87.4302 239.093 93.4968C238.974 99.5633 238.736 105.63 238.379 111.697L212.7 110.626L226.966 92.2478L217.515 70.1226L231.603 56.7404L218.05 36.7564L231.068 20.6978L219.477 0.53529L242.659 1.42743L240.876 45.8562L270.3 46.9268C270.775 39.7897 271.072 32.712 271.191 25.6938C271.429 18.6756 271.726 11.5979 272.083 4.46073L308.64 5.88815C308.045 23.969 307.332 42.0497 306.5 60.1306C305.786 78.0924 305.073 96.1137 304.36 114.195ZM291.877 21.233L290.094 19.0919L287.954 20.8762L289.737 23.0173L291.877 21.233ZM285.814 70.6579L283.674 72.4421L285.457 74.5833L287.597 72.799L285.814 70.6579ZM289.202 45.6778C288.727 45.6778 288.31 45.9157 287.954 46.3915C287.597 46.7484 287.3 47.1052 287.062 47.4621L288.667 49.6032L290.629 47.819L289.202 45.6778ZM285.814 92.9615L283.674 94.7458L285.457 96.8869L287.597 95.1026L285.814 92.9615ZM245.334 4.99601L251.397 12.8469L246.582 43.8935L243.016 43.1798L245.334 4.99601ZM218.942 54.064L217.159 51.9228L215.019 53.7071L216.802 55.8483L218.942 54.064ZM220.725 19.0919L219.12 16.9508C218.645 16.9508 218.229 17.1887 217.872 17.6645C217.515 18.0213 217.218 18.3782 216.98 18.735C217.218 19.9246 217.812 20.6383 218.763 20.8762L220.725 19.0919ZM217.515 83.5047L215.732 81.3636L213.592 83.1479L215.375 85.289L217.515 83.5047ZM206.102 0L215.732 0.356864L227.145 19.984L213.949 36.0426L227.68 56.0267L213.414 69.4089L222.865 91.1772L207.529 110.448L201.644 110.091C202.833 91.653 203.606 73.3343 203.962 55.1345C204.438 36.8158 205.151 18.4377 206.102 0ZM241.054 114.551L242.124 77.795L247.296 78.6872L246.226 119.904C244.442 119.785 241.47 119.666 237.309 119.547C233.267 119.428 228.987 119.191 224.47 118.834C220.071 118.358 215.97 117.704 212.165 116.871C208.48 116.038 206.102 114.908 205.032 113.481C211.096 113.719 217.099 113.897 223.043 114.016C228.987 114.135 234.991 114.313 241.054 114.551Z" fill="black"/>
<path d="M330.132 61.279C330.132 69.888 332.033 78.0752 335.458 85.4763C334.958 80.7943 335.238 75.85 336.243 70.8208C336.872 67.6727 337.785 64.4793 338.975 61.2783C337.785 58.0773 336.872 54.8839 336.243 51.7358C335.238 46.7073 334.958 41.7636 335.458 37.0821C332.033 44.4831 330.132 52.6702 330.132 61.279Z" fill="black"/>
<path d="M340.487 71.6143C338.733 80.3948 339.399 88.5672 342.524 95.2831C343.123 91.0823 344.92 86.2133 347.649 80.9952C347.954 80.4133 348.27 79.8257 348.599 79.2328C345.826 75.3294 343.465 71.3249 341.533 67.2948C341.121 68.745 340.772 70.1863 340.487 71.6143Z" fill="black"/>
<path d="M343.588 61.2783C345.438 65.9249 347.913 70.6013 350.99 75.1704C353.755 70.7194 357.128 66.0395 361.028 61.2783C357.128 56.5171 353.755 51.8372 350.99 47.3862C347.913 51.9553 345.438 56.6318 343.588 61.2783Z" fill="black"/>
<path d="M353.7 78.9608C356.394 74.426 359.799 69.5777 363.825 64.6018C367.5 68.8553 371.574 73.146 375.992 77.3704C380.396 81.5809 384.868 85.4653 389.301 88.9698C384.099 92.8145 379.03 96.0672 374.289 98.6399C370.457 95.9862 366.726 92.9554 363.174 89.5588C359.631 86.1713 356.469 82.6141 353.7 78.9608Z" fill="black"/>
<path d="M353.7 43.5958C356.394 48.1306 359.799 52.9789 363.825 57.9548C367.5 53.7012 371.574 49.4106 375.992 45.1862C380.396 40.9757 384.868 37.0913 389.301 33.5868C384.099 29.7421 379.03 26.4894 374.289 23.9167C370.457 26.5704 366.726 29.6012 363.174 32.9977C359.631 36.3853 356.469 39.9425 353.7 43.5958Z" fill="black"/>
<path d="M379.031 48.1605C383.599 43.7926 388.226 39.7986 392.786 36.236C397.345 39.7986 401.972 43.7926 406.54 48.1605C411.096 52.5173 415.263 56.9301 418.981 61.2783C415.263 65.6265 411.096 70.0393 406.54 74.3961C401.972 78.764 397.345 82.758 392.786 86.3206C388.226 82.758 383.599 78.764 379.031 74.3961C374.475 70.0393 370.308 65.6265 366.59 61.2783C370.308 56.9301 374.475 52.5173 379.031 48.1605Z" fill="black"/>
<path d="M378.279 21.3115C382.927 23.9556 387.814 27.1789 392.786 30.9041C397.757 27.1789 402.644 23.9556 407.292 21.3115C402.522 18.3794 397.638 16.0199 392.786 14.2544C387.933 16.0199 383.05 18.3794 378.279 21.3115Z" fill="black"/>
<path d="M396.27 33.5868C401.472 29.7421 406.541 26.4893 411.282 23.9167C415.114 26.5703 418.845 29.6012 422.397 32.9977C425.94 36.3853 429.102 39.9425 431.871 43.5958C429.177 48.1306 425.772 52.9789 421.747 57.9548C418.072 53.7012 413.997 49.4106 409.579 45.1862C405.176 40.9757 400.704 37.0913 396.27 33.5868Z" fill="black"/>
<path d="M399.134 12.278C403.328 14.1214 407.495 16.3722 411.559 19.0135C412.19 18.6931 412.816 18.3846 413.435 18.0883C418.855 15.4966 423.91 13.7871 428.273 13.204C421.259 10.2493 412.735 9.62399 403.581 11.2958C402.111 11.5644 400.627 11.892 399.134 12.278Z" fill="black"/>
<path d="M402.779 7.18645C407.989 6.23497 413.111 5.96381 417.966 6.42536C410.262 3.18985 401.745 1.39355 392.786 1.39355C383.827 1.39355 375.31 3.18984 367.606 6.42534C372.46 5.96382 377.582 6.23499 382.792 7.18645C386.088 7.78848 389.433 8.66397 392.786 9.80438C396.138 8.66397 399.483 7.78848 402.779 7.18645Z" fill="black"/>
<path d="M381.99 11.2958C372.836 9.62399 364.312 10.2493 357.298 13.204C361.661 13.7871 366.716 15.4966 372.136 18.0883C372.756 18.3846 373.381 18.6931 374.013 19.0135C378.076 16.3722 382.244 14.1214 386.437 12.278C384.945 11.892 383.461 11.5644 381.99 11.2958Z" fill="black"/>
<path d="M360.135 30.0234C363.307 26.9902 366.624 24.2287 370.036 21.7492C364.702 19.2154 360.014 17.7171 356.25 17.2901C352.458 16.8601 349.978 17.5467 348.53 18.8882L348.417 18.9961C347.022 20.3734 346.309 22.7249 346.757 26.334C347.203 29.934 348.775 34.426 351.439 39.5442C354.043 36.2624 356.946 33.0729 360.135 30.0234Z" fill="black"/>
<path d="M347.649 41.5613C344.92 36.3433 343.123 31.4743 342.524 27.2735C339.399 33.9894 338.733 42.1618 340.487 50.9423C340.772 52.3703 341.121 53.8116 341.533 55.2618C343.465 51.2318 345.826 47.2272 348.599 43.3238C348.27 42.7309 347.954 42.1433 347.649 41.5613Z" fill="black"/>
<path d="M455.44 61.279C455.44 52.6699 453.538 44.4826 450.113 37.0815C450.613 41.7631 450.333 46.707 449.328 51.7358C448.7 54.8839 447.786 58.0773 446.596 61.2783C447.786 64.4794 448.7 67.6727 449.328 70.8208C450.333 75.8502 450.613 80.7947 450.113 85.4769C453.538 78.0757 455.44 69.8882 455.44 61.279Z" fill="black"/>
<path d="M445.084 71.6143C444.799 70.1863 444.45 68.745 444.038 67.2949C442.106 71.3249 439.745 75.3294 436.972 79.2328C437.301 79.8257 437.618 80.4133 437.922 80.9953C440.651 86.2133 442.448 91.0823 443.048 95.2831C446.172 88.5672 446.838 80.3948 445.084 71.6143Z" fill="black"/>
<path d="M441.984 61.2783C440.133 65.9249 437.658 70.6013 434.582 75.1704C431.816 70.7195 428.443 66.0395 424.543 61.2783C428.443 56.5171 431.816 51.8372 434.582 47.3862C437.658 51.9553 440.133 56.6318 441.984 61.2783Z" fill="black"/>
<path d="M438.815 96.2226C438.368 92.6226 436.796 88.1306 434.132 83.0124C431.528 86.2942 428.625 89.4837 425.436 92.5332C422.264 95.5664 418.948 98.328 415.536 100.807C420.87 103.341 425.557 104.84 429.322 105.266C433.163 105.702 435.658 104.992 437.098 103.615C438.53 102.246 439.268 99.8798 438.815 96.2226Z" fill="black"/>
<path d="M422.398 89.5589C418.845 92.9554 415.114 95.9862 411.282 98.6399C406.541 96.0672 401.472 92.8145 396.27 88.9698C400.704 85.4653 405.176 81.5809 409.579 77.3704C413.997 73.146 418.072 68.8553 421.747 64.6018C425.772 69.5777 429.177 74.426 431.871 78.9608C429.102 82.6141 425.94 86.1713 422.398 89.5589Z" fill="black"/>
<path d="M413.435 104.468C412.816 104.172 412.19 103.864 411.559 103.543C407.495 106.184 403.328 108.435 399.134 110.279C400.627 110.665 402.11 110.992 403.581 111.261C412.735 112.933 421.259 112.307 428.273 109.353C423.91 108.77 418.855 107.06 413.435 104.468Z" fill="black"/>
<path d="M407.293 101.245C402.522 104.177 397.638 106.537 392.786 108.302C387.933 106.537 383.05 104.177 378.279 101.245C382.927 98.601 387.814 95.3777 392.786 91.6525C397.757 95.3777 402.644 98.601 407.293 101.245Z" fill="black"/>
<path d="M402.779 115.37C399.483 114.768 396.138 113.893 392.786 112.752C389.433 113.893 386.088 114.768 382.792 115.37C377.581 116.322 372.457 116.593 367.601 116.131C375.307 119.367 383.825 121.164 392.786 121.164C401.746 121.164 410.265 119.367 417.97 116.131C413.114 116.593 407.99 116.322 402.779 115.37Z" fill="black"/>
<path d="M381.99 111.261C372.836 112.933 364.312 112.307 357.298 109.353C361.661 108.77 366.716 107.06 372.136 104.468C372.756 104.172 373.381 103.864 374.013 103.543C378.076 106.184 382.244 108.435 386.437 110.279C384.945 110.665 383.461 110.992 381.99 111.261Z" fill="black"/>
<path d="M360.135 92.5332C363.307 95.5663 366.624 98.3279 370.036 100.807C364.702 103.341 360.014 104.84 356.25 105.266C352.408 105.702 349.913 104.992 348.474 103.615C347.042 102.246 346.303 99.8798 346.757 96.2226C347.203 92.6226 348.775 88.1306 351.439 83.0124C354.043 86.2942 356.946 89.4837 360.135 92.5332Z" fill="black"/>
<path d="M444.038 55.2618C442.106 51.2318 439.745 47.2272 436.972 43.3238C437.301 42.7309 437.618 42.1433 437.922 41.5613C440.651 36.3433 442.448 31.4743 443.048 27.2735C446.172 33.9894 446.838 42.1618 445.084 50.9423C444.799 52.3704 444.45 53.8116 444.038 55.2618Z" fill="black"/>
<path d="M425.436 30.0234C428.625 33.0729 431.528 36.2624 434.132 39.5442C436.796 34.426 438.368 29.934 438.815 26.334C439.263 22.7185 438.546 20.3651 437.146 18.9888L437.049 18.8953C435.602 17.5491 433.12 16.8593 429.322 17.2901C425.557 17.7171 420.87 19.2154 415.536 21.7492C418.948 24.2287 422.264 26.9902 425.436 30.0234Z" fill="black"/>
<path d="M515.323 39.3158L563.529 36.6355C563.529 32.4663 562.877 28.3565 561.572 24.3064C560.386 20.1371 558.608 16.3252 556.236 12.8707C563.944 20.3754 568.154 29.6073 568.865 40.5666L515.501 41.46L515.323 39.3158ZM547.875 90.2405L545.919 88.275L543.962 90.2405L545.919 92.206L547.875 90.2405ZM546.452 62.9019L544.496 64.8675L546.452 66.833L548.409 64.8675L546.452 62.9019ZM513.367 19.8393L511.41 17.8738L509.453 19.8393L511.41 21.8048L513.367 19.8393ZM513.9 96.8517L511.944 94.8862L509.987 96.8517L511.944 98.8173L513.9 96.8517ZM519.237 62.1872L517.28 60.2217L515.323 62.1872L517.28 64.1527L519.237 62.1872ZM512.655 36.6355L513.011 43.9615L522.794 43.6042C528.724 43.6042 534.06 44.0211 538.804 44.855C543.666 45.6888 547.757 47.297 551.077 49.6794C554.516 51.9427 557.125 55.159 558.904 59.3283C560.801 63.4976 561.75 68.8581 561.75 75.4098C561.75 84.3439 560.031 91.3126 556.592 96.3157C553.153 101.319 548.646 105.012 543.073 107.394C537.618 109.776 531.451 111.206 524.573 111.682C517.814 112.159 511.054 112.397 504.295 112.397C501.449 112.397 498.365 112.099 495.045 111.504C491.843 110.908 488.997 109.955 486.507 108.645L493.266 98.4599L485.439 81.485L525.64 77.7327L525.285 72.0148C521.846 72.1339 518.347 72.3722 514.79 72.7295C511.351 72.9678 507.852 73.0869 504.295 73.0869C501.211 73.0869 498.128 72.8486 495.045 72.3722C491.962 71.8957 489.056 70.9427 486.329 69.5132L494.689 60.043L479.569 41.2813L491.309 26.4506L479.747 9.65437H479.569C482.178 7.51017 485.084 5.84247 488.285 4.65125C491.487 3.46003 494.749 2.56661 498.069 1.971C501.508 1.37539 504.947 1.01802 508.386 0.898896C511.825 0.779775 515.145 0.720215 518.347 0.720215C524.277 0.720215 529.732 1.1967 534.712 2.14968C539.693 2.98353 544.021 4.59168 547.698 6.97413C551.492 9.35657 554.516 12.692 556.769 16.9804C559.023 21.2688 560.446 26.808 561.039 33.5979L512.655 36.6355ZM566.553 77.1966C566.553 73.1465 566.197 69.2154 565.486 65.4035C564.893 61.4725 563.351 57.7797 560.861 54.3252C565.486 58.0179 568.332 62.3659 569.399 67.369C570.466 72.3722 571 77.6731 571 83.2718C571 89.5853 570.17 94.9458 568.51 99.3533C566.849 103.642 564.537 107.215 561.572 110.074C558.608 112.933 555.169 115.137 551.255 116.686C547.342 118.234 543.073 119.425 538.448 120.259C533.942 120.974 529.198 121.391 524.217 121.51C519.355 121.629 514.493 121.689 509.631 121.689C506.548 121.689 503.465 121.331 500.381 120.617C497.298 119.783 494.333 118.711 491.487 117.4C488.641 115.971 485.973 114.303 483.483 112.397C480.992 110.372 478.858 108.109 477.079 105.607C480.518 108.704 484.728 111.146 489.709 112.933C494.689 114.72 499.492 115.613 504.117 115.613C511.351 115.613 518.644 115.435 525.996 115.077C533.467 114.601 540.167 113.171 546.097 110.789C552.145 108.287 557.066 104.476 560.861 99.3533C564.656 94.1119 566.553 86.7264 566.553 77.1966ZM467.829 82.3784L481.526 81.6637L488.819 97.5665L482.771 106.679C480.518 106.084 478.502 104.892 476.723 103.106C475.063 101.2 473.581 99.0555 472.276 96.6731C471.09 94.2906 470.142 91.8486 469.43 89.3471C468.719 86.7264 468.185 84.4035 467.829 82.3784ZM475.656 91.6699L477.613 93.6355L479.569 91.6699L477.613 89.7044L475.656 91.6699ZM480.815 25.7359C480.577 25.2594 480.34 24.8424 480.103 24.4851C479.866 24.0086 479.451 23.7703 478.858 23.7703L477.079 25.7359L478.858 27.7014C479.451 27.7014 479.866 27.5227 480.103 27.1653C480.34 26.6888 480.577 26.2123 480.815 25.7359ZM482.06 58.4349L480.103 56.4694L478.146 58.4349L480.103 60.4004L482.06 58.4349ZM487.218 26.0932L475.3 40.9239L490.598 59.6857L483.305 67.9051C478.324 64.8079 474.174 60.5791 470.853 55.2186C467.533 49.8581 465.873 44.1998 465.873 38.2437C465.873 33.2406 466.821 28.4161 468.719 23.7703C470.616 19.1246 473.462 15.134 477.257 11.7986L487.218 26.0932ZM538.27 17.3377L536.313 15.3722L534.357 17.3377L536.313 19.3033L538.27 17.3377Z" fill="black"/>
<path d="M393.11 123.459C428.888 123.459 457.891 95.7376 457.891 61.541C457.891 49.6078 454.359 38.4632 448.24 29.0098C456.614 39.1916 461.608 52.0321 461.608 65.9875C461.608 99.0613 433.557 125.873 398.954 125.873C389.41 125.873 380.365 123.833 372.269 120.185C378.809 122.308 385.819 123.459 393.11 123.459Z" fill="black"/>
</svg>
