<svg width="132" height="125" viewBox="0 0 132 125" fill="none" xmlns="http://www.w3.org/2000/svg">
<path d="M0.456543 60.2975C0.456543 68.9065 2.35816 77.0938 5.78268 84.4949C5.28283 79.8129 5.56298 74.8685 6.56757 69.8394C7.1964 66.6913 8.11005 63.4979 9.29956 60.2969C8.11004 57.0958 7.19637 53.9024 6.56754 50.7543C5.56308 45.7258 5.28288 40.7821 5.78247 36.1007C2.35808 43.5016 0.456543 51.6887 0.456543 60.2975Z" fill="currentColor"/>
<path d="M10.8117 70.6328C9.05779 79.4133 9.72403 87.5858 12.8484 94.3016C13.4482 90.1008 15.2449 85.2319 17.9739 80.0138C18.2783 79.4318 18.5949 78.8442 18.9236 78.2514C16.1508 74.348 13.7896 70.3434 11.8581 66.3134C11.446 67.7636 11.097 69.2048 10.8117 70.6328Z" fill="currentColor"/>
<path d="M13.9122 60.2969C15.7631 64.9434 18.2378 69.6199 21.3142 74.189C24.0797 69.738 27.4529 65.0581 31.3525 60.2969C27.4529 55.5356 24.0797 50.8557 21.3142 46.4048C18.2378 50.9739 15.7631 55.6503 13.9122 60.2969Z" fill="currentColor"/>
<path d="M24.0247 77.9794C26.7186 73.4446 30.1242 68.5962 34.1493 63.6204C37.8242 67.8739 41.8992 72.1645 46.3171 76.3889C50.7204 80.5994 55.1923 84.4838 59.6256 87.9883C54.4236 91.8331 49.3549 95.0858 44.6138 97.6584C40.7815 95.0048 37.0505 91.9739 33.4984 88.5774C29.9556 85.1898 26.7938 81.6326 24.0247 77.9794Z" fill="currentColor"/>
<path d="M24.0247 42.6143C26.7186 47.1491 30.1242 51.9975 34.1493 56.9733C37.8242 52.7198 41.8992 48.4292 46.3171 44.2048C50.7204 39.9943 55.1923 36.1099 59.6256 32.6054C54.4236 28.7606 49.3549 25.5079 44.6138 22.9353C40.7815 25.5889 37.0505 28.6198 33.4984 32.0163C29.9557 35.4039 26.7938 38.9611 24.0247 42.6143Z" fill="currentColor"/>
<path d="M49.3557 47.1791C53.9237 42.8112 58.551 38.8171 63.1103 35.2546C67.6696 38.8171 72.2969 42.8112 76.8649 47.1791C81.4212 51.5358 85.5882 55.9487 89.3062 60.2969C85.5882 64.6451 81.4212 69.0579 76.8649 73.4146C72.2969 77.7825 67.6696 81.7766 63.1103 85.3391C58.551 81.7766 53.9237 77.7825 49.3557 73.4146C44.7994 69.0579 40.6325 64.645 36.9145 60.2969C40.6325 55.9487 44.7994 51.5358 49.3557 47.1791Z" fill="currentColor"/>
<path d="M48.6035 20.3301C53.2517 22.9741 58.1386 26.1974 63.1103 29.9226C68.082 26.1974 72.9689 22.9741 77.6172 20.3301C72.8463 17.398 67.9632 15.0385 63.1103 13.273C58.2575 15.0385 53.3743 17.398 48.6035 20.3301Z" fill="currentColor"/>
<path d="M66.595 32.6054C71.797 28.7606 76.8658 25.5079 81.6068 22.9353C85.4392 25.5889 89.1701 28.6198 92.7222 32.0163C96.265 35.4039 99.4268 38.9611 102.196 42.6143C99.502 47.1491 96.0965 51.9975 92.0714 56.9733C88.3964 52.7198 84.3215 48.4292 79.9036 44.2048C75.5002 39.9943 71.0284 36.1099 66.595 32.6054Z" fill="currentColor"/>
<path d="M69.4585 11.2966C73.6524 13.14 77.8201 15.3907 81.8833 18.032C82.5147 17.7116 83.1404 17.4032 83.76 17.1069C89.1801 14.5151 94.2349 12.8056 98.5981 12.2225C91.5836 9.26781 83.0597 8.64255 73.9058 10.3144C72.4352 10.583 70.9514 10.9106 69.4585 11.2966Z" fill="currentColor"/>
<path d="M73.1039 6.20501C78.3136 5.25352 83.436 4.98236 88.2906 5.44391C80.5864 2.20841 72.0693 0.412109 63.1104 0.412109C54.1516 0.412109 45.6345 2.2084 37.9303 5.44389C42.7848 4.98237 47.9071 5.25354 53.1167 6.20501C56.413 6.80704 59.7575 7.68252 63.1103 8.82293C66.4632 7.68252 69.8076 6.80704 73.1039 6.20501Z" fill="currentColor"/>
<path d="M52.3148 10.3144C43.161 8.64255 34.637 9.26781 27.6226 12.2225C31.9858 12.8056 37.0405 14.5151 42.4607 17.1069C43.0803 17.4032 43.706 17.7116 44.3374 18.032C48.4006 15.3907 52.5682 13.14 56.7621 11.2966C55.2693 10.9106 53.7854 10.583 52.3148 10.3144Z" fill="currentColor"/>
<path d="M30.4598 29.042C33.6319 26.0088 36.9484 23.2472 40.3603 20.7677C35.0264 18.234 30.3388 16.7357 26.5743 16.3087C22.7825 15.8786 20.3031 16.5652 18.855 17.9067L18.7422 18.0147C17.347 19.392 16.6336 21.7435 17.0813 25.3526C17.5279 28.9526 19.0997 33.4446 21.7636 38.5628C24.3681 35.281 27.2706 32.0915 30.4598 29.042Z" fill="currentColor"/>
<path d="M17.9739 40.5799C15.2449 35.3618 13.4482 30.4929 12.8484 26.2921C9.72403 33.0079 9.05776 41.1804 10.8117 49.9609C11.0969 51.3889 11.446 52.8302 11.8581 54.2804C13.7896 50.2503 16.1508 46.2458 18.9236 42.3424C18.5949 41.7495 18.2783 41.1619 17.9739 40.5799Z" fill="currentColor"/>
<path d="M125.764 60.2975C125.764 51.6885 123.863 43.5012 120.438 36.1C120.938 40.7817 120.658 45.7256 119.653 50.7544C119.024 53.9024 118.111 57.0959 116.921 60.2969C118.111 63.4979 119.024 66.6913 119.653 69.8394C120.658 74.8688 120.938 79.8133 120.438 84.4955C123.863 77.0942 125.764 68.9068 125.764 60.2975Z" fill="currentColor"/>
<path d="M115.409 70.6328C115.124 69.2048 114.775 67.7636 114.363 66.3134C112.431 70.3434 110.07 74.348 107.297 78.2514C107.626 78.8442 107.942 79.4318 108.247 80.0138C110.976 85.2319 112.772 90.1008 113.372 94.3016C116.497 87.5858 117.163 79.4133 115.409 70.6328Z" fill="currentColor"/>
<path d="M112.308 60.2969C110.458 64.9434 107.983 69.6199 104.906 74.189C102.141 69.738 98.7677 65.0581 94.8681 60.2969C98.7677 55.5356 102.141 50.8557 104.906 46.4048C107.983 50.9739 110.458 55.6503 112.308 60.2969Z" fill="currentColor"/>
<path d="M109.139 95.2411C108.693 91.6412 107.121 87.1491 104.457 82.0309C101.853 85.3128 98.9501 88.5023 95.7609 91.5518C92.5888 94.5849 89.2723 97.3465 85.8604 99.826C91.1943 102.36 95.8818 103.858 99.6463 104.285C103.488 104.721 105.983 104.01 107.422 102.634C108.854 101.264 109.593 98.8984 109.139 95.2411Z" fill="currentColor"/>
<path d="M92.7222 88.5774C89.1701 91.9739 85.4392 95.0048 81.6068 97.6584C76.8657 95.0858 71.797 91.8331 66.595 87.9883C71.0284 84.4838 75.5002 80.5994 79.9036 76.3889C84.3215 72.1645 88.3964 67.8739 92.0714 63.6204C96.0965 68.5962 99.502 73.4446 102.196 77.9794C99.4268 81.6326 96.265 85.1898 92.7222 88.5774Z" fill="currentColor"/>
<path d="M83.76 103.487C83.1404 103.191 82.5147 102.882 81.8833 102.562C77.8201 105.203 73.6524 107.454 69.4586 109.297C70.9514 109.683 72.4352 110.011 73.9058 110.279C83.0597 111.951 91.5836 111.326 98.5981 108.371C94.2349 107.788 89.1801 106.079 83.76 103.487Z" fill="currentColor"/>
<path d="M77.6172 100.264C72.8463 103.196 67.9632 105.555 63.1104 107.321C58.2575 105.555 53.3744 103.196 48.6035 100.264C53.2517 97.6196 58.1386 94.3963 63.1103 90.6711C68.082 94.3963 72.9689 97.6196 77.6172 100.264Z" fill="currentColor"/>
<path d="M73.1039 114.389C69.8076 113.787 66.4632 112.911 63.1104 111.771C59.7575 112.911 56.4131 113.787 53.1168 114.389C47.9057 115.34 42.7819 115.611 37.9261 115.149C45.6314 118.386 54.15 120.183 63.1104 120.183C72.0709 120.183 80.5894 118.386 88.2947 115.149C83.4389 115.611 78.3151 115.34 73.1039 114.389Z" fill="currentColor"/>
<path d="M52.3149 110.279C43.161 111.951 34.6371 111.326 27.6226 108.371C31.9858 107.788 37.0405 106.079 42.4607 103.487C43.0803 103.191 43.706 102.882 44.3374 102.562C48.4006 105.203 52.5682 107.454 56.7621 109.297C55.2693 109.683 53.7855 110.011 52.3149 110.279Z" fill="currentColor"/>
<path d="M30.4598 91.5517C33.6319 94.5849 36.9484 97.3465 40.3603 99.826C35.0264 102.36 30.3388 103.858 26.5743 104.285C22.7326 104.721 20.238 104.01 18.7984 102.634C17.3662 101.264 16.6277 98.8984 17.0813 95.2411C17.5279 91.6411 19.0997 87.1491 21.7636 82.0309C24.3681 85.3128 27.2706 88.5022 30.4598 91.5517Z" fill="currentColor"/>
<path d="M114.363 54.2804C112.431 50.2503 110.07 46.2458 107.297 42.3424C107.626 41.7495 107.942 41.1619 108.247 40.5799C110.976 35.3618 112.772 30.4929 113.372 26.2921C116.497 33.0079 117.163 41.1804 115.409 49.9609C115.124 51.3889 114.775 52.8302 114.363 54.2804Z" fill="currentColor"/>
<path d="M95.7609 29.042C98.9501 32.0915 101.853 35.2809 104.457 38.5628C107.121 33.4446 108.693 28.9526 109.139 25.3526C109.588 21.7371 108.871 19.3837 107.471 18.0073L107.373 17.9138C105.926 16.5677 103.445 15.8779 99.6463 16.3087C95.8818 16.7357 91.1943 18.234 85.8604 20.7677C89.2723 23.2472 92.5888 26.0088 95.7609 29.042Z" fill="currentColor"/>
<path fill-rule="evenodd" clip-rule="evenodd" d="M63.1103 122.216C98.8878 122.216 127.891 94.4944 127.891 60.2978C127.891 48.3647 124.359 37.22 118.24 27.7666C126.614 37.9484 131.608 50.7889 131.608 64.7443C131.608 97.8181 103.557 124.63 68.9541 124.63C59.4101 124.63 50.3646 122.59 42.2686 118.942C48.809 121.065 55.819 122.216 63.1103 122.216Z" fill="currentColor"/>
</svg>
