<svg width="115" height="133" viewBox="0 0 115 133" fill="none" xmlns="http://www.w3.org/2000/svg">
<mask id="path-1-inside-1_192_193" fill="white">
<path d="M114.544 60.8108C111.809 62.735 109.073 64.6408 106.338 66.565C97.5814 72.7264 88.842 78.8682 80.1041 85.0467C79.4331 85.5176 78.9382 85.5343 78.2325 85.1609C66.5049 78.9052 54.7612 72.6875 43.0352 66.4685C42.7092 66.2891 42.3502 66.1673 42.008 66.0259C53.2225 44.3199 64.4208 22.6518 75.7174 0.792725C88.7417 20.9279 101.634 40.87 114.544 60.8108Z"/>
<path d="M42.5282 73.076C44.2295 73.9862 45.9478 74.8769 47.6491 75.7871C53.2049 78.7435 58.7776 81.6803 64.3334 84.6367C69.0938 87.1892 73.8549 89.7602 78.6152 92.3128C79.1583 92.6056 79.6364 92.6085 80.239 92.1977C85.8984 88.207 91.6123 84.2493 97.2901 80.2758C101.264 77.4906 105.184 74.6542 109.158 71.869C110.964 70.5997 112.807 69.3646 114.796 68.2296C103.485 86.7211 92.1915 105.211 80.7972 123.838C67.922 106.895 55.1586 90.0914 42.3776 73.2891C42.4276 73.212 42.4783 73.1532 42.5282 73.076Z"/>
<path d="M44.7011 88.177C44.1391 90.2933 43.5692 92.4013 43.0071 94.5177C41.2085 101.293 39.4103 108.052 37.6278 114.828C37.4894 115.346 37.2521 115.573 36.7511 115.709C28.4043 117.94 20.0652 120.197 11.7342 122.446C11.5 122.505 11.273 122.606 11.0463 122.691C7.69551 107.497 4.35234 92.3282 0.979492 77.0257C15.6467 80.7675 30.1698 84.4765 44.7011 88.177Z"/>
<path d="M14.1884 125.786C15.4004 125.464 16.6127 125.125 17.8247 124.802C21.7759 123.742 25.7275 122.664 29.6787 121.603C33.0722 120.704 36.4736 119.813 39.8671 118.913C40.2549 118.811 40.4919 118.601 40.6211 118.141C41.7802 113.758 42.9796 109.366 44.1547 104.983C44.9757 101.913 45.7485 98.8431 46.5695 95.7732C46.9412 94.3762 47.3452 92.9791 47.8619 91.5649C49.8493 105.285 51.8448 118.997 53.8463 132.818C40.5592 130.516 27.3844 128.231 14.2014 125.953C14.1944 125.895 14.1953 125.845 14.1884 125.786Z"/>
<path d="M34.2092 48.4611C33.6173 49.5795 33.0221 50.6922 32.4302 51.8106C30.5356 55.3916 28.6433 58.9631 26.7577 62.5463C26.6123 62.8203 26.4499 62.9149 26.1519 62.9208C21.1921 63.0019 16.2332 63.0983 11.28 63.191C11.1412 63.1915 11.001 63.2166 10.8632 63.2324C10.983 54.1563 11.1038 45.0956 11.2255 35.955C18.9357 40.1509 26.5696 44.3078 34.2092 48.4611Z"/>
<path d="M12.214 65.4298C12.934 65.4189 13.6563 65.3986 14.3763 65.3878C16.7248 65.347 19.0756 65.2968 21.4241 65.2561C23.4396 65.2275 25.4584 65.2047 27.4738 65.1761C27.704 65.1734 27.8641 65.0882 27.9967 64.846C29.2199 62.5288 30.4667 60.2125 31.6988 57.8976C32.5607 56.276 33.3955 54.6476 34.2573 53.026C34.6485 52.2878 35.0576 51.5541 35.5321 50.8267C34.8432 58.8755 34.16 66.9207 33.466 75.0283C26.3385 71.843 19.2718 68.6828 12.1993 65.5262C12.2031 65.4922 12.2102 65.4639 12.214 65.4298Z"/>
</mask>
<path d="M114.544 60.8108C111.809 62.735 109.073 64.6408 106.338 66.565C97.5814 72.7264 88.842 78.8682 80.1041 85.0467C79.4331 85.5176 78.9382 85.5343 78.2325 85.1609C66.5049 78.9052 54.7612 72.6875 43.0352 66.4685C42.7092 66.2891 42.3502 66.1673 42.008 66.0259C53.2225 44.3199 64.4208 22.6518 75.7174 0.792725C88.7417 20.9279 101.634 40.87 114.544 60.8108Z" fill="#BB88FF"/>
<path d="M42.5282 73.076C44.2295 73.9862 45.9478 74.8769 47.6491 75.7871C53.2049 78.7435 58.7776 81.6803 64.3334 84.6367C69.0938 87.1892 73.8549 89.7602 78.6152 92.3128C79.1583 92.6056 79.6364 92.6085 80.239 92.1977C85.8984 88.207 91.6123 84.2493 97.2901 80.2758C101.264 77.4906 105.184 74.6542 109.158 71.869C110.964 70.5997 112.807 69.3646 114.796 68.2296C103.485 86.7211 92.1915 105.211 80.7972 123.838C67.922 106.895 55.1586 90.0914 42.3776 73.2891C42.4276 73.212 42.4783 73.1532 42.5282 73.076Z" fill="#BB88FF"/>
<path d="M44.7011 88.177C44.1391 90.2933 43.5692 92.4013 43.0071 94.5177C41.2085 101.293 39.4103 108.052 37.6278 114.828C37.4894 115.346 37.2521 115.573 36.7511 115.709C28.4043 117.94 20.0652 120.197 11.7342 122.446C11.5 122.505 11.273 122.606 11.0463 122.691C7.69551 107.497 4.35234 92.3282 0.979492 77.0257C15.6467 80.7675 30.1698 84.4765 44.7011 88.177Z" fill="#BB88FF"/>
<path d="M14.1884 125.786C15.4004 125.464 16.6127 125.125 17.8247 124.802C21.7759 123.742 25.7275 122.664 29.6787 121.603C33.0722 120.704 36.4736 119.813 39.8671 118.913C40.2549 118.811 40.4919 118.601 40.6211 118.141C41.7802 113.758 42.9796 109.366 44.1547 104.983C44.9757 101.913 45.7485 98.8431 46.5695 95.7732C46.9412 94.3762 47.3452 92.9791 47.8619 91.5649C49.8493 105.285 51.8448 118.997 53.8463 132.818C40.5592 130.516 27.3844 128.231 14.2014 125.953C14.1944 125.895 14.1953 125.845 14.1884 125.786Z" fill="#BB88FF"/>
<path d="M34.2092 48.4611C33.6173 49.5795 33.0221 50.6922 32.4302 51.8106C30.5356 55.3916 28.6433 58.9631 26.7577 62.5463C26.6123 62.8203 26.4499 62.9149 26.1519 62.9208C21.1921 63.0019 16.2332 63.0983 11.28 63.191C11.1412 63.1915 11.001 63.2166 10.8632 63.2324C10.983 54.1563 11.1038 45.0956 11.2255 35.955C18.9357 40.1509 26.5696 44.3078 34.2092 48.4611Z" fill="#BB88FF"/>
<path d="M12.214 65.4298C12.934 65.4189 13.6563 65.3986 14.3763 65.3878C16.7248 65.347 19.0756 65.2968 21.4241 65.2561C23.4396 65.2275 25.4584 65.2047 27.4738 65.1761C27.704 65.1734 27.8641 65.0882 27.9967 64.846C29.2199 62.5288 30.4667 60.2125 31.6988 57.8976C32.5607 56.276 33.3955 54.6476 34.2573 53.026C34.6485 52.2878 35.0576 51.5541 35.5321 50.8267C34.8432 58.8755 34.16 66.9207 33.466 75.0283C26.3385 71.843 19.2718 68.6828 12.1993 65.5262C12.2031 65.4922 12.2102 65.4639 12.214 65.4298Z" fill="#BB88FF"/>
<path d="M114.544 60.8108L115.695 62.4466L117.269 61.3393L116.223 59.7238L114.544 60.8108ZM106.338 66.565L105.187 64.9292L105.187 64.9294L106.338 66.565ZM80.1041 85.0467L81.2531 86.6837L81.2588 86.6797L80.1041 85.0467ZM78.2325 85.1609L77.2912 86.9256L77.2972 86.9287L78.2325 85.1609ZM43.0352 66.4685L42.071 68.2208L42.0845 68.2282L42.0981 68.2354L43.0352 66.4685ZM42.008 66.0259L40.2312 65.1079L39.2317 67.0424L41.244 67.8742L42.008 66.0259ZM75.7174 0.792725L77.3967 -0.293522L75.5238 -3.18895L73.9407 -0.125494L75.7174 0.792725ZM42.5282 73.076L43.4717 71.3125L41.8488 70.4443L40.849 71.9896L42.5282 73.076ZM47.6491 75.7871L46.7056 77.5506L46.7096 77.5527L47.6491 75.7871ZM64.3334 84.6367L65.2785 82.8741L65.2729 82.8711L64.3334 84.6367ZM78.6152 92.3128L79.5645 90.5524L79.5604 90.5502L78.6152 92.3128ZM80.239 92.1977L81.3656 93.8501L81.3787 93.8413L81.3915 93.8322L80.239 92.1977ZM97.2901 80.2758L98.4369 81.9144L98.4379 81.9136L97.2901 80.2758ZM109.158 71.869L110.306 73.5069L110.308 73.5054L109.158 71.869ZM114.796 68.2296L116.503 69.2732L113.805 66.4925L114.796 68.2296ZM80.7972 123.838L79.2048 125.048L80.9759 127.378L82.5033 124.881L80.7972 123.838ZM42.3776 73.2891L40.6985 72.2027L39.9354 73.382L40.7858 74.5L42.3776 73.2891ZM44.7011 88.177L46.6341 88.6904L47.1528 86.7375L45.1947 86.2389L44.7011 88.177ZM43.0071 94.5177L41.0741 94.0043L41.0741 94.0045L43.0071 94.5177ZM37.6278 114.828L39.5602 115.343L39.5619 115.337L37.6278 114.828ZM36.7511 115.709L37.2677 117.641L37.2741 117.639L36.7511 115.709ZM11.7342 122.446L12.2262 124.384L12.2408 124.381L12.2554 124.377L11.7342 122.446ZM11.0463 122.691L9.09319 123.122L9.58871 125.369L11.7447 124.565L11.0463 122.691ZM0.979492 77.0257L1.47388 75.0878L-1.67258 74.2851L-0.973627 77.4562L0.979492 77.0257ZM14.1884 125.786L13.6741 123.854L11.9976 124.3L12.2024 126.022L14.1884 125.786ZM17.8247 124.802L18.3389 126.735L18.3432 126.734L17.8247 124.802ZM29.6787 121.603L29.1662 119.67L29.1602 119.672L29.6787 121.603ZM39.8671 118.913L39.359 116.978L39.3546 116.98L39.8671 118.913ZM40.6211 118.141L42.5467 118.682L42.5508 118.667L42.5547 118.652L40.6211 118.141ZM44.1547 104.983L46.0865 105.501L46.0868 105.5L44.1547 104.983ZM46.5695 95.7732L48.5016 96.2899L48.5022 96.2875L46.5695 95.7732ZM47.8619 91.5649L49.8413 91.2782L45.9834 90.8784L47.8619 91.5649ZM53.8463 132.818L53.5049 134.789L56.2207 135.259L55.8257 132.531L53.8463 132.818ZM14.2014 125.953L12.2153 126.19L12.3914 127.67L13.8609 127.924L14.2014 125.953ZM34.2092 48.4611L35.977 49.3966L36.9021 47.6486L35.1645 46.704L34.2092 48.4611ZM32.4302 51.8106L30.6625 50.8751L30.6624 50.8753L32.4302 51.8106ZM26.7577 62.5463L28.5245 63.4836L28.5276 63.4777L26.7577 62.5463ZM26.1519 62.9208L26.1846 64.9206L26.1914 64.9204L26.1519 62.9208ZM11.28 63.191L11.2868 65.191L11.3021 65.191L11.3175 65.1907L11.28 63.191ZM10.8632 63.2324L8.86336 63.206L8.83338 65.4768L11.0898 65.2195L10.8632 63.2324ZM11.2255 35.955L12.1815 34.1982L9.26986 32.6137L9.22572 35.9283L11.2255 35.955ZM12.214 65.4298L12.1838 63.4301L10.4208 63.4567L10.2262 65.2091L12.214 65.4298ZM14.3763 65.3878L14.4065 67.3875L14.411 67.3875L14.3763 65.3878ZM21.4241 65.2561L21.3957 63.2563L21.3894 63.2564L21.4241 65.2561ZM27.4738 65.1761L27.4501 63.1763L27.4455 63.1763L27.4738 65.1761ZM27.9967 64.846L29.751 65.8065L29.7583 65.7931L29.7654 65.7796L27.9967 64.846ZM31.6988 57.8976L33.4643 58.8373L33.4649 58.8362L31.6988 57.8976ZM34.2573 53.026L36.0234 53.9646L36.0246 53.9624L34.2573 53.026ZM35.5321 50.8267L37.5248 50.9973L33.857 49.734L35.5321 50.8267ZM33.466 75.0283L32.6499 76.8542L35.2187 78.0022L35.4587 75.1988L33.466 75.0283ZM12.1993 65.5262L10.2115 65.3055L10.0503 66.7573L11.3842 67.3526L12.1993 65.5262ZM113.394 59.175C112.028 60.1355 110.662 61.0917 109.294 62.0495C107.927 63.0068 106.557 63.9656 105.187 64.9292L107.488 68.2008C108.854 67.2403 110.22 66.2841 111.588 65.3264C112.955 64.3691 114.325 63.4102 115.695 62.4466L113.394 59.175ZM105.187 64.9294C96.4318 71.0898 87.6897 77.2335 78.9494 83.4136L81.2588 86.6797C89.9942 80.5029 98.731 74.363 107.489 68.2007L105.187 64.9294ZM78.9551 83.4096C78.8738 83.4667 78.8495 83.4732 78.872 83.464C78.9023 83.4517 78.973 83.4289 79.0708 83.4234C79.1682 83.4181 79.2389 83.4329 79.266 83.4404C79.2853 83.4458 79.2576 83.4406 79.1678 83.3931L77.2972 86.9287C77.819 87.2048 78.4928 87.4615 79.2918 87.4173C80.0958 87.3729 80.7457 87.0398 81.2531 86.6837L78.9551 83.4096ZM79.1738 83.3963C67.4435 77.1391 55.6966 70.9197 43.9723 64.7016L42.0981 68.2354C53.8259 74.4553 65.5664 80.6713 77.2912 86.9256L79.1738 83.3963ZM43.9994 64.7163C43.5441 64.4657 42.9505 64.2514 42.772 64.1776L41.244 67.8742C41.7498 68.0833 41.8743 68.1125 42.071 68.2208L43.9994 64.7163ZM43.7849 66.9439C54.9993 45.238 66.1975 23.5701 77.4942 1.71094L73.9407 -0.125494C62.644 21.7336 51.4457 43.4017 40.2312 65.1079L43.7849 66.9439ZM74.0381 1.87897C87.0621 22.0136 99.955 41.9565 112.865 61.8977L116.223 59.7238C103.313 39.7835 90.4214 19.8422 77.3967 -0.293522L74.0381 1.87897ZM41.5847 74.8395C42.4421 75.2982 43.3028 75.7514 44.1567 76.2011C45.0126 76.6519 45.8617 77.099 46.7056 77.5506L48.5926 74.0236C47.7352 73.5649 46.8745 73.1116 46.0206 72.6619C45.1647 72.2112 44.3156 71.764 43.4717 71.3125L41.5847 74.8395ZM46.7096 77.5527C49.4895 79.032 52.2734 80.5062 55.0553 81.9793C57.8377 83.4528 60.6181 84.9252 63.3939 86.4023L65.2729 82.8711C62.493 81.3918 59.7091 79.9175 56.9272 78.4444C54.1448 76.971 51.3644 75.4986 48.5886 74.0215L46.7096 77.5527ZM63.3883 86.3993C65.767 87.6747 68.146 88.9549 70.5266 90.2359C72.9068 91.5167 75.2884 92.7983 77.6701 94.0754L79.5604 90.5502C77.1817 89.2747 74.8026 87.9945 72.422 86.7135C70.0419 85.4327 67.6602 84.1512 65.2785 82.8741L63.3883 86.3993ZM77.666 94.0731C78.1525 94.3355 78.7754 94.5555 79.5114 94.5163C80.2425 94.4772 80.8609 94.1943 81.3656 93.8501L79.1123 90.5452C79.0144 90.612 79.0925 90.5329 79.2982 90.522C79.5087 90.5107 79.6211 90.5829 79.5645 90.5524L77.666 94.0731ZM81.3915 93.8322C87.0486 89.8432 92.747 85.8964 98.4369 81.9144L96.1434 78.6372C90.4776 82.6023 84.7483 86.5708 79.0864 90.5632L81.3915 93.8322ZM98.4379 81.9136C100.432 80.516 102.412 79.1062 104.384 77.7015C106.359 76.2954 108.326 74.8944 110.306 73.5069L108.01 70.2312C106.016 71.6288 104.036 73.0386 102.064 74.4433C100.089 75.8494 98.1222 77.2504 96.1423 78.6379L98.4379 81.9136ZM110.308 73.5054C112.092 72.2515 113.877 71.0569 115.788 69.9667L113.805 66.4925C111.738 67.6723 109.836 68.9479 108.008 70.2326L110.308 73.5054ZM113.09 67.186C101.771 85.6905 90.4924 104.156 79.0911 122.794L82.5033 124.881C93.8906 106.267 105.199 87.7518 116.503 69.2732L113.09 67.186ZM82.3896 122.628C69.5147 105.685 56.7508 88.8811 43.9695 72.0783L40.7858 74.5C53.5664 91.3017 66.3292 108.104 79.2048 125.048L82.3896 122.628ZM44.0568 74.3756C44.0428 74.3973 44.0316 74.4114 44.0607 74.3722C44.0819 74.3434 44.1434 74.2613 44.2074 74.1624L40.849 71.9896C40.8631 71.9678 40.8742 71.9537 40.8452 71.993C40.8239 72.0217 40.7625 72.1038 40.6985 72.2027L44.0568 74.3756ZM42.7682 87.6637C42.4878 88.7193 42.2054 89.7732 41.9223 90.8297C41.6394 91.8854 41.3558 92.9436 41.0741 94.0043L44.9401 95.031C45.2205 93.9754 45.5029 92.9214 45.786 91.865C46.0689 90.8093 46.3525 89.751 46.6341 88.6904L42.7682 87.6637ZM41.0741 94.0045C39.2759 100.779 37.4768 107.541 35.6936 114.319L39.5619 115.337C41.3437 108.564 43.1412 101.808 44.9402 95.0308L41.0741 94.0045ZM35.6953 114.312C35.679 114.374 35.7158 114.192 35.9154 113.993C36.1132 113.797 36.2937 113.76 36.228 113.778L37.2741 117.639C37.7094 117.521 38.2591 117.304 38.7355 116.83C39.2136 116.355 39.4382 115.8 39.5602 115.343L35.6953 114.312ZM36.2344 113.777C27.8848 116.009 19.5422 118.267 11.2131 120.515L12.2554 124.377C20.5882 122.128 28.9239 119.872 37.2677 117.641L36.2344 113.777ZM11.2422 120.507C10.8686 120.602 10.4129 120.793 10.3478 120.817L11.7447 124.565C12.133 124.42 12.1313 124.408 12.2262 124.384L11.2422 120.507ZM12.9993 122.26C9.64861 107.066 6.30547 91.8977 2.93261 76.5953L-0.973627 77.4562C2.39921 92.7586 5.74241 107.928 9.09319 123.122L12.9993 122.26ZM0.485104 78.9637C15.1517 82.7053 29.6757 86.4145 44.2076 90.1152L45.1947 86.2389C30.6639 82.5385 16.1418 78.8298 1.47388 75.0878L0.485104 78.9637ZM14.7027 127.719C15.3159 127.556 15.9281 127.389 16.5332 127.224C17.1403 127.058 17.7402 126.894 18.3389 126.735L17.3104 122.869C16.6972 123.033 16.0849 123.2 15.4799 123.365C14.8728 123.531 14.2729 123.694 13.6741 123.854L14.7027 127.719ZM18.3432 126.734C20.321 126.203 22.2986 125.668 24.274 125.133C26.25 124.599 28.2238 124.065 30.1972 123.535L29.1602 119.672C27.1823 120.203 25.2047 120.738 23.2294 121.272C21.2534 121.807 19.2795 122.341 17.3061 122.871L18.3432 126.734ZM30.1912 123.537C31.8863 123.087 33.5837 122.64 35.2826 122.192C36.9811 121.744 38.6812 121.296 40.3796 120.846L39.3546 116.98C37.6594 117.429 35.9621 117.876 34.2631 118.324C32.5647 118.772 30.8646 119.22 29.1662 119.67L30.1912 123.537ZM40.3751 120.847C40.8031 120.735 41.3076 120.519 41.7485 120.082C42.1851 119.65 42.4176 119.141 42.5467 118.682L38.6956 117.6C38.6956 117.6 38.6963 117.598 38.6979 117.593C38.6994 117.588 38.702 117.581 38.7057 117.572C38.713 117.553 38.7251 117.525 38.7438 117.491C38.7826 117.419 38.8439 117.329 38.9336 117.24C39.1268 117.049 39.3188 116.989 39.359 116.978L40.3751 120.847ZM42.5547 118.652C43.713 114.272 44.9077 109.898 46.0865 105.501L42.2229 104.465C41.0515 108.834 39.8473 113.244 38.6876 117.63L42.5547 118.652ZM46.0868 105.5C46.4995 103.956 46.8998 102.414 47.2979 100.881C47.6967 99.3444 48.0933 97.8166 48.5016 96.2899L44.6374 95.2565C44.2247 96.7997 43.8244 98.3417 43.4262 99.8755C43.0275 101.412 42.6309 102.939 42.2226 104.466L46.0868 105.5ZM48.5022 96.2875C48.8673 94.9158 49.2534 93.5842 49.7405 92.2513L45.9834 90.8784C45.4369 92.3741 45.0152 93.8367 44.6368 95.2588L48.5022 96.2875ZM45.8826 91.8516C47.8721 105.587 49.8635 119.271 51.867 133.105L55.8257 132.531C53.8261 118.724 51.8264 104.983 49.8413 91.2782L45.8826 91.8516ZM54.1877 130.847C40.9013 128.546 27.7255 126.26 14.5418 123.983L13.8609 127.924C27.0433 130.201 40.2172 132.487 53.5049 134.789L54.1877 130.847ZM16.1874 125.717C16.1924 125.76 16.1937 125.793 16.1918 125.759C16.1907 125.739 16.1864 125.651 16.1744 125.55L12.2024 126.022C12.1973 125.98 12.1961 125.947 12.1979 125.98C12.1991 126.001 12.2033 126.089 12.2153 126.19L16.1874 125.717ZM32.4415 47.5256C32.1468 48.0825 31.8511 48.6383 31.5541 49.1964C31.2575 49.7538 30.9596 50.3136 30.6625 50.8751L34.1979 52.7461C34.4926 52.1892 34.7884 51.6334 35.0853 51.0753C35.3819 50.5179 35.6798 49.9581 35.977 49.3966L32.4415 47.5256ZM30.6624 50.8753C28.7685 54.4548 26.8748 58.0292 24.9878 61.6149L28.5276 63.4777C30.4119 59.897 32.3026 56.3283 34.198 52.7459L30.6624 50.8753ZM24.991 61.6089C25.0138 61.5658 25.1501 61.3224 25.4696 61.1273C25.7884 60.9326 26.0672 60.9221 26.1125 60.9212L26.1914 64.9204C26.5346 64.9137 27.0436 64.8529 27.5545 64.541C28.066 64.2285 28.3562 63.8008 28.5245 63.4836L24.991 61.6089ZM26.1192 60.9211C21.1563 61.0022 16.1938 61.0987 11.2426 61.1914L11.3175 65.1907C16.2726 65.0979 21.2279 65.0016 26.1846 64.9206L26.1192 60.9211ZM11.2732 61.191C11.0912 61.1917 10.934 61.2082 10.8343 61.2201C10.6152 61.2462 10.776 61.2293 10.6366 61.2452L11.0898 65.2195C11.1437 65.2133 11.1942 65.2067 11.2284 65.2022C11.2677 65.197 11.2884 65.1943 11.3082 65.1919C11.3478 65.1872 11.33 65.1909 11.2868 65.191L11.2732 61.191ZM12.863 63.2588C12.9829 54.1829 13.1036 45.1222 13.2254 35.9816L9.22572 35.9283C9.10399 45.0689 8.9832 54.1298 8.86336 63.206L12.863 63.2588ZM10.2695 37.7117C17.9791 41.9072 25.6139 46.0646 33.254 50.2182L35.1645 46.704C27.5254 42.5509 19.8923 38.3945 12.1815 34.1982L10.2695 37.7117ZM12.2442 67.4296C12.6118 67.424 12.9789 67.4161 13.3384 67.4083C13.7 67.4005 14.0541 67.3929 14.4065 67.3875L14.3461 63.388C13.9785 63.3935 13.6114 63.4015 13.2519 63.4093C12.8902 63.4171 12.5362 63.4247 12.1838 63.4301L12.2442 67.4296ZM14.411 67.3875C15.5876 67.367 16.7644 67.3443 17.9389 67.3216C19.114 67.2988 20.2869 67.2761 21.4588 67.2558L21.3894 63.2564C20.2128 63.2768 19.036 63.2996 17.8615 63.3223C16.6863 63.345 15.5135 63.3677 14.3416 63.3881L14.411 67.3875ZM21.4525 67.2559C22.4585 67.2416 23.4656 67.2288 24.4744 67.216C25.4827 67.2031 26.4928 67.1903 27.5022 67.1759L27.4455 63.1763C26.4394 63.1906 25.4323 63.2034 24.4235 63.2163C23.4152 63.2291 22.4052 63.242 21.3957 63.2563L21.4525 67.2559ZM27.4976 67.176C27.8586 67.1717 28.3358 67.0987 28.8111 66.8097C29.2799 66.5245 29.5703 66.1365 29.751 65.8065L26.2425 63.8855C26.2905 63.7977 26.4346 63.5734 26.7327 63.3921C27.0372 63.2069 27.3192 63.1778 27.4501 63.1763L27.4976 67.176ZM29.7654 65.7796C30.9872 63.465 32.2255 61.1648 33.4643 58.8373L29.9333 56.9579C28.7079 59.2603 27.4525 61.5927 26.228 63.9124L29.7654 65.7796ZM33.4649 58.8362C33.8998 58.0178 34.3274 57.1988 34.751 56.3874C35.1757 55.5738 35.5965 54.7678 36.0234 53.9646L32.4913 52.0874C32.0563 52.9058 31.6287 53.7248 31.2051 54.5362C30.7804 55.3498 30.3596 56.1557 29.9327 56.959L33.4649 58.8362ZM36.0246 53.9624C36.4035 53.2473 36.7804 52.5738 37.2072 51.9194L33.857 49.734C33.3349 50.5345 32.8935 51.3283 32.4901 52.0896L36.0246 53.9624ZM33.5394 50.6562C32.8492 58.72 32.1685 66.7368 31.4732 74.8577L35.4587 75.1988C36.1516 67.1046 36.8372 59.031 37.5248 50.9973L33.5394 50.6562ZM34.282 73.2023C27.1551 70.0173 20.0875 66.8567 13.0144 63.6999L11.3842 67.3526C18.456 70.5089 25.5219 73.6687 32.6499 76.8542L34.282 73.2023ZM14.1871 65.747C14.1838 65.7765 14.1804 65.7997 14.1783 65.8131C14.1765 65.8241 14.175 65.8324 14.1768 65.8221C14.1778 65.8168 14.182 65.7929 14.1862 65.7659C14.1908 65.7367 14.1966 65.6972 14.2018 65.6505L10.2262 65.2091C10.2295 65.1795 10.2329 65.1563 10.235 65.143C10.2368 65.132 10.2383 65.1237 10.2365 65.1339C10.2355 65.1393 10.2313 65.1632 10.2271 65.1901C10.2225 65.2194 10.2167 65.2589 10.2115 65.3055L14.1871 65.747Z" fill="black" mask="url(#path-1-inside-1_192_193)"/>
</svg>
