<svg width="68" height="61" viewBox="0 0 68 61" fill="none" xmlns="http://www.w3.org/2000/svg">
<path d="M40.6649 60.2422C42.884 60.1859 44.7934 59.9764 46.6677 59.496C49.2317 58.8396 51.7166 57.9597 54.1593 56.9443C56.6354 55.9148 59.0851 54.8272 61.5119 53.6868C62.7948 53.0849 64.083 52.4901 65.3501 51.8548C65.8217 51.619 66.2863 51.3286 66.6735 50.9749C67.4601 50.2516 67.7734 49.3119 67.7452 48.2436C67.7188 47.1649 67.3598 46.1776 66.9673 45.1991C66.2194 43.3372 65.1952 41.6232 64.1041 39.946C63.6729 39.2826 63.2488 38.6156 62.8001 37.9645C62.5114 37.5456 62.1859 37.1497 61.8673 36.7502C61.8234 36.6939 61.723 36.6657 61.6456 36.6569C61.1969 36.6076 61.0754 36.2521 61.0596 35.8896C61.0473 35.5834 61.0525 35.2719 60.9874 34.9745C60.3398 31.9793 59.6869 28.984 59.0199 25.9923C58.4797 23.5655 57.7229 21.2073 56.6758 18.9477C55.8417 17.1439 54.8896 15.4052 53.7651 13.765C53.0999 12.7953 52.4012 11.8503 51.6075 10.9809C51.1253 10.4512 50.6519 9.91271 50.1433 9.4094C49.054 8.33414 47.889 7.3504 46.6307 6.47576C44.8533 5.24036 42.9562 4.23549 40.9412 3.45237C39.3327 2.82762 37.6837 2.32431 35.9767 2.0621C34.8891 1.89491 33.7875 1.7946 32.6893 1.69781C31.3008 1.57814 29.9088 1.59574 28.5203 1.73477C27.3676 1.85092 26.2131 1.94771 25.0569 2.04626C24.7454 2.07266 24.4304 2.08498 24.1172 2.08146C24.0116 2.08146 23.9042 2.0181 23.8022 1.97235C22.7727 1.50951 21.7502 1.0238 20.7101 0.587357C20.3001 0.414894 19.8461 0.339221 19.4096 0.235391C19.0876 0.157958 18.8007 0.319863 18.711 0.654231C18.5737 1.1769 18.4646 1.70837 18.352 2.23632C18.2252 2.83466 18.1021 3.43301 17.9877 4.03487C17.9349 4.3182 17.7712 4.49947 17.5248 4.61738C16.08 5.30547 14.6809 6.07804 13.3839 7.01427C12.5339 7.62669 11.7121 8.28135 10.9043 8.95008C10.3482 9.41116 9.8238 9.91271 9.31345 10.4231C8.14316 11.5969 7.0855 12.864 6.15631 14.2384C4.70621 16.3783 3.55176 18.6626 2.79151 21.1369C2.4237 22.3319 2.08406 23.5373 1.92743 24.7833C1.83064 25.5418 1.76728 26.3056 1.70393 27.0693C1.62474 28.0337 1.55786 28.9999 1.49099 29.966C1.47515 30.2036 1.49979 30.4464 1.47867 30.684C1.40828 31.4584 1.37308 32.2415 1.23757 33.0052C1.08623 33.8588 0.857451 34.7017 0.628672 35.5394C0.424532 36.2873 0.480843 37.0141 0.71842 37.7339C1.05279 38.7493 1.56842 39.6645 2.37091 40.3807C2.86542 40.8224 3.39865 41.2219 3.93716 41.6126C5.51045 42.753 7.06966 43.9145 8.68167 44.9967C10.3429 46.1125 12.0518 47.1561 13.7517 48.2137C15.0593 49.0268 16.3792 49.824 17.7061 50.6053C18.9186 51.3198 20.1382 52.0273 21.3771 52.6978C23.6279 53.9173 25.8893 55.1158 28.156 56.3054C30.3276 57.4458 32.5274 58.5193 34.868 59.2796C36.1509 59.6966 37.4655 59.9483 38.8047 60.0838C39.5175 60.156 40.232 60.2052 40.6596 60.2422H40.6649ZM20.0625 2.08146C20.1663 2.10785 20.2508 2.11665 20.3247 2.14833C20.8228 2.35951 21.3225 2.56717 21.8153 2.79067C24.6064 4.04895 27.1018 5.74895 29.3316 7.84139C32.2934 10.6184 34.5811 13.8899 36.385 17.5117C37.9583 20.6706 39.1092 23.9861 39.9539 27.4072C40.547 29.8147 40.957 32.2573 41.2703 34.7158C41.4374 36.0234 41.5818 37.3344 41.7313 38.6455C41.7489 38.7969 41.8264 38.7986 41.932 38.7669C42.4705 38.6068 43.016 38.4678 43.5422 38.2742C44.3007 37.9961 45.0451 37.6794 45.793 37.3749C46.951 36.9015 48.1107 36.4316 49.2634 35.9459C49.9603 35.652 50.1997 35.066 50.0641 34.3814C49.9339 33.7145 49.7755 33.051 49.596 32.3946C48.7232 29.1952 47.7623 26.0257 46.5498 22.932C45.3337 19.8276 43.9575 16.8077 42.2118 13.9639C41.0204 12.021 39.697 10.1802 38.1078 8.53652C36.6137 6.99139 34.9542 5.64864 33.1997 4.41675C32.6365 4.02255 32.0611 3.64771 31.461 3.24471C31.8904 3.27462 32.2881 3.29222 32.684 3.33094C33.5921 3.42245 34.5019 3.49636 35.403 3.62659C37.7207 3.96448 39.9257 4.68425 42.0428 5.67855C45.9268 7.50174 49.1121 10.1837 51.6709 13.6101C54.418 17.2899 56.2992 21.378 57.3129 25.8568C57.9904 28.8485 58.6328 31.8473 59.3033 34.8408C59.4018 35.2807 59.3965 35.6468 59.1572 36.0709C58.0028 38.1228 56.4717 39.8334 54.6221 41.2677C52.2551 43.1032 49.5644 44.2611 46.6923 45.0284C45.3619 45.3839 44.0015 45.5881 42.6359 45.757C41.4498 45.9031 40.2601 45.9911 39.0652 45.9963C38.2064 45.9999 37.3494 45.984 36.4906 45.9523C35.8517 45.9295 35.2147 45.8837 34.5776 45.8221C33.5939 45.7253 32.6101 45.618 31.6299 45.4913C30.6426 45.3628 29.6501 45.2484 28.6751 45.0478C27.0948 44.724 25.5215 44.3597 23.957 43.9672C22.7181 43.6558 21.4845 43.3161 20.2719 42.9149C18.5719 42.3517 16.9828 41.5264 15.4042 40.6887C11.2669 38.4942 7.33188 35.9899 3.72246 32.9912C3.55703 32.8539 3.49896 32.7114 3.49544 32.5055C3.4884 32.0637 3.46904 31.6203 3.4356 31.1785C3.39513 30.633 3.29834 30.0892 3.29658 29.5437C3.29306 28.581 3.31594 27.6166 3.37753 26.6575C3.42505 25.9026 3.50248 25.1441 3.64327 24.4014C4.46687 20.0705 6.33581 16.2376 9.21666 12.9027C11.8177 9.8916 14.9379 7.56686 18.5561 5.91261C19.0752 5.67504 19.392 5.28611 19.5082 4.73176C19.6085 4.25133 19.7053 3.76914 19.8056 3.2887C19.8883 2.89098 19.9728 2.49502 20.059 2.0797L20.0625 2.08146ZM2.44658 37.7128C2.94813 38.0912 3.40393 38.4431 3.86853 38.7828C7.21749 41.2272 10.7618 43.3513 14.4557 45.2308C16.161 46.0984 17.8856 46.9308 19.7317 47.457C23.1915 48.4407 26.676 49.3119 30.2467 49.7993C31.5454 49.9771 32.8459 50.1654 34.15 50.2868C35.1777 50.3836 36.2143 50.4153 37.2455 50.4223C38.4475 50.4294 39.6495 50.3801 40.8514 50.3449C41.448 50.3273 42.0499 50.3238 42.6394 50.2463C43.8291 50.0932 45.0205 49.9401 46.196 49.7078C49.5116 49.0514 52.6476 47.9058 55.5196 46.0984C57.8285 44.6465 59.84 42.8603 61.4995 40.6887C61.7037 40.4212 61.9025 40.1519 62.1208 39.8598C62.1736 39.9355 62.2158 39.9883 62.2528 40.0446C62.7561 40.8418 63.2717 41.6319 63.7592 42.438C64.6391 43.8916 65.4134 45.3945 65.9044 47.0311C66.0663 47.5696 66.149 48.1152 66.1033 48.6748C66.0505 49.3207 65.7267 49.8134 65.16 50.1108C64.2079 50.6106 63.2471 51.0963 62.2721 51.5521C59.6148 52.7911 56.9592 54.0317 54.2508 55.1563C52.1196 56.0415 49.9709 56.8633 47.757 57.5197C45.823 58.0934 43.8537 58.4577 41.8422 58.5827C40.4255 58.6707 39.0212 58.5088 37.6256 58.28C36.0136 58.016 34.465 57.525 32.9902 56.8369C31.1055 55.957 29.2365 55.0384 27.3852 54.0863C24.0274 52.3564 20.7207 50.5314 17.4773 48.5903C12.8507 45.8204 8.27514 42.9765 4.01811 39.6504C3.35641 39.133 2.79679 38.5505 2.44306 37.7128H2.44658Z" fill="black"/>
<path d="M20.0625 2.08146C19.9745 2.49678 19.8917 2.89284 19.809 3.29056C19.7087 3.771 19.6119 4.25319 19.5116 4.73363C19.3954 5.28973 19.0787 5.6769 18.5595 5.91447C14.9413 7.56872 11.8229 9.89346 9.22009 12.9045C6.33924 16.2394 4.4703 20.0706 3.6467 24.4033C3.50591 25.1459 3.42847 25.9044 3.38096 26.6594C3.31937 27.6203 3.29649 28.5846 3.30001 29.5455C3.30177 30.0911 3.40032 30.6349 3.43904 31.1804C3.47071 31.6221 3.49183 32.0638 3.49887 32.5073C3.50239 32.7132 3.56047 32.8558 3.72589 32.993C7.33531 35.9918 11.2703 38.4943 15.4077 40.6905C16.9862 41.5282 18.5754 42.3518 20.2754 42.9167C21.4861 43.318 22.7215 43.6576 23.9604 43.9691C25.5249 44.3633 27.0982 44.7258 28.6786 45.0497C29.6535 45.2485 30.6443 45.3647 31.6333 45.4931C32.6136 45.6198 33.5973 45.7272 34.581 45.824C35.2163 45.8873 35.8552 45.9313 36.494 45.9542C37.351 45.9841 38.2098 46.0017 39.0686 45.9982C40.2635 45.9929 41.4532 45.9049 42.6393 45.7589C44.005 45.5899 45.3635 45.3858 46.6957 45.0303C49.5695 44.263 52.2586 43.1033 54.6255 41.2695C56.4769 39.8353 58.0079 38.1229 59.1606 36.0727C59.4 35.6486 59.4053 35.2826 59.3067 34.8426C58.6362 31.8491 57.9939 28.8504 57.3163 25.8587C56.3009 21.3799 54.4196 17.2918 51.6743 13.612C49.1155 10.1838 45.9302 7.5036 42.0463 5.68042C39.9292 4.68611 37.7241 3.96634 35.4064 3.62845C34.5054 3.49646 33.5938 3.42255 32.6875 3.3328C32.2915 3.29232 31.8938 3.27648 31.4644 3.24657C32.0645 3.64957 32.6399 4.02441 33.2031 4.41862C34.9594 5.64874 36.6189 6.99325 38.1113 8.53839C39.7004 10.1821 41.0238 12.0229 42.2152 13.9657C43.9592 16.8096 45.3354 19.8295 46.5532 22.9338C47.7657 26.0276 48.7248 29.1971 49.5995 32.3964C49.779 33.0529 49.9373 33.7163 50.0676 34.3833C50.2013 35.0679 49.9637 35.6539 49.2669 35.9478C48.1142 36.4353 46.9544 36.9051 45.7965 37.3768C45.0485 37.683 44.3024 37.998 43.5456 38.2761C43.0194 38.4696 42.4739 38.6087 41.9354 38.7688C41.8298 38.8005 41.7524 38.8005 41.7348 38.6474C41.5869 37.3363 41.4409 36.027 41.2737 34.7177C40.9604 32.2592 40.5504 29.8165 39.9573 27.4091C39.1126 23.988 37.9617 20.6724 36.3884 17.5135C34.5846 13.8918 32.2968 10.622 29.335 7.84325C27.1053 5.75081 24.6081 4.05081 21.8187 2.79253C21.326 2.57079 20.8262 2.36137 20.3282 2.15019C20.2525 2.11851 20.1698 2.10796 20.0659 2.08332L20.0625 2.08146Z" fill="#FFA229"/>
<path d="M2.44649 37.7147C2.80197 38.5541 3.35984 39.1366 4.02154 39.6522C8.27858 42.9783 12.8541 45.8222 17.4807 48.5922C20.7241 50.5333 24.0291 52.3582 27.3886 54.0882C29.2382 55.0402 31.1071 55.9589 32.9937 56.8388C34.4684 57.5269 36.0171 58.0179 37.6291 58.2818C39.0246 58.5106 40.429 58.6725 41.8456 58.5845C43.8571 58.4596 45.8264 58.0953 47.7604 57.5216C49.9743 56.8652 52.1231 56.0433 54.2542 55.1581C56.9644 54.0336 59.6182 52.7912 62.2755 51.554C63.2505 51.1 64.2096 50.6125 65.1634 50.1127C65.7283 49.817 66.0539 49.3225 66.1067 48.6767C66.1525 48.117 66.0697 47.5715 65.9078 47.033C65.4168 45.3963 64.6425 43.8934 63.7626 42.4398C63.2751 41.6338 62.7595 40.8436 62.2562 40.0464C62.2192 39.9901 62.1787 39.9356 62.1242 39.8617C61.906 40.1538 61.7071 40.423 61.503 40.6905C59.8434 42.8622 57.832 44.6484 55.5231 46.1003C52.651 47.9076 49.515 49.055 46.1995 49.7097C45.0239 49.942 43.8325 50.0951 42.6428 50.2482C42.0515 50.3239 41.4514 50.3291 40.8548 50.3467C39.6529 50.3819 38.4509 50.4295 37.249 50.4242C36.2159 50.4189 35.1811 50.3855 34.1534 50.2887C32.8476 50.1672 31.5489 49.9789 30.2501 49.8012C26.6812 49.3137 23.1949 48.4408 19.7351 47.4589C17.8873 46.9344 16.1644 46.102 14.4591 45.2327C10.7652 43.3532 7.22092 41.229 3.87195 38.7846C3.40736 38.445 2.95156 38.093 2.45001 37.7147H2.44649Z" fill="#FFA229"/>
</svg>
