<svg width="72" height="61" viewBox="0 0 72 61" fill="none" xmlns="http://www.w3.org/2000/svg">
<path d="M24.5528 55.7007L24.5525 55.7008C18.1874 57.7828 11.7364 59.1309 5.31811 59.4321C5.03882 59.4119 4.83756 59.4015 4.67973 59.3933C4.4208 59.3799 4.2788 59.3725 4.10099 59.3382C3.8261 59.284 3.52697 59.246 3.29186 59.2161C3.23338 59.2087 3.17885 59.2018 3.12965 59.1952C2.84149 59.1568 2.64979 59.1226 2.50147 59.0772C2.36332 59.0349 2.32459 59.0005 2.32175 58.998L2.32161 58.9979C2.32012 58.9965 2.31652 58.9933 2.30979 58.9826C2.30228 58.9706 2.28447 58.9389 2.26483 58.8757C2.22889 58.7583 2.23943 58.711 2.24186 58.7001C2.24192 58.6999 2.24198 58.6996 2.24203 58.6994C2.24652 58.6789 2.26397 58.6201 2.34609 58.5091C2.43327 58.3913 2.56343 58.254 2.76094 58.0724C2.8559 57.985 2.95465 57.898 3.06705 57.7989L3.07553 57.7914C3.18665 57.6934 3.31217 57.5827 3.43527 57.4685C3.86252 57.0729 4.36163 56.7127 4.93578 56.3114L24.5528 55.7007ZM24.5528 55.7007C36.3413 51.8472 45.9921 44.6784 54.9748 36.0779M24.5528 55.7007L54.9748 36.0779M54.9748 36.0779C60.3555 30.9242 64.9671 25.2831 68.507 18.8217C71.126 14.0349 70.57 9.22393 67.3832 5.66659C63.8294 1.70116 57.5752 1.00452 53.1208 4.10969L53.1202 4.1101C48.7905 7.12531 45.9611 11.4555 43.0245 16.1195C36.8131 25.9927 30.2443 35.7993 21.1976 43.7376L21.1976 43.7377C16.0176 48.2826 10.5417 52.3955 4.93621 56.3111L54.9748 36.0779Z" fill="#FD0943" stroke="black" stroke-width="3"/>
</svg>
