<svg width="1200" height="630" viewBox="0 0 1200 630" fill="none" xmlns="http://www.w3.org/2000/svg">
<rect width="1200" height="630" fill="#EF495F"/>
<path fill-rule="evenodd" clip-rule="evenodd" d="M537.953 127.753C525.803 127.753 502.219 162.773 502.219 224.235C502.219 264.584 516.387 322.489 535.22 357.511C534.679 356.319 534.16 355.098 533.665 353.849C550.432 344.717 570.194 345.571 580.119 347.875C581.724 346.862 583.644 345.796 585.843 344.737C588.568 307.503 583.643 255.858 581.235 230.605C581.092 229.1 580.957 227.688 580.834 226.379C578.35 200.053 564.396 127.753 537.953 127.753Z" fill="white"/>
<ellipse cx="555.503" cy="274.181" rx="16.1244" ry="46.4543" transform="rotate(-4.22829 555.503 274.181)" fill="black"/>
<ellipse cx="556.781" cy="258.587" rx="5.47363" ry="23.5845" transform="rotate(-5.77923 556.781 258.587)" fill="white"/>
<path d="M583.169 365.211C580.282 378.984 575.314 387.897 567.255 387.897C535.094 387.897 502.219 285.698 502.219 224.235C502.219 162.773 521.515 127.753 537.953 127.753C552.65 127.753 562.767 145.944 569.515 167.398" stroke="black" stroke-width="6"/>
<path fill-rule="evenodd" clip-rule="evenodd" d="M610.136 123.465C587.981 123.465 560.823 153.482 560.823 224.95C560.823 264.14 564.691 311.926 575.962 347.096C577.485 347.322 578.879 347.587 580.119 347.875C591.714 340.552 619.778 330.518 650.158 339.848C650.155 339.91 650.151 339.973 650.148 340.036C653.435 313.628 653.731 282.482 653.731 257.111C653.731 201.365 645.155 123.465 610.136 123.465ZM642.354 375.54C637.887 385.747 631.214 393.615 621.571 393.615C615.274 393.615 610.11 393.258 605.927 392.708C610.473 395.154 615.438 396.474 620.856 396.474C630.642 396.474 637.521 388.376 642.354 375.54Z" fill="white"/>
<mask id="mask0_37_1050" style="mask-type:alpha" maskUnits="userSpaceOnUse" x="560" y="123" width="94" height="274">
<path d="M560.823 224.95C560.823 153.482 587.981 123.465 610.136 123.465C645.155 123.465 653.731 201.365 653.731 257.111C653.731 312.856 652.302 396.474 620.856 396.474C573.687 396.474 560.823 296.418 560.823 224.95Z" fill="white"/>
</mask>
<g mask="url(#mask0_37_1050)">
<ellipse cx="638.723" cy="272.834" rx="22.1551" ry="57.8892" transform="rotate(-0.907217 638.723 272.834)" fill="black"/>
<ellipse cx="643.726" cy="257.111" rx="7.14682" ry="30.7313" transform="rotate(-3.82814 643.726 257.111)" fill="white"/>
</g>
<path d="M650.158 339.848C619.778 330.518 591.714 340.552 580.119 347.875C570.194 345.571 550.432 344.717 533.665 353.849C545.1 382.693 569.399 396.473 575.116 396.473C579.69 396.473 589.172 390.756 590.839 387.897C592.507 389.803 600.988 393.615 621.571 393.615C642.153 393.615 649.205 357.77 650.158 339.848Z" fill="white" fill-opacity="0.25"/>
<path fill-rule="evenodd" clip-rule="evenodd" d="M645.882 340.728C623.788 334.95 598.451 338.712 579.417 350.734C565.7 347.55 546.541 347.875 537.965 354.307C543.369 366.157 552.248 376.651 559.327 382.723C563.218 386.062 566.893 388.504 569.857 390.088C571.341 390.881 572.601 391.434 573.583 391.779C574.073 391.951 574.461 392.059 574.748 392.122C575.009 392.179 575.126 392.185 575.126 392.185C575.518 392.183 576.401 392.028 577.771 391.517C579.072 391.032 580.53 390.334 581.952 389.527C583.374 388.721 584.675 387.855 585.674 387.07C586.663 386.294 587.055 385.831 587.124 385.749C587.134 385.737 587.137 385.733 587.135 385.737L590.14 380.586L594.015 385.015C594.02 385.01 594.336 385.279 595.251 385.703C596.294 386.186 597.878 386.758 600.124 387.304C604.614 388.395 611.526 389.327 621.571 389.327C628.941 389.327 634.856 382.892 639.241 371.867C642.946 362.552 645.145 349.166 645.882 340.728ZM653.029 342.872C656.602 343.587 660.457 344.669 663.749 346.446C665.833 347.57 668.976 350.398 671.611 346.446C674.245 342.494 654.983 336.123 652.314 335.011C626.586 324.291 593.274 336.624 580.131 344.302C569.118 342.148 551.544 340.48 537.965 347.875C531.539 351.375 515.095 365.027 516.525 367.886C517.651 370.139 522.242 364.313 531.533 357.881C537.511 370.716 545.996 382.586 553.743 389.232C558.07 392.944 562.257 395.75 565.814 397.651C567.591 398.601 569.257 399.35 570.742 399.871C572.147 400.364 573.687 400.762 575.116 400.762C577.016 400.762 579.03 400.2 580.766 399.554C582.58 398.877 584.455 397.968 586.183 396.987C587.912 396.007 589.58 394.908 590.97 393.816C591.137 393.685 591.308 393.548 591.479 393.407C591.536 393.433 591.592 393.46 591.649 393.486C593.309 394.254 595.444 394.992 598.099 395.637C603.413 396.929 611.032 397.903 621.571 397.903C634.783 397.903 642.685 386.415 647.21 375.037C651.018 365.461 652.124 351.625 653.029 342.872Z" fill="black"/>
<path d="M560.823 224.95C560.823 153.482 587.981 123.465 610.136 123.465C645.155 123.465 653.731 201.365 653.731 257.111C653.731 312.856 652.302 396.474 620.856 396.474C573.687 396.474 560.823 296.418 560.823 224.95Z" stroke="black" stroke-width="6"/>
<path d="M471 140.618C471 111.316 491.011 72.0083 526.03 72.0083C531.748 72.0083 543.183 75.5817 543.183 88.4459C543.183 101.31 529.604 110.601 508.878 122.751C488.152 134.9 490.296 157.77 479.576 157.77C473.859 157.77 471 153.482 471 140.618Z" fill="black"/>
<path d="M572.485 112.03C566.767 112.03 554.618 108.457 554.618 96.3074C554.618 79.8698 570.341 54.1412 614.651 54.1412C658.961 54.1412 685.404 82.0138 688.263 84.8725C691.122 87.7313 692.551 96.3074 692.551 100.596C692.551 104.884 688.978 112.03 687.548 114.174C686.119 116.319 681.116 124.895 677.543 122.036C658.961 109.172 637.521 103.454 623.942 103.454C613.222 103.454 585.349 112.03 572.485 112.03Z" fill="black"/>
<path d="M483.15 448.645C483.15 420.773 526.03 367.886 602.501 367.886C699.698 367.886 728.285 445.072 728.285 470.801C728.285 480.091 728.285 505.82 696.125 505.82C661.82 505.82 617.51 447.216 589.637 447.216C561.765 447.216 538.895 477.233 509.593 477.233C500.302 477.233 483.15 470.086 483.15 448.645Z" fill="black"/>
<path d="M510.307 475.088C525.142 475.088 538.327 467.395 551.348 459.799C564.047 452.389 576.59 445.072 590.352 445.072C603.565 445.072 620.473 458.242 638.258 472.096C650.05 481.282 662.228 490.768 673.97 496.914C672.778 500.836 668.252 508.678 659.676 508.678C651.1 508.678 635.63 499.537 628.967 494.966C611.182 481.112 594.274 467.942 581.061 467.942C567.299 467.942 554.756 475.259 542.057 482.668C537.883 485.104 533.692 487.549 529.436 489.747C529.436 489.747 523.886 491.526 521.742 491.526C515.453 491.526 509.593 484.856 507.449 481.521V474.886C508.459 475.023 509.419 475.088 510.307 475.088Z" fill="black" fill-opacity="0.25"/>
<path d="M531.033 500.103C531.033 480.091 555.988 408.623 598.183 408.623C641.276 408.623 640.378 431.531 640.378 460.766C640.378 487.295 607.002 543.698 563.909 543.698C549.544 543.698 531.033 527.546 531.033 500.103Z" fill="white" fill-opacity="0.25"/>
<path d="M543.897 495.1C543.897 457.222 563.194 423.632 596.784 423.632C631.089 423.632 630.374 441.528 630.374 464.368C630.374 485.094 599.643 530.834 565.338 530.834C553.903 530.834 543.897 516.54 543.897 495.1Z" fill="#EE4455"/>
<path d="M543.897 495.1C543.897 457.222 563.194 423.632 596.784 423.632C631.089 423.632 630.374 441.528 630.374 464.368C630.374 485.094 599.643 530.834 565.338 530.834C553.903 530.834 543.897 516.54 543.897 495.1Z" fill="black" fill-opacity="0.5"/>
<mask id="mask1_37_1050" style="mask-type:alpha" maskUnits="userSpaceOnUse" x="543" y="423" width="88" height="108">
<path d="M543.897 495.1C543.897 457.222 563.194 423.632 596.784 423.632C631.089 423.632 630.374 441.528 630.374 464.368C630.374 485.094 599.643 530.834 565.338 530.834C553.903 530.834 543.897 516.54 543.897 495.1Z" fill="#802534"/>
</mask>
<g mask="url(#mask1_37_1050)">
<path d="M545.327 544.413C557.476 507.249 581.061 494.385 595.355 494.385C611.792 494.385 621.798 510.108 621.798 522.972L545.327 544.413Z" fill="#BB88FF" stroke="black" stroke-width="5" stroke-linecap="round"/>
</g>
<g filter="url(#filter0_d_37_1050)">
<path d="M543.897 495.1C543.897 457.222 563.194 423.632 596.784 423.632C631.089 423.632 630.374 441.528 630.374 464.368C630.374 485.094 599.643 530.834 565.338 530.834C553.903 530.834 543.897 516.54 543.897 495.1Z" stroke="black" stroke-width="5" stroke-linecap="round" shape-rendering="crispEdges"/>
</g>
<path d="M632.518 457.936C629.383 470.985 621.798 480.091 616.795 480.091C611.792 480.091 612.013 468.468 615.148 455.419C618.284 442.371 624.105 432.581 628.15 433.553C632.195 434.525 635.654 444.888 632.518 457.936Z" fill="white" stroke="black" stroke-width="4" stroke-linejoin="round"/>
<path d="M614.651 452.219C611.697 465.309 604.646 475.803 599.643 475.803C594.64 475.803 592.4 465.309 595.355 452.218C598.309 439.128 603.604 427.537 608.381 428.615C613.159 429.694 617.606 439.128 614.651 452.219Z" fill="white" stroke="black" stroke-width="4" stroke-linejoin="round"/>
<path d="M595.355 450.075C592.4 463.165 583.183 476.518 578.202 476.518C572.744 476.518 571.675 466.024 574.629 452.933C577.583 439.843 583.899 428.93 588.923 430.063C593.946 431.197 598.309 436.984 595.355 450.075Z" fill="white" stroke="black" stroke-width="4" stroke-linejoin="round"/>
<path d="M574.847 454.454C571.892 467.545 562.737 479.108 557.714 477.975C552.691 476.841 548.805 467.545 551.759 454.454C554.713 441.363 563.889 428.215 568.912 429.349C573.935 430.483 577.801 441.364 574.847 454.454Z" fill="white" stroke="black" stroke-width="4" stroke-linejoin="round"/>
<path d="M483.864 446.501C483.864 418.629 526.745 365.742 603.216 365.742C700.413 365.742 729 442.928 729 468.656C729 477.947 729 503.676 696.839 503.676C662.535 503.676 618.224 445.072 590.352 445.072C562.479 445.072 539.609 475.088 510.307 475.088C501.017 475.088 483.864 467.942 483.864 446.501Z" fill="black"/>
<path fill-rule="evenodd" clip-rule="evenodd" d="M531.033 534.407C532.463 534.407 533.902 535.422 534.607 537.266C536.044 541.026 537.06 544.01 541.039 548.701C545.091 553.478 552.049 557.277 556.762 557.277C560.886 557.277 564.129 557.033 567.143 555.833C568.647 555.234 569.841 554.604 570.655 554.064C571.063 553.793 571.325 553.579 571.469 553.442C571.478 553.433 571.486 553.425 571.494 553.417C574.605 552.274 576.773 555.217 576.773 557.991C576.773 561.866 576.165 564.485 573.199 567.997C567.732 574.472 556.754 575.859 551.044 575.859C543.179 575.859 534.854 572.63 530.319 567.282C521.538 556.931 518.884 534.407 531.033 534.407Z" fill="black" fill-opacity="0.25"/>
<path fill-rule="evenodd" clip-rule="evenodd" d="M531.033 534.407C532.463 534.407 533.902 535.422 534.607 537.266C536.044 541.026 537.06 544.01 541.039 548.701C545.091 553.478 552.049 557.277 556.762 557.277C560.886 557.277 564.13 557.033 567.143 555.833C568.647 555.234 569.841 554.604 570.655 554.064C571.064 553.793 571.325 553.579 571.469 553.442C571.478 553.433 571.486 553.425 571.494 553.417C574.605 552.274 577.488 555.133 576.407 558.608C575.876 559.115 575.257 559.588 574.605 560.02C569.819 563.194 563.187 565.853 557.477 565.853C549.611 565.853 541.795 560.111 537.26 554.764C528.479 544.413 529.965 534.815 531.033 534.407Z" fill="black"/>
<defs>
<filter id="filter0_d_37_1050" x="540.397" y="421.132" width="92.4777" height="114.202" filterUnits="userSpaceOnUse" color-interpolation-filters="sRGB">
<feFlood flood-opacity="0" result="BackgroundImageFix"/>
<feColorMatrix in="SourceAlpha" type="matrix" values="0 0 0 0 0 0 0 0 0 0 0 0 0 0 0 0 0 0 127 0" result="hardAlpha"/>
<feOffset dx="-1" dy="2"/>
<feComposite in2="hardAlpha" operator="out"/>
<feColorMatrix type="matrix" values="0 0 0 0 1 0 0 0 0 1 0 0 0 0 1 0 0 0 0.25 0"/>
<feBlend mode="normal" in2="BackgroundImageFix" result="effect1_dropShadow_37_1050"/>
<feBlend mode="normal" in="SourceGraphic" in2="effect1_dropShadow_37_1050" result="shape"/>
</filter>
</defs>
</svg>
