<svg width="101" height="101" viewBox="0 0 101 101" fill="none" xmlns="http://www.w3.org/2000/svg">
<circle cx="50.1157" cy="50.0952" r="50" fill="#EF495F"/>
<path d="M43.7998 82.2605C42.0106 81.6059 41.7051 79.7731 41.967 78.1147C42.0979 77.3292 43.1452 79.8167 44.2798 80.4276C45.5018 81.0822 48.7747 79.7731 47.771 81.0822C46.5055 82.7842 45.3708 82.8278 43.7998 82.2605Z" fill="#AB3542"/>
<path d="M42.229 77.7656C42.9491 79.2843 44.2757 80.5542 46.0256 80.5717C46.5963 80.5792 47.1663 80.5309 47.7276 80.4276C47.2066 80.7333 46.6182 80.9058 46.0146 80.9299C45.411 80.9539 44.8108 80.8288 44.2671 80.5656C43.7234 80.3024 43.253 79.9092 42.8975 79.4208C42.542 78.9324 42.3124 78.3639 42.229 77.7656V77.7656Z" fill="black"/>
<path d="M46.68 23.4781C45.6763 23.8272 44.6726 19.4196 46.68 18.6777C54.0114 15.8412 61.7793 18.8523 60.9937 25.0055C60.6446 27.4929 56.848 19.9869 46.68 23.4781Z" fill="black"/>
<path d="M39.4795 26.4018C35.2028 28.6274 36.0756 32.8168 34.6792 30.373C31.188 24.3944 40.8323 17.8921 42.3161 20.5541C43.9744 23.5652 43.3198 24.3988 39.4795 26.4018Z" fill="black"/>
<path d="M47.4655 54.9858L47.8582 55.0731L47.9455 54.6803C48.9929 49.6182 48.7747 42.7667 47.8146 37.2682C47.4451 34.8648 46.7705 32.5185 45.8072 30.2858C45.4556 29.5048 44.9845 28.7834 44.4107 28.1475C44.2182 27.8893 43.968 27.6796 43.6801 27.5351C43.3922 27.3907 43.0745 27.3154 42.7524 27.3154C42.4303 27.3154 42.1126 27.3907 41.8247 27.5351C41.5368 27.6796 41.2866 27.8893 41.0941 28.1475C40.5499 28.7146 40.1202 29.3814 39.8286 30.1113C38.9431 32.2079 38.398 34.4324 38.2139 36.7009C37.6252 43.2383 38.9119 49.8081 41.9233 55.6404L42.0978 55.9459L42.4469 55.815C44.3671 55.1167 45.7504 54.6803 47.4655 54.9858Z" fill="white"/>
<path d="M41.9494 56.3519L41.6396 55.8195C38.607 49.9186 37.3087 43.2791 37.8953 36.6705C38.0825 34.3655 38.6379 32.1054 39.5405 29.9762C39.841 29.2121 40.2854 28.5128 40.8497 27.9164C41.306 27.3977 41.9393 27.0678 42.6258 26.9912V26.9912C43.0045 27.0006 43.3773 27.0876 43.721 27.2467C44.0648 27.4058 44.3723 27.6337 44.6245 27.9164C45.2264 28.5754 45.7186 29.3268 46.0821 30.142C47.0574 32.4029 47.7422 34.7784 48.12 37.2116C49.1805 43.2862 49.2285 50.0067 48.2466 54.746L48.0895 55.466L47.3825 55.3089C45.7591 55.0165 44.4107 55.4442 42.5385 56.125L41.9494 56.3519ZM42.6651 27.6458C42.147 27.7139 41.6726 27.9721 41.3341 28.3702C40.814 28.9078 40.4048 29.5424 40.1296 30.238C39.2568 32.3041 38.7191 34.4961 38.5368 36.7316C37.9678 43.2079 39.2416 49.7131 42.2112 55.4966L42.2418 55.5446L42.3291 55.514C44.3059 54.794 45.7373 54.3488 47.5222 54.6674L47.6095 54.6892V54.615C48.5739 49.9543 48.5259 43.3299 47.4785 37.3294C47.113 34.955 46.4472 32.6366 45.4973 30.43C45.1708 29.6834 44.729 28.9927 44.1881 28.3833C43.9978 28.1632 43.7645 27.9843 43.5027 27.8575C43.2408 27.7307 42.9558 27.6586 42.6651 27.6458V27.6458Z" fill="black"/>
<path d="M45.0478 53.7816C46.5025 53.5692 47.2611 50.5163 46.7421 46.9629C46.2231 43.4095 44.623 40.7011 43.1682 40.9136C41.7135 41.1261 40.9549 44.1789 41.4739 47.7324C41.993 51.2858 43.593 53.9941 45.0478 53.7816Z" fill="black"/>
<path d="M44.5614 50.4594C44.9191 50.4071 45.0256 49.1081 44.7992 47.558C44.5727 46.0079 44.0992 44.7936 43.7415 44.8458C43.3837 44.8981 43.2773 46.1971 43.5037 47.7472C43.7301 49.2974 44.2037 50.5116 44.5614 50.4594Z" fill="white"/>
<path d="M42.0542 56.0769L43.3634 58.7389L48.1637 57.4297L47.5091 54.4186C47.5091 54.4186 46.68 54.244 44.6726 54.7677C42.6652 55.2913 42.0542 56.0769 42.0542 56.0769Z" fill="#FC6D7A"/>
<path d="M43.1891 59.1272L41.6704 56.0375L41.797 55.876C41.8275 55.8368 42.5432 54.9509 44.5943 54.449C46.6453 53.9472 47.5399 54.0912 47.5748 54.0999L47.7843 54.1436L48.548 57.6653L43.1891 59.1272ZM42.4516 56.1422L43.5382 58.3504L47.7756 57.1983L47.2388 54.724C46.3978 54.7218 45.5611 54.8438 44.7557 55.0862C43.9155 55.2527 43.1262 55.6145 42.4516 56.1422V56.1422Z" fill="black"/>
<path d="M40.6273 58.0014L40.252 57.7744C41.9975 54.8375 45.1003 54.2222 47.3783 54.2222V54.6586C45.2138 54.6367 42.2812 55.2172 40.6273 58.0014Z" fill="black"/>
<path d="M47.6836 54.0736L48.1636 57.2156C49.527 57.0682 50.9023 57.0682 52.2657 57.2156C53.8282 57.3836 55.3574 57.7806 56.8043 58.3939L57.1534 54.4227C55.6152 53.8635 53.9897 53.5827 52.353 53.5936C48.8619 53.5892 47.6836 54.0736 47.6836 54.0736Z" fill="#FC6D7A"/>
<path d="M57.097 58.8739L56.6606 58.6906C55.2491 58.09 53.7564 57.7017 52.2312 57.5386C50.8937 57.3977 49.5451 57.3977 48.2076 57.5386L47.8803 57.5909L47.313 53.8685L47.5486 53.7725C47.601 53.7725 48.8273 53.2663 52.349 53.2663C54.029 53.2587 55.6965 53.5544 57.2715 54.139L57.4941 54.2307L57.097 58.8739ZM49.9619 56.788C50.5816 56.788 51.354 56.788 52.301 56.884C53.75 57.0328 55.1715 57.3808 56.5253 57.9182L56.8133 54.6409C55.3784 54.1609 53.8752 53.9163 52.3621 53.9165V53.9165C50.919 53.8687 49.4754 53.9977 48.0636 54.3005L48.452 56.8491C48.7356 56.8185 49.2419 56.788 49.9532 56.788H49.9619Z" fill="black"/>
<path d="M56.5425 54.1564L57.0226 54.331L57.0662 53.8073C57.5026 48.876 57.7208 42.1992 57.1535 36.657C56.848 33.9077 56.368 31.3766 55.5825 29.5437C54.7969 27.7109 53.6623 26.4017 52.004 26.3144C50.6948 26.2271 49.4729 26.7944 48.4256 27.9727C47.3782 29.151 46.5491 30.8529 46.0254 33.1658C44.978 37.748 45.1526 44.6866 47.6401 54.0692L47.7273 54.4619L48.1201 54.331H48.1637C48.2355 54.3122 48.3084 54.2976 48.3819 54.2873C48.6001 54.2437 48.9056 54.2001 49.2984 54.1128C50.3949 53.935 51.5041 53.8474 52.615 53.851C53.6361 53.8358 54.657 53.8942 55.6697 54.0255C55.9752 54.0691 56.1934 54.1128 56.2807 54.1128C56.4552 54.1128 56.4945 54.1826 56.5425 54.1564V54.1564Z" fill="white"/>
<path d="M47.4962 54.8896L47.326 54.139C44.4676 43.3862 44.8778 36.7574 45.7069 33.0916C46.235 30.7569 47.0685 28.959 48.1857 27.7502C49.3028 26.5413 50.6251 25.8955 52.0259 26.0046C53.645 26.0919 54.9454 27.2439 55.8837 29.4346C56.6037 31.1191 57.1274 33.4757 57.4765 36.6395C57.9609 41.3526 57.9129 47.7894 57.3892 53.8553L57.3107 54.8023L56.499 54.5056C56.4479 54.5022 56.3978 54.4904 56.3506 54.4706C56.3276 54.4653 56.3037 54.4653 56.2808 54.4706C56.1608 54.4631 56.0413 54.4485 55.9229 54.427L55.6218 54.379C54.6249 54.2507 53.6201 54.1938 52.6151 54.2088C51.5218 54.2054 50.4301 54.2915 49.3508 54.4663C49.1108 54.523 48.8883 54.5579 48.705 54.5928L48.4431 54.6408H48.3689H48.3166C48.2661 54.6589 48.2131 54.6692 48.1595 54.6714L47.4962 54.8896ZM51.751 26.633C51.1592 26.6549 50.5792 26.8056 50.0516 27.0747C49.524 27.3437 49.0615 27.7247 48.6962 28.1909C47.6663 29.3037 46.8677 31.0449 46.3702 33.24C45.5498 36.8315 45.1614 43.3469 47.9805 53.9862V54.0386L48.1464 54.0037C48.2144 53.9816 48.2847 53.967 48.3559 53.9601L48.6046 53.9164C48.7792 53.8859 48.993 53.851 49.2374 53.7942C50.3582 53.6105 51.4924 53.52 52.6282 53.5237C53.6654 53.5076 54.7024 53.5674 55.7309 53.7026L56.0364 53.7506C56.1586 53.7506 56.2459 53.7855 56.2939 53.7855C56.3645 53.7857 56.4348 53.7945 56.5033 53.8117V53.8117L56.7215 53.8902V53.7942C57.2539 47.7676 57.2889 41.3788 56.8088 36.705C56.4641 33.6066 55.9579 31.3111 55.264 29.6877C54.4305 27.7458 53.322 26.7246 51.9692 26.633H51.751Z" fill="black"/>
<path d="M57.5027 45.8944C57.5027 49.4728 56.6299 52.3967 55.1898 52.3967C53.7497 52.3967 52.5278 49.4728 52.5278 45.8944C52.5278 42.3159 53.7061 39.3921 55.1898 39.3921C56.6736 39.3921 57.5027 42.3159 57.5027 45.8944Z" fill="black"/>
<path d="M55.1897 49.0799C55.5513 49.0799 55.8443 47.8099 55.8443 46.2433C55.8443 44.6767 55.5513 43.4067 55.1897 43.4067C54.8282 43.4067 54.5352 44.6767 54.5352 46.2433C54.5352 47.8099 54.8282 49.0799 55.1897 49.0799Z" fill="white"/>
<path d="M39.3925 73.5327C37.6469 73.5327 38.127 71.0016 38.5634 69.6924C46.4185 61.0518 55.2337 65.1103 58.6812 68.2087C59.2485 70.1288 59.8158 74.1 57.6775 74.3619C55.5391 74.6237 51.0443 69.1688 49.0368 66.3758C46.5494 68.7324 41.0944 73.5327 39.3925 73.5327Z" fill="#AB3542"/>
<path d="M59.196 55.5926C57.4025 54.1394 52.5759 53.3582 47.9152 54.6281L47.8018 54.1917C52.6588 52.8825 57.5508 53.6811 59.471 55.2347L59.196 55.5926Z" fill="black"/>
<path d="M45.8511 78.0756C42.2726 77.6829 42.709 72.097 43.6691 69.0859C46.6802 65.4202 54.7972 68.0822 54.4917 69.915C53.968 72.66 50.346 78.5949 45.8511 78.0756Z" fill="#872034"/>
<path d="M46.4182 78.3241C46.2199 78.3232 46.0218 78.3115 45.8247 78.2892C45.3731 78.2502 44.9368 78.1065 44.5504 77.8694C44.1641 77.6322 43.8383 77.3083 43.5991 76.9233C42.3728 75.038 42.6652 71.5032 43.4595 69.0158L43.4987 68.9416C45.6458 66.3232 50.2367 66.7989 52.8114 67.9684C54.1206 68.5663 54.8145 69.2776 54.7054 69.9453C54.2035 72.5768 50.8345 78.3241 46.4182 78.3241ZM43.8609 69.186C43.2325 71.1934 42.7481 74.8111 43.9657 76.6876C44.1709 77.0169 44.4502 77.2937 44.7812 77.496C45.1123 77.6983 45.4861 77.8204 45.8727 77.8528V77.8528C50.2367 78.3677 53.7889 72.4153 54.2733 69.8711C54.3432 69.4347 53.6973 68.8543 52.6281 68.3655C50.193 67.2615 45.8771 66.7902 43.8609 69.186Z" fill="black"/>
<path d="M43.9307 68.427L43.8435 68.5143V68.6016C43.7883 69.1991 43.8176 69.8015 43.9307 70.3908C43.979 70.6841 44.0826 70.9655 44.2362 71.2199C44.2957 71.3489 44.387 71.4606 44.5015 71.5445C44.616 71.6285 44.75 71.682 44.8908 71.7C45.0737 71.7175 45.2576 71.6814 45.4204 71.5962C45.5831 71.5109 45.7175 71.3802 45.8072 71.2199C46.0334 70.8834 46.2098 70.5159 46.3309 70.129C46.5415 69.4779 46.6734 68.804 46.7237 68.1215C46.7237 68.0488 46.7032 67.9774 46.6646 67.9157C46.626 67.854 46.5709 67.8043 46.5055 67.7724C46.4104 67.7234 46.3066 67.6937 46.2 67.6851C45.952 67.6572 45.7011 67.6719 45.4581 67.7288C44.8881 67.7948 44.3536 68.0392 43.9307 68.427V68.427Z" fill="white"/>
<path d="M45.0262 71.9354C44.9645 71.9347 44.903 71.9274 44.8429 71.9136C44.6696 71.8893 44.5053 71.8218 44.365 71.7173C44.2246 71.6129 44.1129 71.4748 44.0399 71.3158C43.8774 71.0477 43.7664 70.7517 43.7126 70.443C43.5986 69.8376 43.5692 69.2193 43.6253 68.6058V68.4443L43.7737 68.2959C44.233 67.8716 44.8152 67.6041 45.4364 67.5322C45.7011 67.4716 45.9744 67.4583 46.2437 67.4929C46.368 67.5078 46.4889 67.5432 46.6015 67.5977C46.7028 67.6488 46.788 67.7266 46.848 67.8228C46.908 67.919 46.9405 68.0298 46.9419 68.1432C46.8915 68.8481 46.7553 69.5442 46.5361 70.2161C46.4108 70.626 46.2239 71.0144 45.9819 71.3681C45.8782 71.531 45.7377 71.6673 45.5717 71.7658C45.4057 71.8644 45.2188 71.9225 45.0262 71.9354V71.9354ZM44.0617 68.6058C44.0074 69.1886 44.0353 69.7762 44.1446 70.3513C44.1931 70.6159 44.294 70.8682 44.4414 71.0932C44.4846 71.1939 44.5532 71.2818 44.6403 71.3483C44.7275 71.4148 44.8303 71.4577 44.9389 71.4729C45.0807 71.4808 45.2218 71.4485 45.3461 71.3798C45.4704 71.3111 45.5727 71.2087 45.6415 71.0845C45.8569 70.7643 46.0245 70.4144 46.139 70.0459C46.3434 69.4175 46.4723 68.7671 46.523 68.1083C46.523 68.0472 46.523 68.0166 46.4008 67.9424C46.3429 67.9152 46.281 67.8975 46.2175 67.8901C45.9828 67.8643 45.7453 67.8775 45.5149 67.9293C44.9887 67.9891 44.4944 68.2119 44.101 68.5665L44.0617 68.6058Z" fill="black"/>
<path d="M46.3744 67.9033V67.9469C46.3204 68.6171 46.3497 69.2914 46.4617 69.9544C46.5373 70.2963 46.6394 70.6319 46.7672 70.9581C46.8317 71.1048 46.9277 71.2355 47.0484 71.3411C47.169 71.4467 47.3114 71.5245 47.4654 71.569C47.6212 71.5966 47.7813 71.5873 47.9329 71.5418C48.0845 71.4964 48.2233 71.416 48.3382 71.3072C48.5718 71.064 48.7634 70.7838 48.9055 70.478C49.1895 69.6758 49.3656 68.8393 49.4292 67.9906C49.4326 67.916 49.4186 67.8417 49.3883 67.7736C49.358 67.7054 49.3122 67.6452 49.2546 67.5978C49.1529 67.514 49.0336 67.4543 48.9055 67.4233C48.6064 67.3468 48.2972 67.3174 47.9891 67.336C47.6818 67.3413 47.3754 67.3705 47.0726 67.4233L46.6799 67.5542C46.5461 67.6382 46.4399 67.7595 46.3744 67.9033V67.9033Z" fill="white"/>
<path d="M47.6315 71.8002H47.4352C47.2443 71.7522 47.0666 71.6617 46.9155 71.5355C46.7644 71.4093 46.6437 71.2507 46.5624 71.0714C46.4265 70.7302 46.3185 70.3784 46.2394 70.0197C46.1232 69.3338 46.0924 68.636 46.1478 67.9425V67.8203C46.2301 67.6415 46.3618 67.4901 46.5275 67.3839L46.5798 67.3621L46.9726 67.2312C47.2979 67.1698 47.6278 67.1362 47.9588 67.1308C48.2909 67.1103 48.624 67.1442 48.9451 67.2312C49.0947 67.2699 49.2345 67.3398 49.3553 67.4363C49.4393 67.5047 49.5065 67.5913 49.5519 67.6896C49.5972 67.7879 49.6196 67.8953 49.6171 68.0036C49.5533 68.8808 49.3713 69.7454 49.076 70.5739C48.9224 70.9058 48.7144 71.2096 48.4607 71.4729C48.2378 71.6864 47.9401 71.8039 47.6315 71.8002V71.8002ZM46.5886 67.9599C46.5373 68.6127 46.5666 69.2694 46.6758 69.915C46.7463 70.2412 46.8441 70.5609 46.9682 70.8707C47.0188 70.9873 47.0942 71.0914 47.1891 71.1758C47.2841 71.2603 47.3964 71.3229 47.5181 71.3595C47.6369 71.3768 47.7582 71.3673 47.8729 71.3319C47.9877 71.2964 48.0931 71.2357 48.1814 71.1544C48.399 70.9279 48.5774 70.6669 48.7094 70.3819C48.9826 69.6032 49.1514 68.7917 49.2113 67.9687C49.2091 67.9015 49.1846 67.837 49.1415 67.7854L49.0978 67.7505C49.0198 67.696 48.9326 67.6561 48.8404 67.6326C48.5554 67.5606 48.2608 67.534 47.9676 67.5541C47.675 67.5602 47.3833 67.5879 47.0948 67.637L46.7631 67.7505C46.6895 67.8058 46.6297 67.8775 46.5886 67.9599V67.9599Z" fill="black"/>
<path d="M49.6779 67.5106L49.547 67.5543V67.7288C49.4837 68.4106 49.4691 69.096 49.5034 69.7799C49.5333 70.1475 49.5917 70.5122 49.6779 70.8709C49.7329 71.0245 49.8062 71.1711 49.8961 71.3073C49.9887 71.4416 50.1293 71.5353 50.2889 71.5691C50.4376 71.5831 50.5876 71.5671 50.73 71.5221C50.8724 71.4772 51.0043 71.4041 51.118 71.3073C51.3514 71.0727 51.5302 70.7896 51.6417 70.4781C51.9229 69.7373 52.0849 68.9567 52.1217 68.1652C52.1272 68.0577 52.1012 67.9509 52.0469 67.8579C51.9927 67.7649 51.9125 67.6897 51.8163 67.6415C51.6383 67.5427 51.4473 67.4692 51.2489 67.4233C50.7262 67.3202 50.186 67.3502 49.6779 67.5106V67.5106Z" fill="white"/>
<path d="M50.4201 71.7957H50.2717C50.0505 71.7514 49.855 71.6231 49.7262 71.4378C49.6276 71.2841 49.5456 71.1202 49.4819 70.9491C49.3926 70.5789 49.3313 70.2025 49.2986 69.8232C49.2632 69.1204 49.2778 68.4161 49.3422 67.7154V67.4055L49.6171 67.3139C50.1604 67.1423 50.738 67.1093 51.2973 67.2179C51.5166 67.2669 51.7281 67.3463 51.9257 67.4535C52.3402 67.7285 52.3621 68.0165 52.3621 68.2085C52.3231 69.0165 52.1567 69.8133 51.8689 70.5694C51.748 70.908 51.5526 71.2152 51.2973 71.4684C51.0516 71.6758 50.7416 71.7915 50.4201 71.7957ZM49.7786 67.711C49.715 68.3884 49.7004 69.0695 49.735 69.749C49.7617 70.1006 49.8171 70.4494 49.9008 70.792C49.9492 70.9237 50.0121 71.0496 50.0884 71.1673C50.152 71.2569 50.2471 71.3192 50.3546 71.3418C50.5879 71.3532 50.8164 71.2734 50.9918 71.1193C51.1878 70.9087 51.3366 70.6588 51.4282 70.3861C51.6986 69.664 51.8561 68.9045 51.8951 68.1343C51.8951 68.0732 51.9213 67.9641 51.6857 67.807C51.5316 67.7234 51.3673 67.6603 51.1969 67.6194C50.7235 67.538 50.2376 67.5694 49.7786 67.711V67.711Z" fill="black"/>
<path d="M52.2223 68.0385L52.0477 68.0821L52.0041 68.2567C51.9422 68.851 51.9276 69.4493 51.9604 70.0459C51.9893 70.3562 52.0477 70.6631 52.135 70.9623C52.1667 71.1006 52.2367 71.2272 52.337 71.3276C52.4374 71.4279 52.564 71.4979 52.7023 71.5296C52.9573 71.5759 53.2204 71.5294 53.4442 71.3987C53.6469 71.2688 53.8123 71.0883 53.9242 70.875C54.152 70.3805 54.2852 69.8476 54.317 69.304C54.3151 69.1216 54.2702 68.9422 54.186 68.7803C54.0906 68.5811 53.9389 68.4142 53.7496 68.3003C53.5442 68.1197 53.2926 67.9996 53.023 67.9534C52.7533 67.9072 52.4762 67.9366 52.2223 68.0385Z" fill="white"/>
<path d="M52.8944 71.7613C52.8168 71.7603 52.7394 71.753 52.6631 71.7394C52.4846 71.7046 52.3201 71.6189 52.1892 71.4927C52.0584 71.3665 51.9668 71.2052 51.9256 71.0281C51.8337 70.7147 51.7723 70.3932 51.7423 70.068C51.7078 69.4554 51.7224 68.8411 51.7859 68.2308L51.8645 67.8991L52.1612 67.825C52.451 67.7075 52.7678 67.6731 53.0761 67.7255C53.3844 67.7779 53.6721 67.9151 53.9068 68.1217C54.1011 68.2522 54.2615 68.4272 54.3746 68.6321C54.4877 68.837 54.5502 69.066 54.557 69.3C54.52 69.8785 54.3718 70.4445 54.1206 70.967C53.9906 71.2182 53.7964 71.4305 53.5577 71.5823C53.3573 71.702 53.1277 71.7639 52.8944 71.7613V71.7613ZM52.2267 68.2701V68.3181C52.171 68.8909 52.1593 69.4672 52.1918 70.0419C52.2167 70.3374 52.2708 70.6297 52.3532 70.9146C52.3722 71.0165 52.4189 71.1111 52.4882 71.1881C52.5575 71.2651 52.6467 71.3215 52.746 71.351C52.9514 71.3888 53.1635 71.3516 53.3438 71.2463C53.5147 71.1385 53.6545 70.9881 53.7497 70.8099C53.9606 70.3449 54.0834 69.8447 54.1119 69.3349C54.1065 69.1931 54.0693 69.0544 54.0028 68.929C53.9263 68.7661 53.8033 68.6295 53.6493 68.5363L53.6057 68.5014C53.4282 68.3486 53.2116 68.2485 52.9803 68.2123C52.749 68.176 52.5122 68.2051 52.2965 68.2963L52.2267 68.2701Z" fill="black"/>
<path d="M52.3529 74.3531L52.3093 74.3967C52.3093 74.4404 52.2656 74.4404 52.222 74.484C52.1784 74.5277 52.0475 74.7022 51.8729 74.8768C51.5008 75.2758 51.1074 75.6546 50.6946 76.0114C50.2097 76.4662 49.6838 76.8752 49.1236 77.2333C48.5983 77.5969 48.0043 77.8493 47.378 77.9752C46.287 78.1497 45.5015 78.1497 45.0651 77.9752C44.9501 77.9477 44.8431 77.894 44.7522 77.8183C44.6614 77.7426 44.5893 77.6469 44.5415 77.5388C44.4866 77.448 44.4507 77.3471 44.4357 77.2422C44.4207 77.1372 44.427 77.0303 44.4542 76.9278C44.5946 76.5 44.8338 76.1113 45.1524 75.7932C45.4579 75.4412 45.8103 75.1329 46.1998 74.8768C47.3925 74.0915 48.7866 73.6673 50.2146 73.6549C50.6836 73.6443 51.1522 73.6882 51.6111 73.7858C51.7439 73.8054 51.8752 73.8345 52.0038 73.8731C52.0275 73.8702 52.0515 73.8726 52.0742 73.8802C52.0968 73.8877 52.1175 73.9002 52.1347 73.9167L52.3093 74.0913L52.3529 74.3531Z" fill="#C182FF"/>
<path d="M45.9774 78.3202C45.6398 78.3329 45.3027 78.2841 44.9825 78.1762C44.7191 78.0879 44.4976 77.9054 44.3607 77.6637C44.2238 77.4221 44.181 77.1383 44.2406 76.867C44.389 76.4063 44.6448 75.9875 44.9868 75.6451C45.3065 75.2766 45.675 74.9536 46.0822 74.685C47.307 73.878 48.7394 73.443 50.2061 73.4326V73.4326C50.6942 73.4204 51.1819 73.4659 51.6593 73.5679C51.7183 73.5825 51.7781 73.5941 51.8382 73.6028C51.908 73.612 51.9767 73.6281 52.0433 73.6508C52.1337 73.6541 52.2195 73.6915 52.2834 73.7555L52.5059 73.9781L52.5801 74.4145L52.4972 74.4974C52.4686 74.5472 52.4281 74.5892 52.3794 74.6196C52.3387 74.6562 52.3021 74.6972 52.2703 74.7418C52.2048 74.816 52.1306 74.9076 52.0215 75.0167C51.9124 75.1258 51.8731 75.1651 51.7946 75.2524C51.49 75.5752 51.1665 75.8798 50.8258 76.1644C50.3344 76.626 49.8012 77.041 49.233 77.4038C48.6844 77.7866 48.0614 78.0498 47.4045 78.1762C46.9332 78.2605 46.4561 78.3087 45.9774 78.3202V78.3202ZM50.2148 73.8733C48.83 73.8812 47.4774 74.2921 46.3222 75.056C45.9478 75.2994 45.6086 75.593 45.3141 75.9288C45.0223 76.221 44.8013 76.5764 44.6683 76.9674C44.6486 77.0405 44.6438 77.1168 44.6543 77.1918C44.6648 77.2668 44.6904 77.3389 44.7294 77.4038C44.7641 77.4885 44.8187 77.5637 44.8886 77.6229C44.9585 77.6822 45.0415 77.7238 45.1308 77.7442C45.4232 77.862 46.0036 77.9449 47.3434 77.7442C47.9418 77.6235 48.5092 77.3814 49.0104 77.0328C49.5572 76.684 50.0726 76.2883 50.5509 75.8502C50.8792 75.5765 51.1924 75.2851 51.4891 74.9774L51.7204 74.7374C51.8164 74.6414 51.8862 74.5585 51.943 74.493C51.9997 74.4276 52.0303 74.3839 52.0695 74.3447H52.0957L52.1219 74.3141V74.2356L51.9997 74.1265L51.9212 74.1046C51.8783 74.0924 51.8345 74.0837 51.7902 74.0784C51.7248 74.0784 51.655 74.0566 51.5764 74.0348C51.1305 73.9278 50.6735 73.8736 50.2148 73.8733V73.8733Z" fill="black"/>
<path d="M47.8581 56.9061C38.7375 58.0407 33.3262 66.4632 36.8173 70.4344C40.0903 74.1874 41.6177 67.7724 48.7746 67.7724C55.9314 67.7724 60.2954 78.7259 64.7466 73.5764C70.4198 67.1178 59.6844 55.4224 47.8581 56.9061Z" fill="black"/>
</svg>
