<svg width="48" height="48" viewBox="0 0 48 48" fill="none" xmlns="http://www.w3.org/2000/svg">
<rect x="18" y="45" width="3" height="2.8125" fill="#EF495F" fill-opacity="0.2"/>
<rect x="15" y="45" width="3" height="2.8125" fill="#EF495F" fill-opacity="0.4"/>
<rect x="15" y="45" width="3" height="2.8125" fill="white" fill-opacity="0.03"/>
<rect x="12" y="45" width="3" height="2.8125" fill="#EF495F" fill-opacity="0.3"/>
<rect x="12" y="45" width="3" height="2.8125" fill="white" fill-opacity="0.12"/>
<rect x="24" y="42.1875" width="3" height="2.8125" fill="#B33747" fill-opacity="0.2"/>
<rect x="21" y="42.1875" width="3" height="2.8125" fill="#EF495F"/>
<rect x="21" y="42.1875" width="3" height="2.8125" fill="black" fill-opacity="0.15"/>
<rect x="18" y="42.1875" width="3" height="2.8125" fill="#EF495F"/>
<rect x="15" y="42.1875" width="3" height="2.8125" fill="#EF495F" fill-opacity="0.98"/>
<rect x="15" y="42.1875" width="3" height="2.8125" fill="white" fill-opacity="0.03"/>
<rect x="12" y="42.1875" width="3" height="2.8125" fill="#EF495F"/>
<rect x="12" y="42.1875" width="3" height="2.8125" fill="white" fill-opacity="0.12"/>
<rect x="9" y="42.1875" width="3" height="2.8125" fill="#EF495F" fill-opacity="0.8"/>
<rect x="9" y="42.1875" width="3" height="2.8125" fill="white" fill-opacity="0.2"/>
<rect x="27" y="39.375" width="3" height="2.8125" fill="#B33747" fill-opacity="0.2"/>
<rect x="24" y="39.375" width="3" height="2.8125" fill="#EF495F"/>
<rect x="24" y="39.375" width="3" height="2.8125" fill="black" fill-opacity="0.15"/>
<rect x="21" y="39.375" width="3" height="2.8125" fill="#EF495F"/>
<rect x="18" y="39.375" width="3" height="2.8125" fill="#EF495F" fill-opacity="0.98"/>
<rect x="18" y="39.375" width="3" height="2.8125" fill="white" fill-opacity="0.43"/>
<rect x="15" y="39.375" width="3" height="2.8125" fill="#EF495F" fill-opacity="0.96"/>
<rect x="15" y="39.375" width="3" height="2.8125" fill="white" fill-opacity="0.12"/>
<rect x="27" y="36.5625" width="3" height="2.8125" fill="#EF495F"/>
<rect x="27" y="36.5625" width="3" height="2.8125" fill="black" fill-opacity="0.9"/>
<rect x="24" y="36.5625" width="3" height="2.8125" fill="#EF495F"/>
<rect x="21" y="36.5625" width="3" height="2.8125" fill="#EF495F"/>
<rect x="21" y="36.5625" width="3" height="2.8125" fill="white" fill-opacity="0.5"/>
<rect x="18" y="36.5625" width="3" height="2.8125" fill="#EF495F" fill-opacity="0.98"/>
<rect x="18" y="36.5625" width="3" height="2.8125" fill="white" fill-opacity="0.4"/>
<rect x="15" y="36.5625" width="3" height="2.8125" fill="#EF495F" fill-opacity="0.98"/>
<rect x="15" y="36.5625" width="3" height="2.8125" fill="black" fill-opacity="0.9"/>
<rect x="39" y="33.75" width="3" height="2.8125" fill="#EF495F" fill-opacity="0.6"/>
<rect x="39" y="33.75" width="3" height="2.8125" fill="#BB88FF" fill-opacity="0.25"/>
<rect x="36" y="33.75" width="3" height="2.8125" fill="#BB88FF" fill-opacity="0.8"/>
<rect x="33" y="33.75" width="3" height="2.8125" fill="#EF495F" fill-opacity="0.9"/>
<rect x="30" y="33.75" width="3" height="2.8125" fill="#B33747" fill-opacity="0.9"/>
<rect x="30" y="33.75" width="3" height="2.8125" fill="#EF495F" fill-opacity="0.2"/>
<rect x="27" y="33.75" width="3" height="2.8125" fill="#EF495F"/>
<rect x="27" y="33.75" width="3" height="2.8125" fill="black" fill-opacity="0.1"/>
<rect x="24" y="33.75" width="3" height="2.8125" fill="#EF495F"/>
<rect x="24" y="33.75" width="3" height="2.8125" fill="black" fill-opacity="0.9"/>
<rect x="21" y="33.75" width="3" height="2.8125" fill="#EF495F"/>
<rect x="21" y="33.75" width="3" height="2.8125" fill="black" fill-opacity="0.65"/>
<rect x="18" y="33.75" width="3" height="2.8125" fill="#EF495F" fill-opacity="0.98"/>
<rect x="18" y="33.75" width="3" height="2.8125" fill="white" fill-opacity="0.08"/>
<rect x="18" y="33.75" width="3" height="2.8125" fill="black" fill-opacity="0.9"/>
<rect x="15" y="33.75" width="3" height="2.8125" fill="#F37787" fill-opacity="0.9"/>
<rect x="15" y="33.75" width="3" height="2.8125" fill="black" fill-opacity="0.4"/>
<rect x="6" y="33.75" width="3" height="2.8125" fill="#EF495F" fill-opacity="0.5"/>
<rect x="9" y="33.75" width="3" height="2.8125" fill="#EF495F" fill-opacity="0.7"/>
<rect x="12" y="33.75" width="3" height="2.8125" fill="#BB88FF" fill-opacity="0.7"/>
<rect x="39" y="30.9375" width="3" height="2.8125" fill="#EF495F" fill-opacity="0.6"/>
<rect x="39" y="30.9375" width="3" height="2.8125" fill="#BB88FF" fill-opacity="0.25"/>
<rect x="36" y="30.9375" width="3" height="2.8125" fill="#BB88FF" fill-opacity="0.8"/>
<rect x="30" y="30.9375" width="3" height="2.8125" fill="#B33747"/>
<rect x="30" y="30.9375" width="3" height="2.8125" fill="#EF495F" fill-opacity="0.2"/>
<rect x="27" y="30.9375" width="3" height="2.8125" fill="#EF495F"/>
<rect x="24" y="30.9375" width="3" height="2.8125" fill="#EF495F"/>
<rect x="21" y="30.9375" width="3" height="2.8125" fill="#EF495F"/>
<rect x="18" y="30.9375" width="3" height="2.8125" fill="#EF495F" fill-opacity="0.98"/>
<rect x="18" y="30.9375" width="3" height="2.8125" fill="white" fill-opacity="0.05"/>
<rect x="15" y="30.9375" width="3" height="2.8125" fill="#F37787" fill-opacity="0.1"/>
<rect x="9" y="30.9375" width="3" height="2.8125" fill="#BB88FF" fill-opacity="0.95"/>
<rect x="9" y="30.9375" width="3" height="2.8125" fill="#EF495F" fill-opacity="0.55"/>
<rect x="12" y="30.9375" width="3" height="2.8125" fill="#BB88FF" fill-opacity="0.5"/>
<rect x="12" y="30.9375" width="3" height="2.8125" fill="#EF495F" fill-opacity="0.2"/>
<rect x="6" y="30.9375" width="3" height="2.8125" fill="#EF495F" fill-opacity="0.95"/>
<rect x="42" y="28.125" width="3" height="2.8125" fill="#EF495F" fill-opacity="0.2"/>
<rect x="39" y="28.125" width="3" height="2.8125" fill="#EF495F"/>
<rect x="39" y="28.125" width="3" height="2.8125" fill="#BB88FF" fill-opacity="0.25"/>
<rect x="36" y="28.125" width="3" height="2.8125" fill="#EF495F" fill-opacity="0.5"/>
<rect x="36" y="28.125" width="3" height="2.8125" fill="#BB88FF" fill-opacity="0.2"/>
<rect x="30" y="28.125" width="3" height="2.8125" fill="#B33747"/>
<rect x="30" y="28.125" width="3" height="2.8125" fill="#EF495F" fill-opacity="0.2"/>
<rect x="27" y="28.125" width="3" height="2.8125" fill="#EF495F"/>
<rect x="24" y="28.125" width="3" height="2.8125" fill="#EF495F"/>
<rect x="24" y="28.125" width="3" height="2.8125" fill="black" fill-opacity="0.8"/>
<rect x="21" y="28.125" width="3" height="2.8125" fill="#EF495F"/>
<rect x="18" y="28.125" width="3" height="2.8125" fill="#EF495F" fill-opacity="0.98"/>
<rect x="18" y="28.125" width="3" height="2.8125" fill="white" fill-opacity="0.11"/>
<rect x="18" y="28.125" width="3" height="2.8125" fill="black" fill-opacity="0.8"/>
<rect x="6" y="28.125" width="3" height="2.8125" fill="#BB88FF" fill-opacity="0.9"/>
<rect x="6" y="28.125" width="3" height="2.8125" fill="#8C66BF" fill-opacity="0.3"/>
<rect x="9" y="28.125" width="3" height="2.8125" fill="#BB88FF" fill-opacity="0.95"/>
<rect x="9" y="28.125" width="3" height="2.8125" fill="#EF495F" fill-opacity="0.6"/>
<rect x="12" y="28.125" width="3" height="2.8125" fill="#EF495F" fill-opacity="0.3"/>
<rect x="3" y="28.125" width="3" height="2.8125" fill="#BB88FF" fill-opacity="0.2"/>
<rect x="3" y="28.125" width="3" height="2.8125" fill="#8C66BF" fill-opacity="0.2"/>
<rect x="42" y="25.3125" width="3" height="2.8125" fill="#BB88FF" fill-opacity="0.8"/>
<rect x="39" y="25.3125" width="3" height="2.8125" fill="#BB88FF"/>
<rect x="36" y="25.3125" width="3" height="2.8125" fill="#BB88FF" fill-opacity="0.2"/>
<rect x="36" y="25.3125" width="3" height="2.8125" fill="white" fill-opacity="0.1"/>
<rect x="30" y="25.3125" width="3" height="2.8125" fill="#B33747"/>
<rect x="30" y="25.3125" width="3" height="2.8125" fill="#EF495F" fill-opacity="0.2"/>
<rect x="27" y="25.3125" width="3" height="2.8125" fill="#EF495F"/>
<rect x="24" y="25.3125" width="3" height="2.8125" fill="#EF495F"/>
<rect x="24" y="25.3125" width="3" height="2.8125" fill="white" fill-opacity="0.8"/>
<rect x="21" y="25.3125" width="3" height="2.8125" fill="#EF495F"/>
<rect x="18" y="25.3125" width="3" height="2.8125" fill="#EF495F"/>
<rect x="18" y="25.3125" width="3" height="2.8125" fill="white" fill-opacity="0.1"/>
<rect x="18" y="25.3125" width="3" height="2.8125" fill="white" fill-opacity="0.8"/>
<rect x="15" y="25.3125" width="3" height="2.8125" fill="#F37787" fill-opacity="0.05"/>
<rect x="9" y="25.3125" width="3" height="2.8125" fill="#BB88FF" fill-opacity="0.15"/>
<rect y="25.3125" width="3" height="2.8125" fill="#BB88FF" fill-opacity="0.6"/>
<rect x="3" y="25.3125" width="3" height="2.8125" fill="#BB88FF"/>
<rect x="6" y="25.3125" width="3" height="2.8125" fill="#BB88FF"/>
<rect x="42" y="22.5" width="3" height="2.8125" fill="#BB88FF" fill-opacity="0.95"/>
<rect x="39" y="22.5" width="3" height="2.8125" fill="#BB88FF"/>
<rect x="36" y="22.5" width="3" height="2.8125" fill="#BB88FF" fill-opacity="0.8"/>
<rect x="36" y="22.5" width="3" height="2.8125" fill="white" fill-opacity="0.1"/>
<rect x="33" y="22.5" width="3" height="2.8125" fill="#D98A23" fill-opacity="0.4"/>
<rect x="30" y="22.5" width="3" height="2.8125" fill="#B33747"/>
<rect x="30" y="22.5" width="3" height="2.8125" fill="#EF495F" fill-opacity="0.2"/>
<rect x="30" y="22.5" width="3" height="2.8125" fill="#D98A23" fill-opacity="0.12"/>
<rect x="27" y="22.5" width="3" height="2.8125" fill="#EF495F"/>
<rect x="24" y="22.5" width="3" height="2.8125" fill="#EF495F"/>
<rect x="21" y="22.5" width="3" height="2.8125" fill="#EF495F"/>
<rect x="18" y="22.5" width="3" height="2.8125" fill="#EF495F"/>
<rect x="15" y="22.5" width="3" height="2.8125" fill="#D98A23" fill-opacity="0.5"/>
<rect x="15" y="22.5" width="3" height="2.8125" fill="#F37787" fill-opacity="0.1"/>
<rect x="12" y="22.5" width="3" height="2.8125" fill="#D98A23" fill-opacity="0.3"/>
<rect x="9" y="22.5" width="3" height="2.8125" fill="#FFA229" fill-opacity="0.05"/>
<rect x="9" y="22.5" width="3" height="2.8125" fill="#BB88FF" fill-opacity="0.05"/>
<rect y="22.5" width="3" height="2.8125" fill="#BB88FF" fill-opacity="0.91"/>
<rect x="3" y="22.5" width="3" height="2.8125" fill="#BB88FF"/>
<rect x="6" y="22.5" width="3" height="2.8125" fill="#BB88FF"/>
<rect x="45" y="19.6875" width="3" height="2.8125" fill="#FFA229" fill-opacity="0.3"/>
<rect x="42" y="19.6875" width="3" height="2.8125" fill="#BB88FF" fill-opacity="0.95"/>
<rect x="42" y="19.6875" width="3" height="2.8125" fill="#AE6E1C" fill-opacity="0.2"/>
<rect x="39" y="19.6875" width="3" height="2.8125" fill="#BB88FF"/>
<rect x="36" y="19.6875" width="3" height="2.8125" fill="#D98A23"/>
<rect x="36" y="19.6875" width="3" height="2.8125" fill="#BB88FF" fill-opacity="0.3"/>
<rect x="36" y="19.6875" width="3" height="2.8125" fill="white" fill-opacity="0.1"/>
<rect x="33" y="19.6875" width="3" height="2.8125" fill="#D98A23"/>
<rect x="33" y="19.6875" width="3" height="2.8125" fill="black" fill-opacity="0.35"/>
<rect x="30" y="19.6875" width="3" height="2.8125" fill="#EF495F"/>
<rect x="30" y="19.6875" width="3" height="2.8125" fill="#D98A23" fill-opacity="0.35"/>
<rect x="30" y="19.6875" width="3" height="2.8125" fill="black" fill-opacity="0.35"/>
<rect x="27" y="19.6875" width="3" height="2.8125" fill="#B33747"/>
<rect x="27" y="19.6875" width="3" height="2.8125" fill="#EF495F" fill-opacity="0.2"/>
<rect x="27" y="19.6875" width="3" height="2.8125" fill="#D98A23" fill-opacity="0.1"/>
<rect x="24" y="19.6875" width="3" height="2.8125" fill="#EF495F"/>
<rect x="24" y="19.6875" width="3" height="2.8125" fill="#D98A23" fill-opacity="0.05"/>
<rect x="24" y="19.6875" width="3" height="2.8125" fill="black" fill-opacity="0.25"/>
<rect x="21" y="19.6875" width="3" height="2.8125" fill="#EF495F"/>
<rect x="21" y="19.6875" width="3" height="2.8125" fill="#D98A23" fill-opacity="0.2"/>
<rect x="21" y="19.6875" width="3" height="2.8125" fill="black" fill-opacity="0.2"/>
<rect x="18" y="19.6875" width="3" height="2.8125" fill="#EF495F"/>
<rect x="18" y="19.6875" width="3" height="2.8125" fill="#D98A23" fill-opacity="0.35"/>
<rect x="18" y="19.6875" width="3" height="2.8125" fill="black" fill-opacity="0.2"/>
<rect x="15" y="19.6875" width="3" height="2.8125" fill="#D98A23"/>
<rect x="15" y="19.6875" width="3" height="2.8125" fill="black" fill-opacity="0.35"/>
<rect x="12" y="19.6875" width="3" height="2.8125" fill="#D98A23"/>
<rect x="12" y="19.6875" width="3" height="2.8125" fill="#FFA229" fill-opacity="0.1"/>
<rect x="9" y="19.6875" width="3" height="2.8125" fill="#FFA229"/>
<rect x="9" y="19.6875" width="3" height="2.8125" fill="#D98A23" fill-opacity="0.1"/>
<rect x="6" y="19.6875" width="3" height="2.8125" fill="#FFA229"/>
<rect x="6" y="19.6875" width="3" height="2.8125" fill="#BB88FF" fill-opacity="0.4"/>
<rect x="3" y="19.6875" width="3" height="2.8125" fill="#BB88FF"/>
<rect x="3" y="19.6875" width="3" height="2.8125" fill="#FFA229" fill-opacity="0.1"/>
<rect y="19.6875" width="3" height="2.8125" fill="#BB88FF" fill-opacity="0.91"/>
<rect x="3" y="16.875" width="3" height="2.8125" fill="#33EEAA"/>
<rect x="3" y="16.875" width="3" height="2.8125" fill="#FFA229" fill-opacity="0.3"/>
<rect x="45" y="16.875" width="3" height="2.8125" fill="#33EEAA"/>
<rect x="45" y="16.875" width="3" height="2.8125" fill="#FFA229" fill-opacity="0.3"/>
<rect x="42" y="16.875" width="3" height="2.8125" fill="#FFA229"/>
<rect x="42" y="16.875" width="3" height="2.8125" fill="#BB88FF" fill-opacity="0.3"/>
<rect x="39" y="16.875" width="3" height="2.8125" fill="#FFA229"/>
<rect x="39" y="16.875" width="3" height="2.8125" fill="#BB88FF" fill-opacity="0.5"/>
<rect x="36" y="16.875" width="3" height="2.8125" fill="#D98A23"/>
<rect x="33" y="16.875" width="3" height="2.8125" fill="#D98A23"/>
<rect x="30" y="16.875" width="3" height="2.8125" fill="#D98A23"/>
<rect x="27" y="16.875" width="3" height="2.8125" fill="#D98A23"/>
<rect x="24" y="16.875" width="3" height="2.8125" fill="#D98A23"/>
<rect x="21" y="16.875" width="3" height="2.8125" fill="#D98A23"/>
<rect x="18" y="16.875" width="3" height="2.8125" fill="#D98A23"/>
<rect x="18" y="16.875" width="3" height="2.8125" fill="#FFA229" fill-opacity="0.2"/>
<rect x="15" y="16.875" width="3" height="2.8125" fill="#D98A23"/>
<rect x="15" y="16.875" width="3" height="2.8125" fill="#FFA229" fill-opacity="0.5"/>
<rect x="12" y="16.875" width="3" height="2.8125" fill="#D98A23"/>
<rect x="12" y="16.875" width="3" height="2.8125" fill="#FFA229" fill-opacity="0.8"/>
<rect x="9" y="16.875" width="3" height="2.8125" fill="#FFA229"/>
<rect x="9" y="16.875" width="3" height="2.8125" fill="#33EEAA" fill-opacity="0.1"/>
<rect x="6" y="16.875" width="3" height="2.8125" fill="#FFA229"/>
<rect x="3" y="14.0625" width="3" height="2.8125" fill="#33EEAA" fill-opacity="0.4"/>
<rect x="39" y="14.0625" width="3" height="2.8125" fill="#33EEAA"/>
<rect x="39" y="14.0625" width="3" height="2.8125" fill="#FFA229" fill-opacity="0.5"/>
<rect x="36" y="14.0625" width="3" height="2.8125" fill="#FFA229"/>
<rect x="36" y="14.0625" width="3" height="2.8125" fill="#33EEAA" fill-opacity="0.05"/>
<rect x="33" y="14.0625" width="3" height="2.8125" fill="#FFA229"/>
<rect x="33" y="14.0625" width="3" height="2.8125" fill="#33EEAA" fill-opacity="0.05"/>
<rect x="33" y="14.0625" width="3" height="2.8125" fill="black" fill-opacity="0.1"/>
<rect x="30" y="14.0625" width="3" height="2.8125" fill="#FFA229"/>
<rect x="30" y="14.0625" width="3" height="2.8125" fill="black" fill-opacity="0.1"/>
<rect x="27" y="14.0625" width="3" height="2.8125" fill="#FFA229"/>
<rect x="27" y="14.0625" width="3" height="2.8125" fill="#33EEAA" fill-opacity="0.05"/>
<rect x="27" y="14.0625" width="3" height="2.8125" fill="black" fill-opacity="0.1"/>
<rect x="24" y="14.0625" width="3" height="2.8125" fill="#FFA229"/>
<rect x="24" y="14.0625" width="3" height="2.8125" fill="black" fill-opacity="0.05"/>
<rect x="21" y="14.0625" width="3" height="2.8125" fill="#FFA229"/>
<rect x="21" y="14.0625" width="3" height="2.8125" fill="black" fill-opacity="0.05"/>
<rect x="21" y="14.0625" width="3" height="2.8125" fill="#33EEAA" fill-opacity="0.1"/>
<rect x="42" y="14.0625" width="3" height="2.8125" fill="#33EEAA"/>
<rect x="42" y="14.0625" width="3" height="2.8125" fill="#FFA229" fill-opacity="0.3"/>
<rect x="45" y="14.0625" width="3" height="2.8125" fill="#33EEAA" fill-opacity="0.3"/>
<rect x="18" y="14.0625" width="3" height="2.8125" fill="#D98A23"/>
<rect x="18" y="14.0625" width="3" height="2.8125" fill="#FFA229" fill-opacity="0.8"/>
<rect x="15" y="14.0625" width="3" height="2.8125" fill="#FFA229"/>
<rect x="15" y="14.0625" width="3" height="2.8125" fill="#33EEAA" fill-opacity="0.4"/>
<rect x="12" y="14.0625" width="3" height="2.8125" fill="#FFA229"/>
<rect x="12" y="14.0625" width="3" height="2.8125" fill="#33EEAA" fill-opacity="0.25"/>
<rect x="9" y="14.0625" width="3" height="2.8125" fill="#FFA229"/>
<rect x="9" y="14.0625" width="3" height="2.8125" fill="#33EEAA" fill-opacity="0.8"/>
<rect x="6" y="14.0625" width="3" height="2.8125" fill="#33EEAA" fill-opacity="0.95"/>
<rect x="6" y="14.0625" width="3" height="2.8125" fill="#FFA229" fill-opacity="0.05"/>
<rect x="9" y="11.25" width="3" height="2.8125" fill="#33EEAA" fill-opacity="0.15"/>
<rect x="12" y="11.25" width="3" height="2.8125" fill="#33EEAA" fill-opacity="0.8"/>
<rect x="15" y="11.25" width="3" height="2.8125" fill="#33EEAA" fill-opacity="0.9"/>
<rect x="18" y="11.25" width="3" height="2.8125" fill="#33EEAA"/>
<rect x="21" y="11.25" width="3" height="2.8125" fill="#33EEAA"/>
<rect x="24" y="11.25" width="3" height="2.8125" fill="#33EEAA"/>
<rect x="27" y="11.25" width="3" height="2.8125" fill="#33EEAA"/>
<rect x="30" y="11.25" width="3" height="2.8125" fill="#33EEAA"/>
<rect x="33" y="11.25" width="3" height="2.8125" fill="#33EEAA" fill-opacity="0.95"/>
<rect x="36" y="11.25" width="3" height="2.8125" fill="#33EEAA" fill-opacity="0.85"/>
<rect x="39" y="11.25" width="3" height="2.8125" fill="#33EEAA" fill-opacity="0.25"/>
<rect x="21" y="8.4375" width="3" height="2.8125" fill="#FFE10C"/>
<rect x="24" y="8.4375" width="3" height="2.8125" fill="#FFE10C"/>
<rect x="27" y="8.4375" width="3" height="2.8125" fill="#FFE10C"/>
<rect x="18" y="8.4375" width="3" height="2.8125" fill="#FFE10C" fill-opacity="0.95"/>
<rect x="21" y="5.625" width="3" height="2.8125" fill="#FFA229"/>
<rect x="18" y="5.625" width="3" height="2.8125" fill="#FFA229" fill-opacity="0.8"/>
<rect x="24" y="5.625" width="3" height="2.8125" fill="#EB8500"/>
<rect x="27" y="5.625" width="3" height="2.8125" fill="#4D2B00" fill-opacity="0.9"/>
<rect x="30" y="2.8125" width="3" height="2.8125" fill="#75A803"/>
<rect x="27" y="2.8125" width="3" height="2.8125" fill="#6C9B03"/>
<rect x="21" y="2.8125" width="3" height="2.8125" fill="#FFA229" fill-opacity="0.9"/>
<rect x="18" y="2.8125" width="3" height="2.8125" fill="#FFA229" fill-opacity="0.2"/>
<rect x="24" y="2.8125" width="3" height="2.8125" fill="#FF9914"/>
<rect x="33" y="2.8125" width="3" height="2.8125" fill="#466502" fill-opacity="0.9"/>
<rect x="33" width="3" height="2.8125" fill="#75A803"/>
<rect x="36" width="3" height="2.8125" fill="#466502" fill-opacity="0.3"/>
<rect x="30" width="3" height="2.8125" fill="#75A803"/>
<rect x="27" width="3" height="2.8125" fill="#75A803" fill-opacity="0.3"/>
</svg>
