<svg width="146" height="152" viewBox="0 0 146 152" fill="none" xmlns="http://www.w3.org/2000/svg">
<mask id="mask0_1016_9250" style="mask-type:alpha" maskUnits="userSpaceOnUse" x="0" y="0" width="146" height="145">
<path d="M82.125 8.56299V0H118.625V8.56299H109.5V16.5551H54.75V8.56299H82.125Z" fill="#D9D9D9"/>
<path d="M54.75 33.6811V17.126H91.25V33.6811H54.75Z" fill="#D9D9D9"/>
<path d="M27.375 34.252V42.815H9.125V50.8071H146V42.815H127.75V34.252H27.375Z" fill="#D9D9D9"/>
<path d="M146 51.378H9.125V59.9409H0V67.9331H146V51.378Z" fill="#D9D9D9"/>
<path d="M136.875 68.5039H0V85.0591H36.5V77.0669H45.625V85.0591H100.375V77.0669H109.5V85.0591H136.875V68.5039Z" fill="#D9D9D9"/>
<path d="M136.875 85.6299H109.5V102.185H127.75V94.1929H136.875V85.6299Z" fill="#D9D9D9"/>
<path d="M127.75 102.756H18.25V111.319H54.75V119.311H91.25V111.319H127.75V102.756Z" fill="#D9D9D9"/>
<path d="M91.25 119.882H45.625V128.445H27.375V136.437H82.125V128.445H91.25V119.882Z" fill="#D9D9D9"/>
<path d="M63.875 137.008H36.5V145H63.875V137.008Z" fill="#D9D9D9"/>
<path d="M18.25 102.185H100.375V85.6299H54.75V94.1929H45.625V85.6299H9.125V94.1929H18.25V102.185Z" fill="#D9D9D9"/>
</mask>
<g mask="url(#mask0_1016_9250)">
<path d="M54.75 136.437H63.875V145H54.75V136.437Z" fill="#EF495F" fill-opacity="0.2"/>
<path d="M45.625 136.437H54.75V145H45.625V136.437Z" fill="#EF495F" fill-opacity="0.4"/>
<path d="M45.625 136.437H54.75V145H45.625V136.437Z" fill="white" fill-opacity="0.03"/>
<path d="M36.5 136.437H45.625V145H36.5V136.437Z" fill="#EF495F" fill-opacity="0.3"/>
<path d="M36.5 136.437H45.625V145H36.5V136.437Z" fill="white" fill-opacity="0.12"/>
<path d="M73 128.445H82.125V137.008H73V128.445Z" fill="#B33747" fill-opacity="0.2"/>
<path d="M63.875 128.445H73V137.008H63.875V128.445Z" fill="#EF495F"/>
<path d="M63.875 128.445H73V137.008H63.875V128.445Z" fill="black" fill-opacity="0.15"/>
<path d="M54.75 128.445H63.875V137.008H54.75V128.445Z" fill="#EF495F"/>
<path d="M45.625 128.445H54.75V137.008H45.625V128.445Z" fill="#EF495F" fill-opacity="0.98"/>
<path d="M45.625 128.445H54.75V137.008H45.625V128.445Z" fill="white" fill-opacity="0.03"/>
<path d="M36.5 128.445H45.625V137.008H36.5V128.445Z" fill="#EF495F"/>
<path d="M36.5 128.445H45.625V137.008H36.5V128.445Z" fill="white" fill-opacity="0.12"/>
<path d="M27.375 128.445H36.5V137.008H27.375V128.445Z" fill="#EF495F" fill-opacity="0.8"/>
<path d="M27.375 128.445H36.5V137.008H27.375V128.445Z" fill="white" fill-opacity="0.2"/>
<path d="M82.125 119.882H91.25V128.445H82.125V119.882Z" fill="#B33747" fill-opacity="0.2"/>
<path d="M73 119.882H82.125V128.445H73V119.882Z" fill="#EF495F"/>
<path d="M73 119.882H82.125V128.445H73V119.882Z" fill="black" fill-opacity="0.15"/>
<path d="M63.875 119.882H73V128.445H63.875V119.882Z" fill="#EF495F"/>
<path d="M54.75 119.882H63.875V128.445H54.75V119.882Z" fill="#EF495F" fill-opacity="0.98"/>
<path d="M54.75 119.882H63.875V128.445H54.75V119.882Z" fill="white" fill-opacity="0.03"/>
<path d="M45.625 119.882H54.75V128.445H45.625V119.882Z" fill="#EF495F" fill-opacity="0.96"/>
<path d="M45.625 119.882H54.75V128.445H45.625V119.882Z" fill="white" fill-opacity="0.12"/>
<path d="M82.125 111.319H91.25V119.882H82.125V111.319Z" fill="#EF495F"/>
<path d="M82.125 111.319H91.25V119.882H82.125V111.319Z" fill="black" fill-opacity="0.15"/>
<path d="M73 111.319H82.125V119.882H73V111.319Z" fill="#EF495F"/>
<path d="M63.875 111.319H73V119.882H63.875V111.319Z" fill="#EF495F"/>
<path d="M54.75 111.319H63.875V119.882H54.75V111.319Z" fill="#EF495F" fill-opacity="0.98"/>
<path d="M54.75 111.319H63.875V119.882H54.75V111.319Z" fill="white" fill-opacity="0.03"/>
<path d="M118.625 102.756H127.75V111.319H118.625V102.756Z" fill="#EF495F" fill-opacity="0.6"/>
<path d="M118.625 102.756H127.75V111.319H118.625V102.756Z" fill="#BB88FF" fill-opacity="0.25"/>
<path d="M109.5 102.756H118.625V111.319H109.5V102.756Z" fill="#BB88FF" fill-opacity="0.8"/>
<path d="M100.375 102.756H109.5V111.319H100.375V102.756Z" fill="#EF495F" fill-opacity="0.9"/>
<path d="M91.25 102.756H100.375V111.319H91.25V102.756Z" fill="#B33747" fill-opacity="0.9"/>
<path d="M91.25 102.756H100.375V111.319H91.25V102.756Z" fill="#EF495F" fill-opacity="0.2"/>
<path d="M82.125 102.756H91.25V111.319H82.125V102.756Z" fill="#EF495F"/>
<path d="M82.125 102.756H91.25V111.319H82.125V102.756Z" fill="black" fill-opacity="0.1"/>
<path d="M73 102.756H82.125V111.319H73V102.756Z" fill="#EF495F"/>
<path d="M63.875 102.756H73V111.319H63.875V102.756Z" fill="#EF495F"/>
<path d="M54.75 102.756H63.875V111.319H54.75V102.756Z" fill="#EF495F" fill-opacity="0.98"/>
<path d="M54.75 102.756H63.875V111.319H54.75V102.756Z" fill="white" fill-opacity="0.08"/>
<path d="M45.625 102.756H54.75V111.319H45.625V102.756Z" fill="#F37787" fill-opacity="0.9"/>
<path d="M18.25 102.756H27.375V111.319H18.25V102.756Z" fill="#EF495F" fill-opacity="0.5"/>
<path d="M27.375 102.756H36.5V111.319H27.375V102.756Z" fill="#EF495F" fill-opacity="0.7"/>
<path d="M36.5 102.756H45.625V111.319H36.5V102.756Z" fill="#BB88FF" fill-opacity="0.7"/>
<path d="M118.625 94.1929H127.75V102.756H118.625V94.1929Z" fill="#EF495F" fill-opacity="0.6"/>
<path d="M118.625 94.1929H127.75V102.756H118.625V94.1929Z" fill="#BB88FF" fill-opacity="0.25"/>
<path d="M109.5 94.1929H118.625V102.756H109.5V94.1929Z" fill="#BB88FF" fill-opacity="0.8"/>
<path d="M91.25 94.1929H100.375V102.756H91.25V94.1929Z" fill="#B33747"/>
<path d="M91.25 94.1929H100.375V102.756H91.25V94.1929Z" fill="#EF495F" fill-opacity="0.2"/>
<path d="M82.125 94.1929H91.25V102.756H82.125V94.1929Z" fill="#EF495F"/>
<path d="M73 94.1929H82.125V102.756H73V94.1929Z" fill="#EF495F"/>
<path d="M63.875 94.1929H73V102.756H63.875V94.1929Z" fill="#EF495F"/>
<path d="M54.75 94.1929H63.875V102.756H54.75V94.1929Z" fill="#EF495F" fill-opacity="0.98"/>
<path d="M54.75 94.1929H63.875V102.756H54.75V94.1929Z" fill="white" fill-opacity="0.05"/>
<path d="M45.625 94.1929H54.75V102.756H45.625V94.1929Z" fill="#F37787" fill-opacity="0.1"/>
<path d="M27.375 94.1929H36.5V102.756H27.375V94.1929Z" fill="#BB88FF" fill-opacity="0.95"/>
<path d="M27.375 94.1929H36.5V102.756H27.375V94.1929Z" fill="#EF495F" fill-opacity="0.55"/>
<path d="M36.5 94.1929H45.625V102.756H36.5V94.1929Z" fill="#BB88FF" fill-opacity="0.5"/>
<path d="M36.5 94.1929H45.625V102.756H36.5V94.1929Z" fill="#EF495F" fill-opacity="0.2"/>
<path d="M18.25 94.1929H27.375V102.756H18.25V94.1929Z" fill="#EF495F" fill-opacity="0.95"/>
<path d="M127.75 85.6299H136.875V94.1929H127.75V85.6299Z" fill="#EF495F" fill-opacity="0.2"/>
<path d="M118.625 85.6299H127.75V94.1929H118.625V85.6299Z" fill="#EF495F"/>
<path d="M118.625 85.6299H127.75V94.1929H118.625V85.6299Z" fill="#BB88FF" fill-opacity="0.25"/>
<path d="M109.5 85.6299H118.625V94.1929H109.5V85.6299Z" fill="#EF495F" fill-opacity="0.5"/>
<path d="M109.5 85.6299H118.625V94.1929H109.5V85.6299Z" fill="#BB88FF" fill-opacity="0.2"/>
<path d="M91.25 85.6299H100.375V94.1929H91.25V85.6299Z" fill="#B33747"/>
<path d="M91.25 85.6299H100.375V94.1929H91.25V85.6299Z" fill="#EF495F" fill-opacity="0.2"/>
<path d="M82.125 85.6299H91.25V94.1929H82.125V85.6299Z" fill="#EF495F"/>
<path d="M73 85.6299H82.125V94.1929H73V85.6299Z" fill="#EF495F"/>
<path d="M63.875 85.6299H73V94.1929H63.875V85.6299Z" fill="#EF495F"/>
<path d="M54.75 85.6299H63.875V94.1929H54.75V85.6299Z" fill="#EF495F" fill-opacity="0.98"/>
<path d="M54.75 85.6299H63.875V94.1929H54.75V85.6299Z" fill="white" fill-opacity="0.11"/>
<path d="M18.25 85.6299H27.375V94.1929H18.25V85.6299Z" fill="#BB88FF" fill-opacity="0.9"/>
<path d="M18.25 85.6299H27.375V94.1929H18.25V85.6299Z" fill="#8C66BF" fill-opacity="0.3"/>
<path d="M27.375 85.6299H36.5V94.1929H27.375V85.6299Z" fill="#BB88FF" fill-opacity="0.95"/>
<path d="M27.375 85.6299H36.5V94.1929H27.375V85.6299Z" fill="#EF495F" fill-opacity="0.6"/>
<path d="M36.5 85.6299H45.625V94.1929H36.5V85.6299Z" fill="#EF495F" fill-opacity="0.3"/>
<path d="M9.125 85.6299H18.25V94.1929H9.125V85.6299Z" fill="#BB88FF" fill-opacity="0.2"/>
<path d="M9.125 85.6299H18.25V94.1929H9.125V85.6299Z" fill="#8C66BF" fill-opacity="0.2"/>
<path d="M127.75 77.0669H136.875V85.6299H127.75V77.0669Z" fill="#BB88FF" fill-opacity="0.8"/>
<path d="M118.625 77.0669H127.75V85.6299H118.625V77.0669Z" fill="#BB88FF"/>
<path d="M109.5 77.0669H118.625V85.6299H109.5V77.0669Z" fill="#BB88FF" fill-opacity="0.2"/>
<path d="M109.5 77.0669H118.625V85.6299H109.5V77.0669Z" fill="white" fill-opacity="0.1"/>
<path d="M91.25 77.0669H100.375V85.6299H91.25V77.0669Z" fill="#B33747"/>
<path d="M91.25 77.0669H100.375V85.6299H91.25V77.0669Z" fill="#EF495F" fill-opacity="0.2"/>
<path d="M82.125 77.0669H91.25V85.6299H82.125V77.0669Z" fill="#EF495F"/>
<path d="M73 77.0669H82.125V85.6299H73V77.0669Z" fill="#EF495F"/>
<path d="M63.875 77.0669H73V85.6299H63.875V77.0669Z" fill="#EF495F"/>
<path d="M54.75 77.0669H63.875V85.6299H54.75V77.0669Z" fill="#EF495F"/>
<path d="M54.75 77.0669H63.875V85.6299H54.75V77.0669Z" fill="white" fill-opacity="0.1"/>
<path d="M45.625 77.0669H54.75V85.6299H45.625V77.0669Z" fill="#F37787" fill-opacity="0.05"/>
<path d="M27.375 77.0669H36.5V85.6299H27.375V77.0669Z" fill="#BB88FF" fill-opacity="0.15"/>
<path d="M0 77.0669H9.125V85.6299H0V77.0669Z" fill="#BB88FF" fill-opacity="0.6"/>
<path d="M9.125 77.0669H18.25V85.6299H9.125V77.0669Z" fill="#BB88FF"/>
<path d="M18.25 77.0669H27.375V85.6299H18.25V77.0669Z" fill="#BB88FF"/>
<path d="M127.75 68.5039H136.875V77.0669H127.75V68.5039Z" fill="#BB88FF" fill-opacity="0.95"/>
<path d="M118.625 68.5039H127.75V77.0669H118.625V68.5039Z" fill="#BB88FF"/>
<path d="M109.5 68.5039H118.625V77.0669H109.5V68.5039Z" fill="#BB88FF" fill-opacity="0.8"/>
<path d="M109.5 68.5039H118.625V77.0669H109.5V68.5039Z" fill="white" fill-opacity="0.1"/>
<path d="M100.375 68.5039H109.5V77.0669H100.375V68.5039Z" fill="#D98A23" fill-opacity="0.4"/>
<path d="M91.25 68.5039H100.375V77.0669H91.25V68.5039Z" fill="#B33747"/>
<path d="M91.25 68.5039H100.375V77.0669H91.25V68.5039Z" fill="#EF495F" fill-opacity="0.2"/>
<path d="M91.25 68.5039H100.375V77.0669H91.25V68.5039Z" fill="#D98A23" fill-opacity="0.12"/>
<path d="M82.125 68.5039H91.25V77.0669H82.125V68.5039Z" fill="#EF495F"/>
<path d="M73 68.5039H82.125V77.0669H73V68.5039Z" fill="#EF495F"/>
<path d="M63.875 68.5039H73V77.0669H63.875V68.5039Z" fill="#EF495F"/>
<path d="M54.75 68.5039H63.875V77.0669H54.75V68.5039Z" fill="#EF495F"/>
<path d="M45.625 68.5039H54.75V77.0669H45.625V68.5039Z" fill="#D98A23" fill-opacity="0.5"/>
<path d="M45.625 68.5039H54.75V77.0669H45.625V68.5039Z" fill="#F37787" fill-opacity="0.1"/>
<path d="M36.5 68.5039H45.625V77.0669H36.5V68.5039Z" fill="#D98A23" fill-opacity="0.3"/>
<path d="M27.375 68.5039H36.5V77.0669H27.375V68.5039Z" fill="#FFA229" fill-opacity="0.05"/>
<path d="M27.375 68.5039H36.5V77.0669H27.375V68.5039Z" fill="#BB88FF" fill-opacity="0.05"/>
<path d="M0 68.5039H9.125V77.0669H0V68.5039Z" fill="#BB88FF" fill-opacity="0.91"/>
<path d="M9.125 68.5039H18.25V77.0669H9.125V68.5039Z" fill="#BB88FF"/>
<path d="M18.25 68.5039H27.375V77.0669H18.25V68.5039Z" fill="#BB88FF"/>
<path d="M136.875 59.9409H146V68.5039H136.875V59.9409Z" fill="#FFA229" fill-opacity="0.3"/>
<path d="M127.75 59.9409H136.875V68.5039H127.75V59.9409Z" fill="#BB88FF" fill-opacity="0.95"/>
<path d="M127.75 59.9409H136.875V68.5039H127.75V59.9409Z" fill="#AE6E1C" fill-opacity="0.2"/>
<path d="M118.625 59.9409H127.75V68.5039H118.625V59.9409Z" fill="#BB88FF"/>
<path d="M109.5 59.9409H118.625V68.5039H109.5V59.9409Z" fill="#D98A23"/>
<path d="M109.5 59.9409H118.625V68.5039H109.5V59.9409Z" fill="#BB88FF" fill-opacity="0.3"/>
<path d="M109.5 59.9409H118.625V68.5039H109.5V59.9409Z" fill="white" fill-opacity="0.1"/>
<path d="M100.375 59.9409H109.5V68.5039H100.375V59.9409Z" fill="#D98A23"/>
<path d="M100.375 59.9409H109.5V68.5039H100.375V59.9409Z" fill="black" fill-opacity="0.35"/>
<path d="M91.25 59.9409H100.375V68.5039H91.25V59.9409Z" fill="#EF495F"/>
<path d="M91.25 59.9409H100.375V68.5039H91.25V59.9409Z" fill="#D98A23" fill-opacity="0.35"/>
<path d="M91.25 59.9409H100.375V68.5039H91.25V59.9409Z" fill="black" fill-opacity="0.35"/>
<path d="M82.125 59.9409H91.25V68.5039H82.125V59.9409Z" fill="#B33747"/>
<path d="M82.125 59.9409H91.25V68.5039H82.125V59.9409Z" fill="#EF495F" fill-opacity="0.2"/>
<path d="M82.125 59.9409H91.25V68.5039H82.125V59.9409Z" fill="#D98A23" fill-opacity="0.1"/>
<path d="M73 59.9409H82.125V68.5039H73V59.9409Z" fill="#EF495F"/>
<path d="M73 59.9409H82.125V68.5039H73V59.9409Z" fill="#D98A23" fill-opacity="0.05"/>
<path d="M73 59.9409H82.125V68.5039H73V59.9409Z" fill="black" fill-opacity="0.25"/>
<path d="M63.875 59.9409H73V68.5039H63.875V59.9409Z" fill="#EF495F"/>
<path d="M63.875 59.9409H73V68.5039H63.875V59.9409Z" fill="#D98A23" fill-opacity="0.2"/>
<path d="M63.875 59.9409H73V68.5039H63.875V59.9409Z" fill="black" fill-opacity="0.2"/>
<path d="M54.75 59.9409H63.875V68.5039H54.75V59.9409Z" fill="#EF495F"/>
<path d="M54.75 59.9409H63.875V68.5039H54.75V59.9409Z" fill="#D98A23" fill-opacity="0.35"/>
<path d="M54.75 59.9409H63.875V68.5039H54.75V59.9409Z" fill="black" fill-opacity="0.2"/>
<path d="M45.625 59.9409H54.75V68.5039H45.625V59.9409Z" fill="#D98A23"/>
<path d="M45.625 59.9409H54.75V68.5039H45.625V59.9409Z" fill="black" fill-opacity="0.35"/>
<path d="M36.5 59.9409H45.625V68.5039H36.5V59.9409Z" fill="#D98A23"/>
<path d="M36.5 59.9409H45.625V68.5039H36.5V59.9409Z" fill="#FFA229" fill-opacity="0.1"/>
<path d="M27.375 59.9409H36.5V68.5039H27.375V59.9409Z" fill="#FFA229"/>
<path d="M27.375 59.9409H36.5V68.5039H27.375V59.9409Z" fill="#D98A23" fill-opacity="0.1"/>
<path d="M18.25 59.9409H27.375V68.5039H18.25V59.9409Z" fill="#FFA229"/>
<path d="M18.25 59.9409H27.375V68.5039H18.25V59.9409Z" fill="#BB88FF" fill-opacity="0.4"/>
<path d="M9.125 59.9409H18.25V68.5039H9.125V59.9409Z" fill="#BB88FF"/>
<path d="M9.125 59.9409H18.25V68.5039H9.125V59.9409Z" fill="#FFA229" fill-opacity="0.1"/>
<path d="M0 59.9409H9.125V68.5039H0V59.9409Z" fill="#BB88FF" fill-opacity="0.91"/>
<path d="M9.125 51.378H18.25V59.941H9.125V51.378Z" fill="#33EEAA"/>
<path d="M9.125 51.378H18.25V59.941H9.125V51.378Z" fill="#FFA229" fill-opacity="0.3"/>
<path d="M136.875 51.378H146V59.941H136.875V51.378Z" fill="#33EEAA"/>
<path d="M136.875 51.378H146V59.941H136.875V51.378Z" fill="#FFA229" fill-opacity="0.3"/>
<path d="M127.75 51.378H136.875V59.941H127.75V51.378Z" fill="#FFA229"/>
<path d="M127.75 51.378H136.875V59.941H127.75V51.378Z" fill="#BB88FF" fill-opacity="0.3"/>
<path d="M118.625 51.378H127.75V59.941H118.625V51.378Z" fill="#FFA229"/>
<path d="M118.625 51.378H127.75V59.941H118.625V51.378Z" fill="#BB88FF" fill-opacity="0.5"/>
<path d="M109.5 51.378H118.625V59.941H109.5V51.378Z" fill="#D98A23"/>
<path d="M100.375 51.378H109.5V59.941H100.375V51.378Z" fill="#D98A23"/>
<path d="M91.25 51.378H100.375V59.941H91.25V51.378Z" fill="#D98A23"/>
<path d="M82.125 51.378H91.25V59.941H82.125V51.378Z" fill="#D98A23"/>
<path d="M73 51.378H82.125V59.941H73V51.378Z" fill="#D98A23"/>
<path d="M63.875 51.378H73V59.941H63.875V51.378Z" fill="#D98A23"/>
<path d="M54.75 51.378H63.875V59.941H54.75V51.378Z" fill="#D98A23"/>
<path d="M54.75 51.378H63.875V59.941H54.75V51.378Z" fill="#FFA229" fill-opacity="0.2"/>
<path d="M45.625 51.378H54.75V59.941H45.625V51.378Z" fill="#D98A23"/>
<path d="M45.625 51.378H54.75V59.941H45.625V51.378Z" fill="#FFA229" fill-opacity="0.5"/>
<path d="M36.5 51.378H45.625V59.941H36.5V51.378Z" fill="#D98A23"/>
<path d="M36.5 51.378H45.625V59.941H36.5V51.378Z" fill="#FFA229" fill-opacity="0.8"/>
<path d="M27.375 51.378H36.5V59.941H27.375V51.378Z" fill="#FFA229"/>
<path d="M27.375 51.378H36.5V59.941H27.375V51.378Z" fill="#33EEAA" fill-opacity="0.1"/>
<path d="M18.25 51.378H27.375V59.941H18.25V51.378Z" fill="#FFA229"/>
<path d="M9.125 42.815H18.25V51.378H9.125V42.815Z" fill="#33EEAA" fill-opacity="0.4"/>
<path d="M118.625 42.815H127.75V51.378H118.625V42.815Z" fill="#33EEAA"/>
<path d="M118.625 42.815H127.75V51.378H118.625V42.815Z" fill="#FFA229" fill-opacity="0.5"/>
<path d="M109.5 42.815H118.625V51.378H109.5V42.815Z" fill="#FFA229"/>
<path d="M109.5 42.815H118.625V51.378H109.5V42.815Z" fill="#33EEAA" fill-opacity="0.05"/>
<path d="M100.375 42.815H109.5V51.378H100.375V42.815Z" fill="#FFA229"/>
<path d="M100.375 42.815H109.5V51.378H100.375V42.815Z" fill="#33EEAA" fill-opacity="0.05"/>
<path d="M100.375 42.815H109.5V51.378H100.375V42.815Z" fill="black" fill-opacity="0.1"/>
<path d="M91.25 42.815H100.375V51.378H91.25V42.815Z" fill="#FFA229"/>
<path d="M91.25 42.815H100.375V51.378H91.25V42.815Z" fill="black" fill-opacity="0.1"/>
<path d="M82.125 42.815H91.25V51.378H82.125V42.815Z" fill="#FFA229"/>
<path d="M82.125 42.815H91.25V51.378H82.125V42.815Z" fill="#33EEAA" fill-opacity="0.05"/>
<path d="M82.125 42.815H91.25V51.378H82.125V42.815Z" fill="black" fill-opacity="0.1"/>
<path d="M73 42.815H82.125V51.378H73V42.815Z" fill="#FFA229"/>
<path d="M73 42.815H82.125V51.378H73V42.815Z" fill="black" fill-opacity="0.05"/>
<path d="M63.875 42.815H73V51.378H63.875V42.815Z" fill="#FFA229"/>
<path d="M63.875 42.815H73V51.378H63.875V42.815Z" fill="black" fill-opacity="0.05"/>
<path d="M63.875 42.815H73V51.378H63.875V42.815Z" fill="#33EEAA" fill-opacity="0.1"/>
<path d="M127.75 42.815H136.875V51.378H127.75V42.815Z" fill="#33EEAA"/>
<path d="M127.75 42.815H136.875V51.378H127.75V42.815Z" fill="#FFA229" fill-opacity="0.3"/>
<path d="M136.875 42.815H146V51.378H136.875V42.815Z" fill="#33EEAA" fill-opacity="0.3"/>
<path d="M54.75 42.815H63.875V51.378H54.75V42.815Z" fill="#D98A23"/>
<path d="M54.75 42.815H63.875V51.378H54.75V42.815Z" fill="#FFA229" fill-opacity="0.8"/>
<path d="M45.625 42.815H54.75V51.378H45.625V42.815Z" fill="#FFA229"/>
<path d="M45.625 42.815H54.75V51.378H45.625V42.815Z" fill="#33EEAA" fill-opacity="0.4"/>
<path d="M36.5 42.815H45.625V51.378H36.5V42.815Z" fill="#FFA229"/>
<path d="M36.5 42.815H45.625V51.378H36.5V42.815Z" fill="#33EEAA" fill-opacity="0.25"/>
<path d="M27.375 42.815H36.5V51.378H27.375V42.815Z" fill="#FFA229"/>
<path d="M27.375 42.815H36.5V51.378H27.375V42.815Z" fill="#33EEAA" fill-opacity="0.8"/>
<path d="M18.25 42.815H27.375V51.378H18.25V42.815Z" fill="#33EEAA" fill-opacity="0.95"/>
<path d="M18.25 42.815H27.375V51.378H18.25V42.815Z" fill="#FFA229" fill-opacity="0.05"/>
<path d="M27.375 34.252H36.5V42.8149H27.375V34.252Z" fill="#33EEAA" fill-opacity="0.15"/>
<path d="M36.5 34.252H45.625V42.8149H36.5V34.252Z" fill="#33EEAA" fill-opacity="0.8"/>
<path d="M45.625 34.252H54.75V42.8149H45.625V34.252Z" fill="#33EEAA" fill-opacity="0.9"/>
<path d="M54.75 34.252H63.875V42.8149H54.75V34.252Z" fill="#33EEAA"/>
<path d="M63.875 34.252H73V42.8149H63.875V34.252Z" fill="#33EEAA"/>
<path d="M73 34.252H82.125V42.8149H73V34.252Z" fill="#33EEAA"/>
<path d="M82.125 34.252H91.25V42.8149H82.125V34.252Z" fill="#33EEAA"/>
<path d="M91.25 34.252H100.375V42.8149H91.25V34.252Z" fill="#33EEAA"/>
<path d="M100.375 34.252H109.5V42.8149H100.375V34.252Z" fill="#33EEAA" fill-opacity="0.95"/>
<path d="M109.5 34.252H118.625V42.8149H109.5V34.252Z" fill="#33EEAA" fill-opacity="0.85"/>
<path d="M118.625 34.252H127.75V42.8149H118.625V34.252Z" fill="#33EEAA" fill-opacity="0.25"/>
<path d="M63.875 25.689H73V34.252H63.875V25.689Z" fill="#FFE10C"/>
<path d="M73 25.689H82.125V34.252H73V25.689Z" fill="#FFE10C"/>
<path d="M82.125 25.689H91.25V34.252H82.125V25.689Z" fill="#FFE10C"/>
<path d="M54.75 25.689H63.875V34.252H54.75V25.689Z" fill="#FFE10C" fill-opacity="0.95"/>
<path d="M63.875 17.126H73V25.689H63.875V17.126Z" fill="#FFA229"/>
<path d="M54.75 17.126H63.875V25.689H54.75V17.126Z" fill="#FFA229" fill-opacity="0.8"/>
<path d="M73 17.126H82.125V25.689H73V17.126Z" fill="#EB8500"/>
<path d="M82.125 17.126H91.25V25.689H82.125V17.126Z" fill="#4D2B00" fill-opacity="0.9"/>
<path d="M91.25 8.56299H100.375V17.126H91.25V8.56299Z" fill="#75A803"/>
<path d="M82.125 8.56299H91.25V17.126H82.125V8.56299Z" fill="#6C9B03"/>
<path d="M63.875 8.56299H73V17.126H63.875V8.56299Z" fill="#FFA229" fill-opacity="0.9"/>
<path d="M54.75 8.56299H63.875V17.126H54.75V8.56299Z" fill="#FFA229" fill-opacity="0.2"/>
<path d="M73 8.56299H82.125V17.126H73V8.56299Z" fill="#FF9914"/>
<path d="M100.375 8.56299H109.5V17.126H100.375V8.56299Z" fill="#466502" fill-opacity="0.9"/>
<path d="M100.375 0H109.5V8.56299H100.375V0Z" fill="#75A803"/>
<path d="M109.5 0H118.625V8.56299H109.5V0Z" fill="#466502" fill-opacity="0.3"/>
<path d="M91.25 0H100.375V8.56299H91.25V0Z" fill="#75A803"/>
<path d="M82.125 0H91.25V8.56299H82.125V0Z" fill="#75A803" fill-opacity="0.3"/>
<path d="M54.75 136.437H63.875V145H54.75V136.437Z" fill="#EF495F" fill-opacity="0.2"/>
<path d="M45.625 136.437H54.75V145H45.625V136.437Z" fill="#EF495F" fill-opacity="0.4"/>
<path d="M45.625 136.437H54.75V145H45.625V136.437Z" fill="white" fill-opacity="0.03"/>
<path d="M36.5 136.437H45.625V145H36.5V136.437Z" fill="#EF495F" fill-opacity="0.3"/>
<path d="M36.5 136.437H45.625V145H36.5V136.437Z" fill="white" fill-opacity="0.12"/>
<path d="M73 128.445H82.125V137.008H73V128.445Z" fill="#B33747" fill-opacity="0.2"/>
<path d="M63.875 128.445H73V137.008H63.875V128.445Z" fill="#EF495F"/>
<path d="M63.875 128.445H73V137.008H63.875V128.445Z" fill="black" fill-opacity="0.15"/>
<path d="M54.75 128.445H63.875V137.008H54.75V128.445Z" fill="#EF495F"/>
<path d="M45.625 128.445H54.75V137.008H45.625V128.445Z" fill="#EF495F" fill-opacity="0.98"/>
<path d="M45.625 128.445H54.75V137.008H45.625V128.445Z" fill="white" fill-opacity="0.03"/>
<path d="M36.5 128.445H45.625V137.008H36.5V128.445Z" fill="#EF495F"/>
<path d="M36.5 128.445H45.625V137.008H36.5V128.445Z" fill="white" fill-opacity="0.12"/>
<path d="M27.375 128.445H36.5V137.008H27.375V128.445Z" fill="#EF495F" fill-opacity="0.8"/>
<path d="M27.375 128.445H36.5V137.008H27.375V128.445Z" fill="white" fill-opacity="0.2"/>
<path d="M82.125 119.882H91.25V128.445H82.125V119.882Z" fill="#B33747" fill-opacity="0.2"/>
<path d="M73 119.882H82.125V128.445H73V119.882Z" fill="#EF495F"/>
<path d="M73 119.882H82.125V128.445H73V119.882Z" fill="black" fill-opacity="0.15"/>
<path d="M63.875 119.882H73V128.445H63.875V119.882Z" fill="#EF495F"/>
<path d="M54.75 119.882H63.875V128.445H54.75V119.882Z" fill="#EF495F" fill-opacity="0.98"/>
<path d="M54.75 119.882H63.875V128.445H54.75V119.882Z" fill="white" fill-opacity="0.03"/>
<path d="M45.625 119.882H54.75V128.445H45.625V119.882Z" fill="#EF495F" fill-opacity="0.96"/>
<path d="M45.625 119.882H54.75V128.445H45.625V119.882Z" fill="white" fill-opacity="0.12"/>
<path d="M82.125 111.319H91.25V119.882H82.125V111.319Z" fill="#EF495F"/>
<path d="M82.125 111.319H91.25V119.882H82.125V111.319Z" fill="black" fill-opacity="0.15"/>
<path d="M73 111.319H82.125V119.882H73V111.319Z" fill="#EF495F"/>
<path d="M63.875 111.319H73V119.882H63.875V111.319Z" fill="#EF495F"/>
<path d="M54.75 111.319H63.875V119.882H54.75V111.319Z" fill="#EF495F" fill-opacity="0.98"/>
<path d="M54.75 111.319H63.875V119.882H54.75V111.319Z" fill="white" fill-opacity="0.03"/>
<path d="M118.625 102.756H127.75V111.319H118.625V102.756Z" fill="#EF495F" fill-opacity="0.6"/>
<path d="M118.625 102.756H127.75V111.319H118.625V102.756Z" fill="#BB88FF" fill-opacity="0.25"/>
<path d="M109.5 102.756H118.625V111.319H109.5V102.756Z" fill="#BB88FF" fill-opacity="0.8"/>
<path d="M100.375 102.756H109.5V111.319H100.375V102.756Z" fill="#EF495F" fill-opacity="0.9"/>
<path d="M91.25 102.756H100.375V111.319H91.25V102.756Z" fill="#B33747" fill-opacity="0.9"/>
<path d="M91.25 102.756H100.375V111.319H91.25V102.756Z" fill="#EF495F" fill-opacity="0.2"/>
<path d="M82.125 102.756H91.25V111.319H82.125V102.756Z" fill="#EF495F"/>
<path d="M82.125 102.756H91.25V111.319H82.125V102.756Z" fill="black" fill-opacity="0.1"/>
<path d="M73 102.756H82.125V111.319H73V102.756Z" fill="#EF495F"/>
<path d="M63.875 102.756H73V111.319H63.875V102.756Z" fill="#EF495F"/>
<path d="M54.75 102.756H63.875V111.319H54.75V102.756Z" fill="#EF495F" fill-opacity="0.98"/>
<path d="M54.75 102.756H63.875V111.319H54.75V102.756Z" fill="white" fill-opacity="0.08"/>
<path d="M45.625 102.756H54.75V111.319H45.625V102.756Z" fill="#F37787" fill-opacity="0.9"/>
<path d="M18.25 102.756H27.375V111.319H18.25V102.756Z" fill="#EF495F" fill-opacity="0.5"/>
<path d="M27.375 102.756H36.5V111.319H27.375V102.756Z" fill="#EF495F" fill-opacity="0.7"/>
<path d="M36.5 102.756H45.625V111.319H36.5V102.756Z" fill="#BB88FF" fill-opacity="0.7"/>
<path d="M118.625 94.1929H127.75V102.756H118.625V94.1929Z" fill="#EF495F" fill-opacity="0.6"/>
<path d="M118.625 94.1929H127.75V102.756H118.625V94.1929Z" fill="#BB88FF" fill-opacity="0.25"/>
<path d="M109.5 94.1929H118.625V102.756H109.5V94.1929Z" fill="#BB88FF" fill-opacity="0.8"/>
<path d="M91.25 94.1929H100.375V102.756H91.25V94.1929Z" fill="#B33747"/>
<path d="M91.25 94.1929H100.375V102.756H91.25V94.1929Z" fill="#EF495F" fill-opacity="0.2"/>
<path d="M82.125 94.1929H91.25V102.756H82.125V94.1929Z" fill="#EF495F"/>
<path d="M73 94.1929H82.125V102.756H73V94.1929Z" fill="#EF495F"/>
<path d="M63.875 94.1929H73V102.756H63.875V94.1929Z" fill="#EF495F"/>
<path d="M54.75 94.1929H63.875V102.756H54.75V94.1929Z" fill="#EF495F" fill-opacity="0.98"/>
<path d="M54.75 94.1929H63.875V102.756H54.75V94.1929Z" fill="white" fill-opacity="0.05"/>
<path d="M45.625 94.1929H54.75V102.756H45.625V94.1929Z" fill="#F37787" fill-opacity="0.1"/>
<path d="M27.375 94.1929H36.5V102.756H27.375V94.1929Z" fill="#BB88FF" fill-opacity="0.95"/>
<path d="M27.375 94.1929H36.5V102.756H27.375V94.1929Z" fill="#EF495F" fill-opacity="0.55"/>
<path d="M36.5 94.1929H45.625V102.756H36.5V94.1929Z" fill="#BB88FF" fill-opacity="0.5"/>
<path d="M36.5 94.1929H45.625V102.756H36.5V94.1929Z" fill="#EF495F" fill-opacity="0.2"/>
<path d="M18.25 94.1929H27.375V102.756H18.25V94.1929Z" fill="#EF495F" fill-opacity="0.95"/>
<path d="M127.75 85.6299H136.875V94.1929H127.75V85.6299Z" fill="#EF495F" fill-opacity="0.2"/>
<path d="M118.625 85.6299H127.75V94.1929H118.625V85.6299Z" fill="#EF495F"/>
<path d="M118.625 85.6299H127.75V94.1929H118.625V85.6299Z" fill="#BB88FF" fill-opacity="0.25"/>
<path d="M109.5 85.6299H118.625V94.1929H109.5V85.6299Z" fill="#EF495F" fill-opacity="0.5"/>
<path d="M109.5 85.6299H118.625V94.1929H109.5V85.6299Z" fill="#BB88FF" fill-opacity="0.2"/>
<path d="M91.25 85.6299H100.375V94.1929H91.25V85.6299Z" fill="#B33747"/>
<path d="M91.25 85.6299H100.375V94.1929H91.25V85.6299Z" fill="#EF495F" fill-opacity="0.2"/>
<path d="M82.125 85.6299H91.25V94.1929H82.125V85.6299Z" fill="#EF495F"/>
<path d="M73 85.6299H82.125V94.1929H73V85.6299Z" fill="#EF495F"/>
<path d="M63.875 85.6299H73V94.1929H63.875V85.6299Z" fill="#EF495F"/>
<path d="M54.75 85.6299H63.875V94.1929H54.75V85.6299Z" fill="#EF495F" fill-opacity="0.98"/>
<path d="M54.75 85.6299H63.875V94.1929H54.75V85.6299Z" fill="white" fill-opacity="0.11"/>
<path d="M18.25 85.6299H27.375V94.1929H18.25V85.6299Z" fill="#BB88FF" fill-opacity="0.9"/>
<path d="M18.25 85.6299H27.375V94.1929H18.25V85.6299Z" fill="#8C66BF" fill-opacity="0.3"/>
<path d="M27.375 85.6299H36.5V94.1929H27.375V85.6299Z" fill="#BB88FF" fill-opacity="0.95"/>
<path d="M27.375 85.6299H36.5V94.1929H27.375V85.6299Z" fill="#EF495F" fill-opacity="0.6"/>
<path d="M36.5 85.6299H45.625V94.1929H36.5V85.6299Z" fill="#EF495F" fill-opacity="0.3"/>
<path d="M9.125 85.6299H18.25V94.1929H9.125V85.6299Z" fill="#BB88FF" fill-opacity="0.2"/>
<path d="M9.125 85.6299H18.25V94.1929H9.125V85.6299Z" fill="#8C66BF" fill-opacity="0.2"/>
<path d="M127.75 77.0669H136.875V85.6299H127.75V77.0669Z" fill="#BB88FF" fill-opacity="0.8"/>
<path d="M118.625 77.0669H127.75V85.6299H118.625V77.0669Z" fill="#BB88FF"/>
<path d="M109.5 77.0669H118.625V85.6299H109.5V77.0669Z" fill="#BB88FF" fill-opacity="0.2"/>
<path d="M109.5 77.0669H118.625V85.6299H109.5V77.0669Z" fill="white" fill-opacity="0.1"/>
<path d="M91.25 77.0669H100.375V85.6299H91.25V77.0669Z" fill="#B33747"/>
<path d="M91.25 77.0669H100.375V85.6299H91.25V77.0669Z" fill="#EF495F" fill-opacity="0.2"/>
<path d="M82.125 77.0669H91.25V85.6299H82.125V77.0669Z" fill="#EF495F"/>
<path d="M73 77.0669H82.125V85.6299H73V77.0669Z" fill="#EF495F"/>
<path d="M63.875 77.0669H73V85.6299H63.875V77.0669Z" fill="#EF495F"/>
<path d="M54.75 77.0669H63.875V85.6299H54.75V77.0669Z" fill="#EF495F"/>
<path d="M54.75 77.0669H63.875V85.6299H54.75V77.0669Z" fill="white" fill-opacity="0.1"/>
<path d="M45.625 77.0669H54.75V85.6299H45.625V77.0669Z" fill="#F37787" fill-opacity="0.05"/>
<path d="M27.375 77.0669H36.5V85.6299H27.375V77.0669Z" fill="#BB88FF" fill-opacity="0.15"/>
<path d="M0 77.0669H9.125V85.6299H0V77.0669Z" fill="#BB88FF" fill-opacity="0.6"/>
<path d="M9.125 77.0669H18.25V85.6299H9.125V77.0669Z" fill="#BB88FF"/>
<path d="M18.25 77.0669H27.375V85.6299H18.25V77.0669Z" fill="#BB88FF"/>
<path d="M127.75 68.5039H136.875V77.0669H127.75V68.5039Z" fill="#BB88FF" fill-opacity="0.95"/>
<path d="M118.625 68.5039H127.75V77.0669H118.625V68.5039Z" fill="#BB88FF"/>
<path d="M109.5 68.5039H118.625V77.0669H109.5V68.5039Z" fill="#BB88FF" fill-opacity="0.8"/>
<path d="M109.5 68.5039H118.625V77.0669H109.5V68.5039Z" fill="white" fill-opacity="0.1"/>
<path d="M100.375 68.5039H109.5V77.0669H100.375V68.5039Z" fill="#D98A23" fill-opacity="0.4"/>
<path d="M91.25 68.5039H100.375V77.0669H91.25V68.5039Z" fill="#B33747"/>
<path d="M91.25 68.5039H100.375V77.0669H91.25V68.5039Z" fill="#EF495F" fill-opacity="0.2"/>
<path d="M91.25 68.5039H100.375V77.0669H91.25V68.5039Z" fill="#D98A23" fill-opacity="0.12"/>
<path d="M82.125 68.5039H91.25V77.0669H82.125V68.5039Z" fill="#EF495F"/>
<path d="M73 68.5039H82.125V77.0669H73V68.5039Z" fill="#EF495F"/>
<path d="M63.875 68.5039H73V77.0669H63.875V68.5039Z" fill="#EF495F"/>
<path d="M54.75 68.5039H63.875V77.0669H54.75V68.5039Z" fill="#EF495F"/>
<path d="M45.625 68.5039H54.75V77.0669H45.625V68.5039Z" fill="#D98A23" fill-opacity="0.5"/>
<path d="M45.625 68.5039H54.75V77.0669H45.625V68.5039Z" fill="#F37787" fill-opacity="0.1"/>
<path d="M36.5 68.5039H45.625V77.0669H36.5V68.5039Z" fill="#D98A23" fill-opacity="0.3"/>
<path d="M27.375 68.5039H36.5V77.0669H27.375V68.5039Z" fill="#FFA229" fill-opacity="0.05"/>
<path d="M27.375 68.5039H36.5V77.0669H27.375V68.5039Z" fill="#BB88FF" fill-opacity="0.05"/>
<path d="M0 68.5039H9.125V77.0669H0V68.5039Z" fill="#BB88FF" fill-opacity="0.91"/>
<path d="M9.125 68.5039H18.25V77.0669H9.125V68.5039Z" fill="#BB88FF"/>
<path d="M18.25 68.5039H27.375V77.0669H18.25V68.5039Z" fill="#BB88FF"/>
<path d="M136.875 59.9409H146V68.5039H136.875V59.9409Z" fill="#FFA229" fill-opacity="0.3"/>
<path d="M127.75 59.9409H136.875V68.5039H127.75V59.9409Z" fill="#BB88FF" fill-opacity="0.95"/>
<path d="M127.75 59.9409H136.875V68.5039H127.75V59.9409Z" fill="#AE6E1C" fill-opacity="0.2"/>
<path d="M118.625 59.9409H127.75V68.5039H118.625V59.9409Z" fill="#BB88FF"/>
<path d="M109.5 59.9409H118.625V68.5039H109.5V59.9409Z" fill="#D98A23"/>
<path d="M109.5 59.9409H118.625V68.5039H109.5V59.9409Z" fill="#BB88FF" fill-opacity="0.3"/>
<path d="M109.5 59.9409H118.625V68.5039H109.5V59.9409Z" fill="white" fill-opacity="0.1"/>
<path d="M100.375 59.9409H109.5V68.5039H100.375V59.9409Z" fill="#D98A23"/>
<path d="M100.375 59.9409H109.5V68.5039H100.375V59.9409Z" fill="black" fill-opacity="0.35"/>
<path d="M91.25 59.9409H100.375V68.5039H91.25V59.9409Z" fill="#EF495F"/>
<path d="M91.25 59.9409H100.375V68.5039H91.25V59.9409Z" fill="#D98A23" fill-opacity="0.35"/>
<path d="M91.25 59.9409H100.375V68.5039H91.25V59.9409Z" fill="black" fill-opacity="0.35"/>
<path d="M82.125 59.9409H91.25V68.5039H82.125V59.9409Z" fill="#B33747"/>
<path d="M82.125 59.9409H91.25V68.5039H82.125V59.9409Z" fill="#EF495F" fill-opacity="0.2"/>
<path d="M82.125 59.9409H91.25V68.5039H82.125V59.9409Z" fill="#D98A23" fill-opacity="0.1"/>
<path d="M73 59.9409H82.125V68.5039H73V59.9409Z" fill="#EF495F"/>
<path d="M73 59.9409H82.125V68.5039H73V59.9409Z" fill="#D98A23" fill-opacity="0.05"/>
<path d="M73 59.9409H82.125V68.5039H73V59.9409Z" fill="black" fill-opacity="0.25"/>
<path d="M63.875 59.9409H73V68.5039H63.875V59.9409Z" fill="#EF495F"/>
<path d="M63.875 59.9409H73V68.5039H63.875V59.9409Z" fill="#D98A23" fill-opacity="0.2"/>
<path d="M63.875 59.9409H73V68.5039H63.875V59.9409Z" fill="black" fill-opacity="0.2"/>
<path d="M54.75 59.9409H63.875V68.5039H54.75V59.9409Z" fill="#EF495F"/>
<path d="M54.75 59.9409H63.875V68.5039H54.75V59.9409Z" fill="#D98A23" fill-opacity="0.35"/>
<path d="M54.75 59.9409H63.875V68.5039H54.75V59.9409Z" fill="black" fill-opacity="0.2"/>
<path d="M45.625 59.9409H54.75V68.5039H45.625V59.9409Z" fill="#D98A23"/>
<path d="M45.625 59.9409H54.75V68.5039H45.625V59.9409Z" fill="black" fill-opacity="0.35"/>
<path d="M36.5 59.9409H45.625V68.5039H36.5V59.9409Z" fill="#D98A23"/>
<path d="M36.5 59.9409H45.625V68.5039H36.5V59.9409Z" fill="#FFA229" fill-opacity="0.1"/>
<path d="M27.375 59.9409H36.5V68.5039H27.375V59.9409Z" fill="#FFA229"/>
<path d="M27.375 59.9409H36.5V68.5039H27.375V59.9409Z" fill="#D98A23" fill-opacity="0.1"/>
<path d="M18.25 59.9409H27.375V68.5039H18.25V59.9409Z" fill="#FFA229"/>
<path d="M18.25 59.9409H27.375V68.5039H18.25V59.9409Z" fill="#BB88FF" fill-opacity="0.4"/>
<path d="M9.125 59.9409H18.25V68.5039H9.125V59.9409Z" fill="#BB88FF"/>
<path d="M9.125 59.9409H18.25V68.5039H9.125V59.9409Z" fill="#FFA229" fill-opacity="0.1"/>
<path d="M0 59.9409H9.125V68.5039H0V59.9409Z" fill="#BB88FF" fill-opacity="0.91"/>
<path d="M9.125 51.378H18.25V59.9409H9.125V51.378Z" fill="#33EEAA"/>
<path d="M9.125 51.378H18.25V59.9409H9.125V51.378Z" fill="#FFA229" fill-opacity="0.3"/>
<path d="M136.875 51.378H146V59.9409H136.875V51.378Z" fill="#33EEAA"/>
<path d="M136.875 51.378H146V59.9409H136.875V51.378Z" fill="#FFA229" fill-opacity="0.3"/>
<path d="M127.75 51.378H136.875V59.9409H127.75V51.378Z" fill="#FFA229"/>
<path d="M127.75 51.378H136.875V59.9409H127.75V51.378Z" fill="#BB88FF" fill-opacity="0.3"/>
<path d="M118.625 51.378H127.75V59.9409H118.625V51.378Z" fill="#FFA229"/>
<path d="M118.625 51.378H127.75V59.9409H118.625V51.378Z" fill="#BB88FF" fill-opacity="0.5"/>
<path d="M109.5 51.378H118.625V59.9409H109.5V51.378Z" fill="#D98A23"/>
<path d="M100.375 51.378H109.5V59.9409H100.375V51.378Z" fill="#D98A23"/>
<path d="M91.25 51.378H100.375V59.9409H91.25V51.378Z" fill="#D98A23"/>
<path d="M82.125 51.378H91.25V59.9409H82.125V51.378Z" fill="#D98A23"/>
<path d="M73 51.378H82.125V59.9409H73V51.378Z" fill="#D98A23"/>
<path d="M63.875 51.378H73V59.9409H63.875V51.378Z" fill="#D98A23"/>
<path d="M54.75 51.378H63.875V59.9409H54.75V51.378Z" fill="#D98A23"/>
<path d="M54.75 51.378H63.875V59.9409H54.75V51.378Z" fill="#FFA229" fill-opacity="0.2"/>
<path d="M45.625 51.378H54.75V59.9409H45.625V51.378Z" fill="#D98A23"/>
<path d="M45.625 51.378H54.75V59.9409H45.625V51.378Z" fill="#FFA229" fill-opacity="0.5"/>
<path d="M36.5 51.378H45.625V59.9409H36.5V51.378Z" fill="#D98A23"/>
<path d="M36.5 51.378H45.625V59.9409H36.5V51.378Z" fill="#FFA229" fill-opacity="0.8"/>
<path d="M27.375 51.378H36.5V59.9409H27.375V51.378Z" fill="#FFA229"/>
<path d="M27.375 51.378H36.5V59.9409H27.375V51.378Z" fill="#33EEAA" fill-opacity="0.1"/>
<path d="M18.25 51.378H27.375V59.9409H18.25V51.378Z" fill="#FFA229"/>
<path d="M9.125 42.815H18.25V51.378H9.125V42.815Z" fill="#33EEAA" fill-opacity="0.4"/>
<path d="M118.625 42.815H127.75V51.378H118.625V42.815Z" fill="#33EEAA"/>
<path d="M118.625 42.815H127.75V51.378H118.625V42.815Z" fill="#FFA229" fill-opacity="0.5"/>
<path d="M109.5 42.815H118.625V51.378H109.5V42.815Z" fill="#FFA229"/>
<path d="M109.5 42.815H118.625V51.378H109.5V42.815Z" fill="#33EEAA" fill-opacity="0.05"/>
<path d="M100.375 42.815H109.5V51.378H100.375V42.815Z" fill="#FFA229"/>
<path d="M100.375 42.815H109.5V51.378H100.375V42.815Z" fill="#33EEAA" fill-opacity="0.05"/>
<path d="M100.375 42.815H109.5V51.378H100.375V42.815Z" fill="black" fill-opacity="0.1"/>
<path d="M91.25 42.815H100.375V51.378H91.25V42.815Z" fill="#FFA229"/>
<path d="M91.25 42.815H100.375V51.378H91.25V42.815Z" fill="black" fill-opacity="0.1"/>
<path d="M82.125 42.815H91.25V51.378H82.125V42.815Z" fill="#FFA229"/>
<path d="M82.125 42.815H91.25V51.378H82.125V42.815Z" fill="#33EEAA" fill-opacity="0.05"/>
<path d="M82.125 42.815H91.25V51.378H82.125V42.815Z" fill="black" fill-opacity="0.1"/>
<path d="M73 42.815H82.125V51.378H73V42.815Z" fill="#FFA229"/>
<path d="M73 42.815H82.125V51.378H73V42.815Z" fill="black" fill-opacity="0.05"/>
<path d="M63.875 42.815H73V51.378H63.875V42.815Z" fill="#FFA229"/>
<path d="M63.875 42.815H73V51.378H63.875V42.815Z" fill="black" fill-opacity="0.05"/>
<path d="M63.875 42.815H73V51.378H63.875V42.815Z" fill="#33EEAA" fill-opacity="0.1"/>
<path d="M127.75 42.815H136.875V51.378H127.75V42.815Z" fill="#33EEAA"/>
<path d="M127.75 42.815H136.875V51.378H127.75V42.815Z" fill="#FFA229" fill-opacity="0.3"/>
<path d="M136.875 42.815H146V51.378H136.875V42.815Z" fill="#33EEAA" fill-opacity="0.3"/>
<path d="M54.75 42.815H63.875V51.378H54.75V42.815Z" fill="#D98A23"/>
<path d="M54.75 42.815H63.875V51.378H54.75V42.815Z" fill="#FFA229" fill-opacity="0.8"/>
<path d="M45.625 42.815H54.75V51.378H45.625V42.815Z" fill="#FFA229"/>
<path d="M45.625 42.815H54.75V51.378H45.625V42.815Z" fill="#33EEAA" fill-opacity="0.4"/>
<path d="M36.5 42.815H45.625V51.378H36.5V42.815Z" fill="#FFA229"/>
<path d="M36.5 42.815H45.625V51.378H36.5V42.815Z" fill="#33EEAA" fill-opacity="0.25"/>
<path d="M27.375 42.815H36.5V51.378H27.375V42.815Z" fill="#FFA229"/>
<path d="M27.375 42.815H36.5V51.378H27.375V42.815Z" fill="#33EEAA" fill-opacity="0.8"/>
<path d="M18.25 42.815H27.375V51.378H18.25V42.815Z" fill="#33EEAA" fill-opacity="0.95"/>
<path d="M18.25 42.815H27.375V51.378H18.25V42.815Z" fill="#FFA229" fill-opacity="0.05"/>
<path d="M27.375 34.252H36.5V42.815H27.375V34.252Z" fill="#33EEAA" fill-opacity="0.15"/>
<path d="M36.5 34.252H45.625V42.815H36.5V34.252Z" fill="#33EEAA" fill-opacity="0.8"/>
<path d="M45.625 34.252H54.75V42.815H45.625V34.252Z" fill="#33EEAA" fill-opacity="0.9"/>
<path d="M54.75 34.252H63.875V42.815H54.75V34.252Z" fill="#33EEAA"/>
<path d="M63.875 34.252H73V42.815H63.875V34.252Z" fill="#33EEAA"/>
<path d="M73 34.252H82.125V42.815H73V34.252Z" fill="#33EEAA"/>
<path d="M82.125 34.252H91.25V42.815H82.125V34.252Z" fill="#33EEAA"/>
<path d="M91.25 34.252H100.375V42.815H91.25V34.252Z" fill="#33EEAA"/>
<path d="M100.375 34.252H109.5V42.815H100.375V34.252Z" fill="#33EEAA" fill-opacity="0.95"/>
<path d="M109.5 34.252H118.625V42.815H109.5V34.252Z" fill="#33EEAA" fill-opacity="0.85"/>
<path d="M118.625 34.252H127.75V42.815H118.625V34.252Z" fill="#33EEAA" fill-opacity="0.25"/>
<path d="M63.875 25.689H73V34.252H63.875V25.689Z" fill="#FFE10C"/>
<path d="M73 25.689H82.125V34.252H73V25.689Z" fill="#FFE10C"/>
<path d="M82.125 25.689H91.25V34.252H82.125V25.689Z" fill="#FFE10C"/>
<path d="M54.75 25.689H63.875V34.252H54.75V25.689Z" fill="#FFE10C" fill-opacity="0.95"/>
<path d="M63.875 17.126H73V25.689H63.875V17.126Z" fill="#FFA229"/>
<path d="M54.75 17.126H63.875V25.689H54.75V17.126Z" fill="#FFA229" fill-opacity="0.8"/>
<path d="M73 17.126H82.125V25.689H73V17.126Z" fill="#EB8500"/>
<path d="M82.125 17.126H91.25V25.689H82.125V17.126Z" fill="#4D2B00" fill-opacity="0.9"/>
<path d="M91.25 8.56299H100.375V17.126H91.25V8.56299Z" fill="#75A803"/>
<path d="M82.125 8.56299H91.25V17.126H82.125V8.56299Z" fill="#6C9B03"/>
<path d="M63.875 8.56299H73V17.126H63.875V8.56299Z" fill="#FFA229" fill-opacity="0.9"/>
<path d="M54.75 8.56299H63.875V17.126H54.75V8.56299Z" fill="#FFA229" fill-opacity="0.2"/>
<path d="M73 8.56299H82.125V17.126H73V8.56299Z" fill="#FF9914"/>
<path d="M100.375 8.56299H109.5V17.126H100.375V8.56299Z" fill="#466502" fill-opacity="0.9"/>
<path d="M100.375 0H109.5V8.56299H100.375V0Z" fill="#75A803"/>
<path d="M109.5 0H118.625V8.56299H109.5V0Z" fill="#466502" fill-opacity="0.3"/>
<path d="M91.25 0H100.375V8.56299H91.25V0Z" fill="#75A803"/>
<path d="M82.125 0H91.25V8.56299H82.125V0Z" fill="#75A803" fill-opacity="0.3"/>
</g>
</svg>
