<svg width="1306" height="288" viewBox="0 0 1306 288" fill="none" xmlns="http://www.w3.org/2000/svg">
<g clip-path="url(#clip0_5197_5141)">
<path d="M30.5901 268.766L209.237 263.873L205.566 182.304L212.092 188.829L223.104 273.66L36.7082 274.067L30.5901 268.766ZM97.0729 97.8815L201.487 95.4347L197.816 9.7887C201.351 11.4201 204.07 16.586 205.974 25.2865C208.149 33.9871 209.78 43.5032 210.868 53.8351C212.228 64.167 213.179 74.2271 213.723 84.0152C214.267 93.5313 214.811 100.193 215.355 103.999L97.8885 103.183L97.0729 97.8815ZM164.779 160.689L162.332 115.419L170.897 122.76L174.568 163.543L97.4807 165.583L96.6648 163.136L164.779 160.689ZM37.9319 166.806L68.114 134.179L33.8531 91.3563L61.5881 52.2038L31.406 3.67113C38.4755 3.12735 45.4095 2.85547 52.2073 2.85547C59.0049 2.85547 65.9388 2.85547 73.0086 2.85547C92.8582 2.85547 112.572 3.12735 132.149 3.67113C151.727 4.21492 171.441 4.21492 191.29 3.67113L193.738 87.6856C175.791 88.2294 157.981 88.7732 140.307 89.3169C122.632 89.8607 104.822 90.2687 86.876 90.5405L87.6918 111.748L153.767 109.709L154.99 155.387L88.9153 157.426L89.7311 174.963L196.185 176.594L198.632 255.715C170.897 256.531 143.298 257.347 115.835 258.163C88.6436 258.977 61.1803 259.658 33.4453 260.202L63.2196 216.97L37.9319 166.806ZM21.617 260.609L8.15738 261.425L8.97311 223.903C8.97311 186.926 7.7495 150.357 5.30229 114.195C3.12699 77.7617 1.35956 41.0561 0 4.07897L22.8406 3.67113L52.2073 51.3882L24.4721 90.1327C29.6384 97.7457 35.2126 105.087 41.1948 112.156C47.1768 119.225 53.0229 126.294 58.7332 133.364L28.5509 165.583C32.6294 173.739 36.7082 181.896 40.7868 190.053C44.8656 198.21 49.0802 206.231 53.4307 214.115L21.617 260.609ZM32.2216 52.6116L27.735 48.1254L23.2484 52.2038L27.735 57.098L32.2216 52.6116ZM36.7082 132.14L32.2216 127.654L27.735 131.732L32.2216 136.626L36.7082 132.14ZM35.8924 213.708L31.406 209.221L26.9194 213.3L31.406 218.194L35.8924 213.708ZM98.2963 216.154L93.8097 211.668L89.3233 215.747L93.8097 220.641L98.2963 216.154ZM157.845 210.037L153.359 205.551L148.872 209.629L153.359 214.523L157.845 210.037ZM116.242 136.218L111.756 131.732L107.269 135.81L111.756 140.705L116.242 136.218ZM99.1121 44.455L94.6255 39.9686L90.1389 44.047L94.6255 48.9412L99.1121 44.455ZM162.332 50.9802L157.845 46.4941L153.359 50.5725L157.845 55.4664L162.332 50.9802Z" fill="black"/>
<path d="M394.147 278.147L300.339 270.805L296.668 265.502C311.077 265.774 325.354 266.455 339.494 267.541C353.633 268.357 367.908 269.173 382.32 269.989L381.913 98.2894L441.053 97.4736L442.277 9.78859L450.433 18.761L452.88 109.709L390.478 106.854L394.147 278.147ZM425.555 43.6391L421.067 39.1529L416.58 43.6391L421.067 48.1253L425.555 43.6391ZM380.279 47.3097C379.737 46.2222 379.193 45.2704 378.649 44.4549C378.104 43.3671 377.153 42.8233 375.794 42.8233L371.307 47.3097L375.794 51.7959C377.153 51.7959 378.104 51.3879 378.649 50.5724C379.193 49.4848 379.737 48.3973 380.279 47.3097ZM313.39 258.57L345.612 216.154L322.772 165.582L354.585 134.179C349.146 126.838 343.844 119.497 338.677 112.156C333.51 104.543 328.209 96.9298 322.772 89.3168L352.138 52.2037L324.403 6.52589L434.528 6.11805L432.895 90.5403L376.201 92.1717L372.94 259.792H369.676L313.39 258.57ZM325.626 128.469L321.139 123.983L316.654 128.469L321.139 132.955L325.626 128.469ZM322.363 44.0469L317.877 39.5607L313.39 44.0469L317.877 48.533L322.363 44.0469ZM318.692 191.276L314.206 195.763L318.692 200.249L323.179 195.763L318.692 191.276ZM284.024 61.584L279.537 57.0978L275.049 61.584L279.537 66.0702L284.024 61.584ZM259.551 41.6L255.064 37.1136L250.578 41.6L255.064 46.0862L259.551 41.6ZM231.409 88.909L233.04 4.89453L315.837 6.52589L342.755 50.5724L313.39 87.6855C318.012 95.8423 323.042 103.591 328.481 110.932C334.192 118.001 339.766 125.343 345.203 132.955L313.39 163.951L335.823 213.299L301.563 258.163H288.51L291.773 90.1326L231.409 88.909ZM238.342 94.211L286.062 97.0658V105.63L243.643 100.328L238.342 94.211Z" fill="black"/>
<path d="M712.859 19.1684L729.58 44.8622L716.122 277.737L631.692 270.805L623.536 265.095L703.069 265.502L712.859 19.1684ZM586.419 142.743L582.341 137.849L577.446 141.928L581.524 146.821L586.419 142.743ZM696.137 261.017L612.116 258.162L615.787 174.147L548.488 172.107C547.943 185.974 547.399 199.84 546.857 213.707C546.585 227.573 546.041 241.44 545.224 255.307L486.491 252.859L519.12 210.852L497.504 160.28L529.726 129.692L498.727 84.0146L528.502 47.3093L501.991 1.22352L555.013 3.2627L550.935 104.814L618.234 107.261C619.321 90.9479 620 74.7703 620.272 58.7287C620.816 42.6871 621.496 26.5095 622.312 10.196L705.926 13.4586C704.565 54.7863 702.934 96.1136 701.031 137.441C699.398 178.497 697.767 219.688 696.137 261.017ZM667.585 48.5326L663.507 43.6386L658.613 47.717L662.691 52.611L667.585 48.5326ZM653.718 161.504L648.823 165.582L652.902 170.476L657.796 166.398L653.718 161.504ZM661.467 104.406C660.381 104.406 659.427 104.95 658.613 106.038C657.796 106.853 657.117 107.669 656.573 108.485L660.243 113.379L664.731 109.301L661.467 104.406ZM653.718 212.483L648.823 216.562L652.902 221.456L657.796 217.377L653.718 212.483ZM561.132 11.4195L574.999 29.3643L563.986 100.328L555.83 98.6967L561.132 11.4195ZM500.767 123.575L496.689 118.681L491.795 122.759L495.873 127.653L500.767 123.575ZM504.845 43.6386L501.174 38.7447C500.088 38.7447 499.137 39.2885 498.32 40.376C497.504 41.1915 496.824 42.0073 496.28 42.8229C496.824 45.5419 498.183 47.1733 500.358 47.717L504.845 43.6386ZM497.504 190.868L493.425 185.974L488.531 190.052L492.609 194.946L497.504 190.868ZM471.4 0L493.425 0.815689L519.529 45.6777L489.347 82.3831L520.753 128.061L488.124 158.649L509.74 208.405L474.663 252.453L461.203 251.637C463.923 209.493 465.691 167.621 466.505 126.022C467.594 84.1504 469.224 42.1433 471.4 0ZM551.342 261.831L553.79 177.817L565.619 179.856L563.172 274.066C559.091 273.794 552.294 273.522 542.777 273.25C533.532 272.978 523.742 272.437 513.411 271.621C503.35 270.533 493.97 269.038 485.267 267.134C476.839 265.23 471.4 262.647 468.952 259.385C482.822 259.929 496.552 260.336 510.147 260.608C523.742 260.88 537.475 261.287 551.342 261.831Z" fill="black"/>
<path d="M755.083 140.067C755.083 159.745 759.431 178.458 767.265 195.375C766.121 184.673 766.762 173.372 769.06 161.877C770.499 154.681 772.587 147.382 775.309 140.065C772.587 132.749 770.499 125.45 769.06 118.254C766.762 106.76 766.121 95.4603 767.265 84.7598C759.431 101.676 755.083 120.39 755.083 140.067Z" fill="black"/>
<path d="M778.767 163.69C774.756 183.759 776.279 202.439 783.426 217.79C784.796 208.188 788.907 197.059 795.148 185.132C795.846 183.802 796.569 182.458 797.321 181.103C790.979 172.181 785.579 163.028 781.16 153.816C780.217 157.131 779.419 160.426 778.767 163.69Z" fill="black"/>
<path d="M785.859 140.064C790.091 150.685 795.752 161.374 802.789 171.817C809.113 161.644 816.828 150.947 825.748 140.064C816.828 129.181 809.113 118.484 802.789 108.311C795.752 118.754 790.091 129.443 785.859 140.064Z" fill="black"/>
<path d="M808.988 180.483C815.15 170.117 822.938 159.036 832.146 147.662C840.552 157.384 849.87 167.192 859.975 176.847C870.048 186.471 880.276 195.35 890.415 203.36C878.517 212.148 866.923 219.583 856.08 225.463C847.315 219.398 838.782 212.47 830.657 204.707C822.554 196.964 815.322 188.833 808.988 180.483Z" fill="black"/>
<path d="M808.988 99.6468C815.15 110.012 822.938 121.094 832.146 132.467C840.552 122.745 849.87 112.938 859.975 103.282C870.048 93.658 880.276 84.7794 890.415 76.7691C878.517 67.9812 866.923 60.5465 856.08 54.666C847.315 60.7316 838.782 67.6592 830.657 75.4226C822.554 83.1657 815.322 91.2964 808.988 99.6468Z" fill="black"/>
<path d="M866.926 110.08C877.374 100.096 887.957 90.9673 898.387 82.8242C908.814 90.9673 919.397 100.096 929.845 110.08C940.266 120.039 949.796 130.125 958.3 140.064C949.796 150.003 940.266 160.089 929.845 170.047C919.397 180.031 908.814 189.16 898.387 197.303C887.957 189.16 877.374 180.031 866.926 170.047C856.505 160.089 846.975 150.003 838.471 140.064C846.975 130.125 856.505 120.039 866.926 110.08Z" fill="black"/>
<path d="M865.205 48.7125C875.836 54.7562 887.014 62.1237 898.386 70.6385C909.756 62.1237 920.933 54.7562 931.564 48.7125C920.654 42.0106 909.483 36.6175 898.386 32.582C887.286 36.6175 876.117 42.0106 865.205 48.7125Z" fill="black"/>
<path d="M906.354 76.7691C918.253 67.9812 929.847 60.5462 940.69 54.666C949.455 60.7314 957.988 67.6592 966.113 75.4226C974.216 83.1657 981.448 91.2964 987.782 99.6468C981.62 110.012 973.832 121.094 964.626 132.467C956.22 122.745 946.9 112.938 936.795 103.282C926.724 93.658 916.496 84.7794 906.354 76.7691Z" fill="black"/>
<path d="M912.905 28.0636C922.498 32.2771 932.029 37.4218 941.324 43.459C942.767 42.7267 944.199 42.0216 945.615 41.3443C958.011 35.4204 969.573 31.513 979.552 30.1802C963.51 23.4266 944.014 21.9973 923.076 25.8186C919.714 26.4325 916.32 27.1813 912.905 28.0636Z" fill="black"/>
<path d="M921.242 16.4265C933.159 14.2517 944.874 13.6319 955.978 14.6868C938.357 7.29138 918.877 3.18555 898.386 3.18555C877.895 3.18555 858.415 7.29135 840.794 14.6868C851.896 13.6319 863.611 14.2517 875.528 16.4265C883.066 17.8025 890.717 19.8037 898.386 22.4103C906.053 19.8037 913.704 17.8025 921.242 16.4265Z" fill="black"/>
<path d="M873.694 25.8186C852.756 21.9973 833.26 23.4266 817.218 30.1802C827.197 31.513 838.759 35.4204 851.155 41.3443C852.574 42.0216 854.003 42.7267 855.449 43.459C864.742 37.4218 874.275 32.2771 883.865 28.0636C880.452 27.1813 877.058 26.4325 873.694 25.8186Z" fill="black"/>
<path d="M823.706 68.6251C830.961 61.6921 838.548 55.3801 846.352 49.7126C834.152 43.9211 823.429 40.4964 814.82 39.5204C806.147 38.5376 800.475 40.1069 797.163 43.1732L796.904 43.4198C793.714 46.568 792.083 51.9428 793.108 60.1922C794.128 68.4208 797.723 78.6882 803.816 90.3869C809.772 82.8857 816.412 75.5954 823.706 68.6251Z" fill="black"/>
<path d="M795.148 94.9977C788.907 83.0708 784.796 71.9417 783.426 62.3398C776.279 77.6905 774.756 96.3702 778.767 116.44C779.419 119.704 780.217 122.998 781.16 126.313C785.579 117.102 790.979 107.948 797.321 99.0262C796.569 97.671 795.846 96.328 795.148 94.9977Z" fill="black"/>
<path d="M1041.69 140.066C1041.69 120.388 1037.34 101.675 1029.51 84.7578C1030.65 95.4586 1030.01 106.759 1027.71 118.253C1026.27 125.449 1024.18 132.748 1021.46 140.065C1024.18 147.382 1026.27 154.681 1027.71 161.876C1030.01 173.372 1030.65 184.674 1029.51 195.376C1037.34 178.459 1041.69 159.745 1041.69 140.066Z" fill="black"/>
<path d="M1018 163.689C1017.35 160.425 1016.55 157.131 1015.61 153.816C1011.19 163.028 1005.79 172.181 999.449 181.103C1000.2 182.458 1000.93 183.801 1001.62 185.132C1007.86 197.058 1011.97 208.188 1013.35 217.789C1020.49 202.439 1022.01 183.759 1018 163.689Z" fill="black"/>
<path d="M1010.91 140.064C1006.68 150.685 1001.02 161.374 993.983 171.817C987.656 161.644 979.942 150.947 971.021 140.064C979.942 129.181 987.656 118.484 993.983 108.311C1001.02 118.754 1006.68 129.443 1010.91 140.064Z" fill="black"/>
<path d="M1003.66 219.937C1002.64 211.708 999.046 201.441 992.953 189.742C986.997 197.243 980.357 204.534 973.063 211.504C965.808 218.437 958.224 224.749 950.42 230.416C962.62 236.208 973.34 239.634 981.951 240.608C990.737 241.604 996.443 239.981 999.737 236.834C1003.01 233.705 1004.7 228.296 1003.66 219.937Z" fill="black"/>
<path d="M966.115 204.707C957.988 212.47 949.455 219.398 940.69 225.463C929.847 219.583 918.253 212.148 906.354 203.36C916.496 195.35 926.724 186.471 936.795 176.847C946.9 167.192 956.22 157.384 964.626 147.662C973.832 159.036 981.62 170.117 987.782 180.483C981.448 188.833 974.216 196.964 966.115 204.707Z" fill="black"/>
<path d="M945.615 238.784C944.199 238.108 942.767 237.404 941.324 236.67C932.029 242.706 922.498 247.852 912.905 252.066C916.32 252.949 919.712 253.696 923.076 254.311C944.014 258.133 963.51 256.702 979.552 249.95C969.573 248.617 958.011 244.709 945.615 238.784Z" fill="black"/>
<path d="M931.566 231.418C920.654 238.12 909.483 243.514 898.386 247.548C887.286 243.514 876.117 238.12 865.205 231.418C875.836 225.374 887.014 218.007 898.386 209.492C909.756 218.007 920.933 225.374 931.566 231.418Z" fill="black"/>
<path d="M921.243 263.703C913.704 262.327 906.053 260.327 898.387 257.719C890.718 260.327 883.067 262.327 875.528 263.703C863.61 265.879 851.89 266.498 840.783 265.442C858.408 272.839 877.891 276.946 898.387 276.946C918.88 276.946 938.365 272.839 955.988 265.442C944.881 266.498 933.161 265.879 921.243 263.703Z" fill="black"/>
<path d="M873.694 254.311C852.756 258.133 833.26 256.702 817.218 249.95C827.197 248.617 838.759 244.709 851.155 238.784C852.574 238.108 854.003 237.404 855.449 236.67C864.742 242.706 874.275 247.852 883.865 252.066C880.452 252.949 877.058 253.696 873.694 254.311Z" fill="black"/>
<path d="M823.706 211.504C830.961 218.437 838.548 224.749 846.352 230.416C834.152 236.208 823.429 239.634 814.82 240.608C806.033 241.604 800.326 239.981 797.035 236.834C793.759 233.705 792.069 228.296 793.107 219.937C794.128 211.708 797.723 201.441 803.816 189.742C809.772 197.243 816.412 204.534 823.706 211.504Z" fill="black"/>
<path d="M1015.61 126.313C1011.19 117.102 1005.79 107.948 999.449 99.0262C1000.2 97.671 1000.93 96.328 1001.62 94.9977C1007.86 83.0708 1011.97 71.9417 1013.35 62.3398C1020.49 77.6905 1022.01 96.3702 1018 116.44C1017.35 119.704 1016.55 122.998 1015.61 126.313Z" fill="black"/>
<path d="M973.063 68.6251C980.357 75.5954 986.997 82.8857 992.953 90.387C999.046 78.6882 1002.64 68.4208 1003.66 60.1922C1004.69 51.9282 1003.05 46.549 999.847 43.4032L999.625 43.1895C996.315 40.1125 990.638 38.5358 981.951 39.5205C973.34 40.4965 962.62 43.9211 950.42 49.7127C958.224 55.3801 965.808 61.6921 973.063 68.6251Z" fill="black"/>
<path d="M1178.65 89.865L1288.91 83.7386C1288.91 74.209 1287.42 64.8151 1284.44 55.5578C1281.72 46.0279 1277.66 37.315 1272.23 29.419C1289.86 46.5726 1299.49 67.6741 1301.12 92.7239L1179.06 94.766L1178.65 89.865ZM1253.11 206.264L1248.63 201.772L1244.16 206.264L1248.63 210.757L1253.11 206.264ZM1249.85 143.776L1245.38 148.269L1249.85 152.761L1254.33 148.269L1249.85 143.776ZM1174.18 45.3473L1169.7 40.8547L1165.23 45.3473L1169.7 49.8398L1174.18 45.3473ZM1175.4 221.376L1170.93 216.883L1166.45 221.376L1170.93 225.868L1175.4 221.376ZM1187.61 142.142L1183.13 137.65L1178.65 142.142L1183.13 146.635L1187.61 142.142ZM1172.55 83.7386L1173.37 100.484L1195.74 99.667C1209.31 99.667 1221.51 100.62 1232.36 102.526C1243.48 104.432 1252.84 108.108 1260.43 113.553C1268.3 118.726 1274.26 126.078 1278.33 135.608C1282.67 145.138 1284.84 157.39 1284.84 172.366C1284.84 192.786 1280.91 208.715 1273.05 220.15C1265.18 231.587 1254.87 240.028 1242.12 245.472C1229.65 250.917 1215.54 254.185 1199.81 255.273C1184.35 256.364 1168.89 256.908 1153.43 256.908C1146.92 256.908 1139.87 256.227 1132.27 254.867C1124.95 253.504 1118.44 251.326 1112.75 248.332L1128.21 225.051L1110.3 186.252L1202.25 177.675L1201.44 164.606C1193.57 164.878 1185.57 165.422 1177.44 166.239C1169.57 166.784 1161.57 167.056 1153.43 167.056C1146.38 167.056 1139.33 166.511 1132.27 165.422C1125.22 164.333 1118.58 162.155 1112.34 158.888L1131.46 137.241L1096.88 94.3575L1123.73 60.4588L1097.28 22.0674H1096.88C1102.84 17.1664 1109.49 13.3545 1116.81 10.6317C1124.14 7.90892 1131.6 5.86682 1139.19 4.50542C1147.06 3.14403 1154.92 2.32718 1162.79 2.0549C1170.65 1.78262 1178.25 1.64648 1185.57 1.64648C1199.13 1.64648 1211.61 2.73559 1223 4.91383C1234.39 6.81978 1244.29 10.4955 1252.7 15.9411C1261.38 21.3867 1268.3 29.0106 1273.45 38.8126C1278.61 48.6147 1281.86 61.2757 1283.22 76.7955L1172.55 83.7386ZM1295.83 176.45C1295.83 167.192 1295.01 158.207 1293.39 149.494C1292.03 140.509 1288.51 132.068 1282.81 124.172C1293.39 132.613 1299.9 142.551 1302.34 153.987C1304.78 165.422 1306 177.539 1306 190.336C1306 204.767 1304.1 217.019 1300.3 227.094C1296.51 236.896 1291.22 245.063 1284.44 251.598C1277.66 258.133 1269.79 263.171 1260.84 266.711C1251.89 270.249 1242.12 272.972 1231.55 274.878C1221.24 276.512 1210.39 277.465 1199 277.737C1187.88 278.009 1176.76 278.147 1165.64 278.147C1158.58 278.147 1151.53 277.328 1144.48 275.696C1137.43 273.79 1130.65 271.34 1124.14 268.343C1117.63 265.077 1111.52 261.264 1105.83 256.908C1100.13 252.279 1095.25 247.107 1091.18 241.388C1099.05 248.467 1108.68 254.048 1120.07 258.133C1131.46 262.217 1142.45 264.259 1153.02 264.259C1169.57 264.259 1186.25 263.852 1203.07 263.033C1220.15 261.945 1235.48 258.677 1249.04 253.232C1262.87 247.513 1274.13 238.803 1282.81 227.094C1291.49 215.113 1295.83 198.232 1295.83 176.45ZM1070.03 188.294L1101.35 186.66L1118.03 223.009L1104.2 243.838C1099.05 242.478 1094.44 239.753 1090.37 235.671C1086.57 231.315 1083.18 226.413 1080.2 220.967C1077.48 215.522 1075.32 209.94 1073.69 204.222C1072.06 198.232 1070.84 192.923 1070.03 188.294ZM1087.93 209.531L1092.4 214.024L1096.88 209.531L1092.4 205.039L1087.93 209.531ZM1099.73 58.8252C1099.18 57.7361 1098.64 56.7829 1098.1 55.9662C1097.56 54.8771 1096.61 54.3324 1095.25 54.3324L1091.18 58.8252L1095.25 63.3178C1096.61 63.3178 1097.56 62.9093 1098.1 62.0924C1098.64 61.0033 1099.18 59.9141 1099.73 58.8252ZM1102.57 133.566L1098.1 129.073L1093.62 133.566L1098.1 138.058L1102.57 133.566ZM1114.37 59.6419L1087.11 93.5406L1122.1 136.425L1105.42 155.212C1094.03 148.133 1084.54 138.467 1076.94 126.214C1069.35 113.962 1065.55 101.028 1065.55 87.4144C1065.55 75.9788 1067.72 64.9514 1072.06 54.3324C1076.4 43.7137 1082.91 34.5923 1091.59 26.9685L1114.37 59.6419ZM1231.14 39.6293L1226.66 35.1367L1222.19 39.6293L1226.66 44.1221L1231.14 39.6293Z" fill="black"/>
<path d="M899.127 282.192C980.959 282.192 1047.29 218.829 1047.29 140.666C1047.29 113.39 1039.22 87.9164 1025.22 66.3086C1044.37 89.5813 1055.8 118.931 1055.8 150.829C1055.8 226.426 991.638 287.71 912.493 287.71C890.664 287.71 869.976 283.047 851.459 274.709C866.417 279.562 882.451 282.192 899.127 282.192Z" fill="black"/>
</g>
<defs>
<clipPath id="clip0_5197_5141">
<rect width="1306" height="288" fill="white"/>
</clipPath>
</defs>
</svg>
