<?xml version="1.0" encoding="UTF-8"?><svg id="Layer_2" xmlns="http://www.w3.org/2000/svg" viewBox="0 0 526.39 794.46"><defs><style>.cls-1{fill:#fff;}.cls-2{fill:none;stroke:#000;stroke-miterlimit:10;stroke-width:7px;}.cls-3{fill:#ee283b;}</style></defs><g id="Layer_4"><polygon class="cls-3" points="0 .2 526.39 0 266.16 794.46 0 .2"/><polygon class="cls-2" points="56.3 48.3 470.08 48.3 266.2 666.07 56.3 48.3"/><g><g><path d="m236.64,362.92l-9.72-23.12c-.37-.85-.8-.8-1.06.16l-2.13,7.49c-1.22,4.3-2.39,8.45-1.06,10.2,2.18,2.87,4.09,2.44,4.09,4.94,0,1.38-1.28,2.34-3.24,2.34-2.13,0-3.83-.43-5.05-.43s-2.34.43-5.05.43c-1.97,0-3.24-.96-3.24-2.34,0-2.5,1.91-2.07,4.09-4.94,1.33-1.75,3.03-5.9,4.3-10.2l1.54-5.15c1.28-4.3,2.39-8.45,1.06-10.2-2.18-2.87-5.69-2.44-5.69-4.73,0-1.59,1.28-2.55,3.24-2.55,1.59,0,5.47.43,6.64.43,6.22,0,4.89,2.13,8.34,10.52l5.85,14.14c.48,1.22.9,1.22,1.38-.05l5.05-14.35c3.14-8.93-.16-10.68,10.47-10.68h6.16c2.18,0,2.92.69,2.92,2.02,0,2.29-3.51,2.39-5.69,5.26-1.33,1.75.32,5.79,1.54,10.2l1.43,5.15c1.22,4.41,3.08,8.45,4.41,10.2,2.18,2.87,4.09,2.44,4.09,4.94,0,1.38-1.28,2.34-3.24,2.34-2.13,0-4.62-.43-6.91-.43s-3.67.43-6.38.43c-1.97,0-3.24-.96-3.24-2.34,0-2.5,1.91-2.07,4.09-4.94,1.33-1.75-.05-5.79-1.12-10.2l-1.91-7.65c-.74-2.98-1.17-3.08-2.18-.64l-9.51,23.75c-.53,1.38-1.12,2.34-2.18,2.34s-1.54-1.17-2.13-2.34Z"/><path d="m269.27,344.85c0-11.32,9.25-20.57,20.03-20.57,6.48,0,7.71,2.13,11.37,1.59,3.51-.53,4.73-.43,4.89,1.86.11,1.65-.9,8.82-1.91,10.15-1.22,1.59-3.03,1.75-4.89-1.22-2.76-4.41-6-7.07-10.89-7.07-6.32,0-10.63,5.31-10.63,11.85,0,8.71,6.54,15.68,15.14,15.68,5,0,8.77-2.66,11.16-6.06,1.28-1.81,2.02-2.66,3.24-2.07.74.37.8,1.75.11,3.45-2.76,6.86-8.02,12.97-17.59,12.97-11.32,0-20.03-9.25-20.03-20.57Z"/></g><path d="m310.64,333.14c-.26-.66.52-1.35,2.91-2.91,3.77-2.45,9.64-6.65,9.64-10.3,0-2.13-1.38-3.57-3.42-3.57-2.5,0-4.43,2.24-4.83,5.04-.17,1.15-.55,1.67-1.12,1.67-.49,0-1.01-.32-1.18-1.61-.75-5.61,2.76-9.7,8.63-9.7,4.58,0,7.22,2.7,7.22,6.19,0,4.37-3.11,7.91-7.83,11.22-1.27.89-1.55,1.29-1.44,1.58.12.26.58.26,2.13.2,2.13-.09,4.34-.52,5.81-2.53,1.67-2.3,1.96-4.23,2.68-4.2.69.03.69,1.47.69,5.41,0,4.23-1.09,4.4-3.74,4.4h-13.26c-1.5,0-2.53,0-2.88-.89Z"/></g><path class="cls-1" d="m266.41,193.73l.7-.1-.7.09h0Z"/><g><path d="m193.06,179.35l.33.08.33.07-.14-1.31c-.09-.88.55-1.67,1.43-1.76.32-.03.65.03.94.19l5.56,3.09c1.09.6,2.46.2,3.06-.89.04-.06.07-.13.1-.2l.43-1.01.32-.76v-.05l.31-.69,1.91-4.49c.34-.82,1.27-1.2,2.09-.87.11.05.21.1.31.17l6.15,4.37c1.02.72,2.42.48,3.14-.54.06-.09.12-.18.17-.28l3.41-6.76c.4-.79,1.36-1.11,2.15-.71.1.05.19.11.27.17l5.95,4.67c.97.76,2.38.59,3.14-.39.08-.1.14-.2.2-.31l3.1-5.56.37-.69c-.13,1.39-.26,2.78-.37,4.17-.16,1.87-.31,3.63-.48,5.24l-.08.69.69.15.43.07.8.09.83.17c.76.05,1.74.09,2.99.09,4.15-.04,8.3-.34,12.41-.89.61-.08,1.2-.15,1.76-.24,4.34-.52,8.61-1.49,12.75-2.89.38-.13.69-.26,1.03-.39.44-.18.81-.35,1.12-.49l.18.08s-.03-.09-.06-.14c.42-.2.82-.43,1.2-.69l.5-.36-.23-.58c-.61-1.53-1.25-3.21-1.92-4.99-.51-1.35-1.05-2.78-1.61-4.17.43,0,.85.18,1.15.49l4.86,5.11c.85.89,2.27.92,3.16.07.12-.11.22-.24.31-.37l3.95-5.85c.5-.74,1.51-.93,2.25-.42.1.07.2.15.28.24l4.79,5.27c.83.92,2.25.99,3.17.16.11-.1.21-.22.3-.34l4.17-5.68c.51-.71,1.51-.88,2.22-.36.12.09.22.19.32.3l3.65,4.54.51.63h0l.24.3c.1.12.2.22.32.32.97.81,2.4.71,3.24-.22l1.82-2.04,1.29-1.44h0l1.04-1.16c.39-.43.97-.63,1.54-.51.21.05.42.13.6.26h0c.22.16.4.37.51.62l1.62,3.24.29-.13.28-.14c1.47-.66,2.87-1.44,4.21-2.33,1.77-1.22,2.47-2.22,2.37-2.93-.02-.11-.05-.22-.1-.32h0c-.07-.15-.17-.28-.28-.4-.18-.19-.38-.35-.6-.49-.38-.24-.79-.45-1.21-.63-2.82-1.17-8.53-2.2-18.29-2.4-1.21,0-2.45-.03-3.73-.03-10.75.08-21.49.73-32.18,1.95,0-.06-.05-.12-.08-.17l-.21-.49c-.03-.09-.08-.18-.12-.27v-.03c-.04-.1-.09-.21-.13-.31l-.19-.42-.06-.15c-4.17-9.35-9.48-17.76-16.77-16.75-3.41.47-5.85,2.84-7.64,6.25-2.08,3.73-3.34,9.03-4.17,14.59l-.28,2c-10.88,1.87-21.63,4.38-32.21,7.51-9.37,2.88-14.59,5.44-16.95,7.35-.34.27-.66.56-.95.89-.09.1-.17.2-.24.3-.15.2-.27.42-.35.66-.05.16-.07.33-.05.49.12.9,1.74,1.94,5.39,2.76Zm46.26-10.09c.05-.56.1-1.14.15-1.72.1-1.23.22-2.49.35-3.77v-.31c0-.1,0-.22.03-.32.14-1.39.29-2.78.47-4.11v-.19c0-.15.04-.3.06-.45s0-.22.05-.33v-.33c0-.1.06-.36.08-.54,0-.05,0-.1,0-.15.48-3.83,1.37-7.59,2.67-11.23.09-.2.15-.31.15-.31.32-1.01.96-1.88,1.83-2.47,2.08-1.21,4.01,1.25,4.76,2.9,1.22,2.68,1.7,5.77,2.16,8.65,0,.2.06.41.09.61v.15c0,.21.06.42.1.63v.15c0,.06,0,.11,0,.17l.04.32c0,.1,0,.2.05.3v.19c.23,1.67.42,3.34.6,5.02,0,.17,0,.35.05.52s.03.35.06.52,0,.22,0,.33c.11,1.17.21,2.36.31,3.53l.37-.04c2.08-.26,4.29-.6,6.45-1.04l.38-.08.38-.08c1.39-.28,2.72-.62,4.04-.99l.47-.13.47-.13c1.11-.33,2.19-.7,3.22-1.1l.32-.12.47,1.25c.1.24.19.49.28.69h-.07l-.25.09-.69.27c-1.75.62-3.54,1.16-5.34,1.6-.39.1-.77.19-1.16.27-1.7.4-3.43.73-5.16,1.01-1.21.2-2.41.37-3.6.51l-.37.04c-1.44.17-2.84.31-4.17.41s-2.51.17-3.66.21h-3.12c-1.39,0-2.56-.05-3.47-.13.19-.01.19-.14.21-.27h0Zm-.39,4.36l.08-.89c0-.32.06-.65.09-.98l.69.05h.72c.43,0,.89,0,1.39.03h2.4c2.78-.06,6.1-.26,9.62-.69l.38-.05c1.23-.15,2.49-.33,3.75-.53.69-.12,1.45-.24,2.17-.38.9-.17,1.79-.35,2.68-.55s1.7-.39,2.54-.61c1.84-.47,3.66-1.04,5.45-1.7l.32-.13c.22.58.44,1.14.65,1.68l-.32.16c-.42.21-1.01.47-1.79.77-.45.17-.98.36-1.58.56l-1.45.44c-3.04.83-6.12,1.47-9.24,1.9-.75.11-1.53.22-2.35.32l-.69.08-.4.05c-4.19.53-8.42.76-12.65.69l-1.1-.05-.8-.06-.55-.06s-.02-.05-.03-.08h0Z"/><path d="m282.75,195.58c-.29.14-.56.32-.8.53-1.05.79-1.9,2.01-3.19,2.01h-.11c-1.62,0-3.22-1.1-4.8-1.4-.38-.07-.77-.11-1.16-.11-.26,0-.52.01-.78.05-.25.03-.5.08-.75.14-.25.06-.5.13-.75.22-1.44.54-2.7,1.47-3.64,2.68l-.67-.24c-1.01-.39-2.08-.59-3.16-.59-1.15,0-2.3.23-3.35.7l-.43.21c-.85.45-1.65,1-2.37,1.63-.7.61-1.29,1.39-2.3,1.45h-.11c-.86-.11-1.67-.49-2.3-1.08-.32-.23-1.15-1.15-1.63-1.15h-.07c-.89.18-.47,3.07-.34,3.63.34,1.5,1.11,2.87,2.22,3.94,1.56,1.47,3.63,2.28,5.78,2.25,2.21-.01,4.35-.76,6.09-2.13.95-.74,1.74-1.67,2.32-2.72.36-.67.48-1.56.96-2.11.04-.05.09-.09.14-.12.07-.03.15-.05.23-.05.88,0,2.57,1.86,4.69,2.5l.83.23c.37.09.67.15,1.01.2.32.05.65.08.97.09h.23c.7-.01,1.4-.13,2.07-.36,3.39-.89,6.11-4.69,6.03-8.37,0-.49,0-2.15-.75-2.15-.04.03-.08.06-.11.1Z"/><path d="m326.28,158.57c-.18.48-.44.92-.76,1.31-.2.24-.42.48-.65.69l-.19.18c-2.78,2.59-8.85,5.33-18.11,8.18-10.46,3.1-21.1,5.59-31.85,7.46l-.88.15-.86.16c-4.91.86-9.99,1.67-15.15,2.39l-1.61.22c-5.91.81-11.71,1.47-17.3,2l-.81.08-.81.07c-9.22.83-17.84,1.26-25.36,1.26-1.29,0-2.54,0-3.77-.03-10.03-.22-16.73-1.25-20.01-3.09.09.26.19.51.29.76-.11-.26-.21-.51-.3-.77-.37-.2-.72-.43-1.04-.69-.53-.41-.93-.96-1.17-1.59,1.54,9.11,9.51,14.98,23.69,17.44,5.91.95,11.89,1.4,17.87,1.34,3.16,0,6.5-.1,10.01-.3,2.7,17.48,13.48,35.72,33.04,39.25,19.55,3.52,38.55-8.47,43.78-27.63.15-.41-.06-.87-.47-1.02-.37-.13-.78.02-.97.36-6.9,10.27-20.82,13-31.09,6.09-2.04-1.37-3.84-3.07-5.33-5.02h-.97c-.33,0-.69-.05-1.04-.1-.73-.12-1.46-.28-2.17-.49-1.25-.43-2.42-1.05-3.47-1.85l-.69-.47-.13.38c-.12.37-.27.74-.45,1.08-.68,1.24-1.6,2.32-2.71,3.2,2.03,2.36,4.39,4.42,7.02,6.09,5.27,3.31,11.44,4.91,17.66,4.59,5.08-.25,10.03-1.64,14.49-4.07,2.78-1.23,5.31-2.97,7.44-5.14-6.51,16.15-23.46,25.51-40.6,22.43-18.76-3.38-29.1-20.92-31.73-37.78,5.56-.36,11.53-.96,17.91-1.79.37,1.57.84,3.11,1.39,4.63l.39-.18c1.25-.56,2.6-.85,3.97-.85,1.21,0,2.41.22,3.54.63,1.11-1.2,2.5-2.09,4.06-2.59.26-.08.52-.15.79-.21.26-.06.52-.1.79-.13-.05-1.22,0-2.45.15-3.67,14.86-2.78,27.2-6.44,36.13-10.81,12.5-6.1,18.55-13.56,18.07-22.14Zm-54,31.34l-.81.15-.83.15c-3.58.65-7.3,1.24-11.16,1.78-.95.13-1.89.26-2.82.38-6.34.83-12.27,1.42-17.8,1.77l-.81.05-.79.05c-10.78.6-19.94.26-27.38-1.04-7.91-1.39-13.78-3.82-17.56-7.31l6.59-2.22c.65-.22,1.37-.08,1.88.38l7.24,6.3c.67.59,1.66.65,2.4.14l7.71-5.32c.67-.47,1.57-.45,2.22.03l7.56,5.59c.7.52,1.66.51,2.35-.03l6.62-5.24.75-.6.09-.06c.25-.17.53-.28.82-.33.46-.07.93.03,1.32.28l7.89,5.06c.75.49,1.74.4,2.39-.22l5.73-5.33,1.16-1.08c.58-.54,1.43-.67,2.14-.33l8.92,4.29c.77.37,1.68.2,2.26-.43l.88-.94.97-1.04.97-1.05,3.93-4.25c.53-.57,1.35-.77,2.08-.49l9.26,3.56c.79.31,1.69.06,2.22-.6l6.22-7.74c.5-.62,1.32-.88,2.08-.64l9.46,2.88c.83.26,1.72-.07,2.2-.79l5.56-8.41c.37-.57,1.01-.89,1.69-.86l5.01.22c-2.54,4.67-7.67,8.9-15.39,12.7-8.72,4.26-20.73,7.86-35.22,10.58h0Z"/><ellipse cx="268.33" cy="250.93" rx="31.51" ry="6.55"/></g><g><path d="m249.01,416.56c-.43-1.09.85-2.23,4.79-4.79,6.21-4.03,15.88-10.95,15.88-16.97,0-3.51-2.28-5.88-5.64-5.88-4.12,0-7.3,3.7-7.96,8.3-.28,1.9-.9,2.75-1.85,2.75-.81,0-1.66-.52-1.94-2.66-1.23-9.25,4.55-15.98,14.22-15.98,7.54,0,11.9,4.46,11.9,10.19,0,7.21-5.12,13.04-12.9,18.49-2.09,1.47-2.56,2.13-2.37,2.61.19.43.95.43,3.51.33,3.51-.14,7.16-.85,9.58-4.17,2.75-3.79,3.22-6.97,4.41-6.92,1.14.05,1.14,2.42,1.14,8.91,0,6.97-1.8,7.25-6.16,7.25h-21.86c-2.46,0-4.17,0-4.74-1.47Z"/><path d="m286.7,441.02c0,10.1-8.15,18.35-18.3,18.35s-18.3-7.77-18.3-18.35,8.2-18.35,18.3-18.35,18.3,7.73,18.3,18.35Zm-25.03,3.46l11.38-10.95c1.33-1.23,2.23-2.61.95-3.89-1.04-1.04-2.42-1.71-3.94-2.13-5.12-1.28-9.67,1.9-11.09,7.3-.81,3.18-.85,6.68-.14,9.39.43,1.71,1.61,1.47,2.84.28Zm5.03,9.15c5.21,1.33,9.72-1.94,11.05-7.35.66-2.7.95-5.64.38-8.34-.38-1.85-1.8-2.09-3.37-.57l-11.14,10.76c-1.38,1.33-1.56,2.75,0,4.08,1,.81,2.13,1.18,3.08,1.42Z"/><path d="m249.01,497.82c-.43-1.09.85-2.23,4.79-4.79,6.21-4.03,15.88-10.95,15.88-16.97,0-3.51-2.28-5.88-5.64-5.88-4.12,0-7.3,3.7-7.96,8.3-.28,1.9-.9,2.75-1.85,2.75-.81,0-1.66-.52-1.94-2.66-1.23-9.25,4.55-15.98,14.22-15.98,7.54,0,11.9,4.46,11.9,10.19,0,7.21-5.12,13.04-12.9,18.49-2.09,1.47-2.56,2.13-2.37,2.61.19.43.95.43,3.51.33,3.51-.14,7.16-.85,9.58-4.17,2.75-3.79,3.22-6.97,4.41-6.92,1.14.05,1.14,2.42,1.14,8.91,0,6.97-1.8,7.25-6.16,7.25h-21.86c-2.46,0-4.17,0-4.74-1.47Z"/><path d="m250.38,530.63c-.66-1.42-.76-2.42,0-2.89.76-.47,1.33,0,2.37,1.09,3.18,3.32,6.97,5.31,11.62,5.31,5.12,0,8.77-2.46,8.77-6.35,0-4.93-5.36-5.36-11.33-3.7-1.19.33-2.04.24-2.61-.81-.33-.62-.28-1.52.81-2.18,7.77-4.69,10.86-8.06,10.86-10.19,0-1.52-1.47-2.42-3.46-2.42-2.37,0-5.69,1.04-7.82,4.98-2.7,4.93-3.75,6.26-5.21,5.74-1.75-.62-.38-4.31-.24-7.02.14-2.89-.76-5.4-.81-6.31-.1-1.47.95-1.56,2.42-1.38,2.56.33,6.02.71,8.58.71,2.8,0,6.07-.81,7.96-.81,3.18,0,7.3,1.42,7.16,6.02-.14,4.31-3.03,7.68-8.25,9.05,5.07.85,10.19,2.84,10.19,9.15,0,7.21-7.58,11.99-15.46,11.99-8.3,0-12.71-3.93-15.55-10Z"/></g><g><path d="m170.58,247.92c1.02-.8,1.46.11,3.33.08,1.14-.02,2.87-1.18,4.69-2.61l2.1-1.66c1.82-1.44,3.34-2.85,3.63-3.96.47-1.81.07-2.41.78-2.97.65-.51,1.45-.3,2.08.5.51.65,1.16,1.83,1.88,2.74,1.71,2.17,3.3,3.16,5.12,5.45,3.8,4.81,3.22,11.2-1.8,15.17-6.95,5.49-13.17,1.08-16.77-4.9-2.64-4.42-4.07-4.66-4.94-5.77-.63-.8-.65-1.63-.09-2.07Zm8.41,8.34c2.25,3.88,6.3,4.06,9.18,1.79,3.73-2.94,5.95-8.36,2.99-12.1-1.74-2.21-3.88-2.38-7.37.37-5.02,3.97-6.6,6.83-4.8,9.95Z"/><path d="m194.77,262.6c3.62-4.63,10.37-5.45,14.78-1.99,2.65,2.08,2.47,3.34,4.14,4.29,1.6.91,2.07,1.34,1.4,2.33-.48.71-3.19,3.32-4.03,3.54-1.01.26-1.8-.25-1.61-2.06.28-2.69-.19-4.81-2.19-6.38-1.93-1.51-4.36-1.46-6.33-.19-1.64,1.2-.9,1.82.21,2.83,3.56,3.28,4.32.89,5.68,1.96,1.15.9.73,2.74-.22,4.31-1.18,1.95-2.3,3.11-3.1,2.8-.99-.39-1.08-1.48-.88-2.68.2-1.24-.39-2.37-2.9-4.13-.99-.67-2.01-1.47-2.57.69-.61,2.3.71,5.22,3.15,7.13,2.04,1.6,4.44,1.72,6.5,1.1,1.1-.33,1.68-.44,1.99.19.19.39-.24.97-1.06,1.45-3.33,1.92-7.43,2.73-11.34-.33-4.63-3.63-5.23-10.2-1.61-14.83Z"/><path d="m225.95,294.18c-.3-1.01-3.6-12.73-5.62-19.6-.1-.38-.23-.44-.45-.08-.43.62-1.05,1.8-1.62,3.06l-1.1,2.44c-.95,2.11-1.65,4.07-1.39,5.18.42,1.82,1.42,2.03.88,3.21-.29.65-1.1.83-2.03.42-1.01-.45-1.34-.85-2.3-1.28-.93-.42-1.2-.3-2.48-.87-.93-.42-1.33-1.14-1.04-1.8.53-1.18,1.35-.57,2.99-1.47,1-.55,2-2.37,2.96-4.48l1.1-2.44c.95-2.11,1.65-4.07,1.39-5.18-.42-1.82-1.05-2.17-.68-3,.34-.75,1.15-.94,2.08-.51.76.34,1.12.75,2.05,1.16.96.43,1.2.3,2.23.76.83.37,1.09,1.07,1.27,1.75l4.2,15.75c.1.32.26.3.4,0l1.83-4.08c.95-2.11,1.65-4.07,1.4-5.18-.42-1.82-1.05-2.17-.68-3,.34-.75,1.15-.94,2.08-.51.76.34,1.12.75,2.05,1.16.96.43,1.2.3,2.23.76.93.42,1.33,1.14.99,1.9-.37.83-1.05.59-2.69,1.48-1,.55-2,2.37-2.96,4.48l-4.52,10.04c-.42.93-.77,1.5-1.3,1.47-.56-.04-.97-.47-1.27-1.54Z"/><path d="m246.05,297.94l-2.52-8.35c-1.2-4-2.39-7.04-3.23-8.6-.88-1.65-1.58-1.82-1.44-2.72.13-.82.86-1.2,1.87-1.04.82.13,1.82.52,2.96.7,1.17.19,2.73.22,3.85.4,1.01.16,1.58.76,1.45,1.58-.14.9-1.26,1.06-2.22,2.13-.79.91-.16,3.08,1.09,7l1.54,4.89c.13.39.27.41.5.05l2.48-3.8c2.38-3.65,3.52-5.73,2.96-6.77-.88-1.65-1.85-1.86-1.71-2.76.13-.82.87-1.2,1.87-1.04.82.13,2.09.56,3.24.74,1.17.19,1.92.08,3.03.26,1.01.16,1.58.76,1.45,1.58-.14.9-1.09.86-2.49,2.09-1.4,1.23-3.25,3.7-5.54,7.19l-4.78,6.98c-1.07,1.42-1.59,1.9-2.38,1.77-.98-.16-1.45-.54-1.98-2.28Z"/><path d="m261.75,290.89c-.31-5.87,4.24-10.91,9.83-11.2,3.36-.18,4.05.89,5.94.52,1.8-.37,2.44-.35,2.59.83.1.85-.23,4.6-.72,5.31-.59.86-1.52.99-2.57-.5-1.55-2.21-3.3-3.5-5.84-3.37-2.45.13-4.25,1.77-4.9,4.01-.45,1.99.52,1.96,2.01,2,4.84.13,3.84-2.16,5.57-2.25,1.46-.08,2.35,1.59,2.66,3.4.39,2.24.31,3.85-.5,4.14-1,.36-1.79-.4-2.42-1.45-.66-1.07-1.85-1.53-4.9-1.21-1.18.14-2.48.21-1.49,2.2,1.05,2.13,3.97,3.47,7.05,3.31,2.59-.13,4.48-1.61,5.62-3.44.61-.97.98-1.43,1.62-1.16.4.17.46.89.15,1.79-1.25,3.63-3.81,6.94-8.77,7.2-5.87.31-10.64-4.25-10.94-10.12Z"/><path d="m293.21,289.19c-1.33-.26-1.76.15-1.38,1.42.31,1,.96,2.51,1.74,3.12,1.49,1.13,2.39.65,2.74,1.9.19.69-.31,1.35-1.29,1.62-1.06.3-2.11.36-3.25.68-1.12.31-1.77.73-3.13,1.11-.98.28-1.76-.02-1.95-.71-.35-1.25.67-1.3,1.35-3.05.42-1.06.02-3.1-.61-5.33l-.72-2.58c-.63-2.23-1.35-4.18-2.26-4.87-1.49-1.13-2.2-.99-2.45-1.87-.22-.8.28-1.45,1.26-1.73.8-.22,4.29-.43,5.41-.75,2.18-.61,3.57-2.18,5.89-2.83,2.31-.65,5.21.37,5.87,2.74.81,2.87.14,6.21-5.65,9.3,6.08-1.51,6.75,6.27,8.66,5.02.92-.6-.49-2.76-2.41-4.91-1.01-1.15-.79-2.93,1.46-3.57,1.78-.5,3.21.3,3.82,2.48,1.47,5.24-.05,7.58-3.01,8.56-5.81,1.89-6.33-5.08-10.1-5.76Zm-1.95-2.55c3.21-1.42,6.14-3.87,5.38-6.56-.41-1.46-2.18-1.74-3.9-.91-3.38,1.64-3.13,3.66-2.16,7.11.13.45.29.52.67.36Z"/><path d="m312.56,295.04c-.38-.37-.23-1.02.3-2.05.46-.91.7-1.57.34-2.35-.73-1.58-4.2-.73-3.14-3.63.67-1.83,2.03-2.52,3.88-1.8,1.73.66,2.34,1.96,2.41,3.75.05,1.5-.92,4.2-2.12,5.6-.59.7-1.18.94-1.67.47Z"/><path d="m321.81,274.82c-3.61-4.64-2.77-11.38,1.65-14.82,2.66-2.07,3.84-1.59,5.17-2.97,1.27-1.34,1.8-1.68,2.6-.8.57.64,2.44,3.9,2.45,4.77,0,1.04-.68,1.68-2.39,1.06-2.54-.93-4.72-.98-6.72.58-2.59,2.02-2.66,5.57-.58,8.25,2.78,3.57,7.68,4.34,11.21,1.6,2.05-1.59,2.75-3.88,2.64-6.04-.05-1.15-.02-1.73.67-1.88.42-.08.89.46,1.15,1.38,1.05,3.69.84,7.87-3.08,10.92-4.64,3.61-11.16,2.6-14.77-2.04Z"/><path d="m339.48,260.85c-4.59-3.71-5.13-10.64-1.17-15.54s10.65-5.98,15.44-2.1c4.59,3.71,5.13,10.64,1.17,15.54-3.96,4.89-10.65,5.97-15.44,2.1Zm13.43-4.93c1.98-2.45,1.38-5.66-1.15-7.71-3.56-2.88-9.15-3.78-11.88-.41-1.98,2.45-1.41,5.64,1.13,7.69,3.56,2.88,9.18,3.8,11.9.43Z"/><path d="m361.08,244.79c-1.46-.83-1.98-2.72-1.13-4.2.85-1.49,2.73-2,4.19-1.17,1.49.85,2,2.73,1.15,4.22-.85,1.49-2.73,2-4.22,1.15Z"/></g><g><path d="m187.49,116.05c.29,3.81.51,7.53.89,11.23.15,1.46.58,2.91,1.01,4.33.34,1.11,1.13,1.9,2.3,2.18,1.12.27,2.24.53,3.37.71,1.13.17,2.02.58,2.4,1.74.36,1.1-.03,2.04-.83,2.72-.76.64-1.61,1.27-2.52,1.61-3.14,1.19-6.03,2.79-8.71,4.83-.82.62-1.83,1.05-2.81,1.41-.83.31-1.75.27-2.4-.46-.69-.78-.85-1.71-.47-2.69.15-.4.34-.8.55-1.17,1.42-2.43,2.03-5.09,1.97-7.87-.09-3.94-.28-7.87-.5-11.8-.14-2.59-.38-5.17-.64-7.75-.11-1.04-.32-2.09-.62-3.1-.66-2.26-1.72-3.1-4.08-3.07-1.43.01-2.86.29-4.29.45-.38.04-.76.11-1.14.12-1.66.07-2.53-1.1-1.84-2.63.32-.72.89-1.37,1.47-1.91.55-.52,1.22-.95,1.91-1.26,3.66-1.69,7.33-3.35,11.01-4.99.61-.27,1.28-.4,1.93-.55,1.31-.3,2.53-.04,3.6.78.34.26.68.54.99.84,4.93,4.82,9.86,9.64,14.77,14.48,1.01.99,1.95,2.06,2.96,3.05.25.24.71.54.95.45.25-.09.46-.59.5-.93.4-3.05.73-6.1,1.14-9.15.43-3.16.97-6.31,1.35-9.48.23-1.93.26-3.88.38-5.82.03-.48.05-.96.09-1.44.13-1.83,1.1-3.15,2.74-3.83,1.9-.78,3.84-1.54,5.83-2.01,3.85-.92,7.74-1.65,11.62-2.42.65-.13,1.34-.1,2.01-.06.76.05,1.39.34,1.69,1.13.3.79.12,1.49-.46,2.05-.5.48-1.07.89-1.62,1.31-1.18.9-2.45,1.7-3.55,2.7-1.85,1.69-2.06,2.84-1.09,5.14.45,1.06,1,2.07,1.53,3.09,2.05,3.93,4.06,7.89,6.21,11.78,1.02,1.84,2.25,3.57,3.46,5.3,1.3,1.87,2.99,3.3,5.07,4.26.28.13.55.29.82.46,1.68,1.09,1.71,3.37-.06,4.3-.94.49-2.08.7-3.15.85-1.97.26-3.99.22-5.95.58-2.21.41-4.35,1.16-6.54,1.67-1.18.27-2.41.54-3.6.49-1.83-.07-2.76-2.02-1.83-3.61.26-.45.66-.82.98-1.24.71-.9,1.44-1.8,2.12-2.72.7-.94.81-2.03.45-3.09-.47-1.43-.98-2.87-1.67-4.2-1.98-3.84-4.04-7.64-6.09-11.44-.31-.57-.67-1.11-1.08-1.61-.49-.6-.99-.54-1.24.19-.41,1.22-.74,2.48-1.03,3.74-1.73,7.58-3.08,15.23-4.16,22.94-.21,1.5-.39,3-.62,4.49-.06.37-.19.75-.36,1.09-.58,1.17-1.78,1.5-2.82.72-.65-.48-1.25-1.05-1.81-1.64-5.95-6.29-12.25-12.22-18.91-17.75-.06-.05-.1-.11-.17-.14-.36-.15-.72-.28-1.08-.43-.12.37-.32.72-.36,1.1-.06.67-.02,1.34-.02,1.92Z"/><path d="m362.61,114.51c-3.72-.05-7.04,1.3-10.28,2.94-4.65,2.36-8.86,5.4-12.99,8.53-3.98,3.02-7.85,6.18-11.77,9.27-.6.47-1.23.92-1.89,1.32-2.24,1.36-4.88.62-5.96-1.79-.51-1.14-.8-2.41-1.03-3.65-1.7-9.23-3.56-18.41-6.65-27.3-1.15-3.31-2.42-6.59-4.23-9.6-1.03-1.72-2.34-3.27-3.56-4.87-.53-.71-1.04-1.39-.79-2.35.28-1.07,1.2-1.77,2.58-1.77.88,0,1.81.03,2.63.32,5.81,2.09,11.79,3.56,17.69,5.33.92.28,1.81.77,2.61,1.32.52.36.96.95,1.24,1.54.5,1.05.09,2.11-.97,2.58-.78.35-1.63.55-2.44.85-.76.28-1.52.58-2.26.92-.99.45-1.44,1.29-1.53,2.35-.2,2.24.32,4.4.76,6.55,1.21,5.89,2.46,11.78,3.69,17.67.23,1.13.45,1.21,1.3.49,4.17-3.51,8.37-7,12.5-10.55,1.25-1.07,2.39-2.29,3.49-3.53,1.19-1.34,1.49-2.87.52-4.5-.62-1.05-1.23-2.11-1.86-3.16-.32-.54-.71-1.03-.98-1.59-.62-1.3.14-2.62,1.58-2.78,1.29-.14,2.49.22,3.59.84,1.88,1.06,3.7,2.22,5.59,3.27,2.54,1.4,5.13,2.71,7.68,4.11,1.3.71,2.58,1.47,3.8,2.32.87.61,1.53,1.45,1.78,2.54.3,1.32-.41,2.3-1.76,2.38-.69.04-1.39,0-2.09,0Z"/><path d="m273.35,79.74c3.97,0,8.17.67,12.2,2.21,2.36.91,4.79,1.34,7.31,1.4,1.07.03,2.16.19,3.2.45,1.52.37,2.15,1.39,1.81,2.93-.68,3.13-1.74,6.14-3.32,8.94-1.3,2.3-3.71,2.63-5.6.78-.67-.66-1.22-1.48-1.73-2.29-1.97-3.14-4.36-5.84-7.85-7.28-5.09-2.09-10.2-2.24-14.98.78-4.31,2.72-6.12,6.85-5.43,11.86,1.06,7.77,5.87,12.55,13,15.05,6.37,2.23,12.54,1.68,18.13-2.44,1-.74,1.89-1.64,2.91-2.35.52-.36,1.22-.61,1.84-.64,1.03-.05,1.63.66,1.49,1.67-.09.62-.29,1.29-.63,1.81-3.58,5.46-8.2,9.61-14.72,11.15-9.76,2.3-21.52-1.12-28.11-10.31-7.06-9.83-4.96-21.97,4.98-28.89,4.55-3.16,9.64-4.65,15.49-4.85Z"/></g></g></svg>