<svg width="817" height="535" viewBox="0 0 817 535" fill="none" xmlns="http://www.w3.org/2000/svg">
<path d="M-63.3151 -472.22H844.122V625.404H-63.3151V-472.22Z" fill="#E34E4E"/>
<path d="M792.951 -144.298C792.951 1.95373 674.391 120.514 528.14 120.514C381.889 120.514 263.328 1.95373 263.328 -144.298C263.328 -290.549 381.889 -409.109 528.14 -409.109C674.391 -409.109 792.951 -290.549 792.951 -144.298Z" fill="#EF495F"/>
<path d="M276.121 -217.217H578.885V-56.0272H276.121V-217.217Z" fill="#E34E4E"/>
<path d="M565.239 -322.971H704.254V191.301H565.239V-322.971Z" fill="#FFA229"/>
<path d="M806.597 294.923C806.597 420.92 704.456 523.061 578.458 523.061C452.461 523.061 350.319 420.92 350.319 294.923C350.319 168.925 452.461 66.7839 578.458 66.7839C704.456 66.7839 806.597 168.925 806.597 294.923Z" fill="#2BDFAD"/>
<path d="M405.755 318.802C405.755 421.72 322.324 505.151 219.406 505.151C116.489 505.151 33.0576 421.72 33.0576 318.802C33.0576 215.885 116.489 132.454 219.406 132.454C322.324 132.454 405.755 215.885 405.755 318.802Z" fill="#BC86FE"/>
<path d="M350.319 -170.31C350.319 -92.1205 286.935 -28.7357 208.745 -28.7357C130.556 -28.7357 67.1716 -92.1205 67.1716 -170.31C67.1716 -248.499 130.556 -311.883 208.745 -311.883C286.935 -311.883 350.319 -248.499 350.319 -170.31Z" fill="#2BDFAD"/>
<path d="M284.65 210.064H545.623V479.566H284.65V210.064Z" fill="#EF495F"/>
<path d="M170.367 -53.4686H360.553V294.496H170.367V-53.4686Z" fill="#E34E4E"/>
<path d="M-12.144 -73.9371H269.298V-5.70872H-12.144V-73.9371Z" fill="#E34E4E"/>
<path d="M-12.144 10.4956H269.298V222.856H-12.144V10.4956Z" fill="#EF495F"/>
<path d="M485.07 -53.4685C485.07 24.7206 421.685 88.1054 343.496 88.1054C265.307 88.1054 201.923 24.7206 201.923 -53.4685C201.923 -131.658 265.307 -195.042 343.496 -195.042C421.685 -195.042 485.07 -131.658 485.07 -53.4685Z" fill="#FFA229"/>
<path d="M386.992 -110.61H720.458V53.1384H386.992V-110.61Z" fill="#BC86FE"/>
<path d="M386.992 -259.859H720.458V-167.751H386.992V-259.859Z" fill="#BC86FE"/>
<path d="M64.6132 430.953H398.079V523.061H64.6132V430.953Z" fill="#E34E4E"/>
<path d="M518.332 64.2253H611.293V159.745H518.332V64.2253Z" fill="#2BDFAD"/>
<path d="M102.139 227.121H195.1V322.64H102.139V227.121Z" fill="#2BDFAD"/>
<path d="M143.076 268.911H386.992V367.842H143.076V268.911Z" fill="#FFA229"/>
<path d="M386.566 -110.61L530.961 139.49H242.171L386.566 -110.61Z" fill="#2BDFAD"/>
<path d="M250.109 274.881L323.599 402.169H176.619L250.109 274.881Z" fill="#E34E4E"/>
<path d="M343.497 131.601C343.497 172.58 310.277 205.799 269.298 205.799C228.32 205.799 195.1 172.58 195.1 131.601C195.1 90.6224 228.32 57.4026 269.298 57.4026C310.277 57.4026 343.497 90.6224 343.497 131.601Z" fill="#EF495F"/>
<path d="M288.061 -334.058H456.926V-217.217H288.061V-334.058Z" fill="#E34E4E"/>
<path d="M445.839 169.553C445.839 209.354 413.574 241.619 373.773 241.619C333.972 241.619 301.707 209.354 301.707 169.553C301.707 129.752 333.972 97.4867 373.773 97.4867C413.574 97.4867 445.839 129.752 445.839 169.553Z" fill="#BC86FE"/>
<path d="M195.1 16.0392C195.1 55.8403 162.834 88.1054 123.033 88.1054C83.2324 88.1054 50.9672 55.8403 50.9672 16.0392C50.9672 -23.7619 83.2324 -56.027 123.033 -56.027C162.834 -56.027 195.1 -23.7619 195.1 16.0392Z" fill="#BC86FE"/>
<path d="M439.016 159.745H597.647V323.493H439.016V159.745Z" fill="#FFA229"/>
<path d="M601.059 191.301L725.881 407.499H476.236L601.059 191.301Z" fill="#BC86FE"/>
</svg>
