<svg width="24" height="24" viewBox="0 0 24 24" fill="none" xmlns="http://www.w3.org/2000/svg">
<path d="M10 6.00049H13V7.00049H11V9.00049H10V6.00049Z" fill="currentColor"/>
<path d="M9 10.0005H10V9.00049H9V10.0005Z" fill="currentColor"/>
<path d="M7 10.0005V11.0005H9V10.0005H7Z" fill="currentColor"/>
<path d="M7 15.0005H6V10.0005H7V9.00049H5V16.0005H7V15.0005Z" fill="currentColor"/>
<path d="M9 15.0005V14.0005H7V15.0005H9Z" fill="currentColor"/>
<path d="M10 16.0005V15.0005H9V16.0005H10Z" fill="currentColor"/>
<path d="M13 17.0005H11V16.0005H10V18.0005H13V17.0005Z" fill="currentColor"/>
<path d="M16 16.0005H13V17.0005H16V16.0005Z" fill="currentColor"/>
<path d="M17 15.0005H16V16.0005H17V15.0005Z" fill="currentColor"/>
<path d="M18 14.0005H17V15.0005H18V14.0005Z" fill="currentColor"/>
<path d="M18 11.0005V14.0005H19V11.0005H18Z" fill="currentColor"/>
<path d="M17 10.0005V11.0005H18V10.0005H17Z" fill="currentColor"/>
<path d="M16 10.0005H17V9.00049H16V8.00049H14V7.00049H13V9.00049H16V10.0005Z" fill="currentColor"/>
<path d="M16 10.0005V12.0005H14V11.0005H15V10.0005H16Z" fill="currentColor"/>
</svg>
