<svg width="24" height="24" viewBox="0 0 24 24" fill="none" xmlns="http://www.w3.org/2000/svg">
<path fill-rule="evenodd" clip-rule="evenodd" d="M14 6.00049V5.00049H10V6.00049H9V7.00049H8V8.00049H7V9.00049L6 9.00183V10.0018H5V17.0018H6V18.0018H7V19.0018H17V18.0018H18V17.0018H19V10.0018H18V9.00183L17 9.00049V8.00049H16V7.00049H15V6.00049H14ZM14 6.00049V7.00049H15V8.00049H16V9.00049H17V11.0018H16V12.0018H15V13.0018H14V14.0018H10V13.0018H9V12.0018H8V11.0018H7V9.00049H8V8.00049H9V7.00049H10V6.00049H14ZM7 11.0018H6V17.0018H7V18.0018H17V17.0018H18V11.0018H17V12.0018H16V13.0018H15V14.0018H14V15.0018H10V14.0018H9V13.0018H8V12.0018H7V11.0018Z" fill="currentColor"/>
</svg>
