<svg width="24" height="24" viewBox="0 0 24 24" fill="none" xmlns="http://www.w3.org/2000/svg">
<path d="M6.99999 16.3334L6 16.3334V15.3334H7L6.99999 16.3334Z" fill="currentColor"/>
<path d="M6.99999 7.33337L6 7.33338V8.33338H7L6.99999 7.33337Z" fill="currentColor"/>
<path d="M6 15.3334L4.99999 15.3334V14.3334H5.99999L6 15.3334Z" fill="currentColor"/>
<path d="M6 8.33338L4.99999 8.33337V9.33337H5.99999L6 8.33338Z" fill="currentColor"/>
<path d="M19 6.33337V7.33337H6.99999V6.33337H19Z" fill="currentColor"/>
<path d="M20 16.3334L19 16.3334V7.33337L20 7.33338V16.3334Z" fill="currentColor"/>
<path d="M6.99999 17.3334V16.3334H19V17.3334H6.99999Z" fill="currentColor"/>
<path d="M3.99999 9.33337L4.99999 9.33337V14.3334L3.99999 14.3334V9.33337Z" fill="currentColor"/>
</svg>
