<svg width="24" height="24" viewBox="0 0 24 24" fill="none" xmlns="http://www.w3.org/2000/svg">
<path d="M16.0002 5.99988L15.0002 5.99988L15.0002 6.99988L16.0002 6.99988V5.99988Z" fill="currentColor"/>
<path d="M8.00025 16.9999L9.00025 16.9999V17.9999L8.00025 17.9999V16.9999Z" fill="currentColor"/>
<path d="M15.0002 5.99988V4.99988L6.00024 4.99988V5.99988L15.0002 5.99988Z" fill="currentColor"/>
<path d="M6.00024 5.99988L5.00024 5.99988L5.00025 8.99988L6.00024 8.99988L6.00024 5.99988Z" fill="currentColor"/>
<path d="M8.00024 6.99988L7.00024 6.99988V8.99988L6.00024 8.99988L6.00025 9.99988H7.00025L7.00025 16.9999H8.00025L8.00024 6.99988Z" fill="currentColor"/>
<path d="M14.0002 9.99988V8.99988H10.0002V9.99988L14.0002 9.99988Z" fill="currentColor"/>
<path d="M12.0002 12.9999V11.9999H10.0002V12.9999L12.0002 12.9999Z" fill="currentColor"/>
<path d="M10.0002 14.9999L10.0002 15.9999H18.0002V14.9999H17.0002L17.0002 6.99988L16.0002 6.99988L16.0002 14.9999L10.0002 14.9999Z" fill="currentColor"/>
<path d="M19.0002 15.9999H18.0002V17.9999L19.0002 17.9999V15.9999Z" fill="currentColor"/>
<path d="M9.00025 17.9999V18.9999L18.0002 18.9999V17.9999H9.00025Z" fill="currentColor"/>
</svg>
