<svg width="24" height="24" viewBox="0 0 24 24" fill="none" xmlns="http://www.w3.org/2000/svg">
<path d="M14 4V5H10V4H14Z" fill="currentColor"/>
<path d="M16 6H14V5H16V6Z" fill="currentColor"/>
<path d="M17 7V6H16V7H17Z" fill="currentColor"/>
<path d="M18 8H17V7H18V8Z" fill="currentColor"/>
<path d="M19 10V8H18V10H19Z" fill="currentColor"/>
<path d="M19 10H20V15H19V10Z" fill="currentColor"/>
<path fill-rule="evenodd" clip-rule="evenodd" d="M9 7V6H5V7H4V13H5V15H6V16H7V17H8V18H9V19H11V20H17V19H18V15H17V14H14V15H13V16H11V15H10V14H9V13H8V11H9V10H10V7H9ZM9 7V10H8V11H7V13H8V14H9V15H10V16H11V17H13V16H14V15H17V19H11V18H9V17H8V16H7V15H6V13H5V7H9Z" fill="currentColor"/>
<path d="M11 8V7H14V8H11Z" fill="currentColor"/>
<path d="M15 9H14V8H15V9Z" fill="currentColor"/>
<path d="M16 10H15V9H16V10Z" fill="currentColor"/>
<path d="M16 10H17V13H16V10Z" fill="currentColor"/>
</svg>
