<svg width="904" height="438" viewBox="0 0 904 438" fill="none" xmlns="http://www.w3.org/2000/svg">
<path d="M217.196 335.203H114.593V437.248H217.196V335.203Z" fill="#FFB224"/>
<path d="M114.334 324.216H216.937V227.746H114.334L114.334 324.216Z" fill="#FFB224"/>
<path d="M-7.62939e-06 324.216H102.603L102.603 227.746H-7.62939e-06L-7.62939e-06 324.216Z" fill="#FFB224"/>
<path d="M228.353 324.046C228.353 267.725 274.357 222 330.957 222V324.046H228.353Z" fill="#FFB224"/>
<path d="M342.719 437.54L445.322 437.54L445.322 335.495L342.719 335.495L342.719 437.54Z" fill="#FFB224"/>
<path d="M228.353 437.527L330.957 335.203H228.353V437.527Z" fill="#FFB224"/>
<path d="M445.55 324.046C445.55 267.725 399.546 222 342.947 222V324.046H445.55Z" fill="#FFB224"/>
<path d="M687 324.046C687 267.725 733.004 222 789.603 222V324.046H687Z" fill="#FFB224"/>
<path d="M687 335.203L789.603 437.527V335.203H687Z" fill="#FFB224"/>
<path d="M903.921 437.527C903.921 381.207 857.917 335.481 801.318 335.481V437.527H903.921Z" fill="#FFB224"/>
<path d="M673.895 335.203C673.895 391.523 627.89 437.248 571.291 437.248V335.203H673.895Z" fill="#FFB224"/>
<path d="M456.704 335.203C456.704 391.523 502.708 437.248 559.307 437.248V335.203H456.704Z" fill="#FFB224"/>
<path d="M508.006 324.046C536.339 324.046 559.307 301.202 559.307 273.023C559.307 244.844 536.339 222 508.006 222C479.672 222 456.704 244.844 456.704 273.023C456.704 301.202 479.672 324.046 508.006 324.046Z" fill="#FFB224"/>
<path d="M852.62 324.046C880.953 324.046 903.921 301.202 903.921 273.023C903.921 244.844 880.953 222 852.62 222C824.286 222 801.318 244.844 801.318 273.023C801.318 301.202 824.286 324.046 852.62 324.046Z" fill="#FFB224"/>
<path d="M102.609 335.203H76.1214V437.248H102.609V335.203Z" fill="#FFB224"/>
<path d="M64.4036 335.203H37.9163V437.248H64.4036V335.203Z" fill="#FFB224"/>
<path d="M26.4929 335.203H0.0055542V437.248H26.4929V335.203Z" fill="#FFB224"/>
<path d="M675.01 222H648.522V324.046H675.01V222Z" fill="#FFB224"/>
<path d="M636.814 222H610.326V324.046H636.814V222Z" fill="#FFB224"/>
<path d="M598.9 222H572.413V324.046H598.9V222Z" fill="#FFB224"/>
<path d="M217.196 102.046C217.196 45.7254 171.192 0 114.593 0V102.046H217.196Z" fill="#FFB224"/>
<path d="M217.196 113.196C217.196 169.517 171.192 215.242 114.593 215.242V113.196H217.196Z" fill="#FFB224"/>
<path d="M51.3042 102.046C79.6373 102.046 102.606 79.2021 102.606 51.0229C102.606 22.8437 79.6373 0 51.3042 0C22.971 0 0.00244141 22.8437 0.00244141 51.0229C0.00244141 79.2021 22.971 102.046 51.3042 102.046Z" fill="#FFB224"/>
<path d="M102.609 113.196H0.0055542V215.242H102.609V113.196Z" fill="#FFB224"/>
<path d="M675.016 102.046C675.016 45.7254 629.012 0 572.413 0V102.046H675.016Z" fill="#FFB224"/>
<path d="M675.016 113.196C675.016 169.517 629.012 215.242 572.413 215.242V113.196H675.016Z" fill="#FFB224"/>
<path d="M457.534 113.196C457.534 169.517 503.538 215.242 560.137 215.242V113.196H457.534Z" fill="#FFB224"/>
<path d="M457.534 102.046C457.534 45.7254 503.538 0 560.137 0V102.046H457.534Z" fill="#FFB224"/>
<path d="M445.55 102.046C445.55 45.7254 399.546 0 342.947 0V102.046H445.55Z" fill="#FFB224"/>
<path d="M445.55 215.242L342.947 113.196H445.55V215.242Z" fill="#FFB224"/>
<path d="M228.353 102.046C228.353 45.7254 274.357 0 330.957 0V102.046H228.353Z" fill="#FFB224"/>
<path d="M331.232 113.196H304.745V215.242H331.232V113.196Z" fill="#FFB224"/>
<path d="M293.036 113.196H266.549V215.242H293.036V113.196Z" fill="#FFB224"/>
<path d="M255.119 113.196H228.632V215.242H255.119V113.196Z" fill="#FFB224"/>
</svg>
